<svg id="Layer_1" xmlns="http://www.w3.org/2000/svg" viewBox="0 0 960 960"><style>.st0{fill:#475d67}.st1{fill:#78909c}.st2{fill:#b0bfc6}.st3{fill:#ff4181}.st4{fill:#c41162}</style><path class="st0" d="M716.9 172.3c69.4-52 138.7-104.2 208.2-156.1-26.1 32.7-53 64.8-79.3 97.3-27 32.9-53.8 65.9-80.8 98.7-12.8-16.7-29.6-30-48.1-39.9zm-63.7 165.3h49.9c8.9-.4 17.8 5 21.9 12.9 4.2 7.5 4 17.3-.5 24.7-3.8 6.8-11.3 11.3-19 12-6.1 1-11.1-3.5-15.4-7.1-14-12.5-25.6-27.5-36.9-42.5zm154.1 307.3c6.4-8.8 19.1-12.2 29.1-7.8 5.8 2.3 10.3 6.9 13 12.5 10.4 20.7 20.7 41.3 31 62 6.5 13.6 14 26.7 19.7 40.6-.7.4-2 1.2-2.6 1.6-14.3 7.2-30.4 10.6-46.3 9.8-15.2-31-30.9-61.8-46.2-92.7-4.2-8.2-3.3-18.7 2.3-26zm125.6-4.3c6-4.7 14.2-5.9 21.3-3 .3 9.7-2.7 19.1-4.1 28.6-4.7 18.7-11.1 36.8-17.3 55-1.7 4.3-2.3 9.5-6.4 12.4-1.2-2.6-2.1-5.3-2.8-8.1-4.1-15.4-7.8-31.1-8.5-47-1-14.6 6.2-29.2 17.8-37.9z"/><path class="st1" d="M673.2 42.5c.1-.5.5-1.6.6-2.2 3.2 12.9 4.3 26.3 4.5 39.6.6 23.5-1.8 47.1-7.8 69.9-6.1 23.8-16.1 46.5-29 67.4-8.8 17.6-21.8 33.8-39.5 42.9-14.2 7.4-31.3 8.3-46.5 3.4-4.9-1.7-8.6-6-10.5-10.7-2.8-6.8-1.3-14.5 1.5-21.1 1.8-4.9 6.7-7.4 10.4-10.7 44.7-37 83.4-83.1 105.1-137.6 5-13.2 9.7-26.8 11.2-40.9z"/><path class="st2" d="M663.8 58c3.5-4.9 6.1-10.5 9.4-15.5-1.6 14.1-6.2 27.7-11.3 40.9C640.2 137.8 601.5 184 556.8 221c-3.7 3.3-8.6 5.7-10.4 10.7-2.7 6.6-4.2 14.3-1.5 21.1 1.9 4.7 5.6 9 10.5 10.7 15.2 4.9 32.3 4 46.5-3.4 17.7-9.1 30.8-25.3 39.5-42.9 13.3 12 28.5 22.1 45.8 27.3 14.7 4.3 29.2 10.2 41.8 19.2 11.5 16.4 18.3 35.4 24.7 54.2 3.9 11.3 6.8 22.9 10.5 34.3 13.9 36.7 33.2 71.1 54.8 103.7 24.3 36.4 52.3 70.4 83.1 101.6 4.8 4.7 9.3 10 15.1 13.5 13.1 8.5 24.3 20.4 30.6 34.8 4.4 10 6.6 21 6.4 31.9-7.1-2.9-15.3-1.7-21.3 3-11.6 8.7-18.8 23.3-17.9 37.9.7 16 4.4 31.6 8.5 47 .7 2.8 1.6 5.5 2.8 8.1l.1.2c-8.9 7.6-18.2 15.1-29 19.9.7-.4 2-1.2 2.6-1.6-5.7-13.9-13.2-27-19.7-40.6-10.3-20.7-20.6-41.3-31-62-2.7-5.5-7.2-10.2-13-12.5-10-4.3-22.7-1-29.1 7.8-5.6 7.3-6.5 17.7-2.4 25.9 15.4 30.9 31 61.7 46.2 92.7-13.4-.6-26.4-4.8-38.6-10-9.5-4.2-19-9.5-25.2-18.1-7.8-10.8-6.3-25.7-15-36-7-8.1-16.4-14.8-27.2-16.4-40-8.9-77.5-26.8-112.2-48.4-23.5-14.6-45.8-31.1-68.5-46.8-15-10.2-30.2-20.6-47.4-26.5-8.7-2.9-19.2-5.1-27.1.8-13.6 9.8-21.6 25.2-29.5 39.6-21.3 42-37.1 86.5-54.7 130.1-18.4 46.3-37.4 92.4-60.5 136.5-11.7 22.1-24.2 43.8-38.8 64.2-46.9-3.8-93.4-18.3-132.6-44.6-32.6-21.4-59.5-50.4-81.5-82.4 9.1-22.6 16.5-46 20-70.1 8-52.4 13.1-105.2 21.7-157.6 5.6-35.7 19.7-69.6 38.2-100.5 3.2-4.5 5.7-9.5 9.3-13.7-5.7 14-11.3 28-15.2 42.6-7.2 25.8-10.6 52.6-10.5 79.3-.1 33.8 3.9 67.4 6.5 101.1 1.2 18.2 2 36.5 2.1 54.7 28.1-25.4 53.7-54.5 70.4-88.9 22.6-45.9 30.2-97.3 35-147.7 2.7-33.5 5-67.2 12-100.1 7.1-35.5 20.1-69.8 38.9-100.7 3.2-4.6 5.8-9.7 9.5-13.9-11.1 25.9-19.5 53-23.1 80.9-6.1 45.1-.3 90.6 3.4 135.7 1.8 24.5 3 49.2 2.1 73.8 40.7-53.4 66.5-116.6 84-181 6.6-23.8 11-48.1 17.8-71.8 9.8-35 22.6-69.5 41.4-100.7 15.2-24.3 35.5-46.8 62.2-58.6 4.3-2.5 7.2-6.8 10.9-10 17.7-17 39.4-29.2 61.6-39.2 29.1-13.6 55.2-34.4 73.4-61.1zm-10.6 279.6c11.4 15 22.9 30 36.9 42.6 4.3 3.6 9.3 8 15.4 7.1 7.7-.7 15.1-5.2 19-12 4.5-7.4 4.7-17.2.5-24.7-4.1-7.9-13-13.3-21.9-12.9-16.7-.1-33.3-.1-49.9-.1z"/><path class="st3" d="M316.1 167.6c60.4-33.2 127.8-56.4 197.3-58 21-.6 42.1.9 62.8 4.5 4.9 1.1 10 2.4 14.3 5.2-22.3 10-43.9 22.2-61.6 39.2-3.8 3.2-6.7 7.4-10.9 10-26.7 11.7-47 34.2-62.2 58.6-1.6 1.6-3.2 3.1-4.4 5-26.2 40.5-46.1 84.6-66.4 128.3-21.4 46.4-42.4 93.2-68.6 137.2-1.8 3.1-3.8 6.2-5.9 9.2-3.7-45.1-9.5-90.6-3.4-135.7 3.6-28 12-55.1 23.1-80.9-3.7 4.3-6.2 9.3-9.5 13.9-4.1 3.8-6.6 8.8-9.5 13.4-24.1 38.9-40.9 81.8-54.2 125.4-15.6 50.3-26.3 102-42.7 152.1-7 20.8-15.1 41.3-26.5 60.2-7.1 11.5-15.1 22.7-25.5 31.5-2.6-33.7-6.7-67.3-6.5-101.1 0-26.8 3.3-53.6 10.5-79.3 3.9-14.6 9.5-28.6 15.2-42.6-3.5 4.3-6.1 9.2-9.3 13.7-1.5 1.4-3.1 2.7-4.3 4.4-12.7 18.6-23.9 38.2-32.8 58.9-19.3 44-27.1 91.7-42.9 136.9-8 23.4-18.2 46.3-30.1 68.3l-1.2.8c-1.3-5.3-4.4-9.8-6.3-14.8-19-44.8-36.4-90.8-44.6-138.9-4.7-28.1-6.4-57.1-.2-85.1 5.2-22 14.8-42.6 25.5-62.4 18.2-33.4 40.4-64.6 64.4-94.1 26.8-32.8 56.3-63.5 87.9-91.8 39.4-35.1 82.2-66.5 128.5-92zm354.4-17.8c15.7 7.1 31.1 14.6 46.4 22.5 18.5 9.9 35.3 23.2 48.1 40 32.3 42 35.1 102.1 12.9 149.3-1.1-7.8-.9-15.7-2.5-23.4-4.9-29.6-21.3-57.5-46.3-74.6-12.6-9-27-14.8-41.8-19.2-17.2-5.2-32.5-15.3-45.8-27.3 12.9-20.8 22.9-43.5 29-67.3z"/><path class="st4" d="M451.3 231.9c1.2-1.9 2.8-3.4 4.4-5-18.8 31.2-31.6 65.7-41.4 100.7-6.8 23.7-11.1 48-17.8 71.8-17.4 64.4-43.3 127.6-84 181 .9-24.6-.3-49.3-2.1-73.8 2.1-3 4-6 5.9-9.2 26.2-44 47.2-90.8 68.6-137.2 20.3-43.6 40.2-87.7 66.4-128.3zm-140.1 85.5c3-4.6 5.4-9.7 9.5-13.4-18.8 30.9-31.9 65.2-38.9 100.7-7 33-9.3 66.6-12 100.1-4.8 50.4-12.4 101.8-35 147.7-16.7 34.3-42.3 63.4-70.4 88.9 0-18.3-.8-36.5-2.1-54.7 10.4-8.8 18.3-20 25.5-31.5 11.4-18.8 19.5-39.4 26.5-60.2 16.5-50.1 27.1-101.8 42.7-152.1 13.3-43.7 30.1-86.6 54.2-125.5zM167.9 481.6c1.1-1.7 2.7-3 4.3-4.4-18.5 30.9-32.6 64.8-38.2 100.5-8.6 52.3-13.7 105.2-21.7 157.6-3.4 24.2-10.9 47.5-20 70.1-11-18.2-20.6-37.3-29.7-56.5l-1.2-1 .6-2c11.9-22 22.1-44.8 30.1-68.5 15.7-45.2 23.5-93 42.9-136.9 9-20.7 20.2-40.3 32.9-58.9z"/></svg>