<svg viewBox="0 0 127 40" xmlns="http://www.w3.org/2000/svg">
    <g fill="#000" fill-rule="evenodd">
        <path d="M56.734 37.282L35.381.906C35.026.348 34.46 0 33.75 0c-.639 0-1.277.348-1.632.906l-11.28 19.233-3.617-6.202c-.355-.557-.923-.906-1.632-.906-.638 0-1.277.349-1.632.906L.266 37.282a1.676 1.676 0 000 1.812c.355.558.922.906 1.632.906H55.102c.639 0 1.277-.348 1.632-.906a1.676 1.676 0 000-1.812z"/>
        <path d="M85.16 31.28c.803 0 1.526-.14 2.17-.42a5.792 5.792 0 001.722-1.148V31h3.164v-8.932c0-1.848-.49-3.257-1.47-4.228-.98-.97-2.403-1.456-4.27-1.456-.896 0-1.699.145-2.408.434-.71.29-1.307.672-1.792 1.148a5.065 5.065 0 00-1.12 1.624 4.664 4.664 0 00-.392 1.862l3.164.112c0-.653.205-1.223.616-1.708.41-.485 1.064-.728 1.96-.728.896 0 1.545.266 1.946.798s.602 1.265.602 2.198v.42l-3.416.196a10.21 10.21 0 00-2.058.308 4.962 4.962 0 00-1.68.77c-.476.345-.85.784-1.12 1.316-.27.532-.406 1.18-.406 1.946 0 1.344.439 2.38 1.316 3.108.877.728 2.035 1.092 3.472 1.092zm.532-2.632c-.635 0-1.153-.121-1.554-.364s-.602-.663-.602-1.26c0-.653.238-1.115.714-1.386.476-.27 1.087-.425 1.834-.462l2.996-.196v.504c0 1.101-.313 1.904-.938 2.408s-1.442.756-2.45.756zM99.748 31V9.244h-3.136V31h3.136zm7.672 0v-8.204c0-1.008.294-1.843.882-2.506.588-.663 1.386-.994 2.394-.994.859 0 1.554.308 2.086.924.532.616.798 1.465.798 2.548V31h3.164v-8.736c.093-.859.41-1.568.952-2.128.541-.56 1.26-.84 2.156-.84.952 0 1.69.308 2.212.924.523.616.784 1.465.784 2.548V31h3.164v-8.708c0-.896-.13-1.703-.392-2.422a5.67 5.67 0 00-1.092-1.862 4.682 4.682 0 00-1.694-1.204c-.663-.28-1.395-.42-2.198-.42-1.139 0-2.095.247-2.87.742a5.376 5.376 0 00-1.806 1.862c-.467-.84-1.092-1.484-1.876-1.932-.784-.448-1.68-.672-2.688-.672-1.064 0-1.927.2-2.59.602-.663.401-1.18.92-1.554 1.554v-1.904h-2.968V31h3.136z" fill-rule="nonzero"/>
    </g>
</svg>
