<svg width="172" height="90" xmlns="http://www.w3.org/2000/svg">
    <g fill="#000" fill-rule="evenodd">
        <path d="M3.334 73.42h-.861v-7.201H0v-.791h5.812v.79H3.334v7.202zm3.574 0V65h.856v3.123h.023c.234-.41.809-.937 1.816-.937 1.266 0 2.21.802 2.21 2.29v3.944h-.862v-3.814c0-1.05-.615-1.63-1.576-1.63-1.125 0-1.611.81-1.611 1.688v3.756h-.856zm6.72 0v-6.135h.862v6.135h-.862zm-.152-7.629a.586.586 0 011.172 0 .59.59 0 01-.591.592.588.588 0 01-.58-.592h-.001zm2.678 3.217c0-1.26 1.055-1.822 2.22-1.822 1.448 0 2.14.85 2.14 1.81h-.815c-.03-.48-.34-1.072-1.36-1.072-.767 0-1.335.334-1.335.99 0 .71.78.879 1.523 1.026 1.143.21 2.139.498 2.139 1.705 0 1.213-.99 1.875-2.385 1.875-1.342 0-2.244-.674-2.244-1.729h.844c.082.563.574.99 1.47.99.979 0 1.46-.457 1.46-1.037 0-.726-.669-.867-1.57-1.054-1.155-.252-2.087-.586-2.087-1.682zm11.871 3.615c-.293.492-.867.897-1.804.897-1.19 0-2.004-.733-2.004-1.858 0-1.06.738-1.74 2.138-1.746h1.67v-.662c0-.861-.504-1.324-1.377-1.324-.843 0-1.306.416-1.377 1.066h-.814c.07-1.066.803-1.81 2.226-1.81 1.278 0 2.204.709 2.204 1.968v4.266h-.838v-.797h-.024zm-1.6.152c.915 0 1.6-.574 1.6-1.4v-.755h-1.64c-.897 0-1.278.428-1.278 1.026 0 .761.627 1.13 1.319 1.13l-.001-.001zm11.573-5.49l-1.617 6.135h-.89l-1.472-4.875h-.023l-1.477 4.875h-.883l-1.618-6.135h.873l1.196 4.975h.04l1.466-4.975h.826l1.465 4.975h.04l1.196-4.975h.879-.001zm3.451 6.235c-1.576 0-2.525-1.125-2.525-2.86v-.703c0-1.623.89-2.771 2.484-2.771 1.57 0 2.484 1.136 2.484 2.841v.54h-4.101v.123c0 1.248.621 2.085 1.687 2.085.774 0 1.26-.398 1.454-.984h.873c-.229.984-1.026 1.729-2.356 1.729zm-1.658-3.698h3.234v-.017c0-1.067-.644-1.875-1.617-1.875-.984 0-1.617.814-1.617 1.875v.017zm5.426-.814c0-1.26 1.054-1.822 2.22-1.822 1.448 0 2.139.85 2.139 1.81h-.814c-.03-.48-.34-1.072-1.36-1.072-.767 0-1.336.334-1.336.99 0 .71.78.879 1.524 1.026 1.142.21 2.138.498 2.138 1.705 0 1.213-.99 1.875-2.384 1.875-1.342 0-2.245-.674-2.245-1.729h.844c.082.563.574.99 1.47.99.98 0 1.46-.457 1.46-1.037 0-.726-.668-.867-1.57-1.054-1.155-.252-2.086-.586-2.086-1.682zm8.355-1.822c1.664 0 2.59 1.213 2.59 2.859v.604c0 1.652-.914 2.87-2.59 2.87-1.676 0-2.596-1.218-2.596-2.87v-.604c0-1.646.926-2.86 2.596-2.86v.001zm0 .755c-1.096 0-1.734.815-1.734 2.145v.516c0 1.33.638 2.15 1.734 2.15 1.09 0 1.729-.814 1.729-2.15v-.516c0-1.33-.639-2.145-1.729-2.145zm4.201 5.479v-6.135h.862v.768h.04c.2-.422.739-.867 1.565-.867.973 0 1.547.404 1.787 1.013h.035c.229-.527.868-1.013 1.887-1.013 1.283 0 2.063.785 2.063 2.062v4.172h-.862v-4.014c0-.826-.474-1.43-1.388-1.43-.932 0-1.442.657-1.442 1.524v3.92h-.861V69.5c0-.978-.522-1.523-1.4-1.523-.82 0-1.424.568-1.424 1.523v3.92h-.862zm12.34.1c-1.576 0-2.525-1.125-2.525-2.86v-.703c0-1.623.89-2.771 2.484-2.771 1.57 0 2.485 1.136 2.485 2.841v.54h-4.102v.123c0 1.248.621 2.085 1.687 2.085.774 0 1.26-.398 1.454-.984h.873c-.229.984-1.026 1.729-2.356 1.729zm-1.658-3.698h3.234v-.017c0-1.067-.644-1.875-1.617-1.875-.984 0-1.617.814-1.617 1.875v.017zm7.846.832v-.656c0-1.658.937-2.812 2.502-2.812 1.406 0 2.244.943 2.302 1.84h-.861a1.416 1.416 0 00-1.383-1.061c-1.066 0-1.699.78-1.699 2.08v.615c0 1.26.668 2.074 1.71 2.074.827 0 1.296-.445 1.413-.955h.861c-.205.979-.925 1.74-2.343 1.74-1.6 0-2.502-1.236-2.502-2.865zm8.666-3.468c1.664 0 2.59 1.213 2.59 2.859v.604c0 1.652-.915 2.87-2.59 2.87-1.676 0-2.596-1.218-2.596-2.87v-.604c0-1.646.926-2.86 2.596-2.86v.001zm0 .755c-1.096 0-1.735.815-1.735 2.145v.516c0 1.33.639 2.15 1.735 2.15 1.09 0 1.728-.814 1.728-2.15v-.516c0-1.33-.638-2.145-1.728-2.145zm4.2 5.479v-6.135h.862v.768h.041c.2-.422.738-.867 1.565-.867.972 0 1.547.404 1.787 1.013h.035c.228-.527.867-1.013 1.887-1.013 1.283 0 2.062.785 2.062 2.062v4.172h-.861v-4.014c0-.826-.475-1.43-1.389-1.43-.932 0-1.441.657-1.441 1.524v3.92h-.862V69.5c0-.978-.521-1.523-1.4-1.523-.82 0-1.424.568-1.424 1.523v3.92h-.862zm12.727.1c-.832 0-1.43-.422-1.763-.955h-.024v2.982h-.855v-8.262h.814v.914h.024c.34-.55.96-1.013 1.845-1.013 1.377 0 2.409 1.06 2.409 2.847v.639c0 1.781-1.026 2.848-2.45 2.848zm-.035-.768c.955 0 1.623-.75 1.623-2.162v-.522c0-1.335-.62-2.127-1.646-2.127-1.09 0-1.74.885-1.74 2.122v.527c0 1.289.662 2.162 1.763 2.162zm7.541-.129c-.293.492-.867.897-1.804.897-1.19 0-2.004-.733-2.004-1.858 0-1.06.738-1.74 2.138-1.746h1.67v-.662c0-.861-.504-1.324-1.377-1.324-.843 0-1.306.416-1.377 1.066h-.814c.07-1.066.803-1.81 2.226-1.81 1.278 0 2.204.709 2.204 1.968v4.266h-.838v-.797h-.024zm-1.6.152c.915 0 1.6-.574 1.6-1.4v-.755h-1.64c-.897 0-1.278.428-1.278 1.026 0 .761.627 1.13 1.319 1.13l-.001-.001zm4.272.645v-6.135h.861v.838h.024c.228-.41.803-.937 1.81-.937 1.266 0 2.21.802 2.21 2.29v3.944h-.862v-3.814c0-1.05-.615-1.63-1.576-1.63-1.125 0-1.606.81-1.606 1.688v3.756h-.861zm11.203-6.135l-2.215 6.194-.175.457c-.323.884-.733 1.705-1.928 1.705-.205 0-.434-.024-.586-.047v-.733c.1.018.316.036.451.036.72 0 1.031-.37 1.213-1.002l.117-.375-2.29-6.235h.96l1.752 5.133h.03l1.751-5.133h.92zm3.14 1.723c0-1.26 1.056-1.822 2.222-1.822 1.447 0 2.138.85 2.138 1.81h-.814c-.03-.48-.34-1.072-1.36-1.072-.767 0-1.336.334-1.336.99 0 .71.78.879 1.524 1.026 1.143.21 2.139.498 2.139 1.705 0 1.213-.99 1.875-2.385 1.875-1.342 0-2.244-.674-2.244-1.729h.843c.082.563.575.99 1.471.99.979 0 1.46-.457 1.46-1.037 0-.726-.669-.867-1.571-1.054-1.154-.252-2.086-.586-2.086-1.682h-.001zm10.788-1.723v6.135h-.861v-.838h-.035c-.217.498-.803.938-1.8.938-1.265 0-2.173-.721-2.173-2.121v-4.114h.861v3.867c0 1.16.674 1.577 1.541 1.577.961 0 1.6-.633 1.6-1.641v-3.803h.867zm4.523 6.235c-.832 0-1.43-.422-1.763-.955h-.024v2.982h-.855v-8.262h.814v.914h.024c.34-.55.96-1.013 1.845-1.013 1.377 0 2.409 1.06 2.409 2.847v.639c0 1.781-1.026 2.848-2.45 2.848zm-.035-.768c.955 0 1.623-.75 1.623-2.162v-.522c0-1.335-.62-2.127-1.646-2.127-1.09 0-1.74.885-1.74 2.122v.527c0 1.289.662 2.162 1.763 2.162zm6.756.768c-.832 0-1.43-.422-1.764-.955h-.023v2.982h-.855v-8.262h.814v.914h.023c.34-.55.961-1.013 1.846-1.013 1.377 0 2.408 1.06 2.408 2.847v.639c0 1.781-1.025 2.848-2.449 2.848zm-.035-.768c.955 0 1.623-.75 1.623-2.162v-.522c0-1.335-.621-2.127-1.646-2.127-1.09 0-1.74.885-1.74 2.122v.527c0 1.289.661 2.162 1.763 2.162zm6.44-5.566c1.663 0 2.59 1.213 2.59 2.859v.604c0 1.652-.915 2.87-2.59 2.87-1.676 0-2.596-1.218-2.596-2.87v-.604c0-1.646.926-2.86 2.595-2.86l.001.001zm0 .755c-1.096 0-1.735.815-1.735 2.145v.516c0 1.33.639 2.15 1.734 2.15 1.09 0 1.729-.814 1.729-2.15v-.516c0-1.33-.639-2.145-1.729-2.145h.001zm4.2 5.479v-6.135h.862v.791h.023c.188-.398.645-.885 1.553-.885.123 0 .252.012.37.024v.803a3.431 3.431 0 00-.475-.024c-1.102 0-1.471.715-1.471 1.612v3.814h-.862zm4.74-6.135v-1.54h.862v1.54h1.254v.733h-1.254v3.779c0 .756.246.943 1.026.943.105 0 .193 0 .28-.011v.709c-.164.027-.33.04-.497.04-1.4 0-1.67-.55-1.67-1.734v-3.726h-.838v-.733h.838-.001zm3.347 1.723c0-1.26 1.054-1.822 2.22-1.822 1.448 0 2.139.85 2.139 1.81h-.815c-.029-.48-.34-1.072-1.359-1.072-.767 0-1.336.334-1.336.99 0 .71.78.879 1.524 1.026 1.142.21 2.138.498 2.138 1.705 0 1.213-.99 1.875-2.385 1.875-1.341 0-2.244-.674-2.244-1.729h.844c.082.563.574.99 1.47.99.98 0 1.46-.457 1.46-1.037 0-.726-.668-.867-1.57-1.054-1.155-.252-2.086-.586-2.086-1.682zM19.251 85.298h.885c.076.792.738 1.495 2.056 1.495 1.16 0 1.922-.574 1.922-1.494 0-.72-.445-1.113-1.389-1.36l-1.382-.369c-.95-.252-1.846-.85-1.846-2.068 0-1.465 1.3-2.268 2.713-2.268 1.342 0 2.678.71 2.707 2.227h-.879c-.07-.785-.662-1.43-1.846-1.43-1.049 0-1.804.51-1.804 1.412 0 .627.38 1.061 1.183 1.272l1.354.37c1.26.339 2.086.896 2.086 2.155 0 1.547-1.307 2.35-2.93 2.35-2.074 0-2.8-1.283-2.83-2.291v-.001zm7.312 2.122v-6.135h.862v6.135h-.862zm-.152-7.629a.586.586 0 011.172 0 .59.59 0 01-.592.592.588.588 0 01-.58-.592zm2.936 7.629v-6.135h.86v.838h.024c.229-.41.803-.937 1.81-.937 1.266 0 2.21.802 2.21 2.29v3.944h-.861v-3.814c0-1.05-.616-1.63-1.577-1.63-1.125 0-1.605.81-1.605 1.688v3.756h-.861zm8.87-6.24c.862 0 1.495.45 1.794.984h.023V79h.861v8.42h-.814v-.955h-.024c-.328.603-.96 1.049-1.84 1.049-1.593 0-2.454-1.16-2.454-2.854v-.627c0-1.664.931-2.853 2.455-2.853h-.001zm.077.767c-.95 0-1.67.698-1.67 2.127v.557c0 1.406.709 2.115 1.682 2.115 1.095 0 1.746-.79 1.746-2.11v-.568c0-1.265-.668-2.12-1.758-2.12v-.001zm4.482 5.473v-6.135h.862v.791h.023c.188-.398.645-.885 1.553-.885.123 0 .252.012.369.024v.803a3.431 3.431 0 00-.475-.024c-1.101 0-1.47.715-1.47 1.612v3.814h-.862zm6.252.1c-1.576 0-2.525-1.125-2.525-2.86v-.703c0-1.623.89-2.771 2.484-2.771 1.57 0 2.485 1.136 2.485 2.841v.54H47.37v.123c0 1.248.621 2.085 1.687 2.085.774 0 1.26-.398 1.454-.984h.873c-.229.984-1.026 1.729-2.356 1.729zm-1.658-3.698h3.234v-.017c0-1.067-.644-1.875-1.617-1.875-.984 0-1.617.814-1.617 1.875v.017zm4.928-4.394h.843l-.105 2.379h-.633l-.105-2.38v.001zm2.244 3.58c0-1.26 1.055-1.822 2.22-1.822 1.448 0 2.14.85 2.14 1.81h-.815c-.03-.48-.34-1.072-1.36-1.072-.767 0-1.336.334-1.336.99 0 .71.78.879 1.524 1.026 1.142.21 2.139.498 2.139 1.705 0 1.213-.99 1.875-2.385 1.875-1.342 0-2.244-.674-2.244-1.729h.843c.082.563.575.99 1.471.99.979 0 1.46-.457 1.46-1.037 0-.726-.669-.867-1.571-1.054-1.154-.252-2.086-.586-2.086-1.682zm10.77-1.822c1.663 0 2.59 1.213 2.59 2.859v.604c0 1.652-.915 2.87-2.59 2.87-1.676 0-2.596-1.218-2.596-2.87v-.604c0-1.646.925-2.86 2.595-2.86l.001.001zm0 .755c-1.096 0-1.735.815-1.735 2.145v.516c0 1.33.639 2.15 1.734 2.15 1.09 0 1.729-.814 1.729-2.15v-.516c0-1.33-.639-2.145-1.729-2.145h.001zm6.86 5.579c-.831 0-1.429-.422-1.763-.955h-.023v2.982h-.856v-8.262h.815v.914h.023c.34-.55.961-1.013 1.846-1.013 1.377 0 2.408 1.06 2.408 2.847v.639c0 1.781-1.025 2.848-2.45 2.848zm-.034-.768c.955 0 1.623-.75 1.623-2.162v-.522c0-1.335-.621-2.127-1.647-2.127-1.09 0-1.74.885-1.74 2.122v.527c0 1.289.662 2.162 1.764 2.162zm6.369.768c-1.576 0-2.526-1.125-2.526-2.86v-.703c0-1.623.89-2.771 2.485-2.771 1.57 0 2.484 1.136 2.484 2.841v.54h-4.102v.123c0 1.248.622 2.085 1.688 2.085.773 0 1.26-.398 1.453-.984h.873c-.228.984-1.025 1.729-2.355 1.729zm-1.659-3.698h3.235v-.017c0-1.067-.645-1.875-1.617-1.875-.985 0-1.618.814-1.618 1.875v.017zm5.684 3.598v-6.135h.861v.838h.024c.228-.41.803-.937 1.81-.937 1.266 0 2.21.802 2.21 2.29v3.944h-.862v-3.814c0-1.05-.615-1.63-1.576-1.63-1.125 0-1.606.81-1.606 1.688v3.756h-.861zm8.824-4.412c0-1.26 1.055-1.822 2.221-1.822 1.447 0 2.139.85 2.139 1.81h-.815c-.03-.48-.34-1.072-1.36-1.072-.767 0-1.335.334-1.335.99 0 .71.78.879 1.523 1.026 1.143.21 2.139.498 2.139 1.705 0 1.213-.99 1.875-2.385 1.875-1.342 0-2.244-.674-2.244-1.729h.844c.082.563.574.99 1.47.99.98 0 1.46-.457 1.46-1.037 0-.726-.668-.867-1.57-1.054-1.155-.252-2.087-.586-2.087-1.682zm8.356-1.822c1.664 0 2.59 1.213 2.59 2.859v.604c0 1.652-.914 2.87-2.59 2.87-1.676 0-2.596-1.218-2.596-2.87v-.604c0-1.646.926-2.86 2.596-2.86v.001zm0 .755c-1.096 0-1.735.815-1.735 2.145v.516c0 1.33.64 2.15 1.735 2.15 1.09 0 1.728-.814 1.728-2.15v-.516c0-1.33-.638-2.145-1.728-2.145zm8.976-.656v6.135h-.861v-.838h-.035c-.217.498-.803.938-1.799.938-1.266 0-2.174-.721-2.174-2.121v-4.114h.862v3.867c0 1.16.673 1.577 1.54 1.577.961 0 1.6-.633 1.6-1.641v-3.803h.867zm1.864 6.135v-6.135h.861v.791h.023c.188-.398.645-.885 1.553-.885.123 0 .252.012.37.024v.803a3.431 3.431 0 00-.475-.024c-1.102 0-1.471.715-1.471 1.612v3.814h-.861zm3.726-2.766v-.656c0-1.658.938-2.812 2.502-2.812 1.406 0 2.244.943 2.303 1.84h-.861a1.416 1.416 0 00-1.383-1.061c-1.067 0-1.7.78-1.7 2.08v.615c0 1.26.668 2.074 1.711 2.074.827 0 1.295-.445 1.413-.955h.86c-.204.979-.925 1.74-2.343 1.74-1.6 0-2.502-1.236-2.502-2.865zm8.596 2.866c-1.576 0-2.525-1.125-2.525-2.86v-.703c0-1.623.89-2.771 2.484-2.771 1.57 0 2.484 1.136 2.484 2.841v.54h-4.101v.123c0 1.248.62 2.085 1.687 2.085.774 0 1.26-.398 1.453-.984h.873c-.228.984-1.025 1.729-2.355 1.729zm-1.658-3.698h3.234v-.017c0-1.067-.644-1.875-1.617-1.875-.984 0-1.617.814-1.617 1.875v.017zm15.398-2.537l-1.617 6.135h-.89l-1.471-4.875h-.024l-1.476 4.875h-.885l-1.617-6.135h.873l1.195 4.975h.041l1.465-4.975h.826l1.465 4.975h.04l1.196-4.975h.88-.001zm3.522-.1c1.664 0 2.59 1.214 2.59 2.86v.604c0 1.652-.915 2.87-2.59 2.87-1.676 0-2.596-1.218-2.596-2.87v-.604c0-1.646.926-2.86 2.596-2.86zm0 .756c-1.096 0-1.735.815-1.735 2.145v.516c0 1.33.639 2.15 1.735 2.15 1.09 0 1.728-.814 1.728-2.15v-.516c0-1.33-.639-2.145-1.728-2.145zm4.2 5.479v-6.135h.862v.791h.024c.187-.398.644-.885 1.552-.885.123 0 .252.012.37.024v.803a3.431 3.431 0 00-.475-.024c-1.102 0-1.47.715-1.47 1.612v3.814h-.863zm5.063-2.268v2.268h-.855V79h.855v5.063h.035l2.614-2.778h1.09l-2.485 2.649 2.637 3.486h-1.072l-2.198-2.924-.62.656h-.001z" fill-opacity=".6" fill-rule="nonzero"/>
        <path d="M78.734 37.282L57.381.906C57.026.348 56.46 0 55.75 0c-.639 0-1.277.348-1.632.906l-11.28 19.233-3.617-6.202c-.355-.557-.923-.906-1.632-.906-.638 0-1.277.349-1.632.906L22.266 37.282a1.676 1.676 0 000 1.812c.355.558.922.906 1.632.906H77.102c.639 0 1.277-.348 1.632-.906a1.676 1.676 0 000-1.812z"/>
        <path d="M103.16 31.28c.803 0 1.526-.14 2.17-.42a5.792 5.792 0 001.722-1.148V31h3.164v-8.932c0-1.848-.49-3.257-1.47-4.228-.98-.97-2.403-1.456-4.27-1.456-.896 0-1.699.145-2.408.434-.71.29-1.307.672-1.792 1.148a5.065 5.065 0 00-1.12 1.624 4.664 4.664 0 00-.392 1.862l3.164.112c0-.653.205-1.223.616-1.708.41-.485 1.064-.728 1.96-.728.896 0 1.545.266 1.946.798s.602 1.265.602 2.198v.42l-3.416.196a10.21 10.21 0 00-2.058.308 4.962 4.962 0 00-1.68.77c-.476.345-.85.784-1.12 1.316-.27.532-.406 1.18-.406 1.946 0 1.344.439 2.38 1.316 3.108.877.728 2.035 1.092 3.472 1.092zm.532-2.632c-.635 0-1.153-.121-1.554-.364s-.602-.663-.602-1.26c0-.653.238-1.115.714-1.386.476-.27 1.087-.425 1.834-.462l2.996-.196v.504c0 1.101-.313 1.904-.938 2.408s-1.442.756-2.45.756zM117.748 31V9.244h-3.136V31h3.136zm7.672 0v-8.204c0-1.008.294-1.843.882-2.506.588-.663 1.386-.994 2.394-.994.859 0 1.554.308 2.086.924.532.616.798 1.465.798 2.548V31h3.164v-8.736c.093-.859.41-1.568.952-2.128.541-.56 1.26-.84 2.156-.84.952 0 1.69.308 2.212.924.523.616.784 1.465.784 2.548V31h3.164v-8.708c0-.896-.13-1.703-.392-2.422a5.67 5.67 0 00-1.092-1.862 4.682 4.682 0 00-1.694-1.204c-.663-.28-1.395-.42-2.198-.42-1.139 0-2.095.247-2.87.742a5.376 5.376 0 00-1.806 1.862c-.467-.84-1.092-1.484-1.876-1.932-.784-.448-1.68-.672-2.688-.672-1.064 0-1.927.2-2.59.602-.663.401-1.18.92-1.554 1.554v-1.904h-2.968V31h3.136z" fill-rule="nonzero"/>
    </g>
</svg>
