<svg viewBox="0 0 1705 482.82" xmlns="http://www.w3.org/2000/svg"><path d="m356.46 731.88c106.19 0 191.87-85.3 191.87-190a188.73 188.73 0 0 0 -6-47.41q.09 2.91.09 5.85c0 99.63-81.68 180.07-182 180.07a15.83 15.83 0 0 1 0-31.66c83.24 0 150.39-66.62 150.39-148.41q0-3.53-.17-7c-16.24 62.78-78.48 107.94-150.22 107.94a15.83 15.83 0 1 1 0-31.66c69.37 0 122.69-50.25 122.69-108.83 0-52.29-42.49-98-100.95-107.15a196.09 196.09 0 0 0 -25.77-1.62h-.06c-106.2 0-191.88 85.28-191.88 190a188.05 188.05 0 0 0 6.12 47.74c-.12-2.71-.19-5.43-.19-8.17 0-100.89 83.63-182 186-182a15.83 15.83 0 1 1 0 31.66c-85.6 0-154.35 67.67-154.35 150.38q0 4.51.27 9c16.71-63 80.81-107.9 154.08-107.9a15.83 15.83 0 1 1 0 31.66c-72 0-126.64 50.65-126.64 108.83s54.64 108.84 126.64 108.84zm-.07-431.37c-134.2 0-243.39 107.86-243.39 241.41s109.16 241.37 243.32 241.4h.07c134.19 0 243.39-107.86 243.39-241.4s-109.17-241.39-243.35-241.41zm373.08 300.67a9 9 0 0 0 .12 1.48 136 136 0 1 0 61.33-119.66v-81.6a59.18 59.18 0 0 0 -59.17-59.18 2.28 2.28 0 0 0 -2.28 2.28zm136.07 70.23c41.21 0 74.61-34.39 74.61-76.81s-33.4-76.82-74.61-76.82-74.62 34.39-74.62 76.82 33.4 76.81 74.62 76.81zm207.62-256.69c20.88 0 36.44-14.8 36.44-36.06 0-20.88-15.56-36.45-36.44-36.45-21.26 0-36.44 15.57-36.44 36.45 0 21.26 15.18 36.06 36.44 36.06zm-32.06 308.83a8.79 8.79 0 0 0 8.78 8.78h44.12a8.78 8.78 0 0 0 8.78-8.78v-264.93a2.29 2.29 0 0 0 -2.28-2.29 59.35 59.35 0 0 0 -59.35 59.35zm237.47-52.55c6-.53 12.19 4 12.19 10v41.09a8 8 0 0 1 -6.73 8.09 194.1 194.1 0 0 1 -28.55 1.92c-54.47 0-71.64-43.54-71.64-79.88v-125.48a8.78 8.78 0 0 0 -8.78-8.78h-19.84a8.78 8.78 0 0 1 -8.77-8.78v-41.43a8.78 8.78 0 0 1 8.77-8.78h19.84a8.78 8.78 0 0 0 8.78-8.78v-104.12a3.86 3.86 0 0 1 3.86-3.86 57.78 57.78 0 0 1 57.77 57.79v51.68a7.3 7.3 0 0 0 7.3 7.3h29.74a8.78 8.78 0 0 1 8.78 8.78v41.43a8.78 8.78 0 0 1 -8.78 8.78h-28.26a8.78 8.78 0 0 0 -8.78 8.78v117.62c0 18.43 8.42 26.86 27.91 26.86 1.83 0 3.62-.09 5.19-.23zm120.72 23.68c0 21.26-15.56 36.07-36.44 36.07-21.26 0-36.44-14.81-36.44-36.07 0-20.88 15.18-36.44 36.44-36.44 20.88 0 36.44 15.56 36.44 36.44zm109.73-316c0 21.26-15.56 36.06-36.44 36.06-21.26 0-36.44-14.8-36.44-36.06 0-20.88 15.18-36.45 36.44-36.45 20.88-.02 36.42 15.55 36.42 36.43zm-59.72 353.65a8.78 8.78 0 0 1 -8.77-8.78v-207.87a59.34 59.34 0 0 1 59.34-59.35 2.29 2.29 0 0 1 2.28 2.29v264.93a8.78 8.78 0 0 1 -8.78 8.78zm368.7-135.54a136.07 136.07 0 1 1 -136.07-136.07 136.07 136.07 0 0 1 136.07 136.07zm-61.45-2.19c0 42.42-33.41 76.81-74.62 76.81s-74.61-34.39-74.61-76.81 33.4-76.82 74.61-76.82 74.62 34.39 74.62 76.82z" fill="#fdbd28" fill-rule="evenodd" transform="translate(-113 -300.51)"/></svg>