<svg width="621" height="196" viewBox="0 0 621 196" fill="none" xmlns="http://www.w3.org/2000/svg">
<path d="M536 81.5C525.6 81.4 519.2 87.8 520.8 103.6C529.9 100 539.2 95.7 548.5 90.5C545.8 82.4 538.8 81.5 536 81.5ZM540 148C513.7 147.8 497.4 131 497.4 104C497.4 77.3 512.6 60.7 537.1 60.7C557.7 60.7 570.6 73.6 574.5 98C560.3 107.4 544.5 115.7 527.9 122.1C527.9 122.1 532.2 125.2 541.1 125.1H573.5V148H540ZM288.2 148V98.6C288.2 87.5 285.2 84.3 274.9 84.3H263.9V148H240.8V61.7H277.5C300.2 61.7 311.2 72.1 311.2 93.6V148H288.2ZM358.5 148C332.1 148 315.7 131.7 315.7 105.1C315.7 78.3 332 61.8 358.3 61.8H368.3V85.4H359.9C346.9 85.6 339.5 92.8 339.5 105.2C339.5 117.2 346.9 124.2 359.9 124.3H368.7V148H358.5ZM452.6 148V93.6C452.6 72.1 463.6 61.7 486.3 61.7H497V84.3H489C478.7 84.3 475.7 87.5 475.7 98.6V148H452.6ZM198.2 81.5C187.8 81.4 181.4 87.8 183 103.6C192.1 100 201.4 95.7 210.7 90.5C208 82.4 201 81.5 198.2 81.5ZM202.2 148C175.9 147.8 159.6 131 159.6 104C159.6 77.3 174.8 60.7 199.3 60.7C219.9 60.7 232.8 73.6 236.7 98C222.5 107.4 206.7 115.7 190.1 122.1C190.1 122.1 194.4 125.2 203.3 125.1H235.7V148H202.2ZM136.7 125V148H45.8V78.6C60.2 75.5 74.5 71.5 88.4 66.6C105 60.8 121.1 53.9 136.7 45.8V71.4C123.5 77.8 109.8 83.4 95.9 88.3C80.2 93.8 64.1 98.2 47.8 101.6V101.8C77.9 99 107.5 94.1 136.7 87.3V110.8C107.5 117.4 77.8 122.1 47.8 124.8V125H136.7ZM370.5 104.8C370.5 132.5 385.1 149.7 409.3 149.7C433.5 149.7 448.1 132.5 448.1 104.8C448.2 90.1 444.3 78.7 436.6 71C429.9 64.2 420.2 60.5 409.3 60.5C398.4 60.5 388.7 64.2 382 71C374.3 78.8 370.4 90.2 370.5 104.8ZM392.7 105.2C392.7 92.1 399.4 83.2 409.3 83.2C419.2 83.2 425.9 92 425.9 105.2C425.9 118.3 419.3 126.8 409.3 126.8C399.3 126.8 392.7 118.3 392.7 105.2Z" fill="#111111"/>
</svg>
