<svg fill="none" height="633" viewBox="0 0 1507 633" width="1507" xmlns="http://www.w3.org/2000/svg"><path d="m0 632.312v-560.8115c0-6.6274 5.37258-12 12-12h96.5c6.627 0 12-5.3726 12-12v-35.5c0-6.62743 5.373-12.00001172 12-12.00001172h317.5v197.41951172c0 6.628-5.373 12-12 12h-96.5c-6.627 0-12 5.373-12 12v186.08c0 6.628-5.373 12-12 12h-96c-6.627 0-12 5.373-12 12v188.812c0 6.628-5.373 12-12 12z" fill="#bee786"/><g fill="#1a1b1d"><path d="m698.842 113.838v43.946h82.474v42.441h-82.474v82.775h-50.869v-213.1075h140.266v43.9455z"/><path d="m874.722 217.683h-6.321c-5.418 0-10.936.301-16.555.903-5.418.402-10.334 1.305-14.749 2.709-4.214 1.405-7.725 3.512-10.535 6.321-2.809 2.609-4.214 6.121-4.214 10.535 0 2.81.602 5.218 1.806 7.224 1.405 2.007 3.111 3.612 5.117 4.816 2.007 1.204 4.315 2.107 6.923 2.709 2.609.402 5.117.602 7.525.602 10.034 0 17.659-2.709 22.876-8.127 5.418-5.618 8.127-13.143 8.127-22.575zm-90.601-64.113c8.83-8.428 19.064-14.749 30.702-18.963 11.84-4.214 23.88-6.321 36.12-6.321 12.642 0 23.278 1.606 31.906 4.816 8.83 3.01 15.953 7.826 21.371 14.448 5.418 6.422 9.331 14.649 11.739 24.682 2.609 9.833 3.913 21.572 3.913 35.217v75.551h-45.15v-15.953h-.903c-3.812 6.221-9.632 11.037-17.458 14.448-7.625 3.412-15.953 5.117-24.983 5.117-6.02 0-12.24-.802-18.662-2.408-6.421-1.605-12.341-4.214-17.759-7.826-5.217-3.612-9.531-8.428-12.943-14.448-3.411-6.02-5.117-13.444-5.117-22.274 0-10.836 2.91-19.565 8.729-26.187 6.02-6.622 13.646-11.739 22.876-15.351 9.432-3.612 19.866-6.02 31.304-7.224s22.575-1.806 33.411-1.806v-2.408c0-7.424-2.608-12.842-7.826-16.254-5.217-3.612-11.638-5.418-19.264-5.418-7.023 0-13.846 1.505-20.468 4.515-6.421 3.01-11.939 6.622-16.555 10.836z"/><path d="m1130.09 283v-81.872c0-4.214-.3-8.227-.9-12.04-.6-4.013-1.71-7.424-3.31-10.234-1.61-2.809-3.81-5.016-6.62-6.622-2.61-1.806-6.12-2.709-10.54-2.709-4.21 0-7.92.903-11.14 2.709-3.01 1.806-5.61 4.214-7.82 7.224-2.01 3.01-3.51 6.522-4.52 10.535-1 3.813-1.5 7.826-1.5 12.04v80.969h-49.37v-85.484c0-8.628-1.7-15.451-5.11-20.468-3.41-5.016-8.83-7.525-16.26-7.525-7.82 0-13.943 3.111-18.357 9.331-4.214 6.221-6.321 13.846-6.321 22.876v81.27h-49.665v-149.898h47.859v20.769h.602c1.806-3.21 4.013-6.321 6.622-9.331 2.809-3.01 6.12-5.618 9.93-7.826 3.82-2.408 8.03-4.314 12.64-5.719 4.82-1.404 10.04-2.107 15.66-2.107 10.83 0 19.96 2.208 27.39 6.622 7.62 4.415 13.54 10.736 17.76 18.963 5.01-7.826 11.43-14.046 19.26-18.662 7.83-4.615 17.36-6.923 28.6-6.923 10.23 0 18.76 1.907 25.58 5.719 7.02 3.612 12.64 8.428 16.86 14.448 4.21 5.82 7.22 12.442 9.03 19.866 2 7.224 3.01 14.348 3.01 21.371v92.708z"/><path d="m1301.91 190.894c0-7.826-2.51-14.548-7.52-20.167-4.82-5.618-12.14-8.428-21.98-8.428-4.81 0-9.23.803-13.24 2.408-4.01 1.405-7.52 3.412-10.53 6.02-3.01 2.609-5.42 5.719-7.23 9.331-1.8 3.412-2.81 7.024-3.01 10.836zm45.45 18.963v6.02c0 2.007-.1 3.913-.3 5.719h-108.66c.4 4.214 1.61 8.027 3.61 11.438 2.21 3.412 4.92 6.422 8.13 9.03 3.41 2.408 7.12 4.315 11.14 5.719 4.21 1.405 8.53 2.107 12.94 2.107 7.83 0 14.45-1.404 19.87-4.214 5.41-3.01 9.83-6.822 13.24-11.438l34.31 21.672c-7.02 10.234-16.35 18.161-27.99 23.779-11.44 5.418-24.78 8.127-40.03 8.127-11.24 0-21.87-1.705-31.91-5.117-10.03-3.612-18.86-8.729-26.49-15.351-7.42-6.822-13.34-15.15-17.76-24.983-4.21-9.832-6.32-21.07-6.32-33.712 0-12.24 2.11-23.277 6.32-33.11 4.22-10.033 9.94-18.461 17.16-25.284 7.23-7.023 15.75-12.441 25.59-16.254 9.83-3.812 20.47-5.719 31.9-5.719 11.04 0 21.17 1.907 30.4 5.719 9.23 3.612 17.16 8.93 23.78 15.953 6.62 7.024 11.74 15.552 15.35 25.585 3.82 10.034 5.72 21.472 5.72 34.314z"/><path d="m622.52 567v-89.096h-83.076v89.096h-51.471v-213.108h51.471v80.668h83.076v-80.668h51.471v213.108z"/><path d="m800.312 474.894c0-7.826-2.508-14.548-7.525-20.167-4.816-5.618-12.14-8.428-21.973-8.428-4.816 0-9.23.803-13.244 2.408-4.013 1.405-7.525 3.412-10.535 6.02-3.01 2.609-5.418 5.719-7.224 9.331-1.806 3.412-2.809 7.024-3.01 10.836zm45.451 18.963v6.02c0 2.007-.1 3.913-.301 5.719h-108.661c.402 4.214 1.606 8.027 3.612 11.438 2.208 3.412 4.917 6.422 8.127 9.031 3.412 2.408 7.124 4.314 11.137 5.719 4.214 1.404 8.529 2.107 12.943 2.107 7.826 0 14.448-1.405 19.866-4.214 5.418-3.01 9.833-6.823 13.244-11.439l34.314 21.672c-7.023 10.234-16.354 18.161-27.993 23.78-11.438 5.418-24.782 8.126-40.033 8.126-11.237 0-21.872-1.705-31.906-5.117-10.033-3.612-18.862-8.728-26.488-15.35-7.424-6.823-13.344-15.151-17.759-24.984-4.214-9.832-6.321-21.07-6.321-33.712 0-12.24 2.107-23.277 6.321-33.11 4.214-10.033 9.933-18.461 17.157-25.284 7.224-7.023 15.753-12.441 25.585-16.254 9.833-3.812 20.468-5.719 31.906-5.719 11.037 0 21.171 1.907 30.401 5.719 9.231 3.612 17.157 8.93 23.779 15.953 6.622 7.024 11.739 15.552 15.351 25.585 3.813 10.034 5.719 21.472 5.719 34.314z"/><path d="m858.918 567v-227.556h49.966v227.556z"/><path d="m1018.1 461.349c-4.01-3.812-8.73-7.023-14.14-9.632-5.423-2.608-11.142-3.913-17.162-3.913-4.615 0-8.929.903-12.943 2.709-3.812 1.806-5.719 4.917-5.719 9.331 0 4.214 2.107 7.224 6.321 9.03 4.415 1.806 11.438 3.813 21.07 6.02 5.623 1.204 11.233 2.91 16.853 5.117 5.82 2.208 11.04 5.117 15.66 8.729 4.61 3.612 8.32 8.027 11.13 13.244 2.81 5.218 4.22 11.438 4.22 18.662 0 9.432-1.91 17.458-5.72 24.081-3.82 6.421-8.83 11.638-15.05 15.651-6.02 4.014-12.85 6.923-20.47 8.729-7.626 1.806-15.251 2.709-22.877 2.709-12.24 0-24.28-1.906-36.12-5.719-11.638-4.013-21.371-9.832-29.197-17.458l27.692-29.196c4.415 4.816 9.833 8.829 16.254 12.039 6.422 3.211 13.244 4.816 20.468 4.816 4.014 0 7.927-.903 11.739-2.709 4.014-2.006 6.02-5.418 6.02-10.234 0-4.615-2.408-8.026-7.224-10.234-4.816-2.207-12.341-4.515-22.575-6.923-5.217-1.204-10.434-2.809-15.652-4.816-5.217-2.006-9.933-4.715-14.147-8.127-4.013-3.411-7.324-7.625-9.933-12.642-2.608-5.016-3.913-11.036-3.913-18.06 0-9.03 1.907-16.655 5.719-22.876 3.813-6.421 8.729-11.638 14.749-15.652 6.02-4.013 12.642-6.923 19.866-8.729 7.425-2.006 14.749-3.01 21.973-3.01 11.238 0 22.178 1.806 32.808 5.418 10.84 3.412 19.97 8.629 27.39 15.652z"/><path d="m1107.4 369.243c0 3.813-.8 7.425-2.41 10.836-1.4 3.211-3.41 6.02-6.02 8.428-2.4 2.408-5.41 4.315-9.03 5.72-3.41 1.404-7.02 2.106-10.83 2.106-8.03 0-14.75-2.608-20.17-7.826-5.42-5.418-8.13-11.839-8.13-19.264 0-3.612.71-7.023 2.11-10.234 1.41-3.411 3.41-6.321 6.02-8.729s5.62-4.314 9.03-5.719c3.41-1.605 7.13-2.408 11.14-2.408 3.81 0 7.42.703 10.83 2.107 3.62 1.405 6.63 3.311 9.03 5.719 2.61 2.408 4.62 5.318 6.02 8.729 1.61 3.211 2.41 6.723 2.41 10.535zm-52.97 197.757v-149.898h49.36v149.898z"/><path d="m1223.26 567v-81.872c0-4.214-.4-8.227-1.21-12.039-.6-3.813-1.7-7.124-3.31-9.934-1.6-3.01-3.91-5.317-6.92-6.923-2.81-1.806-6.42-2.709-10.84-2.709-4.41 0-8.32.903-11.74 2.709-3.21 1.606-5.92 3.913-8.12 6.923-2.21 3.01-3.92 6.522-5.12 10.535-1 3.813-1.5 7.826-1.5 12.04v81.27h-49.67v-149.898h47.86v20.769h.6c1.81-3.21 4.11-6.321 6.92-9.331 3.01-3.21 6.43-5.919 10.24-8.127 4.01-2.207 8.33-4.013 12.94-5.418 4.62-1.404 9.53-2.107 14.75-2.107 10.03 0 18.56 1.806 25.59 5.418 7.02 3.612 12.64 8.328 16.85 14.147 4.42 5.619 7.53 12.141 9.33 19.565 2.01 7.425 3.01 14.85 3.01 22.274v92.708z"/><path d="m1453.28 567h-61.1l-49.06-71.939h-.9v71.939h-49.67v-227.556h49.67v138.46h.9l47.86-60.802h59.9l-57.8 67.725z"/><path d="m1506.78 369.243c0 3.813-.8 7.425-2.41 10.836-1.4 3.211-3.41 6.02-6.02 8.428-2.41 2.408-5.42 4.315-9.03 5.72-3.41 1.404-7.02 2.106-10.83 2.106-8.03 0-14.75-2.608-20.17-7.826-5.42-5.418-8.13-11.839-8.13-19.264 0-3.612.7-7.023 2.11-10.234 1.4-3.411 3.41-6.321 6.02-8.729s5.62-4.314 9.03-5.719c3.41-1.605 7.12-2.408 11.14-2.408 3.81 0 7.42.703 10.83 2.107 3.61 1.405 6.62 3.311 9.03 5.719 2.61 2.408 4.62 5.318 6.02 8.729 1.61 3.211 2.41 6.723 2.41 10.535zm-52.98 197.757v-149.898h49.37v149.898z"/></g></svg>
