<svg viewBox="260.56 154.27 558.89 721.45" xmlns="http://www.w3.org/2000/svg" xmlns:xlink="http://www.w3.org/1999/xlink"><linearGradient id="a" gradientUnits="userSpaceOnUse" x1="604.58" x2="721.19" y1="298.81" y2="201.23"><stop offset=".1" stop-color="#f2e264" stop-opacity="0"/><stop offset="1" stop-color="#f2e264"/></linearGradient><path d="m809.92 514.53s-9.23 19.04-41.21 20.82-76 6.03-92.66 5.69-73.12 6.74-76.12 8.85c-3.01 2.11-33.95 7.32-45.25 10.96s-36.42 11.79-54.8 8.61-38.61-2.14-52.89-8.61-54.5-24.32-66.52-27.3c-12.02-2.97-43.47-7.04-57.23-9.85s-44.92-18.12-44.92-18.12l-9.46-15.64 27.9-14.4s33.32-36.59 34.51-38.38 35.83-43.92 35.83-43.92l15.71-21.13 29.04-28.2.24-4.33s-8.33-10.31-10.91-14.28-19.44-24.99-23.2-36.29c-3.77-11.3-11.63-34.47-13.29-38.79s-11.35-29.02-11.85-35.29-1.56-12.16-1.92-15.88-1.45-29.18-1.45-29.18l3.22-6.85 18.44 9.52 69.76 44.18 49.98 52.8 8.63 9.37s30.34-14.28 41.8-16.66 13.09-2.68 13.09-2.68 4.16-.3 13.09-1.04c8.92-.74 8.03 16.21 4.76 22.16s17.85 5.5 17.85 5.5l13.98-6.4s33.02-35.55 52.21-44.33 63.51-31.68 70.21-34.21c6.69-2.53 24.69-12.89 26.18-13.59s4.31-10.07 11.3 2.43c6.99 12.49 13.24 35.25 13.39 35.7s9.37 76.01 9.37 76.01-3.12 24.44-6.4 39.67-12.94 54.94-16.06 62.67-6.54 15.69-11.6 22.87-9.37 13.13-4.76 26.22 21.47 32.72 28.66 38.23c7.19 5.5 16.86 8.63 22.81 11.01s12.72 1.61 12.72 1.61l-2.16 10.44z" fill="#fd953a"/><path d="m436.07 598.42s-19.52 26.08-18.88 52.65c0 0 8.89-13.95 18.4-16.94 0 0 5.54 17.51 7.87 26.44s20.12 49.12 29.87 64.53 33.9 58.37 37.6 68.71l3.7 10.34s7.43 15.75 5.67 35.23c-1.77 19.47 1.86 22.41-5.08 27.17s-25.19 4.36-37.68-3.17c-12.49-7.54-42.84-41.88-60.09-68.64s-41.45-74.95-35.7-116.8 22.81-83.3 33.52-86.67 20.82 7.14 20.82 7.14z" fill="#fd953a"/><path d="m569.57 860.66s-51.91 26.67-48.43-17.68 13.59-68.34 26.75-85.96c13.15-17.62 44.27-57.06 51.21-78.08s5.55-36.69 5.55-36.69 10.78 12.07 12.28 16.15 2.52-8.46 1.47-12.38c-1.06-3.92-11.37-33.81-15.53-38.87s16.56-8.33 16.56-8.33l27.91-.4s8.58 13.54 11.75 18.44 18.1 34.22 18.64 47 3.37 43.93 0 52.26-27.04 60.22-43.21 79.27-47.31 53.54-51.59 57.97-13.36 7.29-13.36 7.29z" fill="#fd953a"/><path d="m580.26 853.96s70.11-64.82 84.51-105.75 18.66-61.07 18.66-61.07 26.15 26.04 27.72 38.31 4.43 64.38-2.68 75.86-22.55 28.58-29.11 37.19c-6.56 8.6-39.61 20.53-55.97 22.17-16.36 1.63-43.14-6.7-43.14-6.7z" fill="#fd953a"/><path d="m467.88 855.69s-84.56 8.98-115.8-87.1c0 0-15.47-64.73 25.88-81.45 0 0 3.72 56.16 39.2 109.12 0 0 46.04 53.27 50.72 60.84" fill="#fd953a"/><path d="m534.34 531.47c-.21-.47-.36-.96-.49-1.46-1.03-4.17-5.78-24.49-5.95-46.22 0 0-1.58-39.86 19.44-68.22s39.07-32.92 45.12-38.48c5.87-5.39 20.6-18.24 17.5-44.88-.2-1.7.05-3.43.76-4.99 5.38-11.9 27.32-57.25 66.73-82.01 43.23-27.17 65.84-37.48 73.78-46.8.25-.29 2.86-6.64 3.09-6.92 4.33-5.24 10.25 1.68 13.29 7.77 5.25 10.53 11.3 24.47 12.28 34.45 1.78 18.15 11.6 68.32 3.57 102.58-7.64 32.6-22.29 75.12-37.02 97.62-1.42 2.17-1.9 4.82-1.29 7.34 3.76 15.66 12.96 46.78 53.78 59.25.63.19 1.25.43 1.83.75.22.12.5.26.84.41 5.38 2.41 7.12 9.2 3.7 14-9.96 13.96-28.66 35.67-44.53 46.63-.75.52-1.57.91-2.44 1.18-18.5 5.83-120.38 32.89-143.55 36.36-23.58 3.54-69.56-43.36-80.43-68.33z" fill="#e45c01"/><path d="m483.57 505.6s-24.69-22.81-72.88-23.6c0 0 30.94-33.72 72.88 23.6z" fill="#e45c01"/><path d="m341.08 172.49s11.01 10.34 19.93 17.78 45.52 45.22 55.33 64.85c9.82 19.63 19.54 35.7 18.35 51.96s-23.1 48.89-23.1 48.89l94.11-64.59-18.44-29.32-54.54-51.76-69.22-37.81-14.22-9.2-8.19 9.2" fill="#943c10"/><path d="m597.81 310.05s-6.25 9.92-6.1 27.33c0 0-9.37-7.73-6.69-28.26 0 0-9.67 8.03-26.33 6.69s-33.47-6.99-55.63-4.91-39.42 12.64-49.98 19.93-31.09 21.27-41.5 25.14c0 0 40-27.46 50.49-42.54 10.49-15.07 37.46-49.19 96.17-55.14l22.21-.1-11.7 25.68 34.71-.4-5.65 26.57" fill="#e45c01"/><path d="m418.82 801.6 24.99 30.34 24.99 24.1-31.83-2.38-63.66-41.41-24.69-63.3 3.27-5.35s6.25 56.23 66.93 58.01" fill="#e45c01"/><path d="m418.72 842.95s-13.14-22.91-15.49-38.97-8.9-29.15-12.77-38.08-18.15-49.98-17.85-71.69l7.85-3.87s4.59 48.44 22.76 79.5c18.18 31.06 51.92 77.25 62.5 84.12s-47-11.01-47-11.01z" fill="#943c10"/><path d="m681.03 688.85c5.94 4.31 8.47 12.14 8.23 19.47s-2.85 14.35-5.43 21.22c-10.67 28.45-21.34 56.9-32.01 85.36 18.06-8.59 36.11-17.17 54.17-25.76-3.88 25.21-20.64 48.09-43.51 59.38-12.34 6.09-26.01 8.88-39.58 11.19-7.15 1.21-14.39 2.31-21.62 1.73s-14.52-3-19.77-8.01c9.66-10.31 19.32-20.61 28.98-30.92 8.44-9 18.34-17.64 25.84-27.38 14.99-19.47 26.22-42.76 34.26-65.87 4.57-13.16 8.08-26.69 10.44-40.42z" fill="#943c10"/><path d="m642.61 646.97c7.25 11.98 11.08 25.71 13.89 39.43 4.01 19.58 6.11 39.54 6.26 59.53 16.75-26.73 21.61-60.63 13.03-91-4.67-16.52-13-31.72-21.26-46.77-2.26-4.11-4.81-8.5-9.1-10.4-2.91-1.29-6.22-1.24-9.4-1.07-12.1.64-24.13 2.6-35.8 5.85-1.99.55 5.99 14.79 7.03 15.93 2.94 3.2 7.44 3.64 11.25 5.51 10.12 4.96 18.3 13.41 24.09 22.98z" fill="#e45c01"/><path d="m400.4 632.29c-2.68-.76-5.61-1.7-7.03-4.09-2.04-3.42.05-7.72 2.12-11.13 5.9-9.73 12.28-19.92 22.37-25.19 3.18-1.66 6.83-2.78 10.35-2.1s6.78 3.58 6.96 7.16c.22 4.44-3.86 7.69-6.95 10.88-6.42 6.63-6.74 13.82-9.51 22-3 8.88-11.64 4.34-18.3 2.46z" fill="#943c10"/><g fill="#f2e264"><path d="m396.52 762.58c.25 4.94 6.94 7.61 11.29 5.24s6.12-7.9 5.63-12.83c-.49-4.92-2.79-9.45-4.82-13.97-10.68-23.74-14.86-50.36-11.97-76.23s12.84-50.91 28.5-71.71c-7.45 1.36-14.15 5.65-19.38 11.12-5.23 5.48-9.11 12.1-12.41 18.91-11.35 23.38-16.45 49.76-14.62 75.69 1.82 25.93 10.56 51.33 25.07 72.9"/><path d="m378.71 692.16c1.43 1.87 1.01 4.64-.25 6.63s-3.18 3.44-4.89 5.06c-10.14 9.6-12.45 24.88-11.79 38.83 1.23 25.92 10.9 51.38 27.2 71.58 2.03 2.52 4.18 4.98 5.65 7.85 1.48 2.87 2.24 6.28 1.3 9.37-31.45-24-50.02-63.96-48.09-103.47.36-7.39 1.43-14.88 4.55-21.6 3.12-6.71 8.51-12.62 15.49-15.09 3.55-1.25 7.56-1.56 11.03-.1s6.19 4.94 6.08 8.7"/><path d="m679.57 708.58c15.35 14.52 21.38 37.27 18.3 58.18-3.09 20.91-14.44 39.96-29.14 55.15-14.69 15.19-32.62 26.85-50.99 37.31 24.81 1.13 49.77-8.81 67.6-26.1s28.47-41.58 29.94-66.38c1.47-24.79-6.08-49.89-20.29-70.26-2.1-3.01-4.61-6.12-8.17-7.04s-8.12 1.69-7.7 5.34"/><path d="m629.99 600.2c19.36 21.8 31.6 49.82 34.44 78.83 2.84 29.02-3.74 58.88-18.51 84.01-1.51 2.57-3.08 5.96-1.21 8.29 1.42 1.78 4.26 1.8 6.23.65s3.26-3.14 4.47-5.07c6.83-10.98 13.04-22.41 17.44-34.57 8.03-22.21 9.78-46.65 4.98-69.77s-16.13-44.85-32.34-62.03c-1.55-1.64-3.23-3.3-5.37-4.01s-4.87-.19-6 1.77"/><path d="m324.43 470.9c7.75-7.83 13.4-17.46 18.66-27.14 8.77-16.13 16.69-32.71 24.61-49.27-20.31 16.62-32.41 41.09-49.86 60.69-9.45 10.61-20.5 19.78-32.65 27.13-2.05 1.24-5.81 2.27-5.26 5.24.59 3.17 4.09 2.58 6.38 2.27 6.75-.93 13.36-2.9 19.52-5.82 6.89-3.25 13.23-7.68 18.59-13.09z"/><path d="m462.39 312.23c9.88-16.88 25.42-30.03 42.83-38.95s36.66-13.8 56.03-16.46c3.35-.46 6.91-.83 10.01.53 2.82 1.23 5.57 4.41 2.75 6.74-2.49 2.05-8.47 2.43-11.55 3.32-8.59 2.48-17.1 5.25-25.51 8.31-16.81 6.12-33.2 13.4-49.02 21.75-4.35 2.3-8.66 4.68-12.92 7.14-3 1.73-10.91 4.68-12.64 7.62z"/></g><path d="m597.87 308.22c3.14 3.76 9.14 3.89 13.51 1.68 4.37-2.22 7.52-6.21 10.61-10.01 28.19-34.68 63.4-63.64 102.88-84.59 12.92-6.86 27.3-13.88 33.32-27.21-27.86 9.81-55.88 19.69-81.67 34.1-14.91 8.33-28.98 18.16-41.96 29.26-11.36 9.71-26.04 21.51-32.89 35.04-3.03 5.98-8.97 15.51-3.79 21.72z" fill="url(#a)"/><path d="m576.74 717.91s73.72-35.45 70.75 54.46c0 0-9.13 24.13-29.09 43.8s-33.54 34.97-52.12 44.48c-18.59 9.51-49.68 17.76-45.22-19.67s14.46-68.06 31.88-91.28c17.41-23.22 23.81-31.79 23.81-31.79z" fill="#473f3e"/><path d="m402.95 767.09s-4.16-77.94 64.85-47.3c0 0 24.61 37.2 30.65 48.62s17.64 35.69 19.33 50.16c1.68 14.47 4.38 35.03-.64 43.39-5.01 8.36-19.15 11.37-24.94 7.82s-33.31-19.43-50.58-41.82c-17.26-22.39-38.67-60.87-38.67-60.87z" fill="#473f3e"/><path d="m574.9 719.2s11.11-7.54 28.76-8.13c0 0 11.21 1.12 13.19 10.84.39 1.9-.98 3.71-2.9 3.92-7.39.82-25.82 3.81-36.27 13.8-13.29 12.69-59.89 60.2-44.72 121.03l1.09 6.29s-22.21-23.01-7.34-66.64 48.19-81.11 48.19-81.11" fill="#86715b"/><path d="m513.62 863.48s-2.38-44.33-14.58-72.29-33.32-58.31-63.07-58.9-14.58 41.35-5.95 55.33 34.51 60.69 37.19 66.04c-5.44-4.71-84.49-60.98-58.9-121.38 0 0 12.79-34.2 59.5-12.49 0 0 24.62 37.8 28.11 44.08 3.49 6.27 20.13 33.21 22.49 50.05s3.84 38.26-4.78 49.56z" fill="#87705b"/><path d="m642.13 734.42s8.38 20.08 4.36 43.09c-3.34 19.12-35.3 41.07-35.3 41.07s33.72-42.36 30.94-84.16z" fill="#262523"/><path d="m269.74 490.26s1.73 7.91 60.33 1.66c58.61-6.25 86.27 3.47 86.27 3.47s-.89-4.36-13.68-8.23c0 0 57.42.3 104.12 51.47l46.11 3.47s61.58-57.02 134.17-45.42c0 0-3.27.89-14.28 7.14 0 0 44.92-5.35 87.76 6.54 0 0 24.69 5.35 46.71 2.08 0 0-3.67 13.98-11.21 21.12s-37.33 27.96-50.59 34.21c-13.27 6.25-68 19.83-87.84 24.54-19.83 4.71-65.84 11.45-76.95 13.44-11.11 1.98-42.94 7.24-70.01 3.97s-91.33-16.36-121.67-27.67c-30.34-11.3-78.54-51.17-95.49-65.74-16.96-14.58-23.74-26.05-23.74-26.05z" fill="#fff"/><path d="m436.87 596.19s-20.61 26.62-19.68 54.89c0 0-.39 1.41 2.23-2.79s18.74-14.46 18.74-14.46 2.81 13.36 4.96 22.91c2.15 9.54 15.17 42 16.96 45.4s23.2 40.04 27.58 47.51c4.38 7.46 23.89 40.22 26.27 48.7s5.65 19.19 5.65 20.23 17.4-45.22 17.4-45.22 22.56-31.22 27.86-39.63c5.31-8.41 24.66-33.71 29.23-45.3s8.21-26.22 9.69-32.6c1.49-6.37.5-13.96.5-13.96s11.72 11.67 12.68 16.55c.96 4.87 3.55-9.13-1.84-24.88-5.39-15.76-18.75-30.31-18.75-30.31l-159.48-7.01z" fill="#fff"/><path d="m412.87 339.6s-58.35-83.06-62.47-146.17l-1.13-28.36s-17.41 35-20.39 48.69c-2.97 13.68-9.82 62.47-9.82 77.35s-2.97 40.85 0 53.45c2.97 12.59 16.36 60.11 19.39 69.12s12.15 0 12.15 0l30.64-37.93 28.86-30.34 2.33-3.07.45-2.73z" fill="#fff"/><path d="m649.77 340.79s24.99 22.41 27.77 25.68 19.73 23.1 23.2 27.37c3.47 4.26 14.68 16.66 15.37 17.45s10.71 15.07 11.3 15.57 2.58.3 6.64-7.73c4.07-8.03 11.8-24.89 12.4-26.48.59-1.59 12-30.64 12.49-34.51.5-3.87 3.87-22.11 4.36-24.79s3.17-21.02 3.57-26.18 1.19-12.1 1.49-18.05.59-12.49 0-16.56-.99-15.67-1.09-20.13-1.19-14.78-1.59-16.86-1.49-12.99-1.88-14.97c-.4-1.98-4.17-21.62-4.26-22.71s-2.97-10.21-2.97-10.21l-2.48 4.96-7.93 22.31s-10.11 24-12.1 27.47c-1.98 3.47-4.86 8.83-8.13 12.99s-24.59 28.46-27.17 31.63-12.89 14.68-15.77 17.06-33.22 36.69-33.22 36.69z" fill="#fff"/><path d="m715.91 273.38-66.14 65.23 6.64 7.34 40.06 39.47s5.35-6.94 3.17-16.66c0 0 19.24-11.01 22.01-32.48 0 0 .34.94-12.42 1.93 0 0 18.76-49.74 6.66-64.83" fill="#f2ede1"/><path d="m806.35 518.89s-34.32 41.65-66.54 53.15-76.45 17.2-92.22 22.28-35.53 3.5-47.66 7.46c-12.13 3.97-35.65 5.95-42.34 7.14-6.68 1.19-59.33-1.59-59.38-1.59s-1.25-.4-1.25-.4l-51.17-8.53-59.5-21.22-62.5-32.92-50.15-48.89s75.36 60.15 161.04 86.57c19.44 6.35 47.2 15.46 119.39 14.27 0 0 37.29-1.58 65.45-9.12s62.17-12.05 100.1-26.25c37.93-14.21 84.07-43.98 90.29-49.9 6.22-5.93-3.57 7.93-3.57 7.93z" fill="#d7c6aa"/><path d="m442.82 596.23c67.01 8.75 145.47 8.14 152.02 5.76 6.54-2.38 10.71 15.47 10.71 15.47-89.25 18.15-175.22-8.23-175.22-8.23s.3-14.59 12.49-12.99z" fill="#d7c6aa"/><path d="m488.88 746.03c6.19 11.74 14.77 22.22 25.06 30.61 3.33 2.71 7.48 5.35 11.63 4.27 3.09-.8 5.29-3.45 7.26-5.96 6.97-8.82 13.94-17.65 20.9-26.47 4.58-5.8 9.22-11.69 12.13-18.49s3.95-14.72 1.17-21.57c-11.16 16.72-24.91 31.7-40.62 44.23-1.85 1.48-3.92 2.99-6.29 2.99-3.26 0-5.74-2.8-7.87-5.27-10.79-12.54-24.42-22.62-39.57-29.26 1.91 7.88 4.47 14.44 9.35 20.92 1.42 1.9 4.53 4.47 6.85 4z" fill="#f2ede1"/><path d="m344.96 196.12c.55-1.82 3.34-7.82 5.24-7.94 2.31-.14 1.6 6.63 1.86 8.93 1.53 13.29-.54 26.7-2.01 39.99-2.98 26.85-3.52 53.97-1.66 80.92.93 13.54 2.47 27.03 4.62 40.43 1.07 6.7 2.29 13.37 3.67 20.02 1.09 5.28 4.5 12.87 3.95 18.22-.79 7.53-11.89 2.12-14.14-1.8-2.81-4.89-3.74-11.97-5.15-17.41-1.62-6.29-3.06-12.63-4.31-19.01-4.99-25.4-7.04-51.36-6.13-77.23.91-25.86 4.77-51.62 11.61-76.58.78-2.86 1.61-5.71 2.47-8.54z" fill="#f2ede1"/><path d="m477.83 735.55c4.38 7.85 8.76 15.71 13.14 23.56 11.6 20.8 23.26 41.71 31.31 64.13-.77-16.23 6.3-31.84 14.91-45.62s18.95-26.55 25.97-41.21c-12.05 11.51-24.1 23.03-36.14 34.54-2.09 2-4.79 5.55-8.07 4.19-2.73-1.14-5.24-5.88-7.14-8.11-4.82-5.63-9.95-10.99-15.36-16.05-2.94-2.75-5.97-5.42-9.07-7.99-1.21-1-9.54-6.23-9.54-7.43z" fill="#d7c6aa"/><path d="m364.94 395.83c3.12 2.69-6.48 4.52-10.22 2.07-3.19-2.09-3.51-6.25-4.26-9.64-1.06-4.83-2.05-9.68-2.95-14.54-7.19-38.67-9.35-78.26-6.48-117.48 1.62-22.08 4.83-44.04 9.64-65.65 2.87 21.46 7.93 42.61 15.04 63.06 0 0-5.88 9.3-7.53 18.13s.61 39.27 3.11 43.83-12.04-7.93-12.04-7.93 3.84 47.1 11.41 57.02-4.03 4.56-4.03 4.56 4.5 23.3 8.3 26.57z" fill="#d7c6aa"/><path d="m732.09 410.58c-.8 2.2-1.65 4.45-3.23 6.18s-4.06 2.83-6.29 2.13c-2.3-.73-3.71-3.19-3.93-5.59-.22-2.41.52-4.79 1.27-7.08 5.62-17.25 12.57-34.17 15.74-52.03 4.3-24.27 1.43-49.15.48-73.78-.67-17.48-.31-35.3 4.22-52.3 1.17-4.4 2.62-8.73 4.4-12.92 1.2-2.83 3.3-6.71 5.37-2.71 1.75 3.4 1.52 9.75 2.03 13.55.61 4.63 1.14 9.28 1.58 13.93 3.5 36.89 1.73 74.27-5.18 110.67-3.87 20.38-9.36 40.46-16.44 59.97z" fill="#f2ede1"/><path d="m733.23 267.41c-10.24 16.96-27.5 29.53-46.79 34.08 4.56-5.62 9.13-11.24 13.69-16.86 15.04-18.52 30.17-37.17 41.49-58.17 6.77 27.56 4.32 57.31-6.89 83.39-.19-12.79-.39-25.59-.58-38.38-.02-1.49-.51-2.63-.93-4.06z" fill="#d7c6aa"/><path d="m743.24 337.71c.17 28.02-7.9 56.03-22.95 79.67-2.27-2.81-4.57-5.66-6.08-8.94-1.52-3.28-2.21-7.09-1.12-10.54.97-3.08 3.24-5.61 4.36-8.64 1.72-4.62.6-9.79 1.22-14.68.9-7.15 5.4-13.24 9.49-19.17s8.06-12.59 7.66-19.78c-.16-2.91-3-13.34 3.09-11.29 4.7 1.58 4.32 9.57 4.34 13.38z" fill="#d7c6aa"/><path d="m381.54 374.41s-13.04-13.68-14.68-36c0 0 8.13 6.15 14.87 6.15 0 0-20.14-43.5-6.59-63.93l38.12 61.85-31.73 31.93z" fill="#f2ede1"/><path d="m646.5 592.32s67.19-7.03 94.83-22.85c0 0 19.41 6.54 24.96 13.67 5.55 7.14 28.16 35.7 32.13 43.63s13.88 31.73 13.88 36.1 5.16 53.15 3.17 59.89c-1.98 6.74-10.71 27.77-11.5 34.11-.79 6.35-15.87 34.11-24.2 40.46s-35.3 21.42-39.67 25.39c-4.36 3.97-17.45 11.9-29.75 14.28s-35.29 3.98-35.29 3.98 22.6-17.86 26.96-29.76 12.26-24.94 12.48-38.85-.48-30.67-2.51-37.96-4.21-18.19-12.79-29.19-20.38-19.35-20.38-19.35-1-26.58-5.36-39.27-12.3-26.86-17.06-35.84-9.92-18.45-9.92-18.45z" fill="#fff"/><path d="m696.55 812.5s57.81-12.92 80.4-54.2c0 0-12.2 3.97-19.01-3.12 0 0 26.63-19.94 32.35-51.64 0 0-9.65 6.96-24.12 6.96 0 0 16.74-32.21 6.53-67.68 0 0-8.51 26.67-17.88 31.21 0 0-5.36-67.67-37.58-83.78-32.22-16.1-68.26 12.84-68.26 12.84s22.26 35.9 25.3 58.09c3.04 22.2 5.63 25.9 10.45 30.44s31.21 26.39 28.09 68.38-16.74 53.91-16.74 53.91l.47-1.42z" fill="#fd953a"/><path d="m725.98 797.19s-9.28 32.67-12.45 36.24-32.61 2.65-32.61 2.65l23.69-32.2z" fill="#d7c6aa"/><path d="m696.55 812.5-.47 1.42s.58-.51 1.52-1.67c-.68.17-1.05.25-1.05.25z" fill="#943c10"/><path d="m733 759.15c3.42-45.95-25.46-69.85-30.74-74.82s-8.1-9.02-11.43-33.3c-2.59-18.88-17.88-46.82-24.56-58.32-10.42 4.88-17.29 10.39-17.29 10.39s22.26 35.9 25.3 58.09c3.04 22.2 5.63 25.9 10.45 30.44s31.21 26.39 28.09 68.38c-2.48 33.36-11.58 47.74-15.22 52.24 3.24-.81 14.19-3.87 26.78-9.53 3.78-9.16 7.09-22.92 8.63-43.57z" fill="#943c10"/><path d="m762.32 623.11s9.64-6.27 9.09-23.11c-.56-16.85-4.53-13.48-4.53-13.48l-10.9-4.96 1.19 13.68s6.35 21.42 5.16 27.86" fill="#f2ede1"/><path d="m791.66 686.09s6.37 1.42 12.97-5.5c6.6-6.91 3.66-7.18 3.66-7.18l-2.32-6.38-5.07 5.91s-6.16 11.07-9.24 13.15" fill="#f2ede1"/><path d="m787.19 747.64s4.06 3.3 11.29.71c7.22-2.59 5.21-3.85 5.21-3.85l.63-5.42-5.77 2.43s-8.4 5.74-11.36 6.12" fill="#f2ede1"/><path d="m465.06 488.14c6.22 4.07 12.04 8.65 18.21 12.94l.6-.46c-2.4-6.03-5.58-11.78-9.53-16.95-8.93-12.07-21.65-21.38-36.4-24.97-21.39-5.46-46.42 3.96-57.28 23.43l.53.55c6.08-2.38 11.53-4.35 17.47-6.02 23.33-6.54 41.26-3.94 61.9 8.62.96.66 3.46 2.22 4.49 2.87z"/><path d="m612.29 490.33c1.09-.52 3.74-1.79 4.79-2.34 29.61-13.82 51.3-8.47 79.14 6.46l.59-.48c-.92-2.55-2.25-4.86-3.72-7.09-7.67-11.38-19.94-19.47-33.53-22.13-20.62-4.18-42.06 4.97-55.99 20.09-4.51 4.68-8.33 10.03-11.39 15.75 0 0 .55.53.55.53 6.62-3.56 12.92-7.44 19.57-10.78z"/><path d="m496.92 570.46c12.73 10.35 30.61 14.42 46.52 10.07 7.91-2.13 15.59-5.88 21.38-11.79 5.71-5.27 11.79-11.62 13.45-19.5-4.47 6.73-10.44 11.06-16.64 15.92-1.82 1.62-3.87 3.08-5.99 4.3-18.33 10.82-38.59 9.99-55.57-3.04-7.73-5.92-14.99-13.99-14.22-24.32-7.26 9.65 3.49 22.39 11.07 28.36z"/><path d="m815.27 663.57c-2.91-14.84-22.34-74.11-59.13-94.49 29.63-14.82 52.4-32.96 61.11-68.23 0 0-51.76-3.77-65.65-64.85l1.79-1.59c.59-.53 1.13-1.12 1.59-1.76 30.29-42.61 33.53-91.58 35.6-134.39 2.08-43.14-12.99-88.55-17.95-103.03s-13.09-19.44-13.09-19.44c-17.65 12.49-18.64 13.68-76.75 37.68s-83.35 64.11-83.35 64.11-13.24-.15-18.15-.3c6.4-16.06 3.12-26.92 3.12-26.92-37.99 3.07-64.61 11.18-83.26 20.77-32.44-53.36-84.86-78.5-108.62-89.49-23.8-11.01-42.4-27.37-42.4-27.37-76.62 143.69-15.75 261.49-15.75 263.87 0 1.59-8.83 15.67-14.69 24.83-9.56 11.62-16.08 19.76-17.09 20.98-21.62 21.62-42.04 23.2-42.04 23.2 2.36 4.21 5.31 8.04 5.31 8.04 3.89 5.53 9.67 13.06 16.46 19.77 12.64 12.49 44.33 43.43 73.03 58.16 25.02 12.83 40.77 19.57 49.13 22.66-14.86 17.54-23.94 39.77-27.74 62.33-1.01 6.4-1.59 12.86-1.79 19.34-.74.51-1.46 1.04-2.16 1.58-23.88 18.85-32.81 48.64-27.97 78.07 1.55 9.63 4.33 19.11 7.91 28.16 10.63 28.1 31.23 50.26 58.42 62.95 18.71 8.69 39.29 13.49 59.93 13.72 6.94 5.36 14.54 9.73 23.24 11.76 8.33 2.03 18.13 1.83 24.99-4.89 1.13-1.2 2.08-2.5 2.87-3.87.07.11.14.22.21.32 4.5 6.44 12.33 9.94 20.02 10.42 10.1.61 21.01-4.22 31.62-11.51 0 .03-.01.04-.01.04.6.14 1.85.4 2.45.53 23.58 4.34 48.04 4.16 71.21-2.8 9.89-2.96 19.42-7.56 27.95-13.58 14.28.24 62.46-2.55 105.72-47.05 51.47-52.95 36.89-122.56 33.91-137.74zm-77.55-365.61c-.79 1.59-2.67 3.17-2.67 3.17 1.7-14.08-2.29-35.1-2.29-35.1 0 35.3-4.96 50.52-4.96 50.52 4.46-2.53 6.99-6.1 6.99-6.1 2.97 43.14-20.68 60.69-20.68 60.69-.38 14.44-2.91 20.72-4.73 23.39-20.66-24.25-55.36-53.04-55.36-53.04 38.97-36.19 65.45-72.09 75.56-86.97 8.6-12.65 20.7-50.16 24.12-61.11 1.26-.67 2.54-1.35 3.84-2.06 0 0 .01.02.03.04 1.57 9.02 12.89 76.56 6.52 117.86-6.84 44.33-19.63 85.38-36.29 113.34l-4.61-7.59c-1.36-3.5-3.82-7.57-7.02-11.95 5.09-11.93 6.44-32.82 6.44-32.82 25.45-22.25 15.11-72.29 15.11-72.29zm-388.36-124.7c-.84 29.01 3.96 55.56 11.23 78.65-13.64 38.85-2.07 60.33-2.07 60.33-6.94-3.77-12.3-10.51-12.3-10.51-9.32 30.74 10.87 62.27 10.87 62.27-3.01-1.98-4.33-2.78-4.33-2.78-.77 15.78 4.86 28.84 7.46 33.96-5.27 5.99-10.5 12.03-15.54 17.93-49.04-125.75-5.73-220.15 4.68-239.86zm15.46 216.74c-3.98-6.39-5.51-17.67-5.51-17.67 10.11 4.96 13.29 4.56 13.29 4.56-23.8-25.98-17.19-62.87-17.19-62.87l11.64 8.53c-14.74-24.07-6.63-52.27-3.35-61.36 16.68 46.86 42.41 77.58 46.82 82.63-11.85 9.43-28.76 27.17-45.69 46.18zm-36.25 146.15c-16.06-13.49-42.64-32.33-52.75-43.83 34.31-8.73 46.61-31.73 57.32-46.01s18.64-25.58 31.73-46.01 51.47-60.69 51.47-60.69c-54.55-60.65-65.66-155.15-66.82-166.63 1.24-2.33 1.97-3.54 1.97-3.54 11.01 9.52 26.48 19.34 33.02 22.31 26.18 12.2 57.12 32.13 67.83 42.24 9.47 8.94 33.28 36.65 38.67 42.95-29.76 19.08-33.02 40.94-33.02 40.94s39.57-48.19 109.18-54.14c0 0-3.57 15.97-15.27 28.86l3.27-1.98 43.63.69s-6.2 7.83-2.48 25.83c0 0 2.58-33.07 47.2-65.79 43.54-31.93 58.29-30.35 110.12-57.89-15 44.63-39.82 75.23-61.72 96.37-22.41 21.62-47 48.79-47 48.79 35.3 26.97 68.17 75.21 73.83 82.5 5.65 7.29 5.21 10.56 4.02 13.24s-7.44 10.36-7.44 10.36 21.02-11.5 40.06-66.24c18.81-54.09 19.27-139.73 2.63-186.43 2.83 4.48 18.13 31 21.37 85.48 3.57 60.09-13.49 125.44-43.53 157.87 0 0 5.85 63.07 71.3 71.79 0 0-8.92 23.01-40.66 41.45-31.73 18.44-39.86 21.02-61.88 26.97-22.01 5.95-64.85 12.1-80.52 15.87s-55.13 15.67-95.39 14.87c-40.26-.79-55.73-5.75-83.89-14.48s-55.93-18.64-69.81-25.98-30.34-16.26-46.41-29.75zm272.69 75.49c8.41 12.22 15.31 26.81 15.08 41.85-.89-1.57-1.84-3.1-2.88-4.61-2.21-3.22-4.78-6.19-7.68-8.84 0 0-4.76-4.14-4.76-4.14s.86 6.28.86 6.28c.64 5.87-.09 12.01-1.13 17.84-2.84 15.01-8.98 29.36-16.81 42.45-8.15 13.17-18.56 24.71-28.03 36.99-15.95 20.11-29.57 43.17-35.45 68.42-3.7-14.54-11.22-27.85-18.24-40.57-12.01-21.92-26.73-42.49-39.14-64.1-10.52-18.94-18.16-39.73-21.82-61.13-.8-4.51-1.19-9.28-1.43-13.83 0 0-4.88 2.19-4.88 2.19-4.35 1.99-7.7 5.84-10.88 9.29-2.62 3.21-5.01 6.67-6.5 10.53 2.12-17.68 9.84-34.32 20.5-48.43.3-.14.63-.29 1.02-.44 2.68-1.04 13.83 3.27 30.64 5.8s40.76 8.18 98.17 3.87c0 0 12.09-1.93 29.81-4.15 1.23 1.51 2.44 3.14 3.55 4.73zm-160.31 236.27c-7.44-1.94-14.7-4.51-21.67-7.7-31.88-14.57-50.63-39.42-59.35-72.99-2.46-9.91-3.8-20.27-2.96-30.48 1.17-15.31 7.63-30.18 18.45-40.9 2.1 25.97 10.1 51.6 22.29 74.36 6.63 12.58 14.94 24.26 22.57 36.12 1.72 2.64 3.62 5.39 5.52 7.89 8.54 11.47 18.07 22.09 28.18 32.19 1.7 1.68 3.42 3.37 5.17 5.05-6.13-.78-12.21-1.99-18.19-3.54zm70.57 11.94c-.5.85-1.05 1.65-1.68 2.42-1.27 1.46-3.58 2.1-5.66 2.34-10.46.99-21.15-3.74-29.59-9.78-10.44-7.73-19.67-17.25-28.29-27.01-8.14-9.24-15.72-19.02-22.02-29.61-13.43-20.51-25.71-42.35-31.92-66.17-11.17-42.78-8.3-83.78 15.42-121.82 2.8-4.5 5.85-8.86 9.17-12.98 2.61-.48 4.9-1.06 7.11-.32 1.62.54 3.63 1.53 5.54 2.58-7.7 13.71-12.6 29.17-12.9 44.9-.08 2.54.07 5.08.28 7.59l-.15.79c1.44-2.09 3.2-3.98 5.06-5.66 3.27-2.95 6.93-5.41 10.81-7.43.61-.33 1.24-.63 1.86-.92 1.37 4.56 2.8 9.2 4.2 13.61 5.75 18.03 12.01 35.86 20.48 52.85 13.84 28.29 31.35 54.07 44.36 82.4 3.62 8.3 6.88 16.7 8.14 25.54 0 0 1.18 9.24 1.18 9.24.75 6.15 1.4 12.28 1.64 18.25.17 6.53.38 13.71-3.06 19.2zm46.7 1.2c-4.78 2.39-10.01 4.24-15.23 4.02-12.44-.88-15.94-9.68-17.17-20.76-.05-1.48-.14-2.93-.23-4.34-.05-.58-.11-1.15-.17-1.72-.79-22.09 5.55-44.26 16.34-63.55 13.24-24.55 32.38-45.47 46.62-69.62 9.29-16.57 16.4-34.68 18.17-53.72.1-1.35.18-2.66.23-3.98 3.72 3.81 6.83 8.27 9.2 12.97l2.48 5.08s.72-5.44.72-5.44c1.03-5.13 1.13-10.41.54-15.58-1.72-13.84-7.56-26.85-15.37-38.32 7.12-.85 14.93-1.72 23.09-2.52 6.22-.61 11.92-1.01 17.4-1.4 6.51 9.69 12.34 19.82 17.03 30.43 28.02 62.54 4.98 117.71-37.18 166.66-15.96 18.41-32.57 37.24-51.7 52.22-4.65 3.6-9.57 6.97-14.77 9.57zm30.86-8.85c12.29-10.96 23.34-23.46 31.16-32.06 29.4-32.8 57.16-70.89 62.31-115.95.44-3.49.72-6.97.85-10.45 5.81 5.77 10.81 12.4 14.8 19.54 17.28 30.1 12.12 66.69-4.46 96-2.64 4.85-5.61 9.54-9.13 13.8-22.57 27.91-61.21 34-95.53 29.11zm214.57-112.18s-23.17 80.6-111.1 92.84c1.59-1.89 3.09-3.86 4.5-5.89 1.33-1.87 2.64-3.98 3.86-5.94 7.33-12.63 13.07-26.13 16.33-40.52 8.96-36.46-4.18-76.68-34.04-99.77-1.87-28.3-13.04-55.7-28.76-79.29 19.25-1.6 37.7-4.48 68.98-17.71 5.81-2.46 11.49-4.87 17-7.32 4.69 4.63 18.21 20.02 21.88 46.68 0 0 1.79-19.91-3.57-36.29 0 0 55.33 47.3 32.43 99.36 0 0 5.35.6 13.09-17.25 0 0 14.28 47.3-17.25 78.83 0 0 5.65 1.19 16.66-7.73z"/><path d="m499.5 540.36c5.12 7.3 28.35 35.89 57.04 1.23.9-1.09 1.26-2.54.92-3.91-1.1-4.33-6.76-12.32-29.49-13.77-21.42-1.37-27.92 5.42-29.46 10.38-.64 2.07-.25 4.31.99 6.08z"/><path d="m544.69 536.24c-.4 1.46-1.7 2.46-2.93 3.35-2.97 2.15-6.05 4.36-9.62 5.15-2.66.59-5.43.36-8.13.05-3.78-.43-7.56-.98-11.17-2.19-1.18-.4-2.34-.86-3.46-1.41-1.95-.96-3.79-2.16-5.37-3.66-.79-.75-1.09-1.29-.94-2.42 0-.03 0-.05.02-.08.07-.44.21-.87.4-1.27.23-.46.52-.9.87-1.28 1.08-1.16 2.57-1.86 4.05-2.43.43-.16.84-.32 1.28-.46 1.77-.61 3.57-1.08 5.41-1.42 7.76-1.46 15.97-.66 23.59 1.61 1.57.46 3.16 1.02 4.39 2.09s2.05 2.78 1.62 4.36z" fill="#4f504c"/><path d="m524.95 529.96c-.27.21-.6.3-.92.39-2.12.59-4.25 1.18-6.37 1.77-1.66.46-3.32.92-4.98 1.38-1.08.3-6.73 2.02-9.59 1.52.07-.44.21-.87.4-1.27.23-.46.52-.9.87-1.28 1.08-1.16 2.57-1.86 4.05-2.43.43-.16.84-.32 1.28-.46 1.77-.61 3.57-1.08 5.41-1.42 2.95-.12 5.91.05 8.86.21.56.03 1.24.17 1.38.7.08.33-.11.67-.37.87z" fill="#cecec5"/><path d="m0-.43h980v980h-980z" fill="none"/></svg>