<svg fill="none" height="187" viewBox="0 0 187 187" width="187" xmlns="http://www.w3.org/2000/svg"><rect fill="#1a1a1a" height="187" rx="40" width="187" y="-.00576"/><g fill="#ffffeb"><path d="m48.1303 41.598c-1.9975 0-3.921.7768-5.3266 2.1824-1.4427 1.4057-2.2195 3.3292-2.2195 5.2897v88.7779c0 .999.185 1.96.5549 2.885s.9248 1.739 1.6276 2.441c.7028.703 1.5166 1.258 2.4414 1.628.9247.37 1.8865.555 2.8852.555 1.9975 0 3.9211-.777 5.3267-2.183 1.4057-1.405 2.2195-3.292 2.2195-5.289v-88.8149c0-1.9975-.7769-3.884-2.2195-5.2897-1.4056-1.4056-3.3292-2.1824-5.3267-2.1824z"/><path d="m93.4069 58.5766c-.9988 0-1.9605.1849-2.8853.5548-.9248.37-1.7386.9248-2.4414 1.6276-.7028.7029-1.2577 1.5167-1.6276 2.4414-.3699.9248-.5918 1.8865-.5918 2.8483v54.1173c0 1.998.7768 3.884 2.2194 5.29 1.4057 1.405 3.3292 2.182 5.3267 2.182s3.921-.777 5.3267-2.182c1.4054-1.406 2.2194-3.292 2.2194-5.29v-54.1173c0-1.9975-.777-3.884-2.2194-5.2897-1.4057-1.4056-3.3292-2.1824-5.3267-2.1824z"/><path d="m70.7647 89.1309c-1.9975 0-3.921.7768-5.3266 2.1825-1.4057 1.4056-2.2195 3.2922-2.2195 5.2897v30.8499c0 1.998.7768 3.884 2.2195 5.29 1.4056 1.406 3.3291 2.182 5.3266 2.182s3.9211-.776 5.3267-2.182 2.2194-3.292 2.2194-5.29v-30.8499c0-1.9975-.7768-3.8841-2.2194-5.2897-1.4056-1.4057-3.3292-2.1825-5.3267-2.1825z"/><path d="m138.686 41.598c-.999 0-1.961.1849-2.886.5548-.924.3699-1.738.9248-2.441 1.6276s-1.258 1.5166-1.628 2.4414-.591 1.8865-.591 2.8483v88.7779c0 1.997.776 3.884 2.219 5.289 1.406 1.406 3.329 2.183 5.327 2.183 1.997 0 3.921-.777 5.326-2.183 1.406-1.405 2.22-3.292 2.22-5.289v-88.7779c0-1.9975-.777-3.884-2.22-5.2897-1.405-1.4056-3.329-2.1824-5.326-2.1824z"/><path d="m116.043 89.1309c-1.997 0-3.921.7768-5.326 2.1825-1.406 1.4056-2.22 3.2922-2.22 5.2897v30.8499c0 1.998.777 3.884 2.22 5.29 1.405 1.406 3.329 2.182 5.326 2.182 1.998 0 3.921-.776 5.327-2.182s2.22-3.292 2.22-5.29v-30.8499c0-1.9975-.777-3.8841-2.22-5.2897-1.406-1.4057-3.329-2.1825-5.327-2.1825z"/></g></svg>