<svg xmlns="http://www.w3.org/2000/svg" version="1.1" viewBox="0 0 380 125" xml:space="preserve"><switch><g><path d="M77.63 54.65H47.36c-.78 0-1.41.63-1.41 1.42v14.8c0 .78.63 1.42 1.41 1.42h11.81v18.39s-2.65.9-9.98.9c-8.65 0-20.73-3.16-20.73-29.72 0-26.57 12.58-30.06 24.39-30.06 10.22 0 14.63 1.8 17.43 2.67.88.27 1.69-.61 1.69-1.39l3.38-14.3c0-.37-.12-.81-.54-1.1-1.14-.81-8.08-4.7-25.62-4.7-20.21 0-40.93 8.6-40.93 49.92 0 41.33 23.73 47.48 43.73 47.48 16.56 0 26.6-7.08 26.6-7.08.41-.23.46-.81.46-1.07V56.06a1.42 1.42 0 00-1.42-1.41zM233.61 17.91a1.4 1.4 0 00-1.4-1.42h-17.04c-.78 0-1.41.64-1.41 1.42v32.93H187.2V17.91c0-.79-.63-1.42-1.41-1.42h-17.04c-.78 0-1.41.64-1.41 1.42v89.18c0 .79.63 1.43 1.41 1.43h17.04c.78 0 1.41-.64 1.41-1.43V68.94h26.56l-.05 38.14c0 .79.63 1.43 1.41 1.43h17.08c.78 0 1.4-.64 1.41-1.43V17.91zM109.79 29.61c0-6.14-4.92-11.1-10.99-11.1a11.05 11.05 0 00-10.99 11.1c0 6.13 4.92 11.1 10.99 11.1s10.99-4.97 10.99-11.1zM108.57 88.27V47.11c0-.78-.63-1.42-1.41-1.42H90.17c-.78 0-1.48.8-1.48 1.59v58.98c0 1.73 1.08 2.25 2.48 2.25h15.31c1.68 0 2.09-.82 2.09-2.28V88.27zM298.38 45.82h-16.91c-.78 0-1.41.64-1.41 1.43v43.73s-4.3 3.14-10.39 3.14c-6.1 0-7.72-2.77-7.72-8.74V47.25c0-.79-.63-1.43-1.41-1.43h-17.16c-.77 0-1.41.64-1.41 1.43v41.02c0 17.73 9.88 22.07 23.48 22.07 11.15 0 20.15-6.16 20.15-6.16s.43 3.25.62 3.63c.19.38.7.77 1.24.77l10.92-.05c.77 0 1.41-.64 1.41-1.42l-.01-59.86a1.4 1.4 0 00-1.4-1.43zM344.6 43.82c-9.61 0-16.14 4.29-16.14 4.29v-30.2c0-.79-.63-1.42-1.41-1.42h-17.09c-.78 0-1.41.64-1.41 1.42v89.18c0 .79.63 1.43 1.41 1.43h11.86c.53 0 .94-.28 1.24-.76.29-.48.72-4.11.72-4.11s6.99 6.62 20.22 6.62c15.53 0 24.44-7.88 24.44-35.37s-14.23-31.08-23.84-31.08zm-6.67 50.24c-5.87-.18-9.84-2.84-9.84-2.84V62.98s3.93-2.41 8.74-2.84c6.09-.55 11.96 1.29 11.96 15.82 0 15.33-2.65 18.35-10.86 18.1zM157.55 45.68h-12.78l-.02-16.89c0-.64-.33-.96-1.07-.96h-17.42c-.68 0-1.04.3-1.04.95v17.45s-8.73 2.11-9.32 2.28c-.59.17-1.02.71-1.02 1.36v10.97c0 .79.63 1.42 1.41 1.42h8.93v26.38c0 19.6 13.75 21.52 23.02 21.52a38.9 38.9 0 0010.15-1.67c.51-.19.8-.71.8-1.28l.01-12.06c0-.79-.66-1.42-1.41-1.42-.74 0-2.65.3-4.61.3-6.28 0-8.41-2.92-8.41-6.7V62.26h12.78c.78 0 1.41-.64 1.41-1.42V47.1c0-.79-.63-1.42-1.41-1.42z" class="st0"/></g></switch></svg>
