<svg width="243" height="74" fill="none" xmlns="http://www.w3.org/2000/svg"><g clip-path="url(#clip0)"><path d="M103.685 56.322c-10.836 0-18.583-7.76-18.583-17.986s7.8-17.986 18.426-17.986c5.234 0 9.317 2.004 12.72 4.933l-2.146 4.368c-2.618-2.569-5.968-4.676-10.784-4.676-7.852 0-13.505 5.396-13.505 13.361 0 7.965 5.6 13.361 13.558 13.361 6.857 0 11.725-4.06 12.51-10.226h-13.976v-4.625h19.316v.205c0 11.306-6.491 19.271-17.536 19.271zM126.135 30.628h4.502v25.694h-4.502V30.628zM151.959 55.962v-3.905c-1.413.257-2.565.411-4.24.411-2.198 0-2.984-1.13-2.984-3.083V34.482h7.172v-3.854h-7.172v-6.886h-4.501v6.886h-5.183v3.854h5.183v14.646c0 5.447 2.46 7.451 7.223 7.451 1.675 0 3.141-.257 4.502-.617z" fill="#12100C"/><path fill-rule="evenodd" clip-rule="evenodd" d="M161.135 66.6h-4.502V30.628h4.502v3.7c2.146-2.827 5.339-4.317 9.213-4.317 7.433 0 12.615 5.55 12.615 13.464 0 7.914-5.182 13.464-12.615 13.464-3.717 0-6.753-1.439-9.213-4.368V66.6zm-.314-23.125c0 5.704 3.454 9.353 8.741 9.353 5.287 0 8.742-3.7 8.742-9.353s-3.455-9.353-8.742-9.353c-5.287 0-8.741 3.649-8.741 9.353zM185.766 43.475c0 7.708 5.863 13.464 13.715 13.464 7.851 0 13.714-5.756 13.714-13.464s-5.863-13.464-13.714-13.464c-7.852 0-13.715 5.756-13.715 13.464zm22.77 0c0 5.344-3.611 9.199-9.055 9.199-5.445 0-9.056-3.855-9.056-9.199 0-5.344 3.611-9.199 9.056-9.199 5.444 0 9.055 3.855 9.055 9.199zM237.85 20.35h4.502v35.972h-4.502v-3.7c-2.146 2.827-5.34 4.317-9.213 4.317-7.433 0-12.616-5.55-12.616-13.464 0-7.914 5.183-13.464 12.616-13.464 3.716 0 6.752 1.439 9.213 4.368V20.35zm.314 23.125c0-5.704-3.455-9.353-8.742-9.353-5.287 0-8.742 3.7-8.742 9.353s3.455 9.353 8.742 9.353c5.287 0 8.742-3.649 8.742-9.353z" fill="#12100C"/><path d="M128.396 27.251c1.779 0 3.222-1.41 3.222-3.15s-1.443-3.15-3.222-3.15-3.221 1.41-3.221 3.15 1.442 3.15 3.221 3.15z" fill="#12100C"/><path fill-rule="evenodd" clip-rule="evenodd" d="M39.568 3.685c1.978 3.506.775 7.972-2.686 9.976L15.358 26.118c-.57.329-.92.942-.92 1.606V47.28c0 .664.35 1.277.92 1.607l17.037 9.86c.561.325 1.249.325 1.81 0l17.037-9.86c.57-.33.92-.943.92-1.607V35.118l-15.315 8.751c-3.472 1.985-7.875.742-9.834-2.775-1.96-3.516-.733-7.976 2.74-9.96l21.913-12.523c6.675-3.814 14.934 1.07 14.934 8.833v21.32c0 4.993-2.642 9.604-6.923 12.082l-19.56 11.32a13.589 13.589 0 01-13.633 0L6.922 60.847C2.642 58.368 0 53.757 0 48.764V26.239c0-4.993 2.642-9.604 6.923-12.081L29.718.965c3.462-2.004 7.872-.786 9.85 2.72z" fill="url(#paint0_linear)"/></g><defs><linearGradient id="paint0_linear" x1="50.127" y1="11.19" x2="15.32" y2="65.22" gradientUnits="userSpaceOnUse"><stop stop-color="#FFB45B"/><stop offset="1" stop-color="#FF8A00"/></linearGradient><clipPath id="clip0"><path fill="#fff" d="M0 0h242.35v74H0z"/></clipPath></defs></svg>