<svg height="78" viewBox="0 0 209 78" width="209" xmlns="http://www.w3.org/2000/svg"><g fill="none" fill-rule="evenodd"><rect fill="#081324" height="78" rx="8" width="209"/><path d="m34.6742466 10.3932494 34.8425232 14.4101794-2.2612091 32.4342173-20.6922316 11.9490352-33.0696198-20.6516368zm-13.1679559 36.0717061 25.1779388 15.7233632 14.8077684-8.5509648 1.7387909-24.9407827-25.9074768-10.7148206z" fill="#04fa9b" fill-rule="nonzero"/><path d="m86.464 40.76c.4320022-.5040025.8699978-1.0379972 1.314-1.602s.8759979-1.145997 1.296-1.746.8219981-1.1819972 1.206-1.746.7199986-1.0979975 1.008-1.602h5.328c-.4320022.5520028-.9239972 1.1519968-1.476 1.8s-1.1219971 1.3079966-1.71 1.98-1.1759971 1.3199969-1.764 1.944-1.1219976 1.1999974-1.602 1.728c.600003.5760029 1.2479965 1.265996 1.944 2.07s1.3799966 1.6379957 2.052 2.502 1.2899972 1.7279957 1.854 2.592 1.0139983 1.6319966 1.35 2.304h-5.076c-.2880014-.600003-.6659977-1.2779962-1.134-2.034s-.9659974-1.4999963-1.494-2.232-1.0619973-1.4279967-1.602-2.088-1.0379977-1.2059978-1.494-1.638v7.992h-4.464v-24.228l4.464-.756zm12.384 1.908c0-1.4880074.2279977-2.7959944.684-3.924s1.055996-2.0699962 1.8-2.826 1.595995-1.3259981 2.556-1.71 1.943995-.576 2.952-.576c2.496012 0 4.391994.7379926 5.688 2.214s1.944 3.6299858 1.944 6.462c0 .2880014-.006.5879984-.018.9s-.03.563999-.054.756h-10.98c0 1.1040055.455995 1.9739968 1.368 2.61s2.087993.954 3.528.954c.888004 0 1.733996-.095999 2.538-.288s1.481997-.383999 2.034-.576l.612 3.78c-.768004.2640013-1.583996.4859991-2.448.666s-1.835995.27-2.916.27c-1.440007 0-2.729994-.1859981-3.87-.558s-2.111996-.9239963-2.916-1.656-1.4219978-1.6379946-1.854-2.718-.648-2.3399928-.648-3.78zm11.34-1.764c0-.4560023-.059999-.8939979-.18-1.314s-.311999-.7979983-.576-1.134-.599998-.605999-1.008-.81-.911997-.306-1.512-.306c-.576003 0-1.073998.095999-1.494.288s-.767999.4559983-1.044.792-.491999.7199978-.648 1.152-.258.8759977-.306 1.332zm22.536-6.84c-.456002 1.5840079-.893998 3.1379924-1.314 4.662s-.857998 3.0119927-1.314 4.464-.941997 2.873993-1.458 4.266-1.073997 2.7479934-1.674 4.068c-.456002.9600048-.905998 1.7879965-1.35 2.484s-.935997 1.2659978-1.476 1.71-1.139997.7739989-1.8.99-1.433996.324-2.322.324c-.744004 0-1.421997-.0599994-2.034-.18s-1.121998-.275999-1.53-.468l.828-3.708c.480002.2160011.905998.3659996 1.278.45s.773998.126 1.206.126c.864004 0 1.559997-.2879971 2.088-.864s.947998-1.259996 1.26-2.052c-1.056005-2.1120106-2.111995-4.5299864-3.168-7.254s-2.015996-5.7299836-2.88-9.018h4.608c.216001.8880044.461999 1.835995.738 2.844s.569998 2.015995.882 3.024.641998 1.9979951.99 2.97.701998 1.8779958 1.062 2.718c.240001-.8400042.491999-1.7459951.756-2.718s.515999-1.955995.756-2.952.473999-1.997995.702-3.006.437999-1.9679954.63-2.88zm6.696 7.92c0 1.392007.251997 2.4539963.756 3.186s1.295995 1.098 2.376 1.098c.480002 0 .929998-.0599994 1.35-.18s.797998-.275999 1.134-.468v-8.136c-.336002-.0720004-.635999-.1199999-.9-.144s-.539999-.036-.828-.036c-2.592013 0-3.888 1.5599844-3.888 4.68zm10.08 6.948c0 2.7600138-.665993 4.7999934-1.998 6.12s-3.473985 1.98-6.426 1.98c-1.056005 0-2.069995-.1079989-3.042-.324s-1.901996-.4679986-2.79-.756l.828-3.744c.696003.2640013 1.427996.5099989 2.196.738s1.727994.342 2.88.342c.768004 0 1.403997-.0899991 1.908-.27s.899999-.4259984 1.188-.738.491999-.6779979.612-1.098.18-.8699976.18-1.35v-.684c-.624003.2400012-1.193997.4199994-1.71.54s-1.073997.18-1.674.18c-2.208011 0-3.881994-.695993-5.022-2.088s-1.71-3.3239876-1.71-5.796c0-2.7840139.767992-4.8599932 2.304-6.228s3.623987-2.052 6.264-2.052c1.848009 0 3.851989.299997 6.012.9zm3.348-6.264c0-1.4880074.227998-2.7959944.684-3.924s1.055996-2.0699962 1.8-2.826 1.595995-1.3259981 2.556-1.71 1.943995-.576 2.952-.576c2.496012 0 4.391994.7379926 5.688 2.214s1.944 3.6299858 1.944 6.462c0 .2880014-.006.5879984-.018.9s-.03.563999-.054.756h-10.98c0 1.1040055.455995 1.9739968 1.368 2.61s2.087993.954 3.528.954c.888004 0 1.733996-.095999 2.538-.288s1.481997-.383999 2.034-.576l.612 3.78c-.768004.2640013-1.583996.4859991-2.448.666s-1.835995.27-2.916.27c-1.440007 0-2.729994-.1859981-3.87-.558s-2.111996-.9239963-2.916-1.656-1.421998-1.6379946-1.854-2.718-.648-2.3399928-.648-3.78zm11.34-1.764c0-.4560023-.059999-.8939979-.18-1.314s-.311999-.7979983-.576-1.134-.599998-.605999-1.008-.81-.911997-.306-1.512-.306c-.576003 0-1.073998.095999-1.494.288s-.767999.4559983-1.044.792-.491999.7199978-.648 1.152-.258.8759977-.306 1.332zm7.812-6.3c.792004-.2160011 1.769994-.419999 2.934-.612s2.429993-.288 3.798-.288c1.344007 0 2.459996.1859981 3.348.558s1.589997.8999966 2.106 1.584.881999 1.4999953 1.098 2.448.324 1.9979942.324 3.15v9.54h-4.428v-8.964c0-1.5840079-.179998-2.7239965-.54-3.42s-1.091994-1.044-2.196-1.044c-.336002 0-.665998.0119999-.99.036s-.665998.0599998-1.026.108v13.284h-4.428z" fill="#fff"/></g></svg>