<svg viewBox="0 0 2267.72 850.39" xmlns="http://www.w3.org/2000/svg" fill="currentColor">
<style>
svg { color: #fff; }
</style>
<g><path d="m480.83 310.17-.06-1.41c-.39-9.92-3.05-16.66-7.97-20.25-4.93-3.59-14.82-5.08-29.64-4.48l-29.57 1.18c-.82.04-1.87.32-3.17.84-1.31.53-1.91 2.33-1.78 5.39l1.67 41.79c.04.94.29 2.17.77 3.69.46 1.52 2.02 2.23 4.66 2.11l29.56-1.18c14.64-.59 24.32-2.93 29.03-7.02 4.72-4.09 6.88-10.98 6.49-20.66m56.03 260.01c2.76 68.8-21.51 89.11-75.26 91.27l-8.44.34c-53.74 2.15-79.56-16.14-82.33-84.94l-3.7-92.3c-.33-8.11 5.34-14.23 13.51-14.56l23.36-.93c8.15-.33 14.3 5.3 14.62 13.41l3.67 91.46c1.43 35.53 7.38 43.4 29.61 42.51l7.32-.29c22.23-.89 27.53-9.23 26.1-44.75l-3.66-91.46c-.33-8.11 5.34-14.22 13.51-14.55l23.36-.94c8.15-.33 14.3 5.31 14.62 13.42l3.71 92.3zm-40.8-197.77 31.69 43.31c6.17 8.5 3.55 19.32-7.25 19.76l-24.37.99c-16.06.64-18.78-4.89-25.28-14.79l-26.59-40.41c-2.97-4.68-4.38-5.47-9.09-5.28l-17.72.71c-3.6.15-4.66 1.32-4.52 4.98l1.77 43.95c.33 8.17-5.25 14.31-13.28 14.64l-22.16.88c-8.03.33-14.09-5.36-14.42-13.52l-6.67-166.22c-.33-8.17 5.25-14.31 13.28-14.64l68.42-2.74c57.32-2.3 83.75 13.28 85.68 61.46l.19 4.5c1.08 27.05-7.76 41.8-28.37 53.63-4.34 2.42-4.55 4.13-1.31 8.8m-88.39-233.21c.16 3.96-2.89 7.3-6.83 7.45l-130.18 5.24c-3.94.16-7.24-2.92-7.4-6.89l-.54-13.58c-.16-3.97 2.89-7.3 6.83-7.45l130.18-5.24c3.93-.16 7.24 2.92 7.4 6.88zm-129.25 111.3 27.77-1.11c9.35-.38 15.49 8.4 7.68 20l-39.22 58.57c-9.63 14.22-9.6 14.78 3.18 31.48l47.12 62.45c8.43 10.95 3.33 21.31-6.57 21.71l-29.97 1.2c-10.44.42-17.86-6.05-24.61-16.22l-32.8-48.91c-4.69-6.86-6.42-8.77-10.54-8.6l-5.22.21c-3.58.14-4.62 1.6-4.48 4.97l2.3 57.47c.33 8.17-5.2 14.31-13.18 14.64l-22.54.9c-7.97.32-13.99-5.37-14.31-13.53l-6.67-166.22c-.33-8.17 5.2-14.31 13.18-14.63l22.54-.9c7.97-.33 13.99 5.36 14.31 13.52l2.17 54.09c.15 3.67 1.3 4.75 4.87 4.61l4.95-.2c3.58-.14 5.42-2.19 8.52-7.4l29.66-50.01c6.96-11.84 11.4-17.67 21.85-18.09m-113.09 242.16c-.32-8.11 5.34-14.23 13.51-14.55l23.36-.94c8.16-.33 14.3 5.3 14.63 13.41l3.67 91.46c1.43 35.53 7.38 43.41 29.61 42.51l7.32-.29c22.23-.89 27.54-9.23 26.11-44.75l-3.67-91.46c-.33-8.11 5.35-14.22 13.51-14.55l23.36-.94c8.16-.33 14.3 5.31 14.63 13.42l3.7 92.3c2.76 68.8-21.51 89.11-75.25 91.27l-8.44.34c-53.74 2.16-79.56-16.14-82.33-84.94l-3.71-92.3zm459.41 225.11-24.35-606.85c-.79-19.66-17.31-34.96-36.91-34.17l-460.5 18.51c-19.59.78-34.84 17.36-34.05 37.02l24.35 606.86c.79 19.66 17.31 34.96 36.9 34.17l460.51-18.51c19.59-.79 34.84-17.37 34.05-37.03"/><path d="m1081.41 587.18-89.95-126.76c-24.43-33.91-24.43-35.02-3.89-62.26l83.85-112.3c16.66-22.24 5-40.03-13.88-40.03h-56.08c-21.11 0-30.54 11.12-45.54 33.91l-63.86 96.18c-6.66 10-10.55 13.9-17.77 13.9h-9.99c-7.21 0-9.44-2.23-9.44-9.46v-106.74c0-16.12-11.66-27.79-27.76-27.79h-45.54c-16.1 0-27.76 11.67-27.76 27.79v328.01c0 16.12 11.67 27.79 27.76 27.79h45.54c16.11 0 27.76-11.67 27.76-27.79v-113.41c0-6.67 2.23-9.46 9.44-9.46h10.56c8.32 0 11.66 3.89 20.54 17.79l62.2 98.96c12.76 20.56 27.2 33.91 48.31 33.91h60.53c19.99 0 31.1-20.01 14.99-42.25m272.01-207.91c0 31.13-13.33 41.14-66.62 41.14h-53.86c-7.21 0-9.44-2.23-9.44-9.46v-65.6c0-7.23 2.23-9.45 9.44-9.45h53.86c53.29 0 66.62 9.45 66.62 41.14zm37.2 123.97c-6.11-9.46-5.55-12.79 3.33-17.24 42.2-21.67 61.07-50.03 61.07-103.4v-8.9c0-95.06-51.63-127.86-166.56-127.86h-137.13c-16.11 0-27.76 11.67-27.76 27.79v328.01c0 16.12 11.66 27.79 27.76 27.79h44.42c16.1 0 27.76-11.67 27.76-27.79v-86.73c0-7.23 2.23-9.45 9.44-9.45h35.53c9.44 0 12.21 1.66 17.76 11.12l49.98 81.72c12.21 20.01 17.21 31.13 49.4 31.13h48.86c21.65 0 27.76-21.13 16.1-38.36l-59.96-87.84zm433.05-46.15v-183.45c0-16.12-11.67-27.79-27.77-27.79h-46.11c-16.12 0-27.78 11.67-27.78 27.79v181.78c0 70.6-11.1 86.73-54.99 86.73h-14.45c-43.89 0-55-16.13-55-86.73v-181.78c0-16.12-11.67-27.79-27.77-27.79h-46.11c-16.12 0-27.78 11.67-27.78 27.79v183.45c0 136.75 49.44 175.12 155.56 175.12h16.66c106.11 0 155.55-38.37 155.55-175.12m375.14-0v-183.45c0-16.12-11.67-27.79-27.77-27.79h-46.12c-16.11 0-27.77 11.67-27.77 27.79v181.78c0 70.6-11.11 86.73-55 86.73h-14.45c-43.88 0-54.99-16.13-54.99-86.73v-181.78c0-16.12-11.67-27.79-27.78-27.79h-46.11c-16.11 0-27.77 11.67-27.77 27.79v183.45c0 136.75 49.44 175.12 155.55 175.12h16.67c106.11 0 155.55-38.37 155.55-175.12"/><path d="m1809.44 758.39c0-10.56-4.5-15.45-17.8-15.45s-17.79 4.89-17.79 15.45 4.69 15.26 17.79 15.26 17.8-4.89 17.8-15.26m97.44.01v-13.29c0-6.06-3.34-8.8-8.85-8.8-5.9 0-15.73 6.06-30.09 6.06h-2.55c-11.99 0-14.35-5.48-14.35-20.14v-3.72c0-14.66 2.36-20.14 14.55-20.14h2.36c13.97 0 24.2 5.87 30.09 5.87 5.5 0 8.85-2.74 8.85-8.61v-13.1c0-7.42-2.95-9.77-8.65-11.73-4.72-1.56-17.11-3.71-30.49-3.71h-2.95c-34.81 0-49.16 10.36-49.16 50.84v4.89c0 40.67 14.75 50.84 50.54 50.84h1.57c15.54 0 24.79-1.95 31.08-3.71 4.72-1.37 8.06-4.3 8.06-11.54m79.69-35.19c0 14.86-3.74 19.16-15.14 19.16h-1.18c-11.4 0-15.14-4.3-15.14-19.16v-5.68c0-14.86 3.74-19.16 15.14-19.16h1.18c11.4 0 15.14 4.3 15.14 19.16zm35.4-.4v-4.89c0-40.48-14.35-50.84-49.17-50.84h-3.93c-34.81 0-49.17 10.36-49.17 50.84v4.89c0 40.48 14.36 50.84 49.17 50.84h3.93c34.82 0 49.17-10.36 49.17-50.84m168.92 40.09v-44.97c0-43.61-13.77-50.84-76.11-50.84-28.71 0-47 1.17-61.36 3.32-12.78 1.95-16.32 7.83-16.32 20.34v72.15c0 5.67 4.13 9.77 9.83 9.77h15.73c5.71 0 9.83-4.11 9.83-9.77v-54.75c0-6.84 1.38-8.21 7.08-8.99 4.53-.59 8.85-.79 12.39-.79 3.34 0 4.33 1.17 4.33 3.33v61.2c0 5.67 4.13 9.77 9.83 9.77h15.73c5.7 0 9.83-4.11 9.83-9.77v-61.2c0-2.54 1.17-3.33 3.74-3.33 19.26 0 20.05 4.7 20.05 31.29v33.24c0 5.67 4.13 9.77 9.83 9.77h15.73c5.7 0 9.83-4.11 9.83-9.77"/></g></svg>
