<svg fill="none" height="56" viewBox="0 0 154 48" width="154" xmlns="http://www.w3.org/2000/svg" xmlns:xlink="http://www.w3.org/1999/xlink"><linearGradient id="a" gradientUnits="userSpaceOnUse" x1="-10.381" x2="38.8896" y1="33.1953" y2="13.0537"><stop offset="0" stop-color="#4b2efb"/><stop offset="1" stop-color="#e65ffc"/></linearGradient><path clip-rule="evenodd" d="m2 7.49503c0-1.37913 0-2.0687.26742-2.62372.23567-.48912.61468-.90368 1.09189-1.19429.54151-.32976 1.26145-.42765 2.70132-.62341l20.53517-2.792012c1.864-.25343016 2.796-.380145 3.5203-.112596.6357.234865 1.1663.670918 1.5018 1.234258.3821.64174.3821 1.53442.3821 3.31976v38.59398c0 1.7853 0 2.678-.3821 3.3197-.3355.5634-.8661.9994-1.5018 1.2343-.7243.2675-1.6563.1408-3.5202-.1126h-.0001l-20.53517-2.792h-.00006c-1.43983-.1958-2.15976-.2937-2.70126-.6234-.47721-.2906-.85622-.7052-1.09189-1.1943-.26742-.555-.26742-1.2446-.26742-2.6237zm22 13.01277c0-.4199 0-.6299.0705-.7959.0621-.1462.1618-.2683.2862-.3508.1412-.0937.328-.1127.7016-.1507l1.6727-.1702c.4402-.0448.6602-.0672.8301.015.1493.0721.2727.1983.3504.3582.0885.182.0885.4294.0885.9242v7.3248c0 .4948 0 .7422-.0885.9242-.0777.1599-.2011.2861-.3504.3582-.1699.0822-.3899.0598-.8301.015l-1.6727-.1702c-.3736-.038-.5604-.057-.7016-.1507-.1244-.0825-.2241-.2046-.2862-.3508-.0705-.166-.0705-.376-.0705-.7959zm13.6444-15.5078h-2.6444v39h2.6444c1.5246 0 2.2869 0 2.8692-.2976.5123-.2617.9287-.6793 1.1897-1.193.2967-.584.2967-1.3485.2967-2.8774v-30.264c0-1.52894 0-2.29342-.2967-2.87739-.261-.51369-.6774-.93132-1.1897-1.19306-.5823-.29755-1.3446-.29755-2.8692-.29755z" fill="url(#a)" fill-rule="evenodd"/><g fill="#191c1d"><path d="m85.5299 36.8005c-2.0548 0-3.8295-.427-5.3239-1.281-1.4944-.8539-2.6419-2.0414-3.4425-3.5625-.8005-1.5478-1.2008-3.3358-1.2008-5.3639 0-2.0815.4136-3.8828 1.2409-5.4039.8272-1.5211 1.9881-2.7087 3.4825-3.5626 1.5211-.854 3.2957-1.281 5.3238-1.281 2.0549 0 3.8161.427 5.2839 1.281 1.4944.8539 2.6552 2.0415 3.4825 3.5626s1.2409 3.309 1.2409 5.3638c0 2.0282-.427 3.8161-1.2809 5.3639-.8273 1.5478-1.9881 2.7487-3.4826 3.6026-1.4944.8273-3.269 1.2543-5.3238 1.281zm.04-3.8828c1.1208 0 2.0815-.2802 2.8821-.8407.8006-.5604 1.4144-1.3209 1.8413-2.2816.4537-.9607.6805-2.0415.6805-3.2424 0-1.2275-.2135-2.3216-.6404-3.2823-.427-.9607-1.0408-1.7079-1.8414-2.2417-.8006-.5604-1.7613-.8406-2.8821-.8406-1.0674 0-2.0148.2802-2.842.8406-.8273.5604-1.4678 1.321-1.9214 2.2817-.427.9607-.6538 2.0415-.6805 3.2423 0 1.2276.2135 2.3217.6405 3.2824.4269.9607 1.0541 1.7213 1.8813 2.2817.8273.5337 1.788.8006 2.8821.8006z"/><path d="m116.582 17.0748c0-.1153-.094-.2088-.209-.2088h-4.105c-.116 0-.209.0935-.209.2088v20.4862c0 1.361-.507 2.2063-1.521 2.9535-.988.7472-2.098.9914-3.673 1.0181-1.094-.0267-2.121-.1241-3.028-.4176-.851-.2503-1.782-.6181-2.753-1.1033-.106-.0528-.235-.0088-.285.0982l-1.4761 3.1455c-.0426.0908-.0148.1995.0682.256.4503.3064.9769.5802 1.5799.8213.667.2669 1.347.4804 2.041.6405.721.1868 1.465.3426 2.106.4227.667.08 1.297.0909 1.697.0909 2.028 0 3.763-.3203 5.204-.9607 1.467-.6405 2.588-1.5478 3.362-2.722.801-1.1742 1.201-2.5752 1.201-4.2031zm-3.268 13.2589c-.061-.1447-.255-.1728-.358-.0543-.785.9034-1.583 1.5434-2.338 1.9578-.801.4536-1.722.6805-2.762.6805-1.068 0-2.002-.2669-2.802-.8006-.774-.5604-1.361-1.321-1.762-2.2817-.4-.9607-.6-2.0681-.6-3.3224 0-1.2009.2-2.2683.6-3.2023.401-.9607.988-1.7213 1.762-2.2817.8-.5604 1.748-.8406 2.842-.8406 1.014 0 1.814.2135 2.642.6405.772.3862 1.594 1.268 2.301 2.189.099.1283.3.1044.363-.0446l1.136-2.6802c.028-.0653.021-.14-.019-.1982-1.434-2.0569-3.858-3.7493-6.619-3.7493-2.001 0-3.58.427-5.048 1.281-1.468.8539-2.602 2.0415-3.4026 3.5626-.7739 1.5211-1.1608 3.2957-1.1608 5.3238 0 2.0815.3869 3.8962 1.1608 5.444.7736 1.5211 1.8816 2.7086 3.3226 3.5625 1.468.854 3.202 1.281 5.204 1.281.747 0 1.521-.1468 2.321-.4403.828-.2669 1.628-.6672 2.402-1.2009.74-.5107 1.395-1.119 1.965-1.8251.047-.0591.058-.1398.029-.2097z"/><path d="m132.061 17.235c0-.1154-.093-.2089-.209-.2089h-4.466c-.115 0-.208-.0935-.208-.2088v-5.4599c0-.1153-.094-.2088-.209-.2088h-4.066c-.115 0-.209.0935-.209.2088v5.4599c0 .1153-.093.2088-.208.2088h-2.72c-.116 0-.21.0949-.209.2111l.036 3.3851c.001.1144.094.2066.208.2066h2.685c.115 0 .208.0935.208.2088v9.4382c0 1.4143.281 2.6152.841 3.6026.587.9607 1.388 1.6946 2.402 2.2016s2.241.7605 3.682.7605c.401 0 .828-.0533 1.281-.1601.481-.1067.945-.2191 1.345-.3792.357-.134 1.054-.4834 1.409-.6892.094-.0547.123-.174.07-.2692l-1.652-2.9121c-.052-.0924-.165-.131-.264-.0933-.267.1018-.543.1856-.828.2514-.347.08-.694.1201-1.04.1201-.934 0-1.628-.0981-2.082-.7119-.454-.6404-.68-1.4544-.68-2.4417v-8.7177c0-.1153.093-.2088.208-.2088h4.466c.116 0 .209-.0935.209-.2088z"/><path d="m143.913 36.7905c-2.055 0-3.83-.427-5.324-1.2809-1.495-.854-2.642-2.0415-3.443-3.5626-.8-1.5478-1.201-3.3358-1.201-5.3639 0-2.0815.414-3.8828 1.241-5.4039.828-1.5211 1.988-2.7086 3.483-3.5626 1.521-.8539 3.296-1.2809 5.324-1.2809 2.055 0 3.816.427 5.284 1.2809 1.494.854 2.655 2.0415 3.482 3.5626s1.241 3.3091 1.241 5.3639c0 2.0281-.427 3.8161-1.281 5.3639-.827 1.5478-1.988 2.7486-3.482 3.6026-1.495.8272-3.269 1.2542-5.324 1.2809zm.04-3.8828c1.121 0 2.081-.2802 2.882-.8406.8-.5604 1.414-1.321 1.841-2.2817.454-.9607.681-2.0415.681-3.2423 0-1.2276-.214-2.3217-.641-3.2824s-1.041-1.7079-1.841-2.2416c-.801-.5604-1.761-.8406-2.882-.8406-1.068 0-2.015.2802-2.842.8406-.828.5604-1.468 1.3209-1.922 2.2816-.427.9607-.654 2.0415-.68 3.2424 0 1.2275.213 2.3217.64 3.2824.427.9606 1.054 1.7212 1.882 2.2816.827.5337 1.788.8006 2.882.8006z"/><path d="m73.6634 32.7575c0-.1153-.0935-.2088-.2088-.2088h-10.8026c-.1153 0-.2088-.0935-.2088-.2088v-21.0266c0-.1153-.0935-.2088-.2088-.2088h-4.0256c-.1153 0-.2088.0935-.2088.2088v25.2783c0 .1154.0935.2089.2088.2089h15.2458c.1153 0 .2088-.0935.2088-.2089z"/></g></svg>
