<svg xmlns="http://www.w3.org/2000/svg" width="1448" height="263"><g fill="none" fill-rule="evenodd"><g fill="#004581"><path d="M120.06 0h2.59C87.42 36.66 52.06 73.2 16.82 109.86 8.01 119.01 3 130.98 0 143.16v-19.32c1.83-33.85 17.27-66.72 42.36-89.55A131.75 131.75 0 0 1 120.06 0zM48.12 137.14C90.13 93.62 132.05 50.01 174.1 6.52a132.18 132.18 0 0 1 70.39 56.92c14.98 24.71 21.22 54.48 17.86 83.15-2.08-5.03-4.28-10.05-7.39-14.54-4.22-6.61-10.13-11.85-15.71-17.27a65.05 65.05 0 0 0-44.28-18.07 64.9 64.9 0 0 0-46.17 18.1c-17.14 17.49-34.05 35.23-51.04 52.87 10 9.57 19.99 19.16 29.9 28.83 16.23-17.09 32.7-33.96 49.02-50.96 5.84-6.22 15.1-8.7 23.33-6.62 7.56 1.69 12.63 7.89 17.93 13.02 6.95 7.21 8.33 18.93 3.62 27.7-1.88 3.58-4.87 6.36-7.62 9.25-23.73 24.48-47.26 49.15-71.04 73.58-3.61.15-7.21.31-10.81.52h-1.38c-12.47-.36-24.96-1.9-36.91-5.59a131.03 131.03 0 0 1-72.33-53.99c3.45 2.91 6.47 6.31 10.12 9a65.54 65.54 0 0 0 42.44 13.39 65.58 65.58 0 0 0 44.25-19.65c-9.85-9.68-19.83-19.23-29.8-28.78-8.58 8.65-23.83 9.37-32.86 1.04-4.77-4.58-10.44-8.8-12.82-15.22a24.2 24.2 0 0 1 5.32-26.06zm277.41-56.1c.08-9.95 8.56-19.04 18.54-19.51 7.22-.1 14.44.01 21.67-.03.02 66.08 0 132.16.01 198.25H325.5c.02-59.57-.04-119.15.03-178.71z"/><path fill-rule="nonzero" d="M1272.03 79.94c.11-9.56 8.44-18.21 18.05-18.42 6.8-.07 13.61.01 20.42-.02v198.24c-26.19.01-52.38.02-78.57-.01-10.98-.42-22.06-2.67-31.85-7.8-10.94-5.52-19.74-14.82-25.49-25.57-5.68-10.88-8.29-23.15-8.82-35.36-.53-16.53 2.31-33.76 11.28-47.93 6.61-10.6 16.26-19.76 28.27-23.82 8.8-2.76 18-4.16 27.21-4.67 13.15-.22 26.3-.43 39.46-.33.04-11.44-.04-22.88.04-34.31zm-42.68 67.62c-8.6 2.62-15.76 9.44-19.17 17.72-4.67 12.01-4.76 25.28-2.75 37.86 1.17 6.56 3.45 13.39 8.57 17.95 4.42 4.01 10.62 4.63 16.22 5.82 13.12 2.49 26.5 2.06 39.77 1.85.02-27.6.01-55.2.01-82.8-14.2 1.02-28.57-.88-42.65 1.6zm-204.15-17.29c11.21-10.2 26-15.57 40.82-17.71 17.73-2.38 36.29.07 52.41 8 15.28 7.51 27.17 21.34 32.69 37.41a87.29 87.29 0 0 1-1.46 62.71c-4.19 9.98-10.71 19.01-19.26 25.68-14.13 11.81-32.98 16.13-51.01 16.64h-1.6c-14.05-.46-28.29-3.22-40.71-10.02-12.02-6.52-21.68-17.07-27.52-29.4a87.09 87.09 0 0 1-4.39-60.52c3.52-12.48 10.26-24.17 20.03-32.79zm45.15 14.38c-11.25 2.94-21.4 11.08-25.26 22.25-5.09 15.17-4.13 32.49 3.24 46.77a31.76 31.76 0 0 0 19.86 15.92c17.23 5.97 38.34-3.99 44.21-21.38 4.05-12.32 4.99-25.99.87-38.42-2.19-6.77-5.4-13.5-10.97-18.12-8.59-7.55-21.02-9.82-31.95-7.02z"/><path d="M377.01 132.89c-.05-9.62 8.31-18.35 17.93-18.63 6.85-.04 13.7.01 20.56-.01.02 29.59-.03 59.18.02 88.76.3 6.64.41 14.14 5.06 19.39 6 5.51 14.78 5.44 22.42 5.35 9.5-.08 19.01.22 28.5-.3-.11-27.15.26-54.31-.25-81.45.13-5.3-.35-10.64.42-15.9 1.31-8.68 9.41-15.91 18.25-15.85 6.69-.02 13.38.02 20.07 0v145.5c-26.01-.02-52.03.03-78.05-.02-14.81-.66-30.48-3.81-42.1-13.61-9.8-9.13-12.41-23.21-12.82-36.03-.03-25.74-.02-51.47-.01-77.2zm143.72.1c-.23-9.73 8.43-18.63 18.16-18.74 19.38.01 38.77-.01 58.16.01 13.89.48 28.25 3.02 40.1 10.67 7.32 4.65 11.91 12.58 14.14 20.8 3.06 10.81 2.71 22.17 2.71 33.3 0 26.9.01 53.81-.01 80.72h-38.74c.01-29.25-.02-58.51.02-87.76-.16-7.08-.29-15.33-5.6-20.7-6.72-5.06-15.69-4.5-23.65-4.54-8.92-.42-17.85-.2-26.77-.24v113.23h-38.49c-.03-42.25.01-84.5-.03-126.75z"/><path fill-rule="nonzero" d="M671.51 129.02c-.06-7.66 6.69-14.79 14.42-14.78 21.68.01 43.35.02 65.03 0 9-.16 17.98 1.19 26.69 3.35 10.5 2.97 19.48 10.29 25.45 19.31 5.56 8.93 7.48 19.65 7.89 30.03.03 30.94.01 61.88 0 92.82h-89.04c-10.22-.26-20.67.97-30.65-1.87-9.52-2.42-18.2-8.5-23.14-17.07-5.24-8.9-6.3-19.6-5.44-29.71.91-9.17 3.44-18.69 9.8-25.64 4.98-5.5 12.22-8.01 19.12-10.15 20.27-5.92 41.58-3.07 62.36-3.91 5.66-.29 11.33-.09 17-.15.21-6.22-.18-13-4.12-18.14-2.58-3.49-6.92-4.81-10.9-5.96-11.69-3.29-23.95-2.23-35.94-2.39-16.18-.47-32.36.24-48.54-.02.03-5.24-.05-10.48.01-15.72zm40.54 73.8c-2.37.77-4.89 1.75-6.43 3.81-2.83 3.79-3.14 8.84-2.73 13.39.25 3.45 2.06 7.16 5.55 8.29a46.24 46.24 0 0 0 17.61 1.97c15.06-.07 30.13 0 45.2-.03v-29.74c-13.09-.02-26.17.01-39.26-.02-6.69.04-13.52.26-19.94 2.33z"/><path d="M859.29 132.99c.05-9.82 8.68-18.85 18.6-18.74 18.04-.01 36.08.02 54.12-.01 14.93.03 30.54 2.3 43.37 10.43 8.59 5.19 13.41 14.79 15.4 24.35 2.3 9.81 1.63 19.94 1.72 29.93v80.79c-12.83.02-25.66 0-38.49.01-.03-29.94.02-59.88-.03-89.82-.43-6.32-.7-13.59-5.37-18.42-6.61-5.23-15.65-4.72-23.61-4.76-8.99-.42-18-.2-27-.25-.01 37.75.01 75.5-.01 113.25h-38.74c.03-42.26-.05-84.51.04-126.76zm501.1-14.42c11.22-3.12 22.94-4.3 34.58-4.08 12.7-.43 25.42-.16 38.13-.25 7.39-.24 14.02 5.89 14.9 13.14v17.37c-16-.01-31.99.02-47.98-.02-10.08.08-20.66.81-29.73 5.59-7.19 4.57-8.45 13.87-8.91 21.66 19.21.04 38.43.03 57.64.01 6.17.01 12.5-1.01 18.56.58a15.29 15.29 0 0 1 10.42 12.59v4.28c-.85 4.53-3.47 8.79-7.58 11.01-4.05 2.42-8.92 2.08-13.44 2.06-21.86-.02-43.73-.02-65.59 0 .47 7.57 1.21 16.48 7.56 21.61 6.83 4.24 15.2 4.78 23.03 5.32 18.68.28 37.34-.42 56.02-.19v17.41c-.9 6.89-6.94 12.9-13.98 13.06-13.02.08-26.04-.01-39.06.03-6.25.08-12.52.01-18.72-.87-9.35-1.32-18.95-3.06-27.15-8-13.05-7.64-22.54-20.73-26.46-35.27-4.08-13.42-4.83-27.69-3.12-41.57 1.57-11.39 4.57-22.91 11.02-32.58 7.09-10.57 17.44-19.41 29.86-22.89z"/></g><path fill="#3384B9" d="M245.73 215.66a67.87 67.87 0 0 0 17.48-28.44c.09 24.76.02 49.52.04 74.28-20.5 0-40.99.01-61.48-.01 14.45-15.47 29.36-30.5 43.96-45.83z"/></g></svg>