<svg enable-background="new 0 0 819.6 216" viewBox="0 0 819.6 216" xmlns="http://www.w3.org/2000/svg"><path d="m711.6 72c-39.8 0-72 32.2-72 72s32.2 72 72 72l72-72z" fill="#3d843d"/><path d="m711.6 0c-39.8 0-72 32.2-72 72s32.2 72 72 72l72-72z" fill="#8cc42d"/><path d="m758.2 82.5h50.9v50.9h-50.9z" fill="#65a435" transform="matrix(.7071 -.7071 .7071 .7071 153.1541 585.7466)"/><path d="m711.6 144 36-36-36-36c-26.6 0-49.9 14.5-62.3 36 12.4 21.5 35.7 36 62.3 36z" fill="#65a435"/><g fill="#5f7672"><path d="m44.5 63c11.3 0 21.2 5 26.5 17.1 5.8-11 16.9-17.1 29-17.1 22 0 31.9 15.7 31.9 34.7v52.9h-16.9v-47.3c0-13.9-4.1-26.1-18.9-26.1-15.5 0-21.6 14-21.6 27.4v46.1h-17.1v-50.8c0-13.3-4.5-22.7-18-22.7-12.4 0-21.8 11.2-21.8 28.1v45.4h-16.9v-67c0-4.5-.2-12.8-.7-18.4h16c.4 4.3.7 10.4.7 14h.5c4.4-8.9 14.3-16.3 27.3-16.3z"/><path d="m200.7 153c-26.1 0-45.9-18.9-45.9-45.2s19.8-44.8 45.9-44.8 46.1 18.5 46.1 44.8-20 45.2-46.1 45.2zm0-76c-18.2 0-28.4 14.6-28.4 30.8s10.3 31 28.4 31c18.4 0 28.4-14.8 28.4-31s-10-30.8-28.4-30.8z"/><path d="m285.5 65.3c.4 4.3.7 10.4.7 14h.5c4.1-9.2 15.5-16.4 27.7-16.4 22 0 31.9 15.7 31.9 34.7v52.9h-16.9v-47.3c0-13.9-3.8-26.1-19.4-26.1-13.3 0-22.9 11.2-22.9 28.1v45.4h-16.9v-67c0-4.5-.2-12.8-.7-18.4h16z"/><path d="m383.6 45.4c-6.1 0-11.2-4.9-11.2-10.8 0-6.1 5-11 11.2-11s11.3 4.7 11.3 11c0 6.1-5.2 10.8-11.3 10.8zm8.4 105.3h-16.9v-85.4h16.9z"/><path d="m463.3 79.2h-22.7v44.5c0 10.3 3.6 14.4 12.1 14.4 3.1 0 7-.7 9.9-2.2l.5 13.9c-4 1.4-9.2 2.3-14.4 2.3-16 0-24.8-9-24.8-26.6v-46.3h-16.4v-13.9h16.4v-24.4h16.7v24.5h22.7z"/><path d="m521.1 153c-26.1 0-45.9-18.9-45.9-45.2s19.8-44.8 45.9-44.8 46.1 18.5 46.1 44.8-20 45.2-46.1 45.2zm0-76c-18.2 0-28.4 14.6-28.4 30.8s10.3 31 28.4 31c18.4 0 28.4-14.8 28.4-31s-10-30.8-28.4-30.8z"/></g></svg>