<svg id="Layer_1" xmlns="http://www.w3.org/2000/svg" viewBox="0 0 210.2 41.7"><style>.st0{fill:#2932d2}.st3{fill:#241b69}</style><path class="st0" d="M62.1 37L42 3.3c-1.1-1.8-3.6-1.8-4.7 0l-5.9 9.9s4.8 11.7 6.9 15.2S48 41.1 48 41.1h11.7c2.1 0 3.4-2.3 2.4-4.1z"/><linearGradient id="SVGID_1_" gradientUnits="userSpaceOnUse" x1="13.947" y1="557.165" x2="18.985" y2="516.13" gradientTransform="translate(0 -514.724)"><stop offset=".002" stop-color="#e7244f"/><stop offset=".746" stop-color="#fd5557"/></linearGradient><path d="M25.6 3.3c-1.1-1.8-3.6-1.8-4.7 0L.9 37c-1.1 1.8.2 4.1 2.3 4.1h11.7s7.8-9.8 9.9-13.2c2.1-3.5 6.7-14.7 6.7-14.7l-5.9-9.9z" fill="url(#SVGID_1_)"/><path class="st0" d="M72.2 37.4c-4.7-3.9-7.7-9.7-7.7-16.3 0-11.6 9.4-21 21-21 5.8 0 11.1 2.4 14.9 6.2L72.2 37.4z"/><linearGradient id="SVGID_2_" gradientUnits="userSpaceOnUse" x1="86.692" y1="557.643" x2="94.728" y2="519.84" gradientTransform="translate(0 -514.724)"><stop offset=".002" stop-color="#e7244f"/><stop offset=".621" stop-color="#fd5557"/><stop offset=".852" stop-color="#fd5557"/></linearGradient><path d="M72.2 37.4c3.6 3 8.3 4.8 13.3 4.8 11.6 0 21-9.4 21-21 0-5.8-2.4-11.1-6.2-14.9L72.2 37.4z" fill="url(#SVGID_2_)"/><path class="st3" d="M72.2 37.4c-4.7-3.9-7.7-9.7-7.7-16.3 0-11.6 9.4-21 21-21 5.8 0 11.1 2.4 14.9 6.2L72.2 37.4z"/><path fill="#220d41" d="M14.9 41.1h33.2L31.5 13.2z"/><linearGradient id="SVGID_3_" gradientUnits="userSpaceOnUse" x1="-107.037" y1="301.036" x2="-61.437" y2="301.036" gradientTransform="rotate(180 51.432 161.068)"><stop offset=".002" stop-color="#e7244f"/><stop offset=".785" stop-color="#fc5457"/><stop offset=".965" stop-color="#fd5557"/></linearGradient><path d="M187.1 41.1l22.4-35.9c1.1-1.8-.2-4.1-2.3-4.1H167c-2.1 0-3.4 2.3-2.3 4.1l22.4 35.9z" fill="url(#SVGID_3_)"/><path class="st0" d="M176.5 24l-8.7 15.4c-.4.7.1 1.7 1 1.7h18.4L176.5 24z"/><linearGradient id="SVGID_4_" gradientUnits="userSpaceOnUse" x1="146.03" y1="526.684" x2="124.909" y2="507.667" gradientTransform="translate(0 -514.724)"><stop offset=".002" stop-color="#dd1a40"/><stop offset=".965" stop-color="#fd5557"/></linearGradient><path d="M116.9 1.9c.5-.5 1.2-.8 2-.8h34.2c.8 0 1.5.3 2 .8.2.2-19.1 19.1-19.1 19.1s-.4-.2-1.4-1.1c-4.5-4.5-17.9-17.8-17.7-18z" fill="url(#SVGID_4_)"/><linearGradient id="SVGID_5_" gradientUnits="userSpaceOnUse" x1="-120.145" y1="-1304.421" x2="-81.94" y2="-1304.421" gradientTransform="rotate(90 -640.256 -518.214)"><stop offset=".002" stop-color="#e73f4f"/><stop offset=".785" stop-color="#fc5457"/><stop offset=".965" stop-color="#fd5557"/></linearGradient><path d="M155.1 1.9c.5.5.8 1.2.8 2v34.2c0 .8-.3 1.5-.8 2-.3.2-19.1-19.1-19.1-19.1s18.8-19.4 19.1-19.1z" fill="url(#SVGID_5_)"/><path class="st3" d="M155 40.1c-.5.5-1.2.8-2 .8h-34.2c-.8 0-1.5-.3-2-.8C116.6 39.8 136 21 136 21s19.3 18.8 19 19.1z"/><path class="st0" d="M116.9 40.1c-.5-.5-.8-1.2-.8-2V3.9c0-.8.3-1.5.8-2C117.1 1.6 136 21 136 21s-18.9 19.3-19.1 19.1z"/><path fill="none" d="M100.4 6.3L72.2 37.4"/></svg>
