<svg width="1663" height="513" viewBox="0 0 1663 513" fill="none" xmlns="http://www.w3.org/2000/svg">
<path d="M171.324 206.757L0 309.084V104.02L171.324 206.757Z" fill="#5B29FF"/>
<path fill-rule="evenodd" clip-rule="evenodd" d="M171.321 206.741L340.676 104.003L512 206.741V409.338L340.676 512.075V309.478L171.321 206.741Z" fill="#2962FF"/>
<path d="M171.324 0.0751953L0 104.045L171.324 206.782L340.679 104.045L171.324 0.0751953Z" fill="#FFC629"/>
<path fill-rule="evenodd" clip-rule="evenodd" d="M0 104.045L171.324 206.782L340.679 104.045L171.324 0.0751953L0 104.045ZM31.9666 103.959L171.278 187.499L308.987 103.959L171.277 19.4167L31.9666 103.959Z" fill="#FAFAFA"/>
<path d="M171.308 187.506V19.4824L32 104.019L171.308 187.506Z" fill="#FFBC00"/>
<path d="M689.6 312.124H743.793V499.292H689.6V312.124ZM716.697 286.032C706.738 286.032 698.633 283.133 692.38 277.335C686.127 271.537 683 264.347 683 255.765C683 247.184 686.127 239.994 692.38 234.196C698.633 228.398 706.738 225.498 716.697 225.498C726.655 225.498 734.761 228.282 741.014 233.848C747.267 239.414 750.394 246.372 750.394 254.722C750.394 263.767 747.267 271.305 741.014 277.335C734.761 283.133 726.655 286.032 716.697 286.032Z" fill="#192137"/>
<path d="M890.316 309.341C913.476 309.341 932.119 316.299 946.246 330.215C960.605 344.131 967.784 364.773 967.784 392.14V499.292H913.591V400.49C913.591 385.646 910.349 374.63 903.864 367.44C897.38 360.018 888 356.307 875.726 356.307C862.062 356.307 851.177 360.598 843.071 369.179C834.965 377.529 830.912 390.053 830.912 406.752V499.292H776.719V312.124H828.481V334.042C835.66 326.156 844.576 320.126 855.23 315.951C865.883 311.545 877.578 309.341 890.316 309.341Z" fill="#192137"/>
<path d="M1069.36 502.075C1053.85 502.075 1038.68 500.22 1023.86 496.509C1009.03 492.566 997.222 487.696 988.421 481.897L1006.49 442.933C1014.82 448.267 1024.9 452.674 1036.71 456.153C1048.52 459.4 1060.1 461.024 1071.45 461.024C1094.38 461.024 1105.84 455.341 1105.84 443.977C1105.84 438.642 1102.71 434.815 1096.46 432.496C1090.21 430.177 1080.6 428.205 1067.63 426.582C1052.34 424.263 1039.72 421.595 1029.76 418.58C1019.8 415.565 1011.12 410.231 1003.71 402.577C996.527 394.923 992.937 384.023 992.937 369.875C992.937 358.047 996.296 347.61 1003.01 338.564C1009.96 329.287 1019.92 322.097 1032.89 316.995C1046.09 311.892 1061.61 309.341 1079.44 309.341C1092.64 309.341 1105.72 310.849 1118.69 313.864C1131.89 316.647 1142.78 320.59 1151.35 325.692L1133.28 364.309C1116.84 355.031 1098.89 350.393 1079.44 350.393C1067.86 350.393 1059.17 352.016 1053.38 355.263C1047.59 358.51 1044.7 362.685 1044.7 367.788C1044.7 373.586 1047.83 377.645 1054.08 379.964C1060.33 382.283 1070.29 384.487 1083.95 386.574C1099.24 389.125 1111.75 391.908 1121.47 394.923C1131.2 397.707 1139.65 402.925 1146.83 410.579C1154.01 418.232 1157.6 428.901 1157.6 442.585C1157.6 454.182 1154.13 464.502 1147.18 473.548C1140.23 482.593 1130.04 489.667 1116.61 494.769C1103.41 499.64 1087.66 502.075 1069.36 502.075Z" fill="#192137"/>
<path d="M1301.16 490.247C1295.83 494.19 1289.23 497.205 1281.36 499.292C1273.72 501.147 1265.61 502.075 1257.04 502.075C1234.81 502.075 1217.55 496.393 1205.28 485.028C1193.24 473.664 1187.22 456.965 1187.22 434.931V358.047H1158.38V316.299H1187.22V270.725H1241.41V316.299H1287.96V358.047H1241.41V434.236C1241.41 442.121 1243.38 448.267 1247.31 452.674C1251.48 456.849 1257.27 458.936 1264.68 458.936C1273.25 458.936 1280.55 456.617 1286.57 451.978L1301.16 490.247Z" fill="#192137"/>
<path d="M1386.12 309.341C1415.07 309.341 1437.3 316.299 1452.82 330.215C1468.34 343.899 1476.1 364.657 1476.1 392.488V499.292H1425.38V475.983C1415.19 493.378 1396.2 502.075 1368.4 502.075C1354.05 502.075 1341.54 499.64 1330.89 494.769C1320.46 489.899 1312.47 483.173 1306.92 474.591C1301.36 466.01 1298.58 456.269 1298.58 445.368C1298.58 427.974 1305.06 414.29 1318.03 404.317C1331.23 394.344 1351.5 389.357 1378.83 389.357H1421.9C1421.9 377.529 1418.31 368.483 1411.13 362.221C1403.95 355.727 1393.18 352.48 1378.83 352.48C1368.87 352.48 1359.02 354.104 1349.3 357.351C1339.8 360.366 1331.7 364.541 1324.98 369.875L1305.53 331.954C1315.72 324.765 1327.88 319.198 1342 315.255C1356.36 311.313 1371.07 309.341 1386.12 309.341ZM1381.95 465.546C1391.22 465.546 1399.44 463.459 1406.62 459.284C1413.8 454.877 1418.89 448.499 1421.9 440.15V421.016H1384.73C1362.5 421.016 1351.38 428.321 1351.38 442.933C1351.38 449.891 1354.05 455.457 1359.37 459.632C1364.93 463.575 1372.46 465.546 1381.95 465.546Z" fill="#192137"/>
<path d="M1504.3 241.154H1558.49V499.292H1504.3V241.154Z" fill="#192137"/>
<path d="M1591.42 241.154H1645.61V499.292H1591.42V241.154Z" fill="#192137"/>
<path d="M692.38 277.184C698.633 282.982 706.738 285.882 716.697 285.882C726.655 285.882 734.761 282.982 741.014 277.184C747.267 271.154 750.394 263.616 750.394 254.571C750.394 246.221 747.267 239.264 741.014 233.697C734.761 228.131 726.655 225.348 716.697 225.348C706.738 225.348 698.633 228.247 692.38 234.045C686.127 239.843 683 247.033 683 255.615C683 264.196 686.127 271.386 692.38 277.184Z" fill="#192137"/>
<path d="M796.578 10.0754C819.734 10.0754 838.374 17.0108 852.499 30.8816C866.855 44.7524 874.033 65.3273 874.033 92.6065V199.411H819.849V100.929C819.849 86.1335 816.608 75.1524 810.124 67.9859C803.64 60.5881 794.262 56.8893 781.99 56.8893C768.328 56.8893 757.445 61.1661 749.341 69.7197C741.236 78.0422 737.184 90.5259 737.184 107.171V199.411H683V12.8496H734.753V34.696C741.931 26.8359 750.846 20.8253 761.497 16.664C772.149 12.2716 783.842 10.0754 796.578 10.0754Z" fill="#192137"/>
<path d="M1092.3 106.824C1092.3 107.518 1091.95 112.372 1091.26 121.388H949.893C952.44 132.947 958.461 142.079 967.954 148.783C977.448 155.487 989.258 158.839 1003.38 158.839C1013.11 158.839 1021.68 157.452 1029.09 154.678C1036.73 151.673 1043.79 147.049 1050.27 140.807L1079.1 172.017C1061.5 192.129 1035.8 202.186 1001.99 202.186C980.922 202.186 962.281 198.14 946.072 190.049C929.864 181.726 917.36 170.283 908.56 155.718C899.761 141.154 895.362 124.625 895.362 106.13C895.362 87.8673 899.646 71.4536 908.213 56.8893C917.012 42.0938 928.937 30.6504 943.988 22.5591C959.271 14.2367 976.29 10.0754 995.046 10.0754C1013.34 10.0754 1029.9 14.0055 1044.72 21.8656C1059.53 29.7257 1071.11 41.0535 1079.45 55.849C1088.02 70.4133 1092.3 87.4049 1092.3 106.824ZM995.394 50.9942C983.121 50.9942 972.817 54.4619 964.481 61.3973C956.145 68.3327 951.051 77.811 949.198 89.8323H1041.24C1039.39 78.0422 1034.3 68.6794 1025.96 61.744C1017.62 54.5775 1007.43 50.9942 995.394 50.9942Z" fill="#192137"/>
<path d="M1310.46 12.8496L1231.61 199.411H1175.69L1097.19 12.8496H1153.12L1204.87 139.767L1258.36 12.8496H1310.46Z" fill="#192137"/>
<path d="M1510.52 106.824C1510.52 107.518 1510.18 112.372 1509.48 121.388H1368.12C1370.66 132.947 1376.69 142.079 1386.18 148.783C1395.67 155.487 1407.48 158.839 1421.61 158.839C1431.33 158.839 1439.9 157.452 1447.31 154.678C1454.95 151.673 1462.01 147.049 1468.5 140.807L1497.33 172.017C1479.73 192.129 1454.02 202.186 1420.22 202.186C1399.15 202.186 1380.51 198.14 1364.3 190.049C1348.09 181.726 1335.58 170.283 1326.79 155.718C1317.99 141.154 1313.59 124.625 1313.59 106.13C1313.59 87.8673 1317.87 71.4536 1326.44 56.8893C1335.24 42.0938 1347.16 30.6504 1362.21 22.5591C1377.5 14.2367 1394.51 10.0754 1413.27 10.0754C1431.56 10.0754 1448.12 14.0055 1462.94 21.8656C1477.76 29.7257 1489.34 41.0535 1497.67 55.849C1506.24 70.4133 1510.52 87.4049 1510.52 106.824ZM1413.62 50.9942C1401.35 50.9942 1391.04 54.4619 1382.71 61.3973C1374.37 68.3327 1369.28 77.811 1367.42 89.8323H1459.47C1457.61 78.0422 1452.52 68.6794 1444.18 61.744C1435.85 54.5775 1425.66 50.9942 1413.62 50.9942Z" fill="#192137"/>
<path d="M1598.35 37.4702C1604.83 28.4542 1613.52 21.6344 1624.4 17.0108C1635.52 12.3872 1648.25 10.0754 1662.61 10.0754V60.0102C1656.59 59.5478 1652.53 59.3167 1650.45 59.3167C1634.94 59.3167 1622.78 63.7091 1613.98 72.4939C1605.18 81.0475 1600.78 93.9936 1600.78 111.332V199.411H1546.6V12.8496H1598.35V37.4702Z" fill="#192137"/>
</svg>
