<svg width="1664" height="513" viewBox="0 0 1664 513" fill="none" xmlns="http://www.w3.org/2000/svg">
<path d="M171.865 206.684L0.541077 309.011V103.947L171.865 206.684Z" fill="#6A51F5"/>
<path fill-rule="evenodd" clip-rule="evenodd" d="M171.862 206.668L341.217 103.93L512.541 206.668V409.265L341.217 512.002V309.405L171.862 206.668Z" fill="#386DFF"/>
<path d="M171.865 0.00219727L0.541077 103.972L171.865 206.709L341.22 103.972L171.865 0.00219727Z" fill="#FFC629"/>
<path fill-rule="evenodd" clip-rule="evenodd" d="M0.541077 103.972L171.865 206.709L341.22 103.972L171.865 0.00219727L0.541077 103.972ZM32.5077 103.886L171.819 187.426L309.528 103.886L171.818 19.3437L32.5077 103.886Z" fill="#FAFAFA"/>
<path d="M171.849 187.433V19.4094L32.5411 103.946L171.849 187.433Z" fill="#FFBC00"/>
<path d="M690.141 312.051H744.334V499.219H690.141V312.051ZM717.238 285.959C707.279 285.959 699.174 283.06 692.921 277.262C686.668 271.464 683.541 264.274 683.541 255.692C683.541 247.111 686.668 239.921 692.921 234.123C699.174 228.325 707.279 225.425 717.238 225.425C727.196 225.425 735.302 228.209 741.555 233.775C747.808 239.341 750.935 246.299 750.935 254.649C750.935 263.694 747.808 271.232 741.555 277.262C735.302 283.06 727.196 285.959 717.238 285.959Z" fill="#FAFCFE"/>
<path d="M890.857 309.268C914.017 309.268 932.66 316.226 946.787 330.142C961.146 344.058 968.325 364.7 968.325 392.067V499.219H914.132V400.417C914.132 385.573 910.89 374.557 904.405 367.367C897.921 359.945 888.541 356.234 876.267 356.234C862.603 356.234 851.718 360.525 843.612 369.106C835.506 377.456 831.453 389.98 831.453 406.679V499.219H777.26V312.051H829.022V333.969C836.201 326.083 845.117 320.053 855.771 315.878C866.424 311.472 878.12 309.268 890.857 309.268Z" fill="#FAFCFE"/>
<path d="M1069.9 502.002C1054.39 502.002 1039.22 500.147 1024.4 496.436C1009.57 492.493 997.763 487.623 988.962 481.824L1007.03 442.86C1015.36 448.194 1025.44 452.601 1037.25 456.08C1049.06 459.327 1060.64 460.951 1071.99 460.951C1094.92 460.951 1106.38 455.268 1106.38 443.904C1106.38 438.569 1103.25 434.742 1097 432.423C1090.75 430.104 1081.14 428.132 1068.17 426.509C1052.88 424.19 1040.26 421.522 1030.3 418.507C1020.34 415.492 1011.66 410.158 1004.25 402.504C997.068 394.85 993.479 383.95 993.479 369.802C993.479 357.974 996.837 347.537 1003.55 338.491C1010.5 329.214 1020.46 322.024 1033.43 316.922C1046.63 311.819 1062.15 309.268 1079.98 309.268C1093.18 309.268 1106.26 310.776 1119.23 313.791C1132.43 316.574 1143.32 320.517 1151.89 325.619L1133.82 364.236C1117.38 354.958 1099.43 350.32 1079.98 350.32C1068.4 350.32 1059.71 351.943 1053.92 355.19C1048.13 358.437 1045.24 362.612 1045.24 367.715C1045.24 373.513 1048.37 377.572 1054.62 379.891C1060.87 382.21 1070.83 384.414 1084.49 386.501C1099.78 389.052 1112.29 391.835 1122.01 394.85C1131.74 397.634 1140.19 402.852 1147.37 410.506C1154.55 418.159 1158.14 428.828 1158.14 442.512C1158.14 454.109 1154.67 464.429 1147.72 473.475C1140.77 482.52 1130.58 489.594 1117.15 494.696C1103.95 499.567 1088.2 502.002 1069.9 502.002Z" fill="#FAFCFE"/>
<path d="M1301.7 490.174C1296.37 494.117 1289.77 497.132 1281.9 499.219C1274.26 501.074 1266.15 502.002 1257.58 502.002C1235.35 502.002 1218.1 496.32 1205.82 484.955C1193.78 473.591 1187.76 456.892 1187.76 434.858V357.974H1158.92V316.226H1187.76V270.652H1241.95V316.226H1288.5V357.974H1241.95V434.163C1241.95 442.048 1243.92 448.194 1247.86 452.601C1252.02 456.776 1257.81 458.863 1265.22 458.863C1273.79 458.863 1281.09 456.544 1287.11 451.905L1301.7 490.174Z" fill="#FAFCFE"/>
<path d="M1386.66 309.268C1415.61 309.268 1437.84 316.226 1453.36 330.142C1468.88 343.826 1476.64 364.584 1476.64 392.415V499.219H1425.92V475.91C1415.73 493.305 1396.74 502.002 1368.95 502.002C1354.59 502.002 1342.08 499.567 1331.43 494.696C1321.01 489.826 1313.02 483.1 1307.46 474.518C1301.9 465.937 1299.12 456.196 1299.12 445.295C1299.12 427.901 1305.6 414.217 1318.57 404.244C1331.77 394.271 1352.04 389.284 1379.37 389.284H1422.44C1422.44 377.456 1418.85 368.41 1411.67 362.148C1404.49 355.654 1393.73 352.407 1379.37 352.407C1369.41 352.407 1359.57 354.031 1349.84 357.278C1340.34 360.293 1332.24 364.468 1325.52 369.802L1306.07 331.881C1316.26 324.692 1328.42 319.125 1342.54 315.182C1356.9 311.24 1371.61 309.268 1386.66 309.268ZM1382.49 465.473C1391.76 465.473 1399.98 463.386 1407.16 459.211C1414.34 454.804 1419.43 448.426 1422.44 440.077V420.943H1385.27C1363.04 420.943 1351.92 428.248 1351.92 442.86C1351.92 449.818 1354.59 455.384 1359.91 459.559C1365.47 463.502 1373 465.473 1382.49 465.473Z" fill="#FAFCFE"/>
<path d="M1504.84 241.081H1559.03V499.219H1504.84V241.081Z" fill="#FAFCFE"/>
<path d="M1591.96 241.081H1646.15V499.219H1591.96V241.081Z" fill="#FAFCFE"/>
<path d="M692.921 277.111C699.174 282.909 707.279 285.809 717.238 285.809C727.196 285.809 735.302 282.909 741.555 277.111C747.808 271.081 750.935 263.543 750.935 254.498C750.935 246.148 747.808 239.191 741.555 233.624C735.302 228.058 727.196 225.275 717.238 225.275C707.279 225.275 699.174 228.174 692.921 233.972C686.668 239.77 683.541 246.96 683.541 255.542C683.541 264.123 686.668 271.313 692.921 277.111Z" fill="#FAFAFA"/>
<path d="M797.119 10.0024C820.275 10.0024 838.915 16.9378 853.04 30.8086C867.396 44.6794 874.574 65.2543 874.574 92.5335V199.338H820.39V100.856C820.39 86.0605 817.149 75.0794 810.665 67.9129C804.181 60.5151 794.803 56.8163 782.531 56.8163C768.869 56.8163 757.986 61.0931 749.882 69.6467C741.777 77.9692 737.725 90.4529 737.725 107.098V199.338H683.541V12.7766H735.294V34.623C742.472 26.7629 751.387 20.7523 762.038 16.591C772.69 12.1986 784.383 10.0024 797.119 10.0024Z" fill="#FAFCFE"/>
<path d="M1092.84 106.751C1092.84 107.445 1092.49 112.299 1091.8 121.315H950.434C952.981 132.874 959.002 142.006 968.495 148.71C977.989 155.414 989.799 158.766 1003.92 158.766C1013.65 158.766 1022.22 157.379 1029.63 154.605C1037.27 151.6 1044.33 146.976 1050.81 140.734L1079.64 171.944C1062.04 192.056 1036.34 202.113 1002.53 202.113C981.463 202.113 962.822 198.067 946.613 189.976C930.405 181.653 917.901 170.21 909.101 155.645C900.302 141.081 895.903 124.552 895.903 106.057C895.903 87.7943 900.187 71.3806 908.754 56.8163C917.553 42.0208 929.478 30.5774 944.529 22.4861C959.812 14.1637 976.831 10.0024 995.587 10.0024C1013.88 10.0024 1030.44 13.9325 1045.26 21.7926C1060.08 29.6527 1071.65 40.9805 1079.99 55.776C1088.56 70.3403 1092.84 87.3319 1092.84 106.751ZM995.935 50.9212C983.662 50.9212 973.358 54.3889 965.022 61.3243C956.686 68.2597 951.592 77.738 949.739 89.7593H1041.78C1039.93 77.9692 1034.84 68.6064 1026.5 61.6711C1018.16 54.5045 1007.98 50.9212 995.935 50.9212Z" fill="#FAFCFE"/>
<path d="M1311 12.7766L1232.15 199.338H1176.23L1097.74 12.7766H1153.66L1205.41 139.694L1258.9 12.7766H1311Z" fill="#FAFCFE"/>
<path d="M1511.07 106.751C1511.07 107.445 1510.72 112.299 1510.02 121.315H1368.66C1371.21 132.874 1377.23 142.006 1386.72 148.71C1396.21 155.414 1408.02 158.766 1422.15 158.766C1431.87 158.766 1440.44 157.379 1447.85 154.605C1455.49 151.6 1462.55 146.976 1469.04 140.734L1497.87 171.944C1480.27 192.056 1454.57 202.113 1420.76 202.113C1399.69 202.113 1381.05 198.067 1364.84 189.976C1348.63 181.653 1336.13 170.21 1327.33 155.645C1318.53 141.081 1314.13 124.552 1314.13 106.057C1314.13 87.7943 1318.41 71.3806 1326.98 56.8163C1335.78 42.0208 1347.7 30.5774 1362.75 22.4861C1378.04 14.1637 1395.06 10.0024 1413.81 10.0024C1432.1 10.0024 1448.66 13.9325 1463.48 21.7926C1478.3 29.6527 1489.88 40.9805 1498.21 55.776C1506.78 70.3403 1511.07 87.3319 1511.07 106.751ZM1414.16 50.9212C1401.89 50.9212 1391.58 54.3889 1383.25 61.3243C1374.91 68.2597 1369.82 77.738 1367.96 89.7593H1460.01C1458.15 77.9692 1453.06 68.6064 1444.72 61.6711C1436.39 54.5045 1426.2 50.9212 1414.16 50.9212Z" fill="#FAFCFE"/>
<path d="M1598.89 37.3972C1605.38 28.3812 1614.06 21.5614 1624.94 16.9378C1636.06 12.3142 1648.79 10.0024 1663.15 10.0024V59.9372C1657.13 59.4748 1653.08 59.2437 1650.99 59.2437C1635.48 59.2437 1623.32 63.6361 1614.52 72.4209C1605.72 80.9745 1601.32 93.9206 1601.32 111.259V199.338H1547.14V12.7766H1598.89V37.3972Z" fill="#FAFCFE"/>
</svg>
