<svg width="733" height="280" viewBox="0 0 733 280" fill="none" xmlns="http://www.w3.org/2000/svg">
<rect width="733" height="280" rx="12" fill="white"/>
<g clip-path="url(#clip0_712_800)">
<path fill-rule="evenodd" clip-rule="evenodd" d="M57.0711 158.084L72.2825 173.308L157.484 88.0748L124.493 55.0718L57.0782 122.548C54.7434 124.88 52.8909 127.649 51.6268 130.698C50.3626 133.746 49.7116 137.014 49.7109 140.315C49.7103 143.615 50.36 146.883 51.6229 149.932C52.8858 152.982 54.7371 155.751 57.0711 158.084Z" fill="#061499"/>
<path fill-rule="evenodd" clip-rule="evenodd" d="M192.516 157.519C192.326 157.722 192.133 157.922 191.935 158.12L176.951 173.11L176.853 173.208L124.52 225.561L109.301 210.343C106.968 208.012 105.117 205.242 103.854 202.194C102.591 199.146 101.941 195.879 101.941 192.579C101.941 189.279 102.591 186.012 103.854 182.964C105.117 179.917 106.968 177.147 109.301 174.815L143.881 140.241L109.402 105.767C107.071 103.435 105.222 100.667 103.96 97.6202C102.698 94.5735 102.049 91.308 102.049 88.0101C102.049 84.7123 102.698 81.4468 103.96 78.4C105.222 75.3532 107.071 72.5849 109.402 70.2531L124.621 55L192.035 122.477C196.746 127.182 199.394 133.566 199.4 140.224C199.405 146.667 196.935 152.856 192.516 157.519Z" fill="#2C40F7"/>
</g>
<path d="M353.23 189.741H379.55V94.9886H353.23V189.741Z" fill="#10161F"/>
<path d="M410.982 66.9766V94.9886H392.746V116.797H410.982V155.337C410.982 177.333 425.082 189.741 446.89 189.741H462.494V167.745H450.462C442.002 167.745 437.114 163.421 437.114 154.209V116.797H462.494V94.9886H437.114V66.9766H410.982Z" fill="#10161F"/>
<path d="M537.329 116.797V94.9886H526.613C515.145 94.9886 508.001 98.9366 502.925 110.781V94.9886H476.605V189.741H502.925V143.681C502.925 127.513 508.753 116.797 521.725 116.797H537.329Z" fill="#10161F"/>
<path d="M549.492 189.741H575.812V94.9886H549.492V189.741Z" fill="#10161F"/>
<path d="M639.015 191.245C663.643 191.245 683.195 175.453 686.015 154.397H659.319C657.439 162.857 649.731 168.685 640.143 168.685C625.855 168.685 617.395 157.781 617.395 142.365C617.395 126.949 625.667 115.857 639.767 115.857C649.355 115.857 657.439 122.061 658.943 130.521H685.263C683.571 108.525 663.831 93.4846 639.015 93.4846C609.687 93.4846 590.135 114.729 590.135 142.365C590.135 170.001 609.687 191.245 639.015 191.245Z" fill="#10161F"/>
<path d="M562.65 53.8164C570.282 53.8164 576.562 60.0029 576.562 67.6344C576.562 75.2659 570.282 81.4524 562.65 81.4524C555.019 81.4524 548.738 75.2659 548.738 67.6344C548.738 60.0029 555.019 53.8164 562.65 53.8164Z" fill="#10161F"/>
<path d="M366.389 53.8164C374.02 53.8164 380.301 60.0029 380.301 67.6344C380.301 75.2659 374.02 81.4524 366.389 81.4524C358.757 81.4524 352.477 75.2659 352.477 67.6344C352.477 60.0029 358.757 53.8164 366.389 53.8164Z" fill="#10161F"/>
<path d="M247.625 189.74H273.945V137.852C273.945 125.632 282.029 116.796 293.497 116.796C304.401 116.796 311.733 125.068 311.733 136.536V189.74H338.053V130.708C338.053 108.9 322.383 92.4844 292.709 92.4844C263.035 92.4844 248.377 111.74 248.377 130.708L247.625 189.74Z" fill="#10161F"/>
<defs>
<clipPath id="clip0_712_800">
<rect width="150.41" height="170.561" fill="white" transform="translate(49 55)"/>
</clipPath>
</defs>
</svg>
