<svg height="160" viewBox="0 0 683 160" width="683" xmlns="http://www.w3.org/2000/svg"><g fill="none" fill-rule="evenodd"><path d="m0 0h683v160h-683z" fill="#fff"/><g fill-rule="nonzero" transform="translate(45 35)"><path d="m19.2 72.5c-6-3.2-10.7-7.6-14.1-13.3-3.4-5.6-5.1-12-5.1-19s1.7-13.4 5.1-19 8.1-10.1 14.1-13.3 12.7-4.8 20.2-4.8 14.2 1.6 20.1 4.8c6 3.2 10.6 7.6 14.1 13.3s5.1 12 5.1 19-1.7 13.4-5.1 19-8.2 10.1-14.2 13.3c-5.9 3.2-12.7 4.8-20.1 4.8s-14.1-1.6-20.1-4.8zm31.6-12.2c3.4-1.9 6.1-4.7 8.1-8.2 1.9-3.5 2.9-7.5 2.9-11.9s-1-8.4-2.9-11.9c-2-3.5-4.6-6.2-8.1-8.2s-7.2-2.9-11.5-2.9c-4.2 0-8.1 1-11.5 2.9s-6.1 4.7-8.1 8.2-2.9 7.5-2.9 11.9 1 8.4 2.9 11.9 4.6 6.2 8.1 8.2c3.4 1.9 7.2 2.9 11.5 2.9s8.1-1 11.5-2.9z" fill="#104366"/><path d="m98.3 75c-5.3-1.5-9.6-3.5-12.8-6l5.6-12.5c3.1 2.3 6.7 4.1 11 5.4 4.2 1.4 8.5 2.1 12.7 2.1 4.7 0 8.2-.7 10.5-2.1s3.4-3.3 3.4-5.6c0-1.7-.7-3.1-2-4.3-1.3-1.1-3-2-5.1-2.7s-4.9-1.4-8.5-2.3c-5.5-1.3-10-2.6-13.4-3.9-3.5-1.3-6.5-3.4-9-6.3s-3.7-6.7-3.7-11.5c0-4.2 1.1-7.9 3.4-11.3s5.7-6.1 10.2-8.1 10.1-3 16.7-3c4.6 0 9.1.5 13.4 1.6 4.4 1.1 8.2 2.7 11.5 4.7l-5.1 12.6c-6.6-3.8-13.3-5.6-19.9-5.6-4.7 0-8.1.8-10.3 2.3s-3.3 3.5-3.3 5.9c0 2.5 1.3 4.3 3.8 5.5 2.6 1.2 6.5 2.4 11.7 3.5 5.5 1.3 10 2.6 13.4 3.9 3.5 1.3 6.5 3.4 9 6.2s3.7 6.6 3.7 11.4c0 4.1-1.1 7.8-3.4 11.2s-5.7 6.1-10.3 8.1-10.2 3-16.7 3c-5.7.1-11.2-.6-16.5-2.2z" fill="#104366"/><path d="m163.7 75c-5.3-1.5-9.6-3.5-12.8-6l5.6-12.5c3.1 2.3 6.7 4.1 11 5.4 4.2 1.4 8.5 2.1 12.7 2.1 4.7 0 8.2-.7 10.5-2.1s3.4-3.3 3.4-5.6c0-1.7-.7-3.1-2-4.3-1.3-1.1-3-2-5.1-2.7s-4.9-1.4-8.5-2.3c-5.5-1.3-9.9-2.6-13.4-3.9s-6.5-3.4-9-6.3-3.7-6.7-3.7-11.5c0-4.2 1.1-7.9 3.4-11.3s5.7-6.1 10.2-8.1 10.1-3 16.7-3c4.6 0 9.1.5 13.4 1.6 4.4 1.1 8.2 2.7 11.5 4.7l-5.2 12.9c-6.6-3.8-13.3-5.6-19.9-5.6-4.7 0-8.1.8-10.3 2.3s-3.3 3.5-3.3 5.9c0 2.5 1.3 4.3 3.8 5.5 2.6 1.2 6.5 2.4 11.7 3.5 5.5 1.3 9.9 2.6 13.4 3.9s6.5 3.4 9 6.2 3.7 6.6 3.7 11.4c0 4.1-1.1 7.8-3.4 11.2s-5.7 6.1-10.3 8.1-10.2 3-16.7 3c-5.6-.2-11.1-.9-16.4-2.5z" fill="#104366"/><g fill="#4086c6"><path d="m266.4 71.9c-5.6-3.1-10.1-7.5-13.3-13s-4.9-11.8-4.9-18.7 1.6-13.1 4.9-18.7c3.2-5.5 7.7-9.9 13.3-13s12-4.7 19-4.7c5.2 0 10 .8 14.4 2.5s8.1 4.2 11.2 7.4l-3.3 3.4c-5.7-5.7-13.1-8.5-22.1-8.5-6 0-11.5 1.4-16.4 4.1s-8.8 6.5-11.6 11.3-4.2 10.2-4.2 16.2 1.4 11.3 4.2 16.2c2.8 4.8 6.7 8.6 11.6 11.3s10.4 4.1 16.4 4.1c8.9 0 16.2-2.9 22.1-8.6l3.3 3.4c-3.1 3.3-6.8 5.8-11.2 7.5s-9.2 2.6-14.3 2.6c-7.1-.1-13.5-1.6-19.1-4.8z"/><path d="m359.3 27.2c3.6 3.4 5.3 8.4 5.3 14.9v34h-4.9v-9.5c-1.7 3.1-4.2 5.6-7.5 7.3s-7.2 2.6-11.8 2.6c-5.9 0-10.6-1.4-14.1-4.2s-5.2-6.5-5.2-11.1c0-4.4 1.6-8.1 4.8-10.8 3.2-2.8 8.3-4.2 15.2-4.2h18.4v-4.2c0-5-1.3-8.8-4-11.4s-6.7-3.9-11.8-3.9c-3.6 0-7 .6-10.2 1.8s-6 2.9-8.3 4.9l-2.6-3.7c2.7-2.4 5.9-4.3 9.6-5.6 3.8-1.3 7.7-2 11.8-2 6.6.1 11.7 1.7 15.3 5.1zm-6.9 42c3.1-2.1 5.5-5 7-8.9v-10h-18.3c-5.3 0-9.1 1-11.4 2.9-2.4 1.9-3.5 4.5-3.5 7.9 0 3.5 1.3 6.2 3.9 8.3 2.6 2 6.3 3 11 3 4.5-.1 8.2-1.1 11.3-3.2z"/><path d="m426.1 25.6c4 2.3 7.2 5.5 9.5 9.6s3.4 8.8 3.4 14.1-1.1 10-3.4 14.1-5.5 7.4-9.5 9.6-8.5 3.4-13.5 3.4c-4.7 0-9-1.1-12.8-3.3s-6.8-5.3-8.9-9.3v32.2h-5.1v-73.4h4.9v12.6c2.1-4.1 5.1-7.3 9-9.6s8.2-3.4 13-3.4c4.9 0 9.4 1.1 13.4 3.4zm-2.7 43.4c3.3-1.9 5.9-4.6 7.7-8 1.9-3.4 2.8-7.3 2.8-11.7s-.9-8.3-2.8-11.7-4.5-6.1-7.7-8c-3.3-1.9-7-2.9-11.1-2.9s-7.8 1-11 2.9-5.8 4.6-7.7 8-2.8 7.3-2.8 11.7.9 8.3 2.8 11.7 4.4 6.1 7.7 8c3.2 1.9 6.9 2.9 11 2.9s7.8-1 11.1-2.9z"/><path d="m454.6 8.4c-.8-.8-1.2-1.8-1.2-2.9 0-1.2.4-2.2 1.2-3s1.8-1.2 3-1.2 2.2.4 3 1.2 1.2 1.8 1.2 2.9c0 1.2-.4 2.2-1.2 3s-1.8 1.2-3 1.2c-1.2-.1-2.2-.5-3-1.2zm.4 14.2h5.1v53.5h-5.1z"/><path d="m508.3 72.7c-1.3 1.2-2.9 2.2-4.9 2.8s-4 1-6.1 1c-4.7 0-8.2-1.3-10.8-3.8-2.5-2.6-3.8-6.1-3.8-10.7v-35h-9.8v-4.4h9.8v-11.7h5.1v11.7h17v4.4h-17v34.5c0 3.5.8 6.1 2.5 8 1.7 1.8 4.2 2.7 7.4 2.7 3.4 0 6.1-1 8.3-3z"/><path d="m555.9 27.2c3.6 3.4 5.3 8.4 5.3 14.9v34h-4.9v-9.5c-1.7 3.1-4.2 5.6-7.5 7.3s-7.2 2.6-11.8 2.6c-5.9 0-10.6-1.4-14.1-4.2s-5.2-6.5-5.2-11.1c0-4.4 1.6-8.1 4.8-10.8 3.2-2.8 8.3-4.2 15.2-4.2h18.4v-4.2c0-5-1.3-8.8-4-11.4s-6.7-3.9-11.8-3.9c-3.6 0-7 .6-10.2 1.8s-6 2.9-8.3 4.9l-2.6-3.7c2.7-2.4 5.9-4.3 9.6-5.6 3.8-1.3 7.7-2 11.8-2 6.6.1 11.7 1.7 15.3 5.1zm-6.8 42c3.1-2.1 5.5-5 7-8.9v-10h-18.3c-5.3 0-9.1 1-11.4 2.9-2.4 1.9-3.5 4.5-3.5 7.9 0 3.5 1.3 6.2 3.9 8.3 2.6 2 6.3 3 11 3 4.4-.1 8.2-1.1 11.3-3.2z"/><path d="m582.4 0h5.1v76.1h-5.1z"/></g></g></g></svg>