<?xml version="1.0" encoding="UTF-8"?>
<svg width="683px" height="206px" viewBox="0 0 683 206" version="1.1" xmlns="http://www.w3.org/2000/svg" xmlns:xlink="http://www.w3.org/1999/xlink">
    <title>Artboard</title>
    <g id="Artboard" stroke="none" stroke-width="1" fill="none" fill-rule="evenodd">
        <rect fill="#FFFFFF" x="0" y="0" width="683" height="206"></rect>
        <g id="oss-capital" transform="translate(45.000000, 63.000000)" fill-rule="nonzero">
            <path d="M19.2,72.5 C13.2,69.3 8.5,64.9 5.1,59.2 C1.7,53.6 0,47.2 0,40.2 C0,33.2 1.7,26.8 5.1,21.2 C8.5,15.6 13.2,11.1 19.2,7.9 C25.2,4.7 31.9,3.1 39.4,3.1 C46.9,3.1 53.6,4.7 59.5,7.9 C65.5,11.1 70.1,15.5 73.6,21.2 C77.1,26.9 78.7,33.2 78.7,40.2 C78.7,47.2 77,53.6 73.6,59.2 C70.2,64.8 65.4,69.3 59.4,72.5 C53.5,75.7 46.7,77.3 39.3,77.3 C31.9,77.3 25.2,75.7 19.2,72.5 Z M50.8,60.3 C54.2,58.4 56.9,55.6 58.9,52.1 C60.8,48.6 61.8,44.6 61.8,40.2 C61.8,35.8 60.8,31.8 58.9,28.3 C56.9,24.8 54.3,22.1 50.8,20.1 C47.3,18.1 43.6,17.2 39.3,17.2 C35.1,17.2 31.2,18.2 27.8,20.1 C24.4,22 21.7,24.8 19.7,28.3 C17.7,31.8 16.8,35.8 16.8,40.2 C16.8,44.6 17.8,48.6 19.7,52.1 C21.6,55.6 24.3,58.3 27.8,60.3 C31.2,62.2 35,63.2 39.3,63.2 C43.6,63.2 47.4,62.2 50.8,60.3 Z" id="Shape" fill="#104366"></path>
            <path d="M98.3,75 C93,73.5 88.7,71.5 85.5,69 L91.1,56.5 C94.2,58.8 97.8,60.6 102.1,61.9 C106.3,63.3 110.6,64 114.8,64 C119.5,64 123,63.3 125.3,61.9 C127.6,60.5 128.7,58.6 128.7,56.3 C128.7,54.6 128,53.2 126.7,52 C125.4,50.9 123.7,50 121.6,49.3 C119.5,48.6 116.7,47.9 113.1,47 C107.6,45.7 103.1,44.4 99.7,43.1 C96.2,41.8 93.2,39.7 90.7,36.8 C88.2,33.9 87,30.1 87,25.3 C87,21.1 88.1,17.4 90.4,14 C92.7,10.6 96.1,7.9 100.6,5.9 C105.1,3.9 110.7,2.9 117.3,2.9 C121.9,2.9 126.4,3.4 130.7,4.5 C135.1,5.6 138.9,7.2 142.2,9.2 L137.1,21.8 C130.5,18 123.8,16.2 117.2,16.2 C112.5,16.2 109.1,17 106.9,18.5 C104.7,20 103.6,22 103.6,24.4 C103.6,26.9 104.9,28.7 107.4,29.9 C110,31.1 113.9,32.3 119.1,33.4 C124.6,34.7 129.1,36 132.5,37.3 C136,38.6 139,40.7 141.5,43.5 C144,46.3 145.2,50.1 145.2,54.9 C145.2,59 144.1,62.7 141.8,66.1 C139.5,69.5 136.1,72.2 131.5,74.2 C126.9,76.2 121.3,77.2 114.8,77.2 C109.1,77.3 103.6,76.6 98.3,75 Z" id="Path" fill="#104366"></path>
            <path d="M163.7,75 C158.4,73.5 154.1,71.5 150.9,69 L156.5,56.5 C159.6,58.8 163.2,60.6 167.5,61.9 C171.7,63.3 176,64 180.2,64 C184.9,64 188.4,63.3 190.7,61.9 C193,60.5 194.1,58.6 194.1,56.3 C194.1,54.6 193.4,53.2 192.1,52 C190.8,50.9 189.1,50 187,49.3 C184.9,48.6 182.1,47.9 178.5,47 C173,45.7 168.6,44.4 165.1,43.1 C161.6,41.8 158.6,39.7 156.1,36.8 C153.6,33.9 152.4,30.1 152.4,25.3 C152.4,21.1 153.5,17.4 155.8,14 C158.1,10.6 161.5,7.9 166,5.9 C170.5,3.9 176.1,2.9 182.7,2.9 C187.3,2.9 191.8,3.4 196.1,4.5 C200.5,5.6 204.3,7.2 207.6,9.2 L202.4,22.1 C195.8,18.3 189.1,16.5 182.5,16.5 C177.8,16.5 174.4,17.3 172.2,18.8 C170,20.3 168.9,22.3 168.9,24.7 C168.9,27.2 170.2,29 172.7,30.2 C175.3,31.4 179.2,32.6 184.4,33.7 C189.9,35 194.3,36.3 197.8,37.6 C201.3,38.9 204.3,41 206.8,43.8 C209.3,46.6 210.5,50.4 210.5,55.2 C210.5,59.3 209.4,63 207.1,66.4 C204.8,69.8 201.4,72.5 196.8,74.5 C192.2,76.5 186.6,77.5 180.1,77.5 C174.5,77.3 169,76.6 163.7,75 Z" id="Path" fill="#104366"></path>
            <path d="M266.4,71.9 C260.8,68.8 256.3,64.4 253.1,58.9 C249.9,53.4 248.2,47.1 248.2,40.2 C248.2,33.3 249.8,27.1 253.1,21.5 C256.3,16 260.8,11.6 266.4,8.5 C272,5.4 278.4,3.8 285.4,3.8 C290.6,3.8 295.4,4.6 299.8,6.3 C304.2,8 307.9,10.5 311,13.7 L307.7,17.1 C302,11.4 294.6,8.6 285.6,8.6 C279.6,8.6 274.1,10 269.2,12.7 C264.3,15.4 260.4,19.2 257.6,24 C254.8,28.8 253.4,34.2 253.4,40.2 C253.4,46.2 254.8,51.5 257.6,56.4 C260.4,61.2 264.3,65 269.2,67.7 C274.1,70.4 279.6,71.8 285.6,71.8 C294.5,71.8 301.8,68.9 307.7,63.2 L311,66.6 C307.9,69.9 304.2,72.4 299.8,74.1 C295.4,75.8 290.6,76.7 285.5,76.7 C278.4,76.6 272,75.1 266.4,71.9 Z" id="Path" fill="#4086C6"></path>
            <path d="M359.3,27.2 C362.9,30.6 364.6,35.6 364.6,42.1 L364.6,76.1 L359.7,76.1 L359.7,66.6 C358,69.7 355.5,72.2 352.2,73.9 C348.9,75.6 345,76.5 340.4,76.5 C334.5,76.5 329.8,75.1 326.3,72.3 C322.8,69.5 321.1,65.8 321.1,61.2 C321.1,56.8 322.7,53.1 325.9,50.4 C329.1,47.6 334.2,46.2 341.1,46.2 L359.5,46.2 L359.5,42 C359.5,37 358.2,33.2 355.5,30.6 C352.8,28 348.8,26.7 343.7,26.7 C340.1,26.7 336.7,27.3 333.5,28.5 C330.3,29.7 327.5,31.4 325.2,33.4 L322.6,29.7 C325.3,27.3 328.5,25.4 332.2,24.1 C336,22.8 339.9,22.1 344,22.1 C350.6,22.2 355.7,23.8 359.3,27.2 Z M352.4,69.2 C355.5,67.1 357.9,64.2 359.4,60.3 L359.4,50.3 L341.1,50.3 C335.8,50.3 332,51.3 329.7,53.2 C327.3,55.1 326.2,57.7 326.2,61.1 C326.2,64.6 327.5,67.3 330.1,69.4 C332.7,71.4 336.4,72.4 341.1,72.4 C345.6,72.3 349.3,71.3 352.4,69.2 Z" id="Shape" fill="#4086C6"></path>
            <path d="M426.1,25.6 C430.1,27.9 433.3,31.1 435.6,35.2 C437.9,39.3 439,44 439,49.3 C439,54.6 437.9,59.3 435.6,63.4 C433.3,67.5 430.1,70.8 426.1,73 C422.1,75.2 417.6,76.4 412.6,76.4 C407.9,76.4 403.6,75.3 399.8,73.1 C396,70.9 393,67.8 390.9,63.8 L390.9,96 L385.8,96 L385.8,22.6 L390.7,22.6 L390.7,35.2 C392.8,31.1 395.8,27.9 399.7,25.6 C403.6,23.3 407.9,22.2 412.7,22.2 C417.6,22.2 422.1,23.3 426.1,25.6 Z M423.4,69 C426.7,67.1 429.3,64.4 431.1,61 C433,57.6 433.9,53.7 433.9,49.3 C433.9,44.9 433,41 431.1,37.6 C429.2,34.2 426.6,31.5 423.4,29.6 C420.1,27.7 416.4,26.7 412.3,26.7 C408.2,26.7 404.5,27.7 401.3,29.6 C398.1,31.5 395.5,34.2 393.6,37.6 C391.7,41 390.8,44.9 390.8,49.3 C390.8,53.7 391.7,57.6 393.6,61 C395.5,64.4 398,67.1 401.3,69 C404.5,70.9 408.2,71.9 412.3,71.9 C416.4,71.9 420.1,70.9 423.4,69 Z" id="Shape" fill="#4086C6"></path>
            <path d="M454.6,8.4 C453.8,7.6 453.4,6.6 453.4,5.5 C453.4,4.3 453.8,3.3 454.6,2.5 C455.4,1.7 456.4,1.3 457.6,1.3 C458.8,1.3 459.8,1.7 460.6,2.5 C461.4,3.3 461.8,4.3 461.8,5.4 C461.8,6.6 461.4,7.6 460.6,8.4 C459.8,9.2 458.8,9.6 457.6,9.6 C456.4,9.5 455.4,9.1 454.6,8.4 Z M455,22.6 L460.1,22.6 L460.1,76.1 L455,76.1 L455,22.6 Z" id="Shape" fill="#4086C6"></path>
            <path d="M508.3,72.7 C507,73.9 505.4,74.9 503.4,75.5 C501.4,76.1 499.4,76.5 497.3,76.5 C492.6,76.5 489.1,75.2 486.5,72.7 C484,70.1 482.7,66.6 482.7,62 L482.7,27 L472.9,27 L472.9,22.6 L482.7,22.6 L482.7,10.9 L487.8,10.9 L487.8,22.6 L504.8,22.6 L504.8,27 L487.8,27 L487.8,61.5 C487.8,65 488.6,67.6 490.3,69.5 C492,71.3 494.5,72.2 497.7,72.2 C501.1,72.2 503.8,71.2 506,69.2 L508.3,72.7 Z" id="Path" fill="#4086C6"></path>
            <path d="M555.9,27.2 C559.5,30.6 561.2,35.6 561.2,42.1 L561.2,76.1 L556.3,76.1 L556.3,66.6 C554.6,69.7 552.1,72.2 548.8,73.9 C545.5,75.6 541.6,76.5 537,76.5 C531.1,76.5 526.4,75.1 522.9,72.3 C519.4,69.5 517.7,65.8 517.7,61.2 C517.7,56.8 519.3,53.1 522.5,50.4 C525.7,47.6 530.8,46.2 537.7,46.2 L556.1,46.2 L556.1,42 C556.1,37 554.8,33.2 552.1,30.6 C549.4,28 545.4,26.7 540.3,26.7 C536.7,26.7 533.3,27.3 530.1,28.5 C526.9,29.7 524.1,31.4 521.8,33.4 L519.2,29.7 C521.9,27.3 525.1,25.4 528.8,24.1 C532.6,22.8 536.5,22.1 540.6,22.1 C547.2,22.2 552.3,23.8 555.9,27.2 Z M549.1,69.2 C552.2,67.1 554.6,64.2 556.1,60.3 L556.1,50.3 L537.8,50.3 C532.5,50.3 528.7,51.3 526.4,53.2 C524,55.1 522.9,57.7 522.9,61.1 C522.9,64.6 524.2,67.3 526.8,69.4 C529.4,71.4 533.1,72.4 537.8,72.4 C542.2,72.3 546,71.3 549.1,69.2 Z" id="Shape" fill="#4086C6"></path>
            <polygon id="Path" fill="#4086C6" points="582.4 0 587.5 0 587.5 76.1 582.4 76.1"></polygon>
        </g>
    </g>
</svg>