<svg fill="none" height="52" viewBox="0 0 148 52" width="148" xmlns="http://www.w3.org/2000/svg"><g fill="#262626"><path d="m18 16.1991c0-1.2145.9846-2.1991 2.1991-2.1991h8.6018c1.2145 0 2.1991.9846 2.1991 2.1991v1.7014c0 .6072-.4923 1.0995-1.0995 1.0995h-10.801c-.6072 0-1.0995-.4923-1.0995-1.0995z"/><path d="m18 23.0995c0-.6072.4923-1.0995 1.0995-1.0995h20.7014c1.2145 0 2.1991.9846 2.1991 2.1991v5.7014c0 .6072-.4923 1.0995-1.0995 1.0995h-20.7014c-1.2145 0-2.1991-.9846-2.1991-2.1991z"/><path d="m29 35.0995c0-.6072.4923-1.0995 1.0995-1.0995h10.801c.6072 0 1.0995.4923 1.0995 1.0995v.7014c0 1.2145-.9846 2.1991-2.1991 2.1991h-8.6018c-1.2145 0-2.1991-.9846-2.1991-2.1991z"/><path d="m55.5956 28.741h2.3115l4.2928 7.0171h5.256l-4.7606-7.5125c2.6417-.9081 4.1827-2.9444 4.1827-5.8889 0-4.1277-2.8894-6.3567-7.54-6.3567h-8.338v19.7581h4.5956zm0-3.7425v-5.1184h3.4948c2.1739 0 3.2746.9356 3.2746 2.5592 0 1.596-1.1007 2.5592-3.2746 2.5592z"/><path d="m75.3631 36.0608c2.8894 0 5.5312-1.4584 6.6044-4.2378l-3.6874-1.1833c-.4128 1.2659-1.486 1.9263-2.8619 1.9263-1.6787 0-2.8619-1.1282-3.1646-3.1096h9.824v-1.1557c0-4.1003-2.3941-7.3474-6.797-7.3474-4.1828 0-7.2649 3.2471-7.2649 7.54 0 4.513 2.972 7.5675 7.3474 7.5675zm-.1376-11.6952c1.6236 0 2.4767 1.1007 2.5042 2.394h-5.3385c.4402-1.596 1.4859-2.394 2.8343-2.394z"/><path d="m84.5732 31.878c0 2.972 1.5685 4.0177 4.7056 4.0177 1.0457 0 1.8712-.0825 2.6417-.1926v-3.6049c-.4953.055-.743.0825-1.2658.0825-1.1007 0-1.7337-.2201-1.7337-1.4309v-5.8614h2.8344v-3.6324h-2.8344v-4.0177h-4.3478v4.0177h-1.8438v3.6324h1.8438z"/><path d="m107.672 28.5208c0-4.513-3-7.5675-7.265-7.5675-4.2927 0-7.2647 3.0545-7.2647 7.5675s2.972 7.54 7.2647 7.54c4.265 0 7.265-3.027 7.265-7.54zm-10.1543 0c0-2.5317 1.1282-3.9626 2.8893-3.9626 1.761 0 2.89 1.4309 2.89 3.9626s-1.129 3.9626-2.89 3.9626c-1.7611 0-2.8893-1.4309-2.8893-3.9626z"/><path d="m123.527 28.5208c0-4.513-2.999-7.5675-7.265-7.5675-4.292 0-7.264 3.0545-7.264 7.5675s2.972 7.54 7.264 7.54c4.266 0 7.265-3.027 7.265-7.54zm-10.154 0c0-2.5317 1.128-3.9626 2.889-3.9626 1.762 0 2.89 1.4309 2.89 3.9626s-1.128 3.9626-2.89 3.9626c-1.761 0-2.889-1.4309-2.889-3.9626z"/><path d="m130 16h-4.403v19.7581h4.403z"/></g></svg>