<svg viewBox="0 0 652 227" xmlns="http://www.w3.org/2000/svg" xmlns:serif="http://www.serif.com/" fill-rule="evenodd" clip-rule="evenodd" stroke-linejoin="round" stroke-miterlimit="1.41421"><g serif:id="Layer 1"><path d="M233.559 107.572c-7.164-1.693-11.196-4.464-12.131-8.317-.109-.538-.18-1.043-.18-1.51 0-1.765.863-3.421 2.628-4.969 1.979-1.728 4.643-2.808 7.956-3.239.756-.109 1.656-.144 2.736-.144 3.275 0 7.235.899 11.952 2.699l2.087-5.328c-5.327-2.088-10.008-3.131-14.076-3.131-.899 0-2.124.071-3.672.214-4.211.577-7.775 2.126-10.727 4.645-3.096 2.772-4.644 5.832-4.644 9.216 0 1.08.108 2.052.36 2.952 1.511 6.084 6.948 10.259 16.344 12.528 7.092 1.693 11.124 4.464 12.132 8.387.107.685.179 1.153.179 1.44 0 1.837-.935 3.565-2.808 5.149-2.123 1.763-4.932 2.845-8.351 3.168-.756.072-1.441.108-2.124.108-3.529 0-7.884-1.081-13.068-3.204l-2.233 5.256c5.832 2.448 10.944 3.672 15.301 3.672 5.723 0 10.439-1.547 14.148-4.644 3.275-2.881 4.896-6.049 4.896-9.468 0-.936-.109-1.872-.325-2.808-1.764-6.227-7.2-10.44-16.38-12.672m31.565 28.584h34.379v-5.832H270.92v-18.179h22.139v-5.76H270.92V90.364l28.583.037v-5.797l-34.379-.036v51.588zm75.952-8.533c-1.8 1.765-3.996 2.665-6.624 2.701l-13.716.035v-18.683h13.32c2.772 0 5.112.936 7.02 2.772 1.8 1.836 2.7 3.996 2.7 6.551 0 2.557-.9 4.789-2.7 6.624m-20.34-37.366h12.492c2.196 0 4.032.755 5.544 2.267 1.548 1.548 2.304 3.419 2.304 5.544 0 2.16-.756 3.996-2.304 5.544v-.037c-1.548 1.514-3.348 2.269-5.472 2.304h-12.564V90.257zm20.088 17.963c4.032-2.341 6.048-5.723 6.048-10.152 0-3.672-1.26-6.804-3.816-9.432-2.556-2.664-5.652-4.032-9.324-4.139l-18.828-.037v51.696h19.584l.036-.037c4.14-.035 7.704-1.51 10.656-4.427 2.952-2.988 4.428-6.552 4.428-10.693 0-5.939-2.916-10.187-8.784-12.779m39.017-23.688l-22.248 51.624h6.187l18.254-42.155.002.003.001-.003 8.999 20.88h-.014l2.479 5.76h.02l6.66 15.515h6.264l-22.248-51.624h-4.356zm55.108 23.04c-7.164-1.693-11.195-4.464-12.132-8.317-.108-.538-.18-1.043-.18-1.51 0-1.765.865-3.421 2.628-4.969 1.981-1.728 4.644-2.808 7.956-3.239.756-.109 1.657-.144 2.736-.144 3.276 0 7.236.899 11.953 2.699l2.087-5.328c-5.327-2.088-10.008-3.131-14.077-3.131-.899 0-2.123.071-3.671.214-4.211.577-7.775 2.126-10.728 4.645-3.095 2.772-4.643 5.832-4.643 9.216 0 1.08.108 2.052.36 2.952 1.511 6.084 6.947 10.259 16.344 12.528 7.091 1.693 11.123 4.464 12.131 8.387.108.685.18 1.153.18 1.44 0 1.837-.936 3.565-2.808 5.149-2.125 1.763-4.932 2.845-8.351 3.168-.757.072-1.441.108-2.125.108-3.528 0-7.883-1.081-13.068-3.204l-2.231 5.256c5.831 2.448 10.943 3.672 15.299 3.672 5.724 0 10.44-1.547 14.148-4.644 3.276-2.881 4.896-6.049 4.896-9.468 0-.936-.108-1.872-.325-2.808-1.762-6.227-7.2-10.44-16.379-12.672m26.668-17.208h16.957v45.792h5.795V90.364h16.957v-5.796h-39.709v5.796z" fill="#442230" fill-rule="nonzero"/><path fill="#442230" d="M514.17 84.906H519.967V136.156H514.17z"/><path d="M552.575 84.532l-22.249 51.624h6.189l18.255-42.155 8.999 20.88h-.012l2.479 5.76h.018l6.66 15.515h6.263L556.93 84.532h-4.355zm74.691 0v41.112l-29.987-41.147h-5.185v51.201h5.761V95.044l29.952 41.076h5.219V84.532h-5.76z" fill="#442230" fill-rule="nonzero"/><path d="M99.8 4.001L19.913 83.889l17.49 17.489 79.887-79.887L99.8 4.001z" fill="#442230"/><path d="M158.31 62.826l-79.887 79.887 17.49 17.489L175.8 80.315l-17.49-17.489z" fill="#c41e54"/><path d="M97.878 64.223L17.991 144.11l17.49 17.49 79.887-79.887-17.49-17.49zm58.071 58.372l-79.888 79.887 17.49 17.49 79.887-79.888-17.489-17.489z" fill="#442230"/><path d="M329.808 149.356v17.28h9.624c.072-.168.096-.36.096-.576 0-.192-.048-.36-.096-.528h-8.376v-7.128h6.936c.072-.168.096-.336.096-.552 0-.192-.048-.36-.096-.528h-6.936v-6.864h8.136c.072-.168.096-.336.096-.576 0-.216-.048-.384-.096-.528h-9.384zm15.528 10.848l-4.416 6.336s.216.096.624.096c.504 0 .696-.096.696-.096l3.768-5.424 3.864 5.424s.216.096.72.096c.456 0 .672-.096.672-.096l-4.44-6.312 4.296-6.12s-.216-.096-.672-.096c-.48 0-.648.096-.648.096l-3.648 5.232-3.696-5.232s-.24-.096-.72-.096c-.456 0-.672.096-.672.096l4.272 6.096zm9.408-4.32v-1.776s-.168-.096-.6-.096c-.432 0-.6.096-.6.096v18.312s.168.096.6.096c.432 0 .6-.096.6-.096v-7.656c.72 1.296 1.92 2.112 3.864 2.112 2.88 0 4.68-1.656 4.68-6.552s-1.8-6.552-4.68-6.552c-1.944 0-3.144.816-3.864 2.112zm7.272 4.44c0 3.96-1.104 5.496-3.768 5.496-2.304 0-3.504-2.088-3.504-3.984v-3.144c.048-1.848 1.224-3.864 3.504-3.864 2.664 0 3.768 1.536 3.768 5.496zm12.912.384s.264-.936.264-2.424c0-2.688-1.536-4.512-4.416-4.512-2.976 0-5.016 1.944-5.016 6.48 0 4.344 1.728 6.624 4.992 6.624 2.52 0 3.816-1.08 3.816-1.08a1.3 1.3 0 0 0-.504-.936s-1.128.888-3.024.888c-2.592 0-3.864-1.392-4.032-5.04h7.92zm-.984-2.568c0 .96-.12 1.536-.12 1.584h-6.816c.12-3.432 1.584-4.92 3.768-4.92 2.28 0 3.168 1.56 3.168 3.336zm5.352-1.824v-2.208s-.168-.096-.6-.096c-.432 0-.6.096-.6.096v12.432s.168.096.6.096c.432 0 .6-.096.6-.096v-8.76c.768-1.704 1.944-2.856 3.192-2.856.72 0 1.176.144 1.728.432.36-.216.552-.576.576-1.008-.144-.096-.864-.552-2.016-.552-1.008 0-2.4.384-3.48 2.52zm9.072-6.624s-.264-.096-.768-.096-.768.096-.768.096v1.344s.264.096.768.096.768-.096.768-.096v-1.344zm-.168 4.416s-.168-.096-.6-.096c-.432 0-.6.096-.6.096v12.432s.168.096.6.096c.432 0 .6-.096.6-.096v-12.432zm12.288 6.6s.264-.936.264-2.424c0-2.688-1.536-4.512-4.416-4.512-2.976 0-5.016 1.944-5.016 6.48 0 4.344 1.728 6.624 4.992 6.624 2.52 0 3.816-1.08 3.816-1.08a1.3 1.3 0 0 0-.504-.936s-1.128.888-3.024.888c-2.592 0-3.864-1.392-4.032-5.04h7.92zm-.984-2.568c0 .96-.12 1.536-.12 1.584h-6.816c.12-3.432 1.584-4.92 3.768-4.92 2.28 0 3.168 1.56 3.168 3.336zm13.272-.792c0-2.16-1.368-3.576-3.648-3.576-1.848 0-3.312.816-4.272 2.184v-1.848s-.192-.096-.6-.096-.6.096-.6.096v12.432s.192.096.6.096.6-.096.6-.096v-9.024c.792-1.704 2.328-2.712 3.84-2.712 1.896 0 2.88.888 2.88 2.808v8.928s.168.096.6.096c.408 0 .6-.096.6-.096v-9.192zm8.232-2.496c1.392 0 2.256.432 2.256.432.288-.216.408-.576.408-.936 0 0-.96-.576-2.904-.576-3.24 0-5.04 2.28-5.04 6.552s1.8 6.552 5.04 6.552c2.04 0 3.168-.696 3.168-.696-.024-.384-.168-.768-.432-.936 0 0-.936.504-2.4.504-2.808 0-4.128-1.752-4.128-5.424 0-3.624 1.248-5.472 4.032-5.472zm13.776 5.856s.264-.936.264-2.424c0-2.688-1.536-4.512-4.416-4.512-2.976 0-5.016 1.944-5.016 6.48 0 4.344 1.728 6.624 4.992 6.624 2.52 0 3.816-1.08 3.816-1.08a1.3 1.3 0 0 0-.504-.936s-1.128.888-3.024.888c-2.592 0-3.864-1.392-4.032-5.04h7.92zm-.984-2.568c0 .96-.12 1.536-.12 1.584h-6.816c.12-3.432 1.584-4.92 3.768-4.92 2.28 0 3.168 1.56 3.168 3.336zm5.28 7.056s-.264-.096-.768-.096-.768.096-.768.096v1.344s.264.096.768.096.768-.096.768-.096v-1.344zm8.496-7.2c0 5.976 2.16 8.88 6.48 8.88 2.832 0 4.272-.792 4.272-.792-.024-.36-.168-.744-.408-.984 0 0-1.464.648-3.696.648-3.216 0-5.328-1.704-5.328-7.728s2.136-7.8 5.328-7.8c2.04 0 3.432.648 3.432.648.24-.264.384-.576.408-.96 0 0-1.392-.792-4.008-.792-4.344 0-6.48 3-6.48 8.88zm14.592-9.264s-.168-.096-.6-.096c-.432 0-.6.096-.6.096v17.808s.168.096.6.096c.432 0 .6-.096.6-.096v-17.808zm3.864 5.784c-.024.096-.024.312.072.552.096.216.24.336.312.384 0 0 1.608-.624 3.456-.624 2.088 0 3.12.84 3.12 3.216v1.632a28.296 28.296 0 0 0-3.456-.216c-3.024 0-4.464 1.248-4.464 3.696 0 2.424 1.512 3.72 3.72 3.72 1.992 0 3.504-.84 4.224-2.352l.192 2.016s.192.096.504.096c.336 0 .48-.096.48-.096v-7.776c0-3.24-.744-4.992-4.176-4.992-2.136 0-3.984.744-3.984.744zm6.96 6.096v1.056c0 2.52-1.608 4.176-3.888 4.176-1.68 0-2.76-.816-2.76-2.688 0-1.968 1.08-2.76 3.384-2.76 1.344 0 2.736.168 3.264.216zm5.952-4.296v-2.208s-.168-.096-.6-.096c-.432 0-.6.096-.6.096v12.432s.168.096.6.096c.432 0 .6-.096.6-.096v-8.76c.768-1.704 1.944-2.856 3.192-2.856.72 0 1.176.144 1.728.432.36-.216.552-.576.576-1.008-.144-.096-.864-.552-2.016-.552-1.008 0-2.4.384-3.48 2.52zm9.072-6.624s-.264-.096-.768-.096-.768.096-.768.096v1.344s.264.096.768.096.768-.096.768-.096v-1.344zm-.168 4.416s-.168-.096-.6-.096c-.432 0-.6.096-.6.096v12.432s.168.096.6.096c.432 0 .6-.096.6-.096v-12.432zm5.616.912h3.672s.12-.168.12-.504c0-.336-.12-.504-.12-.504h-3.672v-2.664a1.835 1.835 0 0 0-1.2.288v2.376h-1.92s-.096.144-.096.504.096.504.096.504h1.92v7.416c0 2.832.84 4.44 3.576 4.44.864 0 1.512-.168 1.632-.192 0 0 .072-.144.072-.456 0-.336-.12-.528-.12-.528s-.6.12-1.296.12c-2.04 0-2.664-1.032-2.664-3.408v-7.392zm15.984-.912s-.216-.096-.624-.096c-.456 0-.624.096-.624.096l-3.192 8.952c-.48 1.368-.768 2.376-.768 2.376h-.096s-.312-1.032-.84-2.376l-3.648-8.952s-.216-.096-.648-.096c-.432 0-.672.096-.672.096l5.016 12.384c.144.072.288.096.432.12l-.888 2.448c-.696 1.968-1.296 2.52-2.256 2.52-.6 0-1.032-.12-1.032-.12-.048.072-.12.288-.12.528 0 .216.072.408.096.48 0 0 .48.168 1.176.168 1.824 0 2.544-1.248 3.264-3.288l5.424-15.24zm2.472 11.088s-.264-.096-.768-.096-.768.096-.768.096v1.344s.264.096.768.096.768-.096.768-.096v-1.344zm9.264-15.84v17.28h9.624c.072-.168.096-.36.096-.576 0-.192-.048-.36-.096-.528h-8.376v-7.128h6.936c.072-.168.096-.336.096-.552 0-.192-.048-.36-.096-.528h-6.936v-6.864h8.136c.072-.168.096-.336.096-.576 0-.216-.048-.384-.096-.528h-9.384zm21.6 7.992c0-2.16-1.368-3.576-3.648-3.576-1.848 0-3.312.816-4.272 2.184v-1.848s-.192-.096-.6-.096-.6.096-.6.096v12.432s.192.096.6.096.6-.096.6-.096v-9.024c.792-1.704 2.328-2.712 3.84-2.712 1.896 0 2.88.888 2.88 2.808v8.928s.168.096.6.096c.408 0 .6-.096.6-.096v-9.192zm5.352-2.328h3.672s.12-.168.12-.504c0-.336-.12-.504-.12-.504h-3.672v-2.664a1.835 1.835 0 0 0-1.2.288v2.376h-1.92s-.096.144-.096.504.096.504.096.504h1.92v7.416c0 2.832.84 4.44 3.576 4.44.864 0 1.512-.168 1.632-.192 0 0 .072-.144.072-.456 0-.336-.12-.528-.12-.528s-.6.12-1.296.12c-2.04 0-2.664-1.032-2.664-3.408v-7.392zm15.36 2.328c0-2.16-1.368-3.576-3.648-3.576-1.848 0-3.312.816-4.272 2.184v-7.224s-.192-.096-.6-.096-.6.096-.6.096v17.808s.192.096.6.096.6-.096.6-.096v-9.024c.792-1.704 2.328-2.712 3.84-2.712 1.896 0 2.88.888 2.88 2.808v8.928s.168.096.6.096c.408 0 .6-.096.6-.096v-9.192zm3.48 5.952c0 2.16 1.368 3.576 3.648 3.576 1.824 0 3.288-.84 4.272-2.184v1.848s.192.096.6.096.6-.096.6-.096v-12.432s-.192-.096-.6-.096-.6.096-.6.096v9.024c-.792 1.728-2.352 2.712-3.84 2.712-1.896 0-2.88-.888-2.88-2.808v-8.928s-.168-.096-.6-.096c-.408 0-.6.096-.6.096v9.192zm12.12-5.976c0 2.208 1.848 2.904 3.528 3.384 1.632.456 3.216.816 3.216 2.64 0 1.728-1.32 2.448-3.12 2.448-1.728 0-3.288-.624-3.288-.624-.24.216-.36.576-.336.936 0 0 1.392.768 3.72.768 2.856 0 4.272-1.368 4.272-3.576 0-2.544-2.016-3.096-3.792-3.624-1.512-.432-2.976-.936-2.976-2.4 0-1.584 1.08-2.448 3.144-2.448 1.464 0 2.64.432 2.64.432.24-.192.384-.6.36-.936 0 0-1.176-.552-3.12-.552-2.856 0-4.248 1.44-4.248 3.552zm12.24-7.632s-.264-.096-.768-.096-.768.096-.768.096v1.344s.264.096.768.096.768-.096.768-.096v-1.344zm-.168 4.416s-.168-.096-.6-.096c-.432 0-.6.096-.6.096v12.432s.168.096.6.096c.432 0 .6-.096.6-.096v-12.432zm3.816.408c-.024.096-.024.312.072.552.096.216.24.336.312.384 0 0 1.608-.624 3.456-.624 2.088 0 3.12.84 3.12 3.216v1.632a28.296 28.296 0 0 0-3.456-.216c-3.024 0-4.464 1.248-4.464 3.696 0 2.424 1.512 3.72 3.72 3.72 1.992 0 3.504-.84 4.224-2.352l.192 2.016s.192.096.504.096c.336 0 .48-.096.48-.096v-7.776c0-3.24-.744-4.992-4.176-4.992-2.136 0-3.984.744-3.984.744zm6.96 6.096v1.056c0 2.52-1.608 4.176-3.888 4.176-1.68 0-2.76-.816-2.76-2.688 0-1.968 1.08-2.76 3.384-2.76 1.344 0 2.736.168 3.264.216zm4.104-3.288c0 2.208 1.848 2.904 3.528 3.384 1.632.456 3.216.816 3.216 2.64 0 1.728-1.32 2.448-3.12 2.448-1.728 0-3.288-.624-3.288-.624-.24.216-.36.576-.336.936 0 0 1.392.768 3.72.768 2.856 0 4.272-1.368 4.272-3.576 0-2.544-2.016-3.096-3.792-3.624-1.512-.432-2.976-.936-2.976-2.4 0-1.584 1.08-2.448 3.144-2.448 1.464 0 2.64.432 2.64.432.24-.192.384-.6.36-.936 0 0-1.176-.552-3.12-.552-2.856 0-4.248 1.44-4.248 3.552zm19.248-1.2c-.456-1.632-1.68-2.352-3.216-2.352-1.752 0-3.12.816-4.008 2.16v-1.824s-.216-.096-.624-.096c-.408 0-.6.096-.6.096v12.432s.192.096.6.096.624-.096.624-.096v-9.024c.72-1.704 2.184-2.712 3.576-2.712 1.752 0 2.64.864 2.64 2.808v8.928s.192.096.6.096.6-.096.6-.096v-8.976c.744-1.824 2.208-2.76 3.624-2.76 1.752 0 2.64.864 2.64 2.808v8.928s.168.096.6.096c.408 0 .6-.096.6-.096v-9.192c0-2.16-1.248-3.576-3.408-3.576-1.872 0-3.288.888-4.248 2.352zm12.552 9.072s-.264-.096-.768-.096-.768.096-.768.096v1.344s.264.096.768.096.768-.096.768-.096v-1.344z" fill="#c71e55" fill-rule="nonzero"/></g></svg>