<svg enable-background="new 0 0 933.1 1004.9" viewBox="0 0 933.1 1004.9" xmlns="http://www.w3.org/2000/svg"><g transform="translate(100.13)"><path d="m25.2 436.2c39.9 0 94.9-.4 131.7-.4 8.1-10.8 16.8-20.8 24.3-27 24.9-20.6 58.1-28.5 89.3-19.2 66.5 19.7 88.3 102.8 32 147.1-8.9 7-17.2 14.8-30.6 18.4v127.8h203v-127.9s-40.8-13.2-51.7-32.2c-39.7-48.4-11.2-125.4 51.7-134.7v-93.4c-11.8-1.7-22.7-7-32.4-13.8-60.5-42.5-43.6-130 26.7-150.8 30.7-9.1 67.3-1.4 90.7 20.8 7.2 7.2 23.7 29.9 25.6 33.3h122.4c-.9-20.8-5.4-41.9-12.8-61.3-6.3-16.7-15.1-32.4-25.8-46.7-8.9-11.9-19.3-22.9-30.8-32.3-60.8-49.1-131.8-44-205.3-43.9h-161.3v126.3c44.5 25.7 62.5 52 63.9 81.9 2.4 99-148.8 121.8-180 29.3-12-62.4 24.3-100.1 66-111.2v-126.3c-22.9 0-45.6 2.8-67.4 10.4-17.6 6.1-34.1 14.6-49.3 25.4-12.1 8.5-23.2 18.6-32.9 29.7-52.3 60.1-47.1 133.6-47.1 208v162.2m499.8 247.1c21.9-1.7 42.5-5.7 63-13.9 16.8-6.7 32.4-15.6 46.7-26.7 77-59.7 73.3-146.4 73.3-234.1v-175.1c-46.4 0-106.5 0-122.4 0-18.3 32.8-32.5 45.8-60.6 61.8v93.4c21 12.1 33.4 17.3 46.1 33.3 36 46.5 11.6 119.8-46.1 133.5m-499.7-69.5c0 111 85.7 197.3 196.7 197.3 0-42.8.1-85.8 0-127.8-7.4-2-21.2-7.8-27.4-11.8-19.6-12.4-35.5-33.6-37.6-57.7z" fill="#6361ec"/><path d="m791.5 762.6v22h41.4v-44h-41.4zm-832.5-14.7c-.5 0-2.4.2-4.2.3-13.6.9-24.8 3.6-32.2 7.8-11.6 6.6-17.3 17.2-18.9 35-.5 6.3-.4 19.7.2 27 2 22.3 9.5 31.4 32 38.7 4.8 1.5 11 3.2 19.6 5.1 4 .9 9.4 2.2 12.1 2.8 14.4 3.6 19 6.5 20.5 12.8 1 4.4 1 14.9 0 19.6-1.8 8.2-7.2 11.2-21.2 11.6-18.3.6-35.4-1.9-55.9-7.9-2.1-.6-3.8-1-3.9-.9-.2.2-7.3 33.1-7.1 33.2.3.3 6.9 2.9 9.9 3.9 12 4.1 24.6 6.7 39.5 8 3.8.3 18.4.5 23.4.2 26.7-1.4 42-7.3 50.6-19.4 6.9-9.6 9.4-23.4 8.5-47.1-.5-12.6-1.5-18.4-4.3-24.3-5.5-11.4-17.8-18-47.1-25.2-18.6-4.6-21-5.2-24.7-6.7-5.1-2.1-7.5-4.4-8.5-8.5-.7-2.9-1-11.2-.6-15.8.8-8 4-11.3 12.4-12.6 6.7-1.1 22.9-.7 36.9.8 5.4.6 14.9 1.9 22.2 3.1 3.3.5 5.2.8 5.2.6.1-.4 4.3-36 4.2-36-.1-.2-8.1-1.7-12.7-2.5-9.7-1.6-18.1-2.6-29.3-3.4-2.8-.1-24.4-.3-26.6-.2zm539.8 2.9c-.2.6-58.3 191.4-58.3 191.5s10.1.1 22.4.1l22.5-.1 5-18.2c2.8-10 5.1-18.4 5.2-18.7l.1-.4h32.2l32.1.1 5.1 18.4c2.8 10.1 5.2 18.5 5.2 18.7.1.2 4.7.2 22.5.2l22.4-.1-29.3-95.8-29.3-95.8-28.8-.1c-23 0-28.9 0-29 .2zm39.9 78c6 21.9 10.8 39.9 10.8 40s-9.9.2-22 .2c-18.3 0-22 0-21.9-.3.1-.2 5-18.2 11.1-40 6-21.9 11-39.7 11.1-39.7s4.9 17.9 10.9 39.8zm-427.4-29.5c-3.5.2-7.7.5-9.7.8-26 3.5-41.2 17.2-45.3 40.8-1 5.9-1.1 6.2-1.1 28.6-.1 22 0 25.3.8 30.9 1.4 10.2 5 19.1 10.3 25.7 7.5 9.3 19 15.4 33.8 17.8 6.8 1.1 11.5 1.4 20.4 1.3 10.7-.2 19.7-1.2 30.7-3.4 7.8-1.6 19.4-4.9 19.4-5.5 0-.2-5.8-30.1-5.9-30.6-.1-.3-.2-.3-1-.1-8.2 2.5-22.1 4.8-33.4 5.5-5 .3-15.5.1-18.2-.3-8.2-1.3-12.1-4.1-14.1-9.9-.8-2.5-1.2-5-1.3-9.8l-.1-4.1h75.7v-15c0-15.3-.2-21.9-.7-26.7-2.4-22.1-12.1-35.8-29.9-42.2-4.5-1.6-10.7-2.9-16.6-3.5-3.3-.2-11.3-.4-13.8-.3zm7.8 32.7c4.3.5 7.1 1.7 9.4 4 3.3 3.3 4.2 6.7 4.3 14.9v4.8h-36.2l-.1-3c-.2-8.2 1.3-12.9 4.9-16.3 2.3-2.1 5.1-3.4 8.5-4 3-.6 6.4-.7 9.2-.4zm259.3-32.6c-7.9.5-17 2.9-26.1 6.8-3.6 1.5-8.9 4.2-11.6 5.8l-2.2 1.3-.2-.6c-.1-.4-1.1-2.9-2.2-5.6l-1.9-5h-32.5v101.3c0 92.9 0 101.3.3 101.3.2 0 9.4-1.3 20.5-2.8s20.3-2.8 20.4-2.8c.2 0 .2-8.5.2-29v-29l1.7.4c7.1 1.6 16.4 2.8 25.7 3.4 4.8.3 14.5.1 17.7-.3 13.6-1.9 23.1-7.3 29.4-16.7 1.5-2.3 3.9-7.1 4.9-10 1.5-4.4 2.5-9.2 3.2-15.3.3-2.3.3-7 .4-27.2.1-24.8 0-30.3-.6-35.5-2-16.4-8.3-27.9-18.9-34.5-5.8-3.6-12.6-5.5-21.1-6.1-3.4-.1-3.9-.1-7.1.1zm-6.7 36c4 .4 6.5 1.4 8.6 3.4s3.3 4.4 3.9 7.9c.4 2.7.4 48.4 0 51-1 5.5-3.6 8.9-8.1 10.5-2.4.9-4.3 1.1-9.2.9-4.5-.1-9-.6-14.2-1.4-3.1-.5-7.4-1.4-8.8-1.7l-.8-.2v-59.5l.9-.7c1.3-1.1 5.2-3.7 7.6-5 6-3.2 11.5-4.9 17.7-5.3.1-.1 1.3 0 2.4.1zm342.9-36.1c-11.8.7-26.9 5.7-38.7 12.7l-2.1 1.3-1-2.5c-.5-1.4-1.5-3.9-2.1-5.6l-1.2-3h-32.5v101.3c0 93.6 0 101.3.3 101.3.2 0 9.4-1.3 20.5-2.8s20.3-2.8 20.4-2.8.2-10.7.2-29v-29l3.7.7c6 1.2 11.3 1.9 19.5 2.7 4.7.4 17.8.5 21 .1 6.2-.8 11.9-2.4 16.6-4.8 3.8-1.9 6.2-3.6 9.2-6.7 5.8-5.8 9.4-13 11.4-23 1.5-7.4 1.6-10.3 1.6-38.2 0-27.8-.1-30.6-1.6-38-4.1-20.4-16.1-32.2-35.4-34.5-2.7-.1-7.7-.3-9.8-.2zm-7.5 36.1c2.5.2 4 .6 5.9 1.6 3.1 1.5 5 4.2 6.1 8.2l.4 1.7v50.6l-.4 1.7c-1.2 4.6-4 7.8-8 9.1-2.6.9-3.9 1-8.8.9-4.4-.1-7.2-.4-12.7-1.2-2.7-.4-9.1-1.6-10.5-2l-.8-.2v-59.6l1.2-.9c6.5-5.2 15.8-9.2 22.9-9.9 2.3-.2 2.6-.2 4.7 0zm-432.4-35.5c-9 2.4-23.1 8.5-32.5 14.2-1.6 1-2.4 1.4-2.5 1.2-.1-.1-.7-3.1-1.5-6.7l-1.4-6.4h-34.5v140.2h41.4v-85.6l2.2-1.4c7.1-4.6 19.5-10.7 31.7-15.6 1.7-.7 3.1-1.3 3.2-1.4s-.6-8.7-1.6-19.2c-.9-10.5-1.7-19.3-1.7-19.5 0-.4-.5-.4-2.8.2zm516.8 72.4v70.1h41.4v-140.2h-41.4z" fill="#fff" stroke="#fff" stroke-width=".2"/></g></svg>