<svg viewBox="0 0 933.14 1004.9" xmlns="http://www.w3.org/2000/svg"><g transform="translate(100.13)"><path d="m25.172 436.18c39.852 0 94.851-.42374 131.72-.42374 8.1314-10.753 16.836-20.82 24.28-26.958 24.941-20.567 58.111-28.507 89.333-19.237 66.464 19.732 88.285 102.78 32 147.06-8.8533 6.964-17.249 14.796-30.632 18.382v127.84h203v-127.84s-40.782-13.163-51.748-32.157c-39.72-48.437-11.238-125.36 51.748-134.67v-93.435c-11.761-1.7373-22.671-7.0106-32.368-13.819-60.524-42.489-43.584-130.03 26.667-150.83 30.748-9.1027 67.323-1.4141 90.667 20.801 7.1849 7.1849 23.686 29.908 25.633 33.28h122.37c-.8946-20.82-5.4213-41.867-12.768-61.334-6.304-16.701-15.051-32.367-25.759-46.667-8.8907-11.873-19.263-22.926-30.807-32.26-60.791-49.157-131.83-43.993-205.33-43.916h-161.3v126.27c44.499 25.691 62.518 52.012 63.945 81.907 2.432 98.991-148.76 121.83-179.97 29.333-11.998-62.436 24.329-100.07 66.03-111.24v-126.27c-22.92 0-45.603 2.8449-67.368 10.437-17.607 6.142-34.084 14.644-49.333 25.367-12.082 8.4961-23.248 18.558-32.947 29.706-52.327 60.142-47.053 133.6-47.053 208v162.24m499.7 247.09c21.904-1.728 42.506-5.6827 62.965-13.867 16.753-6.7013 32.399-15.625 46.667-26.7 76.952-59.733 73.333-146.37 73.333-234.1v-175.2c-46.36 0-106.52-.0124-122.37 0-18.319 32.777-32.51 45.84-60.598 61.761v93.435c20.987 12.117 33.416 17.319 46.058 33.333 35.985 46.487 11.61 119.82-46.058 133.49m-499.7-69.49c0 111.04 85.66 197.33 196.7 197.33 0-42.843.13714-85.781 0-127.84-7.3945-1.9814-21.194-7.8472-27.368-11.751-19.56-12.367-35.502-33.557-37.614-57.739z" fill="#6361ec"/><path d="m791.52 762.6v22h41.4v-44h-41.4zm-832.5-14.68c-.54.04-2.44.16-4.2.28-13.64.92-24.76 3.62-32.2 7.84-11.58 6.56-17.34 17.2-18.9 34.96-.54 6.3-.44 19.66.22 27 1.98 22.28 9.54 31.42 31.98 38.7 4.8 1.54 11.02 3.16 19.64 5.1 4 .9 9.42 2.18 12.06 2.84 14.36 3.6 19 6.5 20.5 12.78 1.04 4.38 1.04 14.86.02 19.58-1.8 8.18-7.22 11.16-21.16 11.56-18.32.56-35.4-1.86-55.92-7.9-2.08-.6-3.84-1.02-3.94-.94-.18.22-7.26 33.08-7.14 33.2.26.26 6.88 2.86 9.94 3.9 11.98 4.1 24.64 6.66 39.5 8 3.84.34 18.42.46 23.4.2 26.72-1.44 42-7.28 50.62-19.36 6.86-9.6 9.36-23.44 8.5-47.06-.46-12.56-1.5-18.42-4.32-24.3-5.5-11.44-17.8-18.02-47.1-25.22-18.56-4.56-20.98-5.22-24.66-6.68-5.14-2.06-7.5-4.4-8.54-8.5-.74-2.9-1.04-11.18-.58-15.8.8-7.98 4.02-11.26 12.38-12.6 6.74-1.08 22.92-.72 36.9.82 5.4.6 14.9 1.94 22.18 3.14 3.26.54 5.2.78 5.24.64.12-.38 4.3-35.96 4.22-36.02-.14-.16-8.1-1.7-12.72-2.46-9.68-1.62-18.14-2.62-29.32-3.44-2.82-.2-24.42-.42-26.6-.26zm539.8 2.92c-.2.58-58.3 191.36-58.3 191.46 0 .06 10.1.08 22.44.06l22.46-.06 5.04-18.2c2.76-10.02 5.08-18.4 5.16-18.66l.1-.44 32.16.04 32.14.06 5.1 18.4c2.82 10.12 5.16 18.52 5.2 18.66.08.2 4.68.24 22.52.2l22.4-.06-29.32-95.8-29.34-95.8-28.84-.06c-22.96-.04-28.86 0-28.92.2zm39.86 78c5.96 21.92 10.84 39.92 10.84 40 0 .1-9.9.16-22.02.16-18.26 0-22-.04-21.92-.26.06-.16 5.04-18.16 11.06-40 6.02-21.86 11.02-39.74 11.08-39.74s5 17.94 10.96 39.84zm-427.36-29.52c-3.48.18-7.72.54-9.7.8-25.96 3.5-41.16 17.18-45.3 40.82-1.04 5.94-1.06 6.18-1.14 28.56-.1 22.02-.02 25.34.76 30.88 1.42 10.16 5 19.14 10.28 25.72 7.46 9.32 18.96 15.38 33.78 17.78 6.82 1.12 11.48 1.4 20.42 1.26 10.68-.18 19.7-1.18 30.7-3.44 7.84-1.6 19.4-4.92 19.4-5.54 0-.24-5.78-30.12-5.92-30.58-.08-.3-.18001-.3-1.04-.06-8.16 2.48-22.1 4.78-33.38 5.5-4.96.32-15.48.14-18.22-.3-8.2-1.34-12.1-4.08-14.06-9.94-.82-2.48-1.18-5.04-1.32-9.84l-.12-4.14h75.66v-14.76c0-15.32-.18-21.88-.72-26.7-2.44-22.14-12.1-35.76-29.92-42.16-4.5-1.6-10.72-2.92-16.56-3.46-3.1-.3-11.14-.54-13.6-.4zm7.8 32.68c4.34.54 7.12 1.72 9.42 4 3.26 3.26 4.24 6.66 4.26 14.9l.02 4.8h-36.2l-.06002-3c-.16-8.24 1.26-12.94 4.92-16.34 2.26-2.08 5.06-3.42 8.46-4.04 2.92-.54 6.4-.66 9.18-.32zm259.3-32.58c-7.86.54-17 2.92-26.14 6.8-3.56 1.52-8.88 4.2-11.62 5.84l-2.16 1.3-.24-.62c-.14-.36-1.12-2.86-2.16-5.58l-1.88-4.96h-32.5v101.3c0 92.94.02 101.3.32 101.3.18 0 9.4-1.26 20.48-2.8 11.1-1.54 20.26-2.8 20.38-2.8.16 0 .22-8.48.22-28.96v-28.98l1.66.36c7.12 1.58 16.4 2.8 25.7 3.4 4.84.3 14.52.14 17.74-.3 13.58-1.9 23.06-7.3 29.38-16.72 1.52-2.26 3.9-7.14 4.88-10 1.52-4.44 2.5-9.22 3.18-15.3.26-2.32.32-6.98.4-27.2.1-24.78 0-30.28-.64-35.5-2-16.44-8.32-27.94-18.94-34.52-5.76-3.58-12.56-5.54-21.06-6.08-3.3-.22-3.8-.22-7 .02zm-6.7 35.98c3.98.38 6.48 1.36 8.62 3.36s3.32 4.4 3.88 7.9c.44 2.74.44 48.44 0 51-.96 5.46-3.58 8.9-8.08 10.54-2.4.88-4.3 1.08-9.22.94-4.5-.12-8.98-.58-14.2-1.42-3.14-.52-7.42-1.36-8.84-1.72l-.76-.22v-59.54l.86-.74c1.32-1.14 5.24-3.72 7.56-4.96 6.04-3.24 11.54-4.88 17.68-5.32.22 0 1.34.08 2.5.18zm342.9-36.08c-11.8.7-26.88 5.66-38.74 12.74l-2.14 1.28-.98002-2.52c-.53996-1.38-1.5-3.9-2.14-5.58l-1.18-3.04h-32.52v101.3c0 93.6.02 101.3.32 101.3.18 0 9.42-1.26 20.52-2.8s20.26-2.8 20.36-2.8c.11996 0 .19994-10.66.19994-28.96v-28.96l3.66.74c6.04 1.22 11.3 1.94 19.54 2.72 4.7.44 17.78.5 21 .1 6.1999-.78 11.9-2.4 16.58-4.78 3.84-1.92 6.18-3.62 9.22-6.66 5.84-5.84 9.4-13.02 11.4-23 1.48-7.4 1.6-10.26 1.6-38.2 0-27.78-.11998-30.56-1.6-38-4.06-20.4-16.12-32.16-35.4-34.48-2.6-.3-7.62-.52-9.7-.4zm-7.5 36.08c2.52.24 3.96.64 5.9401 1.6 3.06 1.5 5.04 4.16 6.12 8.2l.44002 1.7v50.6l-.44002 1.68c-1.24 4.62-4.04 7.8-8.02 9.1-2.62.86-3.94.98-8.8399.86-4.44-.12-7.22-.38-12.7-1.16-2.74-.4-9.06-1.6-10.54-2l-.75998-.2v-59.58l1.1599-.9c6.54-5.22 15.76-9.2 22.9-9.88 2.32-.24 2.62-.24 4.74-.02zm-432.4-35.48c-9.02 2.36-23.14 8.52-32.5 14.18-1.56.96-2.44 1.38-2.52 1.24-.06-.14-.74-3.14-1.48-6.7l-1.36-6.44h-34.54v140.2h41.4v-85.56l2.16-1.4c7.14-4.62 19.54-10.74 31.68-15.64 1.68-.68 3.12-1.3 3.2-1.36.08-.08-.62-8.74-1.56-19.24-.92-10.5-1.68-19.26-1.68-19.46 0-.46-.48-.44-2.8.18zm516.8 72.38v70.1h41.4v-140.2h-41.4z" stroke="#fff" stroke-width=".2"/></g></svg>