<svg width="260" height="134" viewBox="0 0 260 134" fill="none" xmlns="http://www.w3.org/2000/svg"><path d="M3.31562 44.4489V39.3001H11.65V45.1048C11.65 48.3187 11.9234 50.5815 12.4703 51.8933C13.0172 53.1832 14.0453 53.8282 15.5547 53.8282C17.0641 53.8282 18.0594 53.2925 18.5406 52.2212C19.0437 51.1499 19.2953 49.4009 19.2953 46.9741C19.2953 44.5473 18.8578 42.4375 17.9828 40.6447C17.1078 38.8301 15.7187 36.9389 13.8156 34.9712L9.55 30.5768C7.55937 28.4998 6.00625 26.3463 4.89062 24.1162C3.79687 21.8862 3.25 19.3063 3.25 16.3767C3.25 11.6105 4.16875 8.06871 6.00625 5.75122C7.84375 3.43374 11.0047 2.27499 15.4891 2.27499C19.9734 2.27499 23.0031 3.63051 24.5781 6.34153C26.175 9.03069 26.9734 12.966 26.9734 18.1476V21.7222H18.8687V17.5901C18.8687 14.7916 18.6281 12.7911 18.1469 11.5887C17.6656 10.3643 16.7359 9.75217 15.3578 9.75217C14.0016 9.75217 13.0172 10.2113 12.4047 11.1295C11.8141 12.0478 11.5187 13.4252 11.5187 15.2617C11.5187 17.0982 11.825 18.563 12.4375 19.6561C13.05 20.7493 14.1547 22.1485 15.7516 23.8539L20.5094 29.0026C22.8937 31.5825 24.6875 34.1951 25.8906 36.8405C27.1156 39.486 27.7281 42.3719 27.7281 45.4983C27.7281 50.8985 26.8203 54.8885 25.0047 57.4684C23.189 60.0482 20.0062 61.3381 15.4562 61.3381C10.9281 61.3381 7.76718 59.9061 5.97344 57.042C4.20156 54.1561 3.31562 49.9584 3.31562 44.4489Z" fill="#2A3FFB"/><path d="M38.4893 60.6822V10.572H31.7299V2.96368H53.7471V10.572H47.2502V60.6822H38.4893Z" fill="#2A3FFB"/><path d="M75.4676 43.3339L71.5958 14.3434H71.4645L67.9208 43.3339H75.4676ZM57.3551 60.6822L65.5911 2.96368H77.2067L85.9676 60.6822H77.7645L76.3864 50.3847H67.0676L65.8208 60.6822H57.3551Z" fill="#2A3FFB"/><path d="M93.3491 60.6822V2.96368H100.24L112.479 37.5948L111.855 21.8534V2.96368H119.763V60.6822H113.529L100.962 24.8377L101.454 39.9888V60.6822H93.3491Z" fill="#2A3FFB"/><path d="M138.563 53.861H141.451C143.07 53.861 144.24 53.3362 144.962 52.2868C145.706 51.2374 146.077 49.3134 146.077 46.515L146.045 18.0164C146.045 15.0212 145.673 12.8895 144.929 11.6215C144.207 10.3534 142.949 9.71938 141.156 9.71938H138.563V53.861ZM129.77 60.6822V2.96368H142.731C146.974 2.96368 150.048 4.22081 151.951 6.73506C153.876 9.22746 154.838 12.9114 154.838 17.7869L154.871 43.8258C154.871 49.6414 153.909 53.9047 151.984 56.6157C150.059 59.3267 146.876 60.6822 142.435 60.6822H129.77Z" fill="#2A3FFB"/><path d="M179.315 43.3339L175.443 14.3434H175.312L171.768 43.3339H179.315ZM161.203 60.6822L169.439 2.96368H181.054L189.815 60.6822H181.612L180.234 50.3847H170.915L169.668 60.6822H161.203Z" fill="#2A3FFB"/><path d="M208.812 33.5611L205.99 33.4299V60.6822H197.197V2.96368H211.733C214.751 2.96368 217.004 3.57585 218.492 4.80018C219.979 6.00265 220.953 7.69704 221.412 9.88335C221.894 12.0478 222.134 14.89 222.134 18.41C222.134 21.908 221.762 24.5753 221.019 26.4118C220.275 28.2483 218.897 29.4836 216.884 30.1176C218.875 30.4674 220.264 31.812 221.051 34.1514C221.839 36.4907 222.233 41.3662 222.233 48.7778C222.233 56.1675 222.342 60.1357 222.561 60.6822H213.767C213.548 60.245 213.439 53.3472 213.439 39.9888C213.439 37.4308 213.133 35.7365 212.52 34.9057C211.908 34.053 210.672 33.6048 208.812 33.5611ZM206.023 26.6086H209.534C210.65 26.6086 211.47 26.3572 211.995 25.8543C212.542 25.3515 212.914 24.4879 213.111 23.2636C213.329 22.0392 213.439 20.1699 213.439 17.6557V17.2949C213.439 14.1685 213.176 12.1243 212.651 11.1623C212.126 10.2004 210.912 9.71938 209.009 9.71938H206.023V26.6086Z" fill="#2A3FFB"/><path d="M240.442 53.861H243.33C244.948 53.861 246.119 53.3362 246.841 52.2868C247.584 51.2374 247.956 49.3134 247.956 46.515L247.923 18.0164C247.923 15.0212 247.552 12.8895 246.808 11.6215C246.086 10.3534 244.828 9.71938 243.034 9.71938H240.442V53.861ZM231.648 60.6822V2.96368H244.609C248.853 2.96368 251.927 4.22081 253.83 6.73506C255.755 9.22746 256.717 12.9114 256.717 17.7869L256.75 43.8258C256.75 49.6414 255.787 53.9047 253.862 56.6157C251.937 59.3267 248.755 60.6822 244.314 60.6822H231.648Z" fill="#2A3FFB"/><path d="M16.0797 103.523L13.2578 103.392V130.644H4.46406V72.9256H19C22.0187 72.9256 24.2719 73.5377 25.7594 74.7621C27.2469 75.9645 28.2203 77.6589 28.6797 79.8452C29.1609 82.0097 29.4015 84.8519 29.4015 88.3718C29.4015 91.8699 29.0297 94.5372 28.2859 96.3737C27.5422 98.2102 26.164 99.4455 24.1515 100.08C26.1422 100.429 27.5312 101.774 28.3187 104.113C29.1062 106.453 29.5 111.328 29.5 118.74C29.5 126.129 29.6094 130.098 29.8281 130.644H21.0344C20.8156 130.207 20.7062 123.309 20.7062 109.951C20.7062 107.393 20.4 105.698 19.7875 104.868C19.175 104.015 17.9391 103.567 16.0797 103.523ZM13.2906 96.5705H16.8016C17.9172 96.5705 18.7375 96.3191 19.2625 95.8162C19.8094 95.3134 20.1812 94.4498 20.3781 93.2254C20.5969 92.0011 20.7062 90.1318 20.7062 87.6176V87.2568C20.7062 84.1304 20.4437 82.0862 19.9187 81.1242C19.3937 80.1622 18.1797 79.6813 16.2766 79.6813H13.2906V96.5705Z" fill="#2A3FFB"/><path d="M38.9487 130.644V72.9256H58.308V80.5011H47.7424V97.292H57.783V104.704H47.7424V123.069H58.7018V130.644H38.9487Z" fill="#2A3FFB"/><path d="M65.9192 114.411V109.262H74.2536V115.067C74.2536 118.281 74.527 120.543 75.0739 121.855C75.6208 123.145 76.6489 123.79 78.1583 123.79C79.6676 123.79 80.6629 123.254 81.1442 122.183C81.6473 121.112 81.8989 119.363 81.8989 116.936C81.8989 114.509 81.4614 112.399 80.5864 110.607C79.7114 108.792 78.3223 106.901 76.4192 104.933L72.1536 100.539C70.1629 98.4616 68.6098 96.3081 67.4942 94.0781C66.4004 91.8481 65.8536 89.2682 65.8536 86.3386C65.8536 81.5724 66.7723 78.0306 68.6098 75.7131C70.4473 73.3956 73.6083 72.2369 78.0926 72.2369C82.577 72.2369 85.6067 73.5924 87.1817 76.3034C88.7786 78.9926 89.577 82.9279 89.577 88.1095V91.6841H81.4723V87.552C81.4723 84.7535 81.2317 82.753 80.7504 81.5506C80.2692 80.3262 79.3395 79.7141 77.9614 79.7141C76.6051 79.7141 75.6208 80.1732 75.0083 81.0914C74.4176 82.0097 74.1223 83.3871 74.1223 85.2235C74.1223 87.06 74.4286 88.5249 75.0411 89.618C75.6536 90.7112 76.7583 92.1104 78.3551 93.8157L83.1129 98.9645C85.4973 101.544 87.2911 104.157 88.4942 106.802C89.7192 109.448 90.3317 112.334 90.3317 115.46C90.3317 120.86 89.4239 124.85 87.6082 127.43C85.7926 130.01 82.6098 131.3 78.0598 131.3C73.5317 131.3 70.3708 129.868 68.577 127.004C66.8051 124.118 65.9192 119.92 65.9192 114.411Z" fill="#2A3FFB"/><path d="M123.274 115.821C123.274 121.134 122.268 125.047 120.255 127.561C118.243 130.054 115.005 131.3 110.543 131.3C106.102 131.3 102.865 130.043 100.83 127.529C98.8179 125.014 97.8116 121.112 97.8116 115.821V72.8928H106.605V115.657C106.605 118.696 106.748 120.543 107.032 121.199C107.316 121.855 107.655 122.456 108.049 123.003C108.465 123.528 109.307 123.79 110.576 123.79C111.844 123.79 112.752 123.418 113.299 122.675C113.846 121.932 114.174 121.013 114.283 119.92C114.415 118.805 114.48 117.384 114.48 115.657V72.8928H123.274V115.821Z" fill="#2A3FFB"/><path d="M132.952 130.644V72.9256H143.879L152.082 115.099L159.793 72.9256H170.785V130.644H162.943V109.131L163.271 89.3885L155.495 130.382H148.506L140.401 89.3885L140.729 109.131V130.644H132.952Z" fill="#2A3FFB"/><path d="M180.825 130.644V72.9256H200.184V80.5011H189.618V97.292H199.659V104.704H189.618V123.069H200.578V130.644H180.825Z" fill="#2A3FFB"/></svg>