<svg height="151" viewBox="0 0 569 151" width="569" xmlns="http://www.w3.org/2000/svg"><g fill="none" fill-rule="evenodd" transform="translate(-1)"><g fill="#8e75ff" opacity=".974563" transform="translate(0 23)"><path d="m86.1180301 86.5299289v-41.2691892c0-1.4698452-1.191545-2.6613901-2.6613901-2.6613901h-41.0600714v-42.5993496h83.4566404c1.469845 0 2.66139 1.19154493 2.66139 2.66139009v83.86853881z"/><path d="m42.3965686 0v42.5993496h-39.19479466c-.73492258 0-1.33069505-.5957725-1.33069505-1.330695 0-.3518223.13932767-.6893272.38750937-.938696z" opacity=".404989"/><path d="m128.514599 89.7533814v39.3758976h-42.3965689l40.1226879-40.3145935c.518427-.5209071 1.360975-.5229172 1.881882-.0044897.250928.2497337.391999.5891631.391999.9431856z" opacity=".404989" transform="matrix(-1 0 0 -1 214.632628 215.659208)"/><path d="m42.3965686 42.5993496h42.3907664c.7349226 0 1.3306951.5957725 1.3306951 1.3306951v42.5998842h-41.0600714c-1.4698451 0-2.6613901-1.1915449-2.6613901-2.6613901z" opacity=".404989"/></g><path d="m291.840637 52.401741h-16.768568v31.7771491c0 2.648109.660293 4.5832365 1.980897 5.8054407 1.320605 1.2222041 3.250691 1.9096837 5.790315 2.0624592 2.323354.1397654 5.156788.1303574 8.500374-.0282245.12111-.0057441.279071-.0136049.473882-.0235824.248244-.012797.459796.1781411.472511.4263896.000392.0076675.000589.0153438.000589.0230214v16.9978639c-.000059.229443-.172704.422135-.400769.44724-.124798.013737-.228028.02497-.309693.033699-13.134706 1.403874-22.421339.104713-27.86017-3.897517-5.536382-4.074014-8.304531-11.3562043-8.304531-21.8467899v-31.7771491h-12.806773c-.248529 0-.45-.2014718-.45-.45v-18.0440696c0-.2485282.201471-.45.45-.45h12.806773v-12.6210885c0-.3565346.210468-.6794571.536655-.8233959l18.488268-8.158423c.227374-.1003348.493035.0026511.59337.2300256.025257.0572366.038302.1191108.038302.1816723v21.1912095h16.768568c.248528 0 .45.2014718.45.45v18.0440696c0 .2485282-.201472.45-.45.45zm36.09127-5.8054407c1.828529-4.8888166 4.850637-8.555374 9.066414-10.9997823 3.858098-2.237018 8.120262-3.4504091 12.786598-3.6402012.207417-.0084362.491216-.0153556.851397-.0207582.248554-.0038294.453071.1946428.456799.4431988.000034.0022501.000051.0045003.000051.0067506v20.7214955c-.000018.409131-.331684.7407973-.740815.7407973-.022334 0-.044655-.0010099-.066897-.0030267-5.668247-.5139629-10.757544.7364626-15.26803 3.7513086-4.723702 3.1573607-7.085517 8.4025749-7.085517 15.7357998v36.0631665c0 .248528-.201472.45-.45.45h-18.756595c-.248529 0-.45-.201472-.45-.45v-75.4873776c0-.2485282.201471-.45.45-.45h18.756595c.248528 0 .45.2014718.45.45zm92.94266-13.1386289h18.756595c.248529 0 .45.2014718.45.45v75.4873776c0 .248528-.201471.45-.45.45h-18.756595c-.248528 0-.45-.201472-.45-.45v-8.563711c-5.891928 7.435076-14.17098 11.152558-24.837403 11.152558-10.158498 0-18.869279-3.895718-26.132605-11.687269-7.263326-7.7915517-10.894934-17.3398784-10.894934-28.6452668s3.631608-20.8537151 10.894934-28.6452666 15.974107-11.6872688 26.132605-11.6872688c10.666423 0 18.945475 3.7174819 24.837403 11.1525571v-8.5637105c0-.2485282.201472-.45.45-.45zm-36.715656 53.7767138c3.961814 3.9721635 8.990195 5.9582155 15.085294 5.9582155s11.148876-2.0115142 15.161482-6.0346029c4.012607-4.0230886 6.01888-9.1919162 6.01888-15.5066376 0-6.3147215-2.006273-11.483549-6.01888-15.5066377-4.012606-4.0230886-9.066383-6.0346028-15.161482-6.0346028s-11.12348 2.0115142-15.085294 6.0346028c-3.961814 4.0230887-5.942691 9.1919162-5.942691 15.5066377 0 6.3147214 1.980877 11.5090112 5.942691 15.583025zm115.012181-55.9155604c10.260082 0 19.021655 3.8957173 26.284981 11.6872688s10.894935 17.3398782 10.894935 28.6452666-3.631609 20.8537151-10.894935 28.6452668c-7.263326 7.791551-16.024899 11.687269-26.284981 11.687269-10.666423 0-18.894683-3.717482-24.685027-11.152558v39.118662c0 .248528-.201472.45-.45.45h-18.756595c-.248528 0-.45-.201472-.45-.45v-106.0423286c0-.2485282.201472-.45.45-.45h18.756595c.248528 0 .45.2014718.45.45v8.5637105c5.790344-7.4350752 14.018604-11.1525571 24.685027-11.1525571zm-18.742335 55.9155604c3.961814 3.9721635 8.990195 5.9582155 15.085294 5.9582155 6.095098 0 11.148875-2.0115142 15.161482-6.0346029 4.012607-4.0230886 6.01888-9.1919162 6.01888-15.5066376 0-6.3147215-2.006273-11.483549-6.01888-15.5066377-4.012607-4.0230886-9.066384-6.0346028-15.161482-6.0346028-6.095099 0-11.12348 2.0115142-15.085294 6.0346028-3.961814 4.0230887-5.942692 9.1919162-5.942692 15.5066377 0 6.3147214 1.980878 11.5090112 5.942692 15.583025zm77.381107-62.9431991c-3.25072 0-6.069661-1.1967236-8.456908-3.5902068-2.387247-2.3934831-3.580852-5.2197878-3.580852-8.4789989 0-3.25921106 1.193605-6.11097797 3.580852-8.55538628 2.387247-2.4444083 5.206188-3.66659412 8.456908-3.66659412 3.352304 0 6.222036 1.22218582 8.609283 3.66659412 2.387247 2.44440831 3.580853 5.29617522 3.580853 8.55538628 0 3.2592111-1.193606 6.0855158-3.580853 8.4789989-2.387247 2.3934832-5.256979 3.5902068-8.609283 3.5902068zm-9.75211 85.1038629v-75.4873776c0-.2485282.201472-.45.45-.45h18.756595c.248529 0 .45.2014718.45.45v75.4873776c0 .248528-.201471.45-.45.45h-18.756595c-.248528 0-.45-.201472-.45-.45zm-352.069195-54.2433624c0 2.0370069 1.34598 3.6920502 4.037982 4.9651796 2.692002 1.2731293 5.968069 2.3934663 9.828298 3.3610446s7.7204 2.1897641 11.58063 3.6665941c3.860229 1.47683 7.136295 3.9466639 9.828297 7.4095756 2.692002 3.4629118 4.037983 7.7914866 4.037983 12.9858542 0 7.8424767-2.920525 13.8770193-8.761661 18.1038083-5.841136 4.22679-13.129749 6.340153-21.866057 6.340153-15.293229 0-25.829411-5.791232-31.608844-17.3738643-.049885-.0999752-.113048-.2291315-.189491-.3874688-.10808-.2238117-.014234-.4928538.209588-.6009116.004287-.0020696.008606-.004071.012956-.0060035l16.533617-7.3447816c.43508-.1932456.945408-.0142568 1.16444.4084291.00234.0045151.004653.0089683.00694.0133598 2.575119 4.9444174 7.198684 7.4165941 13.870794 7.4165941 7.009363 0 10.513993-2.1897496 10.513993-6.5693145 0-2.0370069-1.345981-3.6920502-4.037983-4.9651795-2.692002-1.2731294-5.968068-2.4189286-9.828298-3.437432-3.860229-1.0185035-7.7204-2.2916137-11.580629-3.8193689-3.86023-1.5277552-7.136296-3.9466646-9.828298-7.2568009-2.692002-3.3101362-4.037983-7.4604756-4.037983-12.4511425 0-7.5369256 2.76815-13.4696193 8.304531-17.798259s12.41866-6.4929271 20.647044-6.4929271c6.196683 0 11.834565 1.4004213 16.913814 4.2013058 4.611303 2.5428417 8.288334 5.8804462 11.131165 10.360759.144946.2284352.339652.5497039.584118.9638061.126412.2140148.055331.4899683-.158714.6163299-.014964.0088344-.030428.0167946-.046313.0238407l-16.576187 7.3526383c-.29273.1298506-.636428.0283222-.811615-.2397477-2.487652-3.8065731-6.166383-5.7098352-11.036268-5.7098352-2.539625 0-4.647482.5601685-6.323634 1.6805223s-2.514215 2.648086-2.514215 4.5832426z" fill="#2f2e8b" fill-rule="nonzero"/></g></svg>