<svg height="41" viewBox="0 0 234 41" width="234" xmlns="http://www.w3.org/2000/svg"><g fill="none" fill-rule="evenodd"><path d="m97.624 33.7999409c.3360017-.2986681.6346654-.6346648.896-1.008s.392-.8026642.392-1.288c0-.5973363-.2146645-1.1013312-.644-1.512-.4293355-.4106687-.9519969-.7559986-1.568-1.036s-1.2599966-.4946659-1.932-.644c-.6720034-.149334-1.2319978-.2799994-1.68-.392-1.2320062-.2986681-2.3893279-.6626645-3.472-1.092-1.0826721-.4293354-2.0253293-.9519969-2.828-1.568-.8026707-.616003-1.437331-1.3439958-1.904-2.184s-.7-1.8386608-.7-2.996c0-1.082672.2613307-2.0999952.784-3.052.5226693-.9520047 1.2226623-1.7919963 2.1-2.52.8773377-.7280036 1.9039941-1.3066645 3.08-1.736 1.1760059-.4293354 2.4173268-.644 3.724-.644 1.1573391 0 2.2586614.1679984 3.304.504 1.0453386.3360017 1.9879958.7933305 2.828 1.372.840004.5786696 1.54933 1.2786626 2.128 2.1.57867.8213375.961332 1.735995 1.148 2.744l-4.872 1.176c-.2240011-.8960044-.7093296-1.6426636-1.456-2.24-.7466704-.5973363-1.7733268-.896-3.08-.896-.4480022 0-.9146642.0653327-1.4.196-.4853358.1306674-.9333313.3266654-1.344.588-.4106687.2613347-.7559986.5786648-1.036.952s-.42.8026643-.42 1.288c0 .5226693.1586651.9706648.476 1.344s.6999978.6813322 1.148.924c.4480022.2426679.9333307.438666 1.456.588.5226693.1493341 1.0079978.2799995 1.456.392 1.9786766.4853358 3.6213268 1.0079972 4.928 1.568 1.306673.5600028 2.351996 1.1759967 3.136 1.848.784004.6720034 1.334665 1.4093294 1.652 2.212.317335.8026707.476 1.707995.476 2.716 0 1.1946727-.270664 2.3146615-.812 3.36-.541336 1.0453386-1.287995 1.9506629-2.24 2.716-.952005.7653372-2.09066 1.3626646-3.416 1.792-1.32534.4293355-2.7533257.644-4.284.644-2.3146782 0-4.3773243-.5693276-6.188-1.708-1.8106757-1.1386723-3.0333302-2.6599904-3.668-4.564l4.592-2.072c.5973363 1.3066732 1.362662 2.193331 2.296 2.66s1.9973274.7 3.192.7c1.4933408 0 2.743995-.4106625 3.752-1.232zm24.552 5.544c-1.530674.5226693-3.042659.8399995-4.536.952-1.493341.1120006-2.837327-.1026639-4.032-.644-1.194673-.541336-2.16533-1.4933265-2.912-2.856-.74667-1.3626734-1.12-3.2759876-1.12-5.74v-12.429537h-4.451244v-5.9136959s.391968.0000004 1.216308.0000004c1.454712 0 2.752649-.3554081 3.66858-1.8323975.388424-.6263563.438949-1.26706783.486084-3.00378456v-2.05078125h4.663574v6.88696291h5.497802v5.9136959h-5.497802l-.151302 13.269537c0 .8960045.102666 1.6053308.308 2.128.205334.5226693.550664.9146654 1.036 1.176.485336.2613347 1.119996.392 1.904.392s1.735994-.0746659 2.856-.224zm17.176-21.784c-.261335-.1120005-.522665-.2239994-.784-.336-.224001-.074667-.485332-.1493329-.784-.224-.298668-.074667-.615998-.112-.952-.112-1.082672 0-2.090662.1773316-3.024.532-.933338.3546685-1.735997.8306637-2.408 1.428-.672003.5973364-1.203998 1.2973294-1.596 2.1-.392002.8026707-.588 1.6519956-.588 2.548l-.056 16.5040591h-5.432v-27.4240591h4.312l1.12 2.968c.74667-1.082672 1.726661-1.9506634 2.94-2.604s2.734657-.98 4.564-.98c1.194673 0 2.557326.1679984 4.088.504zm14.096 22.512c-1.941343 0-3.761325-.3639963-5.46-1.092-1.698675-.7280036-3.18266-1.7266603-4.452-2.996-1.26934-1.2693396-2.267996-2.762658-2.996-4.48-.728004-1.7173419-1.092-3.5466569-1.092-5.488 0-1.941343.34533-3.770658 1.036-5.488.69067-1.7173419 1.623994-3.2106603 2.8-4.48 1.176006-1.2693396 2.547992-2.2679963 4.116-2.996 1.568008-.7280036 3.247991-1.092 5.04-1.092 1.829342 0 3.518659.3173302 5.068.952 1.549341.6346699 2.893328 1.6239933 4.032 2.968 1.138672 1.3440068 2.02533 3.0519897 2.66 5.124.63467 2.0720104.952 4.545319.952 7.42h-19.936c.261335.9706716.671997 1.8759958 1.232 2.716s1.222663 1.567997 1.988 2.184c.765337.6160031 1.623995 1.0919984 2.576 1.428.952005.3360017 1.950661.504 2.996.504 1.418674 0 2.734661-.2613307 3.948-.784 1.213339-.5226692 2.249329-1.213329 3.108-2.072l3.36 3.36c-1.306673 1.3066732-2.902657 2.3519961-4.788 3.136-1.885343.784004-3.947989 1.176-6.188 1.176zm-1.008-23.184c-.858671 0-1.670663.1679984-2.436.504-.765337.3360017-1.474663.8026637-2.128 1.4-.653337.5973364-1.213331 1.3066626-1.68 2.128-.466669.8213375-.811999 1.7173285-1.036 2.688h14.168c-.074667-.8960044-.279998-1.7546625-.616-2.576-.336002-.8213374-.802664-1.5399969-1.4-2.156-.597336-.616003-1.297329-1.1013315-2.1-1.456-.802671-.3546684-1.726662-.532-2.772-.532zm41.8-4.312v27.4240591h-4.592l-.84-3.6800591c-.933338 1.2320062-2.127993 2.1653302-3.584 2.8-1.456007.6346699-2.930659.952-4.424.952-1.866676 0-3.611992-.3639963-5.236-1.092-1.624008-.7280036-3.042661-1.7266603-4.256-2.996-1.213339-1.2693396-2.174663-2.762658-2.884-4.48-.709337-1.7173419-1.064-3.5466569-1.064-5.488 0-1.941343.354663-3.770658 1.064-5.488.709337-1.7173419 1.670661-3.2106603 2.884-4.48 1.213339-1.2693396 2.631992-2.2679963 4.256-2.996 1.624008-.7280036 3.369324-1.092 5.236-1.092 1.493341 0 2.93066.2893305 4.312.868 1.38134.5786696 2.613328 1.4839939 3.696 2.716l.84-2.968zm-13.44 22.68c1.082672 0 2.109328-.2426642 3.08-.728.970671-.4853357 1.810663-1.1479958 2.52-1.988s1.269331-1.8199944 1.68-2.94.616-2.3146603.616-3.584c0-1.2693396-.205331-2.4639944-.616-3.584s-.970663-2.0999958-1.68-2.94-1.549329-1.5026642-2.52-1.988c-.970672-.4853357-1.997328-.728-3.08-.728s-2.109329.2426643-3.08.728c-.970672.4853358-1.810663 1.1479958-2.52 1.988s-1.269331 1.8199944-1.68 2.94-.616 2.3146604-.616 3.584c0 1.2693397.205331 2.4639944.616 3.584s.970663 2.0999958 1.68 2.94 1.549328 1.5026643 2.52 1.988c.970671.4853358 1.997328.728 3.08.728zm22.816 4.7440591h-5.432v-27.4240591h4.312l1.12 2.296c.672003-.7840039 1.474662-1.4653304 2.408-2.044.933338-.5786695 2.071993-.868 3.416-.868.522669 0 1.110663.0653327 1.764.196.653336.1306674 1.32533.3546651 2.016.672.69067.317335 1.35333.746664 1.988 1.288.63467.5413361 1.175998 1.2413291 1.624 2.1.63467-1.1573391 1.595993-2.1559958 2.884-2.996 1.288006-.8400042 2.659993-1.26 4.116-1.26.970671 0 1.997328.1493319 3.08.448 1.082672.2986682 2.090662.8586626 3.024 1.68.933338.8213375 1.698664 1.9599928 2.296 3.416.597336 1.4560073.896 3.3413218.896 5.656v16.8400591h-5.096v-16.8960591c0-2.3146782-.475995-3.9293287-1.428-4.844-.952005-.9146712-2.211992-1.372-3.78-1.372-1.194673 0-2.239996.503995-3.136 1.512-.896005 1.0080051-1.344 2.5946559-1.344 4.76v16.8400591h-5.096v-16.8960591c0-2.3146782-.475995-3.9293287-1.428-4.844-.952005-.9146712-2.211992-1.372-3.78-1.372-1.120006 0-2.099996.4293291-2.94 1.288-.840004.858671-1.334666 2.2026576-1.484 4.032z" fill="#fff"/><path d="m52.2983968 12.8561394 25.6062-1.8152c1.6902-.1198 2.7544 1.785 1.7662 3.1614l-17.9126 24.9504c-.3756.5232-.9804.8336-1.6246.8336h-40.169c-.6432 0-1.2472-.3094-1.6232-.8316l-17.96019997-24.9504c-.9906-1.3762.0736-3.2836 1.7652-3.1634l25.52819997 1.8154 10.9034-12.18979999c.799-.8932 2.199-.888 2.9914.0114zm5.3624 23.1744073-16.6182-6.2106v6.2106zm-18.6182 0v-6.2106l-16.6182 6.2106zm-1.9176-7.6942073-16.979 6.338-12.49119997-17.3632zm5.8006 0 16.979 6.338 12.4912-17.3632zm-3.867-1.4492v-20.89759999l-13.8828 15.67159999zm1.984 0v-20.89499999l13.883 15.66899999zm-19.938-6.6706 3.1942-3.5892-15.60539997-1.1184zm37.7252 0-3.194-3.5892 15.6054-1.1184z" fill="#006cff"/></g></svg>
