<svg xmlns="http://www.w3.org/2000/svg" viewBox="0 0 220 68"><g fill="none" fill-rule="evenodd"><path fill="#fff" d="M39.382 22.093c-.816-2.167-1.33-5.633-1.33-6.841a4.175 4.175 0 0 1 4.171-4.177 4.177 4.177 0 0 1 4.177 4.177c0 1.203-.509 4.645-1.322 6.814 7.213.39 17.24 2.24 17.701 4.702.517 2.774.715 9.749.715 16.593 0 5.935-10.562 9.811-21.023 9.811-10.465 0-21.022-3.876-21.022-9.811 0-6.844.193-13.819.715-16.593.449-2.409 10.049-4.232 17.218-4.675z"/><g fill="#0d1419"><path fill-rule="nonzero" d="M36.553 41.284a1.451 1.451 0 1 1-2.903-.004 1.451 1.451 0 0 1 2.903.004m11.397 6.547c.301.563.094 1.27-.467 1.575-.086.04-2.036 1.08-5.025 1.08-2.993 0-4.921-1.04-5.002-1.084a1.164 1.164 0 0 1-.459-1.58 1.157 1.157 0 0 1 1.569-.458c.04.017 1.546.8 3.892.8 2.369 0 3.901-.796 3.92-.8a1.157 1.157 0 0 1 1.572.467m6.238-6.547c0 .801-.647 1.45-1.447 1.45a1.451 1.451 0 1 1 0-2.903c.8 0 1.447.652 1.447 1.453"/><path fill-rule="nonzero" d="M51.29 44.186a4.36 4.36 0 0 1-4.351-4.355 4.36 4.36 0 0 1 4.35-4.357 4.357 4.357 0 0 1 0 8.712m0-10.89a6.53 6.53 0 0 0-6.525 6.535 6.53 6.53 0 0 0 6.525 6.533 6.53 6.53 0 0 0 6.526-6.533 6.53 6.53 0 0 0-6.526-6.535"/><path fill-rule="nonzero" d="M22.947 42.937c0-6.357.18-12.834.664-15.41.448-2.407 10.728-4.184 17.457-4.413v-4.615a2.895 2.895 0 1 1 4.053-2.653 2.89 2.89 0 0 1-1.74 2.653V23.1c6.708.157 17.49 1.962 17.951 4.426.48 2.577.664 9.054.664 15.41 0 5.513-9.81 9.113-19.525 9.113-9.72 0-19.524-3.6-19.524-9.112zm31.857-21.462c-2.63-.54-5.695-.95-8.517-1.161v-.36A5.81 5.81 0 0 0 42.224 10c-3.195 0-5.797 2.606-5.797 5.805a5.82 5.82 0 0 0 1.739 4.149v.4c-2.688.221-5.55.612-8.027 1.121-6.121 1.256-8.944 2.902-9.429 5.504-.62 3.32-.71 11.439-.71 15.983C20 50.78 31.577 55 42.471 55c10.895 0 22.472-4.221 22.472-12.038 0-4.544-.094-12.663-.715-15.983-.485-2.602-3.303-4.248-9.424-5.504z"/><path fill-rule="nonzero" d="M33.649 44.186a4.356 4.356 0 0 1 0-8.712 4.357 4.357 0 0 1 0 8.712m0-10.89c-3.6 0-6.521 2.925-6.521 6.535 0 3.608 2.921 6.533 6.521 6.533a6.53 6.53 0 0 0 6.526-6.533 6.53 6.53 0 0 0-6.526-6.535"/><g transform="translate(72.818 26.095)"><path fill-rule="nonzero" d="M13.424 3.543h-5.37V17.31H5.369V3.543H0V1.007h13.424zm7.829 3.622h-3.58c-.603 0-.895.362-.895 1.087v9.057h-2.684V8.252c0-2.47 1.14-3.623 3.58-3.623h3.579zm10.514 4.075-5.37 1.36c-.805.202-.895.475-.895 1.086 0 .725.292 1.087.895 1.087h4.475c.604 0 .893-.362.893-1.087V11.24zm2.685-2.988v5.433c0 2.466-1.14 3.621-3.579 3.621h-4.475c-2.438 0-3.58-1.155-3.58-3.621 0-1.088.359-1.834 1.142-2.287.805-.476 1.275-.634 2.438-.928l5.37-1.358v-.86c0-.724-.292-1.087-.894-1.087h-4.475c-.604 0-.895.363-.895 1.088v.905H22.82v-.905c0-2.47 1.14-3.623 3.579-3.623h4.475c2.438-.001 3.578 1.153 3.578 3.622zm11.522 0c0-.725-.291-1.087-.894-1.087h-4.475c-.605 0-.896.362-.896 1.087v9.057h-2.683V8.252c0-2.47 1.14-3.623 3.579-3.623h4.475c2.438 0 3.578 1.154 3.578 3.623v9.057h-2.684zm13.199 9.057h-4.476c-2.439 0-3.578-1.156-3.578-3.623v-.905h2.685v.905c0 .725.29 1.087.893 1.087h4.476c.604 0 .894-.362.894-1.087 0-.52 0-.771-.894-1.087l-4.476-1.133c-1.163-.295-1.633-.451-2.439-.905-.783-.476-1.14-1.222-1.14-2.309 0-2.47 1.14-3.623 3.579-3.623h4.476c2.438 0 3.578 1.154 3.578 3.623v.905h-2.683v-.905c0-.725-.292-1.087-.894-1.087h-4.476c-.604 0-.893.362-.893 1.087 0 .519 0 .77.893 1.087l4.476 1.131c1.163.297 1.632.453 2.417.93.805.45 1.162 1.2 1.162 2.286 0 2.467-1.141 3.623-3.58 3.623m9.173-2.537h2.236v2.534h-2.236c-2.239 0-3.133-.905-3.133-3.17V1.007h2.685v13.131c0 .454.067.635.448.635m12.862-6.521c0-.725-.292-1.087-.894-1.087h-4.475c-.606 0-.894.362-.894 1.087v5.433c0 .723.29 1.087.894 1.087h4.475c.604 0 .894-.364.894-1.087zm2.686 0v5.433c0 2.466-1.098 3.621-3.58 3.621h-4.475c-2.483 0-3.579-1.155-3.579-3.621V8.252c0-2.47 1.097-3.623 3.58-3.623h4.474c2.484 0 3.58 1.154 3.58 3.623zm11.297 2.988-5.37 1.36c-.806.202-.894.475-.894 1.086 0 .725.29 1.087.895 1.087h4.474c.605 0 .895-.362.895-1.087zm2.684-2.988v5.433c0 2.466-1.14 3.621-3.578 3.621h-4.474c-2.439 0-3.58-1.155-3.58-3.621 0-1.088.358-1.834 1.141-2.287.804-.476 1.274-.634 2.439-.928l5.369-1.358v-.86c0-.724-.292-1.087-.895-1.087h-4.474c-.606 0-.896.363-.896 1.088v.905h-2.684v-.905c0-2.47 1.141-3.623 3.58-3.623h4.474c2.438-.001 3.578 1.153 3.578 3.622zm11.41 5.434v-6.52h-5.37c-.605 0-.894.361-.894 1.086v5.433c0 .725.29 1.087.895 1.087h4.474c.604 0 .895-.361.895-1.086zm2.684-12.68v12.68c0 2.467-1.097 3.623-3.579 3.623h-4.474c-2.485 0-3.58-1.156-3.58-3.623V8.253c0-2.468 1.096-3.622 3.58-3.622h5.369V1.008l2.684-.001zm5.369 3.733v12.567h-2.684V4.74h2.684z"/><ellipse cx="115.898" cy="1.718" rx="1.716" ry="1.718"/><path fill-rule="nonzero" d="M127.182 14.772v2.534h-4.027c-2.236 0-3.13-.905-3.13-3.17V1.007h2.684V4.63h4.026v2.536h-4.026v6.97c0 .454.068.636.446.636z"/></g></g></g></svg>