<svg xmlns="http://www.w3.org/2000/svg" viewBox="0 0 220 68"><g fill="none" fill-rule="evenodd"><path fill="#fffffe" fill-rule="nonzero" d="M60.183 26.912c.49 2.636.678 9.262.678 15.76C60.86 48.317 50.847 52 40.93 52 31.007 52 21 48.317 21 42.672c0-6.498.183-13.124.677-15.76.458-2.462 10.951-4.28 17.82-4.514v-4.722a2.961 2.961 0 0 1-1.77-2.713A2.959 2.959 0 0 1 40.678 12a2.96 2.96 0 0 1 2.957 2.963 2.957 2.957 0 0 1-1.776 2.713v4.707c6.846.161 17.853 2.007 18.324 4.529zm-14.15 22.337a1.187 1.187 0 0 0 .476-1.602 1.176 1.176 0 0 0-1.602-.478c-.018.004-1.579.817-3.991.817-2.389 0-3.921-.798-3.963-.817a1.176 1.176 0 0 0-1.597.469 1.188 1.188 0 0 0 .467 1.611c.082.046 2.045 1.107 5.093 1.107 3.044 0 5.03-1.061 5.117-1.107zm-20.726-9.768c0 3.683 2.974 6.668 6.64 6.668 3.67 0 6.645-2.985 6.645-6.668s-2.975-6.669-6.645-6.669c-3.666 0-6.64 2.986-6.64 6.669zm24.602 6.668c3.67 0 6.645-2.985 6.645-6.668s-2.975-6.669-6.645-6.669-6.645 2.986-6.645 6.669 2.974 6.668 6.645 6.668z"/><path fill="#fffffe" fill-rule="nonzero" d="M33.425 42.443a1.482 1.482 0 0 1 0-2.962 1.482 1.482 0 0 1 0 2.962zm-1.478-7.407c-2.44 0-4.425 1.992-4.425 4.445 0 2.452 1.986 4.446 4.425 4.446 2.443 0 4.43-1.994 4.43-4.446 0-2.453-1.987-4.445-4.43-4.445zm19.437 7.407a1.482 1.482 0 0 1 0-2.962 1.482 1.482 0 0 1 0 2.962zm-1.478-7.407c-2.438 0-4.423 1.992-4.423 4.445 0 2.452 1.985 4.446 4.423 4.446 2.443 0 4.429-1.994 4.429-4.446 0-2.453-1.986-4.445-4.429-4.445z"/><g fill="#fff" transform="translate(70.498 25.714)"><path fill-rule="nonzero" d="M13.457 3.522H8.074v13.684H5.383V3.522H0V1.001h13.457zm7.849 3.6h-3.588c-.605 0-.897.36-.897 1.081v9.003h-2.692V8.203c0-2.454 1.144-3.601 3.59-3.601h3.587zm10.541 4.052-5.384 1.35c-.807.202-.896.474-.896 1.08 0 .721.292 1.081.896 1.081h4.487c.605 0 .895-.36.895-1.08v-2.43h.002zm2.692-2.97v5.4c0 2.451-1.143 3.6-3.588 3.6h-4.487c-2.444 0-3.588-1.149-3.588-3.6 0-1.082.36-1.823 1.144-2.274.808-.473 1.279-.63 2.444-.922l5.384-1.35v-.854c0-.72-.293-1.081-.896-1.081h-4.487c-.605 0-.897.36-.897 1.081v.9h-2.691v-.9c0-2.455 1.144-3.602 3.588-3.602h4.487c2.444 0 3.587 1.147 3.587 3.601zm11.551-.001c0-.72-.292-1.08-.896-1.08h-4.487c-.607 0-.898.36-.898 1.08v9.003h-2.69V8.203c0-2.454 1.143-3.601 3.588-3.601h4.487c2.443 0 3.587 1.147 3.587 3.601v9.003H46.09zm13.232 9.003h-4.487c-2.445 0-3.588-1.148-3.588-3.601v-.9h2.692v.9c0 .72.292 1.08.896 1.08h4.487c.606 0 .896-.36.896-1.08 0-.518 0-.767-.896-1.08l-4.487-1.127c-1.167-.293-1.637-.449-2.445-.9-.785-.472-1.143-1.215-1.143-2.295 0-2.454 1.143-3.601 3.588-3.601h4.487c2.444 0 3.587 1.147 3.587 3.601v.9h-2.69v-.9c0-.72-.292-1.08-.896-1.08h-4.488c-.605 0-.895.36-.895 1.08 0 .516 0 .765.895 1.08l4.488 1.125c1.166.295 1.636.45 2.423.924.807.449 1.165 1.192 1.165 2.273 0 2.453-1.144 3.601-3.589 3.601m9.196-2.522h2.241v2.52h-2.241c-2.244 0-3.14-.9-3.14-3.151V1h2.69v13.054c0 .45.068.63.45.63m12.895-6.481c0-.72-.293-1.08-.897-1.08H76.03c-.607 0-.896.36-.896 1.08v5.4c0 .72.29 1.081.896 1.081h4.486c.606 0 .896-.361.896-1.08l.001-5.4zm2.692 0v5.4c0 2.452-1.1 3.6-3.589 3.6H76.03c-2.49 0-3.588-1.148-3.588-3.6v-5.4c0-2.454 1.1-3.601 3.588-3.601h4.486c2.49 0 3.59 1.147 3.59 3.601zm11.325 2.971-5.382 1.35c-.809.202-.898.474-.898 1.08 0 .721.292 1.081.898 1.081h4.486c.606 0 .897-.36.897-1.08v-2.43zm2.691-2.97v5.4c0 2.451-1.142 3.6-3.586 3.6h-4.486c-2.445 0-3.589-1.149-3.589-3.6 0-1.082.36-1.823 1.144-2.274.807-.473 1.277-.63 2.445-.922l5.383-1.35v-.854c0-.72-.293-1.081-.897-1.081h-4.486c-.607 0-.898.36-.898 1.081v.9H86.46v-.9c0-2.455 1.144-3.602 3.589-3.602h4.486c2.444 0 3.586 1.147 3.586 3.601zm11.439 5.401V7.123h-5.382c-.608 0-.897.36-.897 1.08v5.4c0 .721.29 1.081.897 1.081h4.485c.605 0 .897-.359.897-1.08zM112.25 1v12.604c0 2.453-1.098 3.601-3.587 3.601h-4.485c-2.491 0-3.589-1.148-3.589-3.601v-5.4c0-2.454 1.099-3.6 3.589-3.6h5.382V1.001zm5.383 3.71v12.494h-2.69V4.71z"/><ellipse cx="116.19" cy="1.708" rx="1.72" ry="1.708"/><path fill-rule="nonzero" d="M127.502 14.684v2.52h-4.036c-2.242 0-3.139-.9-3.139-3.151V1h2.69v3.602h4.038v2.52h-4.037v6.93c0 .45.068.631.448.631h4.036"/></g></g></svg>