<svg width="307" height="64" viewBox="0 0 307 64" fill="none" xmlns="http://www.w3.org/2000/svg">
<g clip-path="url(#clip0_1303_15447)">
<g clip-path="url(#clip1_1303_15447)">
<path d="M26.3704 21.3333C26.449 21.3333 26.5243 21.3021 26.5799 21.2466C26.6355 21.191 26.6667 21.1156 26.6667 21.037V0.296296C26.6667 0.217714 26.6355 0.14235 26.5799 0.0867832C26.5243 0.0312168 26.449 0 26.3704 0L0.296296 0C0.217714 0 0.14235 0.0312168 0.0867832 0.0867832C0.0312168 0.14235 0 0.217714 0 0.296296L0 5.92593C0 10.0122 1.62328 13.9312 4.51273 16.8206C7.40217 19.7101 11.3211 21.3333 15.4074 21.3333H26.3704Z" fill="#222222"/>
<path d="M85.0371 0H37.6297C37.5511 0 37.4757 0.0312168 37.4201 0.0867832C37.3646 0.14235 37.3334 0.217714 37.3334 0.296296V32C37.3334 34.829 36.2095 37.5421 34.2092 39.5425C32.2088 41.5429 29.4957 42.6667 26.6667 42.6667H10.963C10.8844 42.6667 10.809 42.6979 10.7535 42.7534C10.6979 42.809 10.6667 42.8844 10.6667 42.963V63.7037C10.6667 63.7823 10.6979 63.8577 10.7535 63.9132C10.809 63.9688 10.8844 64 10.963 64H74.3704C74.449 64 74.5243 63.9688 74.5799 63.9132C74.6355 63.8577 74.6667 63.7823 74.6667 63.7037V42.963C74.6667 42.8844 74.6355 42.809 74.5799 42.7534C74.5243 42.6979 74.449 42.6667 74.3704 42.6667H69.3334C66.5044 42.6667 63.7913 41.5429 61.7909 39.5425C59.7905 37.5421 58.6667 34.829 58.6667 32C58.6667 29.171 59.7905 26.4579 61.7909 24.4575C63.7913 22.4571 66.5044 21.3333 69.3334 21.3333H85.0371C85.1156 21.3333 85.191 21.3021 85.2466 21.2466C85.3021 21.191 85.3334 21.1156 85.3334 21.037V0.296296C85.3334 0.217714 85.3021 0.14235 85.2466 0.0867832C85.191 0.0312168 85.1156 0 85.0371 0V0Z" fill="#222222"/>
<path d="M205.707 38.1659V64H190.785V41.0548C190.785 36.0178 189.57 32.2904 183.881 32.2904C181.376 32.2986 178.934 33.0798 176.889 34.5274V64H162.074V21.3333H174.477L176.062 25.5733C179.94 22.1252 184.956 20.232 190.145 20.2578C200.018 20.2578 205.707 26.2252 205.707 38.1659Z" fill="#222222"/>
<path d="M256.169 21.3481L237.502 64.0148H226.584L207.544 21.3481H222.951L232 46.9215L240.77 21.3481H256.169Z" fill="#222222"/>
<path d="M260.059 8.37039C260.049 7.26717 260.26 6.17305 260.678 5.15206C261.096 4.13107 261.713 3.20372 262.494 2.42429C263.275 1.64485 264.203 1.02898 265.225 0.612714C266.247 0.196451 267.341 -0.0118432 268.444 2.20761e-05C273.185 2.20761e-05 276.907 3.63854 276.907 8.37039C276.907 13.1022 273.162 16.7408 268.444 16.7408C267.341 16.7526 266.247 16.5443 265.225 16.1281C264.203 15.7118 263.275 15.0959 262.494 14.3165C261.713 13.5371 261.096 12.6097 260.678 11.5887C260.26 10.5677 260.049 9.47361 260.059 8.37039V8.37039Z" fill="#222222"/>
<path d="M275.941 21.3659H261.013V63.9082H275.941V21.3659Z" fill="#222222"/>
<path d="M285.064 51.6237V0H299.517V49.0933C299.517 53.4311 301.502 54.4652 305.659 53.6533V62.0119C303.944 62.9156 301.324 64 296.536 64C289.671 64 285.064 61.5615 285.064 51.6237Z" fill="#222222"/>
<path d="M125.407 0H120.762L90.6667 64H106.074L110.403 53.9259H136.181L140.625 64H156.033L125.407 0ZM115.215 42.6459L123.111 22.723L131.144 42.6459H115.215Z" fill="#222222"/>
</g>
</g>
<defs>
<clipPath id="clip0_1303_15447">
<rect width="306.667" height="64" fill="white"/>
</clipPath>
<clipPath id="clip1_1303_15447">
<rect width="306.667" height="64" fill="white"/>
</clipPath>
</defs>
</svg>
