<svg id="Layer_1" data-name="Layer 1" xmlns="http://www.w3.org/2000/svg" viewBox="0 0 447.68 132.98"><defs><style>.cls-1{fill-rule:evenodd}</style></defs><title>botpress</title><path d="M178,161.38V108.44h8.16v17a27.15,27.15,0,0,1,9.28-2.25c10.19,0,14.53,5,14.53,19,0,15.57-4.87,20.06-18.27,20.06C188.82,162.27,182.16,161.75,178,161.38Zm23.66-19.17c0-8.46-2.17-11.68-7.19-11.68a31.87,31.87,0,0,0-8.31,1.42v22.69c1.8.15,4.42.3,5.54.3C200,154.94,201.63,151.27,201.63,142.21Z" transform="translate(-17.11 -73.71)"/><path d="M217.8,142.51c0-12.13,4.19-19.32,16.69-19.32s16.7,7.19,16.7,19.32c0,12.43-3.82,19.76-16.7,19.76S217.8,154.94,217.8,142.51Zm25.08,0c0-8.61-1.8-12.36-8.39-12.36s-8.38,3.75-8.38,12.36,1.5,12.8,8.38,12.8S242.88,151.19,242.88,142.51Z" transform="translate(-17.11 -73.71)"/><path d="M262.34,148.35V131h-4.79v-7h4.79V113.16h8.16V124h10.26v7H270.5v16.47c0,5.62.15,7.56,4.05,7.56,1.5,0,4.34-.15,6.14-.3l.37,6.59a47.26,47.26,0,0,1-7.64,1C265,162.27,262.34,159.13,262.34,148.35Z" transform="translate(-17.11 -73.71)"/><path d="M295.36,124H301v2.7a23.88,23.88,0,0,1,11.15-3.44c9.44,0,13.55,5.76,13.55,19,0,14.75-4.71,19.92-16.32,19.92a51.33,51.33,0,0,1-8.38-.82v16.69h-5.62Zm24.56,18.27c0-10.25-3.15-14-8.61-14a23.88,23.88,0,0,0-10.33,3v25.23a61.69,61.69,0,0,0,8.08.75C317.22,157.26,319.92,153.07,319.92,142.28Z" transform="translate(-17.11 -73.71)"/><path d="M336.31,124h5.62v5.1a40.59,40.59,0,0,1,13.62-5.92v5.69A55,55,0,0,0,341.93,134v27.48h-5.62Z" transform="translate(-17.11 -73.71)"/><path d="M361.32,143c0-14.23,6.14-19.69,15.65-19.69,9.95,0,15.12,5.24,15.12,17.52l-.37,4.26H367c.07,8,2.47,12.13,9.88,12.13,4.05,0,10.19-.37,13.7-.67l.15,4.49a121.09,121.09,0,0,1-14.6,1.2C365,162.2,361.32,155.69,361.32,143Zm25.08-2.4c0-9.28-2.84-12.58-9.43-12.58-6.37,0-10,3.52-10,12.58Z" transform="translate(-17.11 -73.71)"/><path d="M400.77,160.78l.3-4.87a120.69,120.69,0,0,0,12.36,1.27c6.14,0,9.36-1.42,9.36-6.44,0-3.89-2-4.86-10-6.06-8.46-1.35-12.5-3-12.5-10.48,0-8.24,6.66-10.93,13.48-10.93a93,93,0,0,1,13.55,1.42l-.15,4.86a113.24,113.24,0,0,0-13.1-1.19c-4.65,0-8.09,1.19-8.09,5.69,0,3.44,1.72,4.41,9.66,5.76,9.36,1.57,12.88,3.45,12.88,10.71,0,8.76-5.54,11.68-14.53,11.68A99.73,99.73,0,0,1,400.77,160.78Z" transform="translate(-17.11 -73.71)"/><path d="M437.08,160.78l.3-4.87a120.69,120.69,0,0,0,12.36,1.27c6.14,0,9.36-1.42,9.36-6.44,0-3.89-2-4.86-10-6.06-8.46-1.35-12.5-3-12.5-10.48,0-8.24,6.66-10.93,13.48-10.93a92.7,92.7,0,0,1,13.55,1.42l-.15,4.86a112.84,112.84,0,0,0-13.1-1.19c-4.65,0-8.09,1.19-8.09,5.69,0,3.44,1.72,4.41,9.66,5.76,9.36,1.57,12.88,3.45,12.88,10.71,0,8.76-5.54,11.68-14.53,11.68A99.73,99.73,0,0,1,437.08,160.78Z" transform="translate(-17.11 -73.71)"/><path class="cls-1" d="M113.43,154.69l8.6,5,8.59,5a6.43,6.43,0,0,1,3.29,5.7v19.85a6.43,6.43,0,0,1-3.29,5.7l-8.59,5-8.6,5a6.42,6.42,0,0,1-6.58,0l-8.6-5-8.59-5a6.43,6.43,0,0,1-3.29-5.7V171.49L46.21,148.31,54,160l-9.87,5.69a6.42,6.42,0,0,1-6.58,0l-8.6-5-8.59-5a6.41,6.41,0,0,1-3.29-5.7V130.23a6.41,6.41,0,0,1,3.29-5.7l8.59-5,8.6-5a6.46,6.46,0,0,1,6.58,0l8.6,5,7.56,4.37,26-15V90.24a6.43,6.43,0,0,1,3.29-5.7l8.59-5,8.6-5a6.42,6.42,0,0,1,6.58,0l8.6,5,8.59,5a6.43,6.43,0,0,1,3.29,5.7v19.85a6.43,6.43,0,0,1-3.29,5.7l-8.59,5-8.6,5a6.46,6.46,0,0,1-6.58,0l-8.6-5-.51-.3,9.07-13.38-16.12,9.31-26,15V149l26,15,7.56-4.37,8.6-5A6.42,6.42,0,0,1,113.43,154.69Z" transform="translate(-17.11 -73.71)"/></svg>