<svg xmlns="http://www.w3.org/2000/svg" viewBox="0 0 450 140"><path d="M198.4 73.1v-5.8c0-11.7-5.8-18.8-17.9-18.8-1.8 0-4.4.1-7.2.5V35.8c0-.8-.7-1.5-1.5-1.5h-6.9c-.8 0-1.5.7-1.5 1.5v52.1c0 1.1.3 1.6 2 2 4.6 1.2 10.3 1.9 15 1.9 12.1.1 18-7 18-18.7zm-9.9 0c0 6.1-1.6 10.7-8 10.7-2.7 0-5.8-.2-7.2-.5V57.2c2.1-.3 5.4-.5 7.2-.5 6.4 0 8 4.6 8 10.7v5.7zm50.6.2v-6.1c0-10.7-6.1-18.6-17.9-18.6-11.8 0-17.9 7.9-17.9 18.6v6.1c0 10.7 6.1 18.6 17.9 18.6 11.8 0 17.9-7.9 17.9-18.6zm-9.9 0c0 6.1-2.8 10.1-8 10.1s-8-4-8-10.1v-6.1c0-6.1 2.8-10.1 8-10.1s8 4 8 10.1v6.1zm39 16.7v-4.7c0-.7-.6-1.1-1.6-1.1h-4c-2.7 0-2.9-.4-2.9-4.2V56.5h6.7c.8 0 1.5-.7 1.5-1.5v-4.4c0-.8-.7-1.5-1.5-1.5h-6.7v-7.7c0-.7-.5-1.1-1.2-1.1h-.3l-7 1.2c-.8.1-1.5.7-1.5 1.5v6.1h-7c-.8 0-1.5.7-1.5 1.5V54c0 .8.7 1.3 1.5 1.5l7 1V80c0 10 3.4 11.9 11.9 11.9 1.6 0 3.3-.2 5.1-.5 1-.2 1.5-.6 1.5-1.4zm41.6-16.5v-5.4c0-11.2-5.2-18.5-16.3-18.5-4.6 0-9.8.7-13.8 1.7-1.3.3-1.6.7-1.6 1.7v51.5c0 .8.6 1.4 1.3 1.4h3.8c.8 0 1.4-.7 1.4-1.4V91c2.9.5 6.4.8 8.8.8 11 0 16.4-6.6 16.4-18.3zm-6.6 0c0 8-2.4 12.8-9.7 12.8-2.4 0-6.3-.3-8.8-.7V55.9c2.1-.4 5.6-.7 8.8-.7 7.4 0 9.7 5.1 9.7 13v5.3zM337.1 54v-3.1c0-.9-.5-1.3-1.6-1.3-3.4 0-6.8 1-10.6 3.6v-1.6c0-.8-.6-1.5-1.4-1.5H320c-.8 0-1.4.7-1.4 1.5v38.2c0 .8.7 1.5 1.4 1.5h3.7c.8 0 1.5-.7 1.5-1.5V58.4c3.7-2.2 6.9-3.1 10.3-3.1 1.1 0 1.6-.5 1.6-1.3zM376 71.2v-4c0-10.6-5.5-17.5-16.5-17.5-10.7 0-16.6 6.8-16.6 17.5v6.7c0 13.9 8.4 18 17 18 5 0 9.1-.4 13.4-1.3 1.2-.2 1.5-.7 1.5-1.7v-2.5c0-.7-.6-1-1.2-1h-.4c-3.4.5-9 .8-13.3.8-6.9 0-10.4-3.3-10.4-12.2v-1h25.1c.9-.2 1.4-.9 1.4-1.8zm-6.7-3.4h-19.8v-.7c0-8.1 3.6-11.8 10-11.8 6.6 0 9.8 3.3 9.8 11.8v.7zM411 81c0-4.4-2-7.6-8.2-11.3l-7.4-4.4c-3.4-2-5.2-3.4-5.2-5.7 0-3.8 2.8-4.3 7-4.3s9 .4 11.6.6h.2c.7 0 1.3-.4 1.3-1.3v-2.5c0-.8-.4-1.3-1.4-1.5-3.5-.6-7.5-1-11.7-1-7.7 0-13.6 2.2-13.6 10 0 4.7 3.1 7.9 7.6 10.7l7.6 4.5c4.3 2.5 5.6 4 5.6 6.2 0 4-2.5 5.3-7.4 5.3-2.7 0-8.2-.4-11.8-.8h-.3c-.7 0-1.3.4-1.3 1.1v2.6c0 .8.6 1.3 1.6 1.5 3.7.9 9.1 1.1 11.8 1.1 8.4 0 14-3.2 14-10.8zm34.9 0c0-4.4-2-7.6-8.2-11.3l-7.4-4.4c-3.4-2-5.2-3.4-5.2-5.7 0-3.8 2.8-4.3 7-4.3s9 .4 11.6.6h.2c.7 0 1.3-.4 1.3-1.3v-2.5c0-.8-.4-1.3-1.4-1.5-3.5-.6-7.5-1-11.7-1-7.7 0-13.6 2.2-13.6 10 0 4.7 3.1 7.9 7.6 10.7l7.6 4.5c4.3 2.5 5.6 4 5.6 6.2 0 4-2.5 5.3-7.4 5.3-2.7 0-8.2-.4-11.8-.8h-.3c-.7 0-1.3.4-1.3 1.1v2.6c0 .8.6 1.3 1.6 1.5 3.7.9 9.1 1.1 11.8 1.1 8.4 0 14-3.2 14-10.8z" fill-rule="evenodd" clip-rule="evenodd"/><path d="M99.4 84.6l8.6 5 8.6 5c2.1 1.2 3.3 3.3 3.3 5.7v19.8c0 2.4-1.2 4.5-3.3 5.7l-8.6 5-8.6 5c-2.1 1.2-4.5 1.2-6.6 0l-8.6-5-8.6-5c-2.1-1.2-3.3-3.3-3.3-5.7v-18.6C59.5 94 45.1 85.7 32.2 78.3L40.1 90l-9.9 5.7c-2.1 1.2-4.5 1.2-6.6 0l-8.6-5-8.6-5c-2.1-1.2-3.3-3.3-3.3-5.7V60.2c0-2.4 1.2-4.5 3.3-5.7l8.6-5 8.6-5c2.1-1.2 4.5-1.2 6.6 0l8.6 5 7.6 4.4 26-15V20.3c0-2.4 1.2-4.5 3.3-5.7l8.6-5 8.6-5c2.1-1.2 4.5-1.2 6.6 0l8.6 5 8.6 5c2.1 1.2 3.3 3.3 3.3 5.7V40c0 2.4-1.2 4.5-3.3 5.7l-8.6 5-8.6 5c-2.1 1.2-4.5 1.2-6.6 0l-8.6-5-.5-.3 9-13.4-16.1 9.3-26 15v17.5l26 15 7.6-4.4 8.6-5c2.1-1 4.5-1 6.5.2z" fill="#4ebeb8"/></svg>