<svg width="1710" height="1000" viewBox="0 0 1710 1000" version="1.1" xmlns="http://www.w3.org/2000/svg" xmlns:xlink="http://www.w3.org/1999/xlink"><title>Frame 2.2</title><desc>Created using Figma</desc><g id="Canvas" transform="matrix(2 0 0 2 -11210 36)"><clipPath id="clip-0" clip-rule="evenodd"><path d="M 5605 -18L 6460 -18L 6460 482L 5605 482L 5605 -18Z" fill="#FFF"/></clipPath><g id="Frame 2.2" clip-path="url(#clip-0)"><g id="Group"><g id="airplane_logo"><g id="Group"><g id="Group"><g id="Vector"><use xlink:href="#path0_fill" transform="translate(5948.83 248.93)"/></g><g id="Vector"><use xlink:href="#path1_fill" transform="translate(5638.67 0.226145)"/></g><g id="Vector"><mask id="mask0_outline_ins"><use xlink:href="#path2_fill" fill="#fff" transform="translate(5769.38 244.768)"/></mask><g mask="url(#mask0_outline_ins)"><use xlink:href="#path3_stroke_2x" transform="translate(5769.38 244.768)"/></g></g><g id="Ellipse"><use xlink:href="#path4_fill" transform="translate(6259.5 259.29)"/></g><g id="Vector"><mask id="mask1_outline_ins"><use xlink:href="#path5_fill" fill="#fff" transform="translate(6244.67 244.768)"/></mask><g mask="url(#mask1_outline_ins)"><use xlink:href="#path6_stroke_2x" transform="translate(6244.67 244.768)"/></g></g><g id="Ellipse"><use xlink:href="#path4_fill" transform="translate(5784 258.803)"/></g><g id="Vector"><use xlink:href="#path7_fill" transform="translate(5809.59 158.91)"/></g><g id="Vector"><use xlink:href="#path8_fill" transform="translate(6111.79 158.91)"/></g><g id="Union"><use xlink:href="#path9_fill" transform="translate(5942.26 122.409)"/></g><g id="Union"><use xlink:href="#path10_fill" transform="translate(6047.98 122.682)"/></g></g></g></g><g id="CodePilot.ai"><use xlink:href="#path11_fill" transform="translate(5635 371.864)"/></g></g></g></g><defs><path id="path0_fill" d="M 105.76 16.1403C 97.76 12.4854 92.22 6.63741 87.36 -1.42772e-05C 82.2219 7.1697 75.2285 12.8863 67.09 16.5692C 45.8668 26.147 23.2244 32.3969 1.2207e-05 35.0877C 11.5 60.809 45.8 79.2788 87.47 79.2788C 129.14 79.2788 164.12 60.6822 175.74 35.0877C 166.221 34.0141 156.78 32.367 147.47 30.1559C 133.131 26.8051 119.161 22.098 105.76 16.1014"/><path id="path1_fill" fill-rule="evenodd" d="M 795.05 307.037C 795.174 308.642 794.227 308.522 793.536 308.436C 793.388 308.417 793.252 308.4 793.14 308.402L 768.33 308.402C 766.961 307.951 765.307 305.582 763.975 303.674C 763.75 303.352 763.534 303.043 763.33 302.758C 750.13 284.873 732.33 276.579 710.33 275.604C 707.059 275.46 703.786 275.269 700.511 275.078L 700.509 275.078C 691.852 274.574 683.184 274.069 674.5 274.415C 673.64 274.45 672.78 274.483 671.92 274.516C 647.129 248.666 630.874 246.498 606.01 276.112C 598.962 276.267 591.915 276.444 584.87 276.667C 567.42 277.212 549.97 277.641 532.57 277.173L 532.104 277.161C 506.258 276.444 480.278 275.723 454.9 269.571C 441.317 266.397 428.084 261.938 415.39 256.257C 407.82 252.797 402.11 247.261 397.51 240.965C 392.823 247.748 386.35 253.178 378.77 256.686C 356.95 266.433 334.01 272.056 310.19 274.464C 280.19 277.495 250.19 277.914 220.12 277.193C 211.164 276.976 202.205 276.819 193.246 276.661L 193.242 276.661C 173.757 244.979 154.486 243.954 135.48 275.059C 117.571 274.309 99.6325 274.543 81.7502 275.76C 61.5102 277.008 44.7102 285.39 32.3202 301.959C 31.9526 302.452 31.5949 302.977 31.2316 303.511C 29.9645 305.372 28.6298 307.332 26.5702 308.363L 2.23023 308.363C 2.09026 308.338 1.89218 308.356 1.67122 308.375C 0.913413 308.443 -0.113645 308.533 0.0102332 307.047C 9.40023 267.943 49.7302 232.748 92.1102 229.074C 100.52 228.343 108.98 227.778 117.48 227.797C 142.857 227.837 168.235 227.809 193.613 227.78C 243.539 227.725 293.467 227.67 343.39 228.129C 361.376 228.291 374.521 214.172 381.578 197.428L 412.078 197.428C 413.995 204.78 416.887 211.435 422.78 216.969C 426.356 220.493 430.625 223.276 435.332 225.152C 440.039 227.027 445.086 227.957 450.17 227.885C 527.97 227.833 605.77 227.833 683.57 227.885C 705.49 227.885 726.57 231.608 745.57 243.246C 767.25 256.53 782.63 274.922 792.8 297.671C 793.507 299.248 793.773 300.917 794.038 302.583C 794.278 304.097 794.519 305.608 795.09 307.047L 795.05 307.037ZM 409.33 184.016L 385.83 184.016C 385.853 182.444 388.333 144.716 391.021 103.823L 391.022 103.815L 391.024 103.786C 394.22 55.1524 397.71 2.05929 397.71 0L 398.85 0C 398.981 1.21551 400.568 29.866 402.47 64.214L 402.472 64.246C 405.374 116.65 409.01 182.297 409.33 184.016Z"/><path id="path2_fill" d="M 66 32.1638C 66 38.5252 64.0646 44.7437 60.4385 50.033C 56.8124 55.3223 51.6585 59.4447 45.6286 61.8791C 39.5986 64.3135 32.9634 64.9505 26.562 63.7095C 20.1607 62.4684 14.2806 59.4051 9.6655 54.9069C 5.05036 50.4087 1.90741 44.6777 0.634094 38.4386C -0.639219 32.1994 0.0143011 25.7323 2.51199 19.8552C 5.00968 13.978 9.23938 8.95475 14.6662 5.42055C 20.093 1.88636 26.4732 2.61749e-05 33 2.61749e-05C 41.7522 2.61749e-05 50.1458 3.38869 56.3345 9.42056C 62.5232 15.4524 66 23.6334 66 32.1638Z"/><path id="path3_stroke_2x" d="M 66 32.1638L 86 32.1638L 66 32.1638ZM 26.562 63.7095L 22.7555 83.3439L 26.562 63.7095ZM 46 32.1638C 46.2272 35.5193 46.0674 36.0201 43.9427 38.7242L 76.9344 61.3417C 82.0618 53.4672 85.7728 41.531 86 32.1638L 46 32.1638ZM 43.9427 38.7242C 42.1589 41.7108 41.5619 42.1804 38.1414 43.3335L 53.1158 80.4248C 61.7551 76.7091 71.466 68.9338 76.9344 61.3417L 43.9427 38.7242ZM 38.1414 43.3335C 34.8502 44.8854 33.9209 44.9735 30.3686 44.0751L 22.7555 83.3439C 32.0059 84.9276 44.347 83.7417 53.1158 80.4248L 38.1414 43.3335ZM 30.3686 44.0751C 26.7529 43.5861 26.0057 43.2025 23.625 40.5845L -4.294 69.2294C 2.55557 75.6077 13.5684 81.3508 22.7555 83.3439L 30.3686 44.0751ZM 23.625 40.5845C 20.9729 38.3062 20.6848 37.7921 20.2302 34.4393L -18.962 42.4378C -16.8699 51.5633 -10.8722 62.5113 -4.294 69.2294L 23.625 40.5845ZM 20.2302 34.4393C 19.3355 31.1937 19.3862 30.7053 20.9187 27.6777L -15.8947 12.0326C -19.3576 20.7594 -20.6139 33.205 -18.962 42.4378L 20.2302 34.4393ZM 20.9187 27.6777C 22.0513 24.4463 22.4886 23.9366 25.5806 22.1799L 3.75175 -11.3388C -4.0099 -6.02713 -12.0319 3.50982 -15.8947 12.0326L 20.9187 27.6777ZM 25.5806 22.1799C 28.4733 20.046 29.338 19.7938 33 20L 33 -20C 23.6085 -19.7937 11.7128 -16.2733 3.75175 -11.3388L 25.5806 22.1799ZM 33 20C 36.6111 20 39.9742 21.403 42.3751 23.743L 70.294 -4.90189C 60.3175 -14.6256 46.8932 -20 33 -20L 33 20ZM 42.3751 23.743C 44.7585 26.066 46 29.1058 46 32.1638L 86 32.1638C 86 18.161 80.288 4.83885 70.294 -4.90189L 42.3751 23.743Z"/><path id="path4_fill" d="M 36.2 17.6413C 36.2 27.3844 28.0964 35.2826 18.1 35.2826C 8.10365 35.2826 0 27.3844 0 17.6413C 0 7.89829 8.10365 0 18.1 0C 28.0964 0 36.2 7.89829 36.2 17.6413Z"/><path id="path5_fill" d="M 66 32.1638C 66 38.5252 64.0646 44.7437 60.4385 50.033C 56.8124 55.3223 51.6586 59.4447 45.6286 61.8791C 39.5986 64.3135 32.9634 64.9505 26.562 63.7095C 20.1606 62.4684 14.2807 59.4051 9.66552 54.9069C 5.05039 50.4087 1.9074 44.6777 0.634087 38.4386C -0.639225 32.1994 0.0143249 25.7323 2.51202 19.8552C 5.00971 13.978 9.23937 8.95475 14.6662 5.42055C 20.093 1.88636 26.4732 2.61749e-05 33 2.61749e-05C 41.7521 2.61749e-05 50.1458 3.38869 56.3345 9.42056C 62.5232 15.4524 66 23.6334 66 32.1638"/><path id="path6_stroke_2x" d="M 26.562 63.7095L 22.7554 83.3439L 26.562 63.7095ZM 46 32.1638C 46.2272 35.5193 46.0674 36.0202 43.9427 38.7242L 76.9344 61.3417C 82.0618 53.4672 85.7728 41.531 86 32.1638L 46 32.1638ZM 43.9427 38.7242C 42.1589 41.7108 41.5619 42.1804 38.1414 43.3335L 53.1158 80.4248C 61.7552 76.7091 71.466 68.9338 76.9344 61.3417L 43.9427 38.7242ZM 38.1414 43.3335C 34.8503 44.8854 33.9209 44.9735 30.3686 44.0751L 22.7554 83.3439C 32.0059 84.9276 44.347 83.7417 53.1158 80.4248L 38.1414 43.3335ZM 30.3686 44.0751C 26.7529 43.5861 26.0057 43.2026 23.625 40.5845L -4.29398 69.2294C 2.55556 75.6076 13.5684 81.3508 22.7554 83.3439L 30.3686 44.0751ZM 23.625 40.5845C 20.9729 38.3062 20.6847 37.7921 20.2302 34.4393L -18.962 42.4378C -16.8699 51.5633 -10.8722 62.5113 -4.29398 69.2294L 23.625 40.5845ZM 20.2302 34.4393C 19.3355 31.1938 19.3862 30.7053 20.9187 27.6777L -15.8947 12.0326C -19.3575 20.7593 -20.6139 33.205 -18.962 42.4378L 20.2302 34.4393ZM 20.9187 27.6777C 22.0513 24.4462 22.4887 23.9366 25.5806 22.1799L 3.75175 -11.3388C -4.00993 -6.02711 -12.0319 3.50985 -15.8947 12.0326L 20.9187 27.6777ZM 25.5806 22.1799C 28.4733 20.046 29.338 19.7938 33 20L 33 -20C 23.6084 -19.7937 11.7128 -16.2732 3.75175 -11.3388L 25.5806 22.1799ZM 33 20C 36.6111 20 39.9742 21.403 42.375 23.743L 70.294 -4.90189C 60.3175 -14.6256 46.8932 -20 33 -20L 33 20ZM 42.375 23.743C 44.7584 26.066 46 29.1058 46 32.1638L 86 32.1638C 86 18.161 80.288 4.83885 70.294 -4.90189L 42.375 23.743Z"/><path id="path7_fill" d="M 155.324 13.7817L 1.79367 0C 1.36415 0.191364 0.985731 0.476744 0.687832 0.833909C 0.389933 1.19107 0.180603 1.61037 0.0761071 2.05925C -0.0283886 2.50814 -0.0252277 2.97452 0.0853539 3.42201C 0.195936 3.86951 0.410958 4.28609 0.71368 4.63939L 151.974 26.0819L 155.324 13.7817Z"/><path id="path8_fill" d="M -2.68555e-05 13.7817L 153.59 0C 154.02 0.191364 154.398 0.476744 154.696 0.833909C 154.994 1.19107 155.203 1.61037 155.308 2.05925C 155.412 2.50814 155.409 2.97452 155.298 3.42201C 155.188 3.86951 154.973 4.28609 154.67 4.63939L 3.41001 26.0819L -2.68555e-05 13.7817Z"/><path id="path9_fill" fill-rule="evenodd" d="M 81.8228 4.92556L 82.5498 0C 5.43994 15.1365 0 99.2008 0 99.2008L 1.95996 99.2008L 1.97998 99.2203C 7.31787 99.2378 11.9976 99.4608 16.4048 99.6709C 26.7104 100.162 35.5283 100.582 47.7998 98.1384C 59.1133 95.8752 66.8955 84.7877 71.4399 75.2235L 60.8198 75.2242C 53.8008 80.1473 48.1821 82.237 41.4902 77.0468L 51.0601 59.6686L 76.1968 61.8324C 77.4194 55.1443 81.0688 13.591 81.8228 4.92556Z"/><path id="path10_fill" fill-rule="evenodd" d="M 0.0205078 0.00406647L 0.0200195 0L 0 0C 0.00683594 0.0013504 0.0136719 0.00270844 0.0205078 0.00406647ZM 81.2964 98.8888L 83.5698 98.8888C 83.5698 98.8888 77.1108 15.1514 0.0205078 0.00406647L 0.73877 4.37186C 1.46582 12.4941 5.32666 55.2301 6.62012 61.0916C 6.6333 61.1484 6.63867 61.1681 6.64258 61.1826C 6.64844 61.2041 6.65137 61.2138 6.67041 61.3157C 27.019 59.9848 34.5972 59.3354 36.4854 59.1737C 36.8096 59.1459 36.9658 59.1325 36.9902 59.1325L 46.5601 76.5106C 45.2271 78.6224 39.6201 81.15 27.02 74.7173L 9.74023 74.7173C 12.8457 83.1984 19.4712 93.4628 34.1699 97.9726C 38.478 99.2962 52.8843 99.1441 67.5146 98.9896C 72.1934 98.9402 76.895 98.8906 81.2964 98.8888ZM 7.30908 65.0398C 7.30322 65.0014 7.2373 64.624 7.16504 64.2126C 7.51855 66.1761 7.9707 68.4377 8.37549 70.425C 7.87842 67.9895 7.71973 67.2152 7.5708 66.439C 7.49561 66.0454 7.42236 65.6513 7.30908 65.0398ZM 7.16504 64.2126C 7.15039 64.129 7.13525 64.044 7.12061 63.9602C 7.06152 63.6246 7.00586 63.3074 6.98242 63.1727C 7.03955 63.5074 7.10059 63.8546 7.16504 64.2126Z"/><path id="path11_fill" d="M 210.904 66.2656C 210.56 74.0469 208.373 79.9375 204.341 83.9375C 200.31 87.9375 194.623 89.9375 187.279 89.9375C 179.56 89.9375 173.638 87.4062 169.513 82.3438C 165.419 77.25 163.373 70 163.373 60.5938L 163.373 49.1094C 163.373 39.7344 165.498 32.5156 169.748 27.4531C 173.998 22.3594 179.904 19.8125 187.466 19.8125C 194.904 19.8125 200.544 21.8906 204.388 26.0469C 208.263 30.2031 210.466 36.1719 210.998 43.9531L 197.169 43.9531C 197.044 39.1406 196.294 35.8281 194.919 34.0156C 193.576 32.1719 191.091 31.25 187.466 31.25C 183.779 31.25 181.169 32.5469 179.638 35.1406C 178.107 37.7031 177.294 41.9375 177.201 47.8438L 177.201 60.7344C 177.201 67.5156 177.951 72.1719 179.451 74.7031C 180.982 77.2344 183.591 78.5 187.279 78.5C 190.904 78.5 193.404 77.625 194.779 75.875C 196.154 74.0938 196.935 70.8906 197.123 66.2656L 210.904 66.2656ZM 217.185 62C 217.185 54.3125 218.998 48.2812 222.623 43.9062C 226.248 39.5312 231.263 37.3438 237.669 37.3438C 244.138 37.3438 249.185 39.5312 252.81 43.9062C 256.435 48.2812 258.248 54.3438 258.248 62.0938L 258.248 65.3281C 258.248 73.0469 256.451 79.0781 252.857 83.4219C 249.263 87.7656 244.232 89.9375 237.763 89.9375C 231.263 89.9375 226.201 87.7656 222.576 83.4219C 218.982 79.0469 217.185 72.9844 217.185 65.2344L 217.185 62ZM 230.498 65.3281C 230.498 74.3906 232.919 78.9219 237.763 78.9219C 242.232 78.9219 244.638 75.1406 244.982 67.5781L 245.029 62C 245.029 57.375 244.388 53.9531 243.107 51.7344C 241.826 49.4844 240.013 48.3594 237.669 48.3594C 235.419 48.3594 233.654 49.4844 232.373 51.7344C 231.123 53.9531 230.498 57.375 230.498 62L 230.498 65.3281ZM 264.763 62.0938C 264.763 53.7812 266.169 47.5781 268.982 43.4844C 271.794 39.3906 275.888 37.3438 281.263 37.3438C 285.169 37.3438 288.419 39.0312 291.013 42.4062L 291.013 17L 304.373 17L 304.373 89L 292.326 89L 291.716 83.8438C 288.998 87.9062 285.498 89.9375 281.216 89.9375C 275.904 89.9375 271.841 87.9062 269.029 83.8438C 266.248 79.7812 264.826 73.8125 264.763 65.9375L 264.763 62.0938ZM 278.076 65.4219C 278.076 70.4219 278.607 73.9219 279.669 75.9219C 280.732 77.8906 282.529 78.875 285.06 78.875C 287.685 78.875 289.669 77.7031 291.013 75.3594L 291.013 52.2031C 289.701 49.7031 287.732 48.4531 285.107 48.4531C 282.669 48.4531 280.888 49.4375 279.763 51.4062C 278.638 53.375 278.076 56.875 278.076 61.9062L 278.076 65.4219ZM 334.654 89.9375C 327.841 89.9375 322.529 87.9062 318.716 83.8438C 314.904 79.7812 312.998 73.9688 312.998 66.4062L 312.998 62.375C 312.998 54.375 314.748 48.2031 318.248 43.8594C 321.748 39.5156 326.763 37.3438 333.294 37.3438C 339.669 37.3438 344.466 39.3906 347.685 43.4844C 350.904 47.5469 352.544 53.5781 352.607 61.5781L 352.607 68.0938L 326.216 68.0938C 326.404 71.8438 327.232 74.5938 328.701 76.3438C 330.169 78.0625 332.435 78.9219 335.498 78.9219C 339.935 78.9219 343.638 77.4062 346.607 74.375L 351.81 82.3906C 350.185 84.6406 347.826 86.4688 344.732 87.875C 341.638 89.25 338.279 89.9375 334.654 89.9375ZM 326.31 58.8125L 339.576 58.8125L 339.576 57.5938C 339.513 54.5625 339.013 52.2656 338.076 50.7031C 337.138 49.1406 335.513 48.3594 333.201 48.3594C 330.888 48.3594 329.201 49.1875 328.138 50.8438C 327.107 52.5 326.498 55.1562 326.31 58.8125ZM 374.544 65L 374.544 89L 360.763 89L 360.763 20.75L 384.013 20.75C 390.763 20.75 396.138 22.8438 400.138 27.0312C 404.169 31.2187 406.185 36.6562 406.185 43.3438C 406.185 50.0312 404.201 55.3125 400.232 59.1875C 396.263 63.0625 390.763 65 383.732 65L 374.544 65ZM 374.544 53.5156L 384.013 53.5156C 386.638 53.5156 388.669 52.6562 390.107 50.9375C 391.544 49.2188 392.263 46.7188 392.263 43.4375C 392.263 40.0312 391.529 37.3281 390.06 35.3281C 388.591 33.2969 386.623 32.2656 384.154 32.2344L 374.544 32.2344L 374.544 53.5156ZM 428.685 89L 415.373 89L 415.373 38.2812L 428.685 38.2812L 428.685 89ZM 414.763 25.1562C 414.763 23.0938 415.419 21.4062 416.732 20.0938C 418.044 18.7812 419.794 18.125 421.982 18.125C 424.169 18.125 425.919 18.7812 427.232 20.0938C 428.544 21.4062 429.201 23.0938 429.201 25.1562C 429.201 27.1875 428.544 28.875 427.232 30.2188C 425.951 31.5625 424.201 32.2344 421.982 32.2344C 419.763 32.2344 417.998 31.5625 416.685 30.2188C 415.404 28.875 414.763 27.1875 414.763 25.1562ZM 452.873 89L 439.56 89L 439.56 17L 452.873 17L 452.873 89ZM 464.471 62C 464.471 54.3125 466.284 48.2812 469.909 43.9062C 473.534 39.5312 478.549 37.3438 484.956 37.3438C 491.424 37.3438 496.471 39.5312 500.096 43.9062C 503.721 48.2812 505.534 54.3438 505.534 62.0938L 505.534 65.3281C 505.534 73.0469 503.737 79.0781 500.143 83.4219C 496.549 87.7656 491.518 89.9375 485.049 89.9375C 478.549 89.9375 473.487 87.7656 469.862 83.4219C 466.268 79.0469 464.471 72.9844 464.471 65.2344L 464.471 62ZM 477.784 65.3281C 477.784 74.3906 480.206 78.9219 485.049 78.9219C 489.518 78.9219 491.924 75.1406 492.268 67.5781L 492.315 62C 492.315 57.375 491.674 53.9531 490.393 51.7344C 489.112 49.4844 487.299 48.3594 484.956 48.3594C 482.706 48.3594 480.94 49.4844 479.659 51.7344C 478.409 53.9531 477.784 57.375 477.784 62L 477.784 65.3281ZM 529.253 25.8125L 529.253 38.2812L 536.049 38.2812L 536.049 48.2656L 529.253 48.2656L 529.253 73.4375C 529.253 75.4375 529.518 76.8125 530.049 77.5625C 530.612 78.3125 531.674 78.6875 533.237 78.6875C 534.518 78.6875 535.565 78.5781 536.378 78.3594L 536.284 88.6719C 534.034 89.5156 531.596 89.9375 528.971 89.9375C 520.409 89.9375 516.081 85.0312 515.987 75.2188L 515.987 48.2656L 510.128 48.2656L 510.128 38.2812L 515.987 38.2812L 515.987 25.8125L 529.253 25.8125ZM 544.44 82.25C 544.44 80.125 545.143 78.375 546.549 77C 547.987 75.625 549.846 74.9375 552.128 74.9375C 554.346 74.9375 556.19 75.625 557.659 77C 559.128 78.3438 559.862 80.0938 559.862 82.25C 559.862 84.4375 559.112 86.2031 557.612 87.5469C 556.143 88.8594 554.315 89.5156 552.128 89.5156C 549.909 89.5156 548.065 88.8438 546.596 87.5C 545.159 86.1562 544.44 84.4062 544.44 82.25ZM 595.393 89C 595.018 88.2188 594.643 86.9062 594.268 85.0625C 591.893 88.3125 588.674 89.9375 584.612 89.9375C 580.362 89.9375 576.831 88.5312 574.018 85.7188C 571.237 82.9062 569.846 79.2656 569.846 74.7969C 569.846 69.4844 571.534 65.375 574.909 62.4688C 578.315 59.5625 583.206 58.0781 589.581 58.0156L 593.612 58.0156L 593.612 53.9375C 593.612 51.6562 593.221 50.0469 592.44 49.1094C 591.659 48.1719 590.518 47.7031 589.018 47.7031C 585.706 47.7031 584.049 49.6406 584.049 53.5156L 570.784 53.5156C 570.784 48.8281 572.534 44.9688 576.034 41.9375C 579.565 38.875 584.018 37.3438 589.393 37.3438C 594.956 37.3438 599.253 38.7969 602.284 41.7031C 605.346 44.5781 606.878 48.7031 606.878 54.0781L 606.878 77.9375C 606.94 82.3125 607.565 85.7344 608.753 88.2031L 608.753 89L 595.393 89ZM 587.565 79.5312C 589.034 79.5312 590.284 79.2344 591.315 78.6406C 592.346 78.0469 593.112 77.3438 593.612 76.5312L 593.612 65.9844L 590.424 65.9844C 588.174 65.9844 586.393 66.7031 585.081 68.1406C 583.799 69.5781 583.159 71.5 583.159 73.9062C 583.159 77.6562 584.628 79.5312 587.565 79.5312ZM 630.409 89L 617.096 89L 617.096 38.2812L 630.409 38.2812L 630.409 89ZM 616.487 25.1562C 616.487 23.0938 617.143 21.4062 618.456 20.0938C 619.768 18.7812 621.518 18.125 623.706 18.125C 625.893 18.125 627.643 18.7812 628.956 20.0938C 630.268 21.4062 630.924 23.0938 630.924 25.1562C 630.924 27.1875 630.268 28.875 628.956 30.2188C 627.674 31.5625 625.924 32.2344 623.706 32.2344C 621.487 32.2344 619.721 31.5625 618.409 30.2188C 617.128 28.875 616.487 27.1875 616.487 25.1562Z"/></defs></svg>