<svg xmlns="http://www.w3.org/2000/svg" width="260" height="94"><path d="M59.749 2.429l3.177 3.42c1.038-.575.49-1.62.814-2.366l.295-.062c.171.53.453 1.053.493 1.592.109 1.446.111 2.9.164 4.35.005.139.065.275.172.705.589-.49 1.177-.8 1.495-1.279 1.074-1.611 2.05-3.283 3.067-4.93.176-.285.371-.558.758-.763l-.241 1.3c1.25-.86.875-2.12.961-3.275.827 1.773.77 3.512-.277 5.178a444.227 444.227 0 0 1-4.23 6.593c-.801 1.229-1.3 2.55-1.435 3.994-.04.43-.039.875.024 1.302.216 1.477.977 1.89 2.403 1.273 2.19-.948 4.02-2.223 4.465-4.74.047-.261.58-.694.638-.66.402.242.975.538 1.055.906.398 1.832-.324 3.341-1.853 4.41a36.626 36.626 0 0 1-4.046 2.44c-1.746.91-3.251 2.032-4.48 3.564-1.731 2.157-3.585 4.222-5.378 6.334-.8.943-.713 1.212.477 1.658 1.69.633 3.182.373 4.45-.91.204-.207.382-.439.6-.691.62 1.295.043 2.68-1.32 3.202-1.64.628-3.323.575-4.905-.14-1.171-.527-2.235-.483-3.369.016-1.414.621-2.852 1.192-4.437 1.85 1.473.776 2.877 1.078 4.465.89-.306.804-.84 1.14-1.565 1.027a29.318 29.318 0 0 1-3.068-.65c-1.13-.302-2.203-.372-3.14.428-.176.15-.349.534-.27.695.673 1.39 1.518 2.674 3.067 3.279.54.21 1.166.21 1.797.313-.19.667-.734 1.1-1.627 1.042-1.549-.098-2.824-.786-3.834-1.884-.512-.557-.84-1.268-1.31-1.867-.475-.607-.958-1.233-1.554-1.716-.717-.582-1.256-1.172-1.073-2.135.18-.954.853-1.388 1.767-1.026.742.294 1.373.21 2.069-.086 1.072-.455 2.15-.915 3.263-1.254 5.256-1.603 8.986-4.972 11.874-9.386 1.078-1.647 1.687-3.377 1.713-5.327.028-2.18.123-4.359.179-6.538.021-.841.04-1.684.02-2.524-.05-2.066-.825-3.904-1.958-5.618-.377-.566-.783-1.11-.352-1.934m-29.21 39.889c1.357.522 2.309.081 3.086-.82.82-.952 1.62-1.92 2.481-2.941-1.142-1.072-2.378-1.736-3.966-1.82-.386-.02-.755-.306-1.134-.467-.437-.186-.869-.383-1.314-.55-1.895-.71-3.72-.807-5.644.105-1.777.841-3.766.947-5.734.627-1.415-.23-2.41-1.012-2.987-2.227.503-.551.934-.527 1.541-.166 2.215 1.314 4.515 1.477 6.832.204.881-.485.951-.847.252-1.543-.793-.79-1.648-1.524-2.47-2.29-1.167-1.085-2.277-2.23-3.507-3.25-1.25-1.035-2.552-2.042-3.948-2.893-2.26-1.379-4.197-3.038-5.725-5.105-1.013-1.369-1.058-2.954-.182-4.175.078-.109.188-.198.383-.4.054 1.013-.23 2.092 1.224 2.251.507 2.827 2.836 4.184 5.18 5.473 1.123.617 1.956.185 1.861-1.027-.102-1.307-.387-2.68-.974-3.858-1.376-2.762-2.95-5.439-4.501-8.122-.971-1.681-1.502-3.411-.955-5.356l.65 3.351.183-.157c.266.154.6.257.788.472a86.314 86.314 0 0 1 2.307 2.768c.52.645 1.188.732 1.959.522.782-.213.835-.783.873-1.419.058-.987.197-1.97.44-2.965.248 1.583-.303 3.312 1.166 4.633-.043-.26-.08-.522-.13-.78-.17-.843-.054-1.613.43-2.378 1.084-1.712 1.36-3.639 1.56-5.58A12.6 12.6 0 0 1 21.05 0c0 .504-.018 1.01.003 1.514.055 1.357.145 2.712.18 4.07.012.472.001.98-.169 1.414-.555 1.417-1.21 2.8-1.778 4.212-.128.316-.175.739-.06 1.048.98 2.634 1.194 5.365 1.061 8.105-.175 3.6 1.125 6.424 3.955 8.968 2.47 2.22 5.203 3.573 8.457 4.269 1.333.285 2.605.814 3.93 1.138.558.138 1.224.16 1.767.008.616-.174 1.338-.318 1.516.223.195.59.114 1.436-.22 1.966-.652 1.038-1.668 1.874-2.345 2.902-1.03 1.565-2.14 2.99-4.074 3.647-1.55.528-2.322.233-2.733-1.166m65.17-10.7c-1.776 0-3.098-.522-3.966-1.565-.867-1.043-1.301-2.465-1.301-4.268 0-1.211.225-2.26.676-3.149.45-.888 1.086-1.567 1.907-2.038.82-.471 1.77-.707 2.846-.707 1.345 0 2.381.353 3.108 1.06.727.706 1.103 1.712 1.13 3.017 0 .888-.054 1.547-.161 1.978h-6.56c.054 1.224.343 2.176.868 2.856.525.68 1.272 1.02 2.24 1.02a5.42 5.42 0 0 0 1.625-.263c.559-.175 1-.384 1.322-.626l.505 1.11c-.364.39-.952.75-1.766 1.08a6.536 6.536 0 0 1-2.473.494zm1.575-6.883c.027-.377.04-.666.04-.868 0-1.79-.599-2.684-1.796-2.684-.66 0-1.17.262-1.534.787-.363.525-.565 1.446-.606 2.765h3.896zm5.57-2.644l-1.292-.363v-1.393l3.35-.424h.061l.505.404v.787l-.02.485c.47-.444 1.083-.828 1.836-1.15a5.744 5.744 0 0 1 2.28-.485c.822 0 1.464.151 1.928.454.465.303.798.777 1 1.423.201.646.302 1.52.302 2.624v5.57l1.231.161v1.211h-5.207v-1.21l1.09-.162v-5.57c0-.7-.047-1.248-.141-1.645-.094-.397-.266-.687-.515-.868-.249-.182-.602-.273-1.06-.273-.766 0-1.587.33-2.462.99v7.346l1.211.181v1.211h-5.268v-1.21l1.171-.182V22.09zm16.005 9.486c-.848 0-1.473-.195-1.877-.585-.404-.39-.606-1.01-.606-1.857v-7.407h-1.311v-1.05c.107-.04.302-.11.585-.212.282-.1.498-.185.646-.252.229-.175.424-.478.585-.908.121-.283.343-.982.666-2.1h1.615l.08 2.968h3.088v1.554h-3.067v5.671c0 .754.02 1.285.06 1.595.04.31.128.508.263.595.134.087.37.131.706.131.336 0 .686-.037 1.05-.11.363-.075.665-.166.908-.273l.383 1.13c-.377.283-.928.538-1.655.767a7.04 7.04 0 0 1-2.119.343zm3.653-11.383h5.207v1.15l-1.413.243 1.494 5.368.484 2.2.444-2.22 1.817-6.741h2.442l1.998 6.741.484 2.22.485-2.2 1.413-5.348-1.474-.263v-1.15h4.32v1.15l-1.03.222-3.068 9.99h-2.32l-2.04-6.538-.463-2.402-.364 2.402-1.877 6.539h-2.34l-3.23-9.99-.969-.223v-1.15zm20.546-1.857c-.484 0-.868-.141-1.15-.424-.283-.282-.424-.646-.424-1.09 0-.51.161-.935.484-1.271.323-.336.754-.505 1.292-.505s.949.145 1.231.434c.283.29.424.65.424 1.08 0 .538-.162.969-.484 1.292-.323.323-.774.484-1.353.484h-.02zm-1.07 3.754l-1.433-.383v-1.353l3.694-.444h.04l.565.404v9.708l1.353.161v1.211h-5.631v-1.21l1.412-.182V22.09zm5.41 3.754c0-1.157.231-2.186.696-3.088a5.077 5.077 0 0 1 1.998-2.109c.868-.504 1.88-.757 3.037-.757.539 0 1.003.04 1.393.121.39.081.827.189 1.312.323l.585.162-.121 3.451h-1.756l-.504-2.22c-.081-.35-.478-.525-1.191-.525-.754 0-1.342.33-1.766.99-.424.658-.643 1.688-.656 3.087 0 1.48.255 2.614.767 3.4.511.788 1.19 1.182 2.038 1.182a5.135 5.135 0 0 0 2.826-.828l.464 1.05c-.35.376-.885.726-1.605 1.049a5.63 5.63 0 0 1-2.33.484c-1.723 0-3.018-.531-3.886-1.594-.868-1.063-1.302-2.456-1.302-4.178zm11.665-9.203l-1.453-.263v-1.09l3.713-.443h.04l.546.383v9.587l-.06 1.07 4.117-4.32-1.494-.222v-1.15h5.268v1.15l-1.635.263-2.483 2.381 3.532 6.035 1.11.161v1.211h-5.328v-1.21l1.03-.182-2.301-4.259-1.817 1.837.04 1.03v1.392l1.272.181v1.211h-5.268v-1.21l1.171-.182V16.642zm12.937 0l-1.493-.263v-1.09l3.733-.443h.04l.546.383v14.794l1.473.161v1.211h-5.712v-1.21l1.413-.182V16.642zm10.778 14.975c-1.776 0-3.098-.521-3.966-1.564-.868-1.043-1.302-2.465-1.302-4.268 0-1.211.225-2.26.676-3.149.45-.888 1.087-1.567 1.907-2.038.821-.471 1.77-.707 2.846-.707 1.346 0 2.382.353 3.108 1.06.727.706 1.104 1.712 1.13 3.017 0 .888-.053 1.547-.16 1.978h-6.56c.054 1.224.343 2.176.868 2.856.524.68 1.271 1.02 2.24 1.02.525 0 1.066-.088 1.625-.263.558-.175.999-.384 1.322-.626l.504 1.11c-.363.39-.952.75-1.766 1.08a6.536 6.536 0 0 1-2.472.494zm1.574-6.882c.027-.377.04-.666.04-.868 0-1.79-.598-2.684-1.796-2.684-.66 0-1.17.262-1.534.787-.363.525-.565 1.446-.605 2.765h3.895zm4.44 5.47l1.332-.162v-7.952l-1.291-.363v-1.393l3.128-.424h.06l.505.404v.444l-.06 1.635h.06c.094-.27.316-.602.666-1 .35-.396.79-.746 1.322-1.049a3.428 3.428 0 0 1 1.726-.454c.296 0 .551.04.767.121v3.028c-.404-.283-.895-.424-1.474-.424-.982 0-1.836.262-2.563.787v6.62l2.341.182v1.19h-6.519v-1.19zm11.747-.465c.107.162.353.313.736.455.384.14.77.211 1.16.211.633 0 1.107-.13 1.424-.393.316-.262.474-.609.474-1.04 0-.444-.195-.803-.585-1.08-.39-.275-1.05-.615-1.978-1.019l-.565-.242c-.929-.39-1.622-.86-2.08-1.413-.457-.551-.685-1.264-.685-2.139 0-.605.181-1.147.545-1.625.363-.477.874-.85 1.533-1.12.66-.269 1.42-.403 2.281-.403.632 0 1.174.04 1.625.12.45.081.925.19 1.423.324.269.094.47.148.605.161v2.644h-1.594l-.465-1.534c-.08-.134-.262-.256-.544-.363a2.708 2.708 0 0 0-.97-.162c-.55 0-.992.118-1.321.354-.33.235-.495.561-.495.978 0 .377.115.69.343.939.23.249.478.44.747.575.27.135.767.357 1.494.666.726.31 1.328.606 1.806.888.478.283.875.65 1.19 1.1.317.45.475 1 .475 1.645 0 .996-.39 1.803-1.17 2.422-.78.619-1.904.928-3.371.928-.686 0-1.302-.06-1.847-.181a34.613 34.613 0 0 1-1.887-.485l-.444-.14v-2.665h1.675l.465 1.594zm11.625 1.837c-.848 0-1.473-.195-1.877-.585-.404-.39-.606-1.01-.606-1.857v-7.407h-1.312v-1.05l.586-.212c.282-.1.498-.185.646-.252.228-.175.423-.478.585-.908.121-.283.343-.982.666-2.1h1.615l.08 2.968h3.088v1.554h-3.067v5.671c0 .754.02 1.285.06 1.595.04.31.128.508.262.595.135.087.37.131.707.131.336 0 .686-.037 1.05-.11.363-.075.665-.166.908-.273l.383 1.13c-.377.283-.928.538-1.655.767a7.04 7.04 0 0 1-2.12.343zm13.946.02c-.444 0-.767-.094-.969-.282-.201-.189-.302-.471-.302-.848v-.545c-.364.444-.875.838-1.534 1.18-.66.344-1.319.515-1.978.515-1.292 0-2.214-.333-2.765-.999-.552-.666-.828-1.766-.828-3.3v-5.691l-1.009-.283v-1.15l3.431-.262h.02l.404.282v7.104c0 .983.121 1.669.363 2.06.243.39.693.584 1.353.584.793 0 1.533-.309 2.22-.928v-7.407l-1.353-.303v-1.13l3.654-.262h.04l.484.282v9.93h1.13l-.02 1.15a34.27 34.27 0 0 1-.746.162 7.79 7.79 0 0 1-1.595.141zm2.886-16.307l3.694-.444h.04l.565.383v5.954a4.66 4.66 0 0 1 1.342-.918 4.017 4.017 0 0 1 1.726-.374c1.292 0 2.345.454 3.159 1.363.814.908 1.22 2.297 1.22 4.167 0 1.157-.242 2.207-.726 3.149a5.469 5.469 0 0 1-2.089 2.23c-.908.545-1.96.817-3.158.817-1.063 0-1.985-.09-2.766-.272-.78-.182-1.278-.347-1.493-.495V16.581l-1.514-.242v-1.05zm6.297 6.377c-.403 0-.783.091-1.14.273a3.091 3.091 0 0 0-.858.615v7.367c.08.148.27.27.565.363.296.095.633.142 1.01.142.86 0 1.55-.4 2.068-1.201.518-.8.777-1.988.777-3.563 0-1.358-.222-2.364-.666-3.017-.444-.652-1.03-.979-1.756-.979zm12.17 9.95c-1.776 0-3.098-.521-3.965-1.564-.868-1.043-1.302-2.465-1.302-4.268 0-1.211.225-2.26.676-3.149.45-.888 1.086-1.567 1.907-2.038.821-.471 1.77-.707 2.846-.707 1.345 0 2.382.353 3.108 1.06.727.706 1.103 1.712 1.13 3.017 0 .888-.053 1.547-.161 1.978h-6.56c.054 1.224.344 2.176.868 2.856.525.68 1.272 1.02 2.24 1.02a5.42 5.42 0 0 0 1.625-.263c.559-.175 1-.384 1.322-.626l.505 1.11c-.363.39-.952.75-1.766 1.08a6.536 6.536 0 0 1-2.473.494zm1.575-6.882c.027-.377.04-.666.04-.868 0-1.79-.599-2.684-1.796-2.684-.66 0-1.17.262-1.534.787-.363.525-.565 1.446-.606 2.765h3.896z"/><path fill-opacity=".6" d="M47.298 75h-.861v-7.201h-2.473v-.791h5.812v.79h-2.478V75zm3.574 0v-8.42h.856v3.123h.023c.234-.41.809-.937 1.816-.937 1.266 0 2.21.802 2.21 2.29V75h-.862v-3.814c0-1.05-.615-1.63-1.576-1.63-1.125 0-1.611.81-1.611 1.688V75h-.856zm6.72 0v-6.135h.862V75h-.861zm-.152-7.629a.586.586 0 0 1 1.172 0 .59.59 0 0 1-.591.592.588.588 0 0 1-.58-.592zm2.678 3.217c0-1.26 1.055-1.822 2.22-1.822 1.448 0 2.14.85 2.14 1.81h-.815c-.03-.48-.34-1.072-1.36-1.072-.767 0-1.335.334-1.335.99 0 .71.78.879 1.523 1.026 1.143.21 2.139.498 2.139 1.705 0 1.213-.99 1.875-2.385 1.875-1.342 0-2.244-.674-2.244-1.729h.844c.082.563.574.99 1.47.99.979 0 1.46-.457 1.46-1.037 0-.726-.669-.867-1.57-1.054-1.155-.252-2.087-.586-2.087-1.682zm11.871 3.615c-.293.492-.867.897-1.804.897-1.19 0-2.004-.733-2.004-1.858 0-1.06.738-1.74 2.138-1.746h1.67v-.662c0-.861-.504-1.324-1.377-1.324-.843 0-1.306.416-1.377 1.066h-.814c.07-1.066.803-1.81 2.226-1.81 1.278 0 2.204.709 2.204 1.968V75h-.838v-.797h-.024zm-1.6.152c.915 0 1.6-.574 1.6-1.4V72.2h-1.64c-.897 0-1.278.428-1.278 1.026 0 .761.627 1.13 1.319 1.13zm11.573-5.49L80.345 75h-.89l-1.472-4.875h-.023L76.483 75H75.6l-1.618-6.135h.873l1.196 4.975h.04l1.466-4.975h.826l1.465 4.975h.04l1.196-4.975h.879zm3.451 6.235c-1.576 0-2.525-1.125-2.525-2.86v-.703c0-1.623.89-2.771 2.484-2.771 1.57 0 2.484 1.136 2.484 2.841v.54h-4.101v.123c0 1.248.621 2.085 1.687 2.085.774 0 1.26-.398 1.454-.984h.873c-.229.984-1.026 1.729-2.356 1.729zm-1.658-3.698h3.234v-.017c0-1.067-.644-1.875-1.617-1.875-.984 0-1.617.814-1.617 1.875v.017zm5.426-.814c0-1.26 1.054-1.822 2.22-1.822 1.448 0 2.139.85 2.139 1.81h-.814c-.03-.48-.34-1.072-1.36-1.072-.767 0-1.336.334-1.336.99 0 .71.78.879 1.524 1.026 1.142.21 2.138.498 2.138 1.705 0 1.213-.99 1.875-2.384 1.875-1.342 0-2.245-.674-2.245-1.729h.844c.082.563.574.99 1.47.99.98 0 1.46-.457 1.46-1.037 0-.726-.668-.867-1.57-1.054-1.155-.252-2.086-.586-2.086-1.682zm8.355-1.822c1.664 0 2.59 1.213 2.59 2.859v.604c0 1.652-.914 2.87-2.59 2.87-1.676 0-2.596-1.218-2.596-2.87v-.604c0-1.646.926-2.86 2.596-2.86zm0 .755c-1.096 0-1.734.815-1.734 2.145v.516c0 1.33.638 2.15 1.734 2.15 1.09 0 1.729-.814 1.729-2.15v-.516c0-1.33-.639-2.145-1.729-2.145zM101.737 75v-6.135h.862v.768h.04c.2-.422.739-.867 1.565-.867.973 0 1.547.404 1.787 1.013h.035c.229-.527.868-1.013 1.887-1.013 1.283 0 2.063.785 2.063 2.062V75h-.862v-4.014c0-.826-.474-1.43-1.388-1.43-.932 0-1.442.657-1.442 1.524V75h-.861v-3.92c0-.978-.522-1.523-1.4-1.523-.82 0-1.424.568-1.424 1.523V75h-.862zm12.34.1c-1.576 0-2.525-1.125-2.525-2.86v-.703c0-1.623.89-2.771 2.484-2.771 1.57 0 2.485 1.136 2.485 2.841v.54h-4.102v.123c0 1.248.621 2.085 1.687 2.085.774 0 1.26-.398 1.454-.984h.873c-.229.984-1.026 1.729-2.356 1.729zm-1.658-3.698h3.234v-.017c0-1.067-.644-1.875-1.617-1.875-.984 0-1.617.814-1.617 1.875v.017zm7.846.832v-.656c0-1.658.937-2.812 2.502-2.812 1.406 0 2.244.943 2.302 1.84h-.861a1.416 1.416 0 0 0-1.383-1.061c-1.066 0-1.699.78-1.699 2.08v.615c0 1.26.668 2.074 1.71 2.074.827 0 1.296-.445 1.413-.955h.861c-.205.979-.925 1.74-2.343 1.74-1.6 0-2.502-1.236-2.502-2.865zm8.666-3.468c1.664 0 2.59 1.213 2.59 2.859v.604c0 1.652-.915 2.87-2.59 2.87-1.676 0-2.596-1.218-2.596-2.87v-.604c0-1.646.926-2.86 2.596-2.86zm0 .755c-1.096 0-1.735.815-1.735 2.145v.516c0 1.33.639 2.15 1.735 2.15 1.09 0 1.728-.814 1.728-2.15v-.516c0-1.33-.638-2.145-1.728-2.145zm4.2 5.479v-6.135h.862v.768h.041c.2-.422.738-.867 1.565-.867.972 0 1.547.404 1.787 1.013h.035c.228-.527.867-1.013 1.887-1.013 1.283 0 2.062.785 2.062 2.062V75h-.861v-4.014c0-.826-.475-1.43-1.389-1.43-.932 0-1.441.657-1.441 1.524V75h-.862v-3.92c0-.978-.521-1.523-1.4-1.523-.82 0-1.424.568-1.424 1.523V75h-.861zm12.727.1c-.832 0-1.43-.422-1.763-.955h-.024v2.982h-.855v-8.262h.814v.914h.024c.34-.55.96-1.013 1.845-1.013 1.377 0 2.409 1.06 2.409 2.847v.639c0 1.781-1.026 2.848-2.45 2.848zm-.035-.768c.955 0 1.623-.75 1.623-2.162v-.522c0-1.335-.62-2.127-1.646-2.127-1.09 0-1.74.885-1.74 2.122v.527c0 1.289.662 2.162 1.763 2.162zm7.541-.129c-.293.492-.867.897-1.804.897-1.19 0-2.004-.733-2.004-1.858 0-1.06.738-1.74 2.138-1.746h1.67v-.662c0-.861-.504-1.324-1.377-1.324-.843 0-1.306.416-1.377 1.066h-.814c.07-1.066.803-1.81 2.226-1.81 1.278 0 2.204.709 2.204 1.968V75h-.838v-.797h-.024zm-1.6.152c.915 0 1.6-.574 1.6-1.4V72.2h-1.64c-.897 0-1.278.428-1.278 1.026 0 .761.627 1.13 1.319 1.13zm4.272.645v-6.135h.861v.838h.024c.228-.41.803-.937 1.81-.937 1.266 0 2.21.802 2.21 2.29V75h-.862v-3.814c0-1.05-.615-1.63-1.576-1.63-1.125 0-1.606.81-1.606 1.688V75h-.86zm11.203-6.135l-2.215 6.194-.175.457c-.323.884-.733 1.705-1.928 1.705-.205 0-.434-.024-.586-.047v-.733c.1.018.316.036.451.036.72 0 1.031-.37 1.213-1.002l.117-.375-2.29-6.235h.96l1.752 5.133h.03l1.751-5.133h.92zm3.14 1.723c0-1.26 1.056-1.822 2.222-1.822 1.447 0 2.138.85 2.138 1.81h-.814c-.03-.48-.34-1.072-1.36-1.072-.767 0-1.336.334-1.336.99 0 .71.78.879 1.524 1.026 1.143.21 2.139.498 2.139 1.705 0 1.213-.99 1.875-2.385 1.875-1.342 0-2.244-.674-2.244-1.729h.843c.082.563.575.99 1.471.99.979 0 1.46-.457 1.46-1.037 0-.726-.669-.867-1.571-1.054-1.154-.252-2.086-.586-2.086-1.682zm10.788-1.723V75h-.861v-.838h-.035c-.217.498-.803.938-1.8.938-1.265 0-2.173-.721-2.173-2.121v-4.114h.861v3.867c0 1.16.674 1.577 1.541 1.577.961 0 1.6-.633 1.6-1.641v-3.803h.867zm4.523 6.235c-.832 0-1.43-.422-1.763-.955h-.024v2.982h-.855v-8.262h.814v.914h.024c.34-.55.96-1.013 1.845-1.013 1.377 0 2.409 1.06 2.409 2.847v.639c0 1.781-1.026 2.848-2.45 2.848zm-.035-.768c.955 0 1.623-.75 1.623-2.162v-.522c0-1.335-.62-2.127-1.646-2.127-1.09 0-1.74.885-1.74 2.122v.527c0 1.289.662 2.162 1.763 2.162zm6.756.768c-.832 0-1.43-.422-1.764-.955h-.023v2.982h-.855v-8.262h.814v.914h.023c.34-.55.961-1.013 1.846-1.013 1.377 0 2.408 1.06 2.408 2.847v.639c0 1.781-1.025 2.848-2.449 2.848zm-.035-.768c.955 0 1.623-.75 1.623-2.162v-.522c0-1.335-.621-2.127-1.646-2.127-1.09 0-1.74.885-1.74 2.122v.527c0 1.289.661 2.162 1.763 2.162zm6.44-5.566c1.663 0 2.59 1.213 2.59 2.859v.604c0 1.652-.915 2.87-2.59 2.87-1.676 0-2.596-1.218-2.596-2.87v-.604c0-1.646.926-2.86 2.595-2.86zm0 .755c-1.096 0-1.735.815-1.735 2.145v.516c0 1.33.639 2.15 1.734 2.15 1.09 0 1.729-.814 1.729-2.15v-.516c0-1.33-.639-2.145-1.729-2.145zm4.2 5.479v-6.135h.862v.791h.023c.188-.398.645-.885 1.553-.885.123 0 .252.012.37.024v.803a3.431 3.431 0 0 0-.475-.024c-1.102 0-1.471.715-1.471 1.612V75h-.861zm4.74-6.135v-1.54h.862v1.54h1.254v.733h-1.254v3.779c0 .756.246.943 1.026.943.105 0 .193 0 .28-.011v.709a2.981 2.981 0 0 1-.497.04c-1.4 0-1.67-.55-1.67-1.734v-3.726h-.838v-.733h.838zm3.347 1.723c0-1.26 1.054-1.822 2.22-1.822 1.448 0 2.139.85 2.139 1.81h-.815c-.029-.48-.34-1.072-1.359-1.072-.767 0-1.336.334-1.336.99 0 .71.78.879 1.524 1.026 1.142.21 2.138.498 2.138 1.705 0 1.213-.99 1.875-2.385 1.875-1.341 0-2.244-.674-2.244-1.729h.844c.082.563.574.99 1.47.99.98 0 1.46-.457 1.46-1.037 0-.726-.668-.867-1.57-1.054-1.155-.252-2.086-.586-2.086-1.682zM63.215 86.878h.885c.076.792.738 1.495 2.056 1.495 1.16 0 1.922-.574 1.922-1.494 0-.72-.445-1.113-1.389-1.36l-1.382-.369c-.95-.252-1.846-.85-1.846-2.068 0-1.465 1.3-2.268 2.713-2.268 1.342 0 2.678.71 2.707 2.227h-.879c-.07-.785-.662-1.43-1.846-1.43-1.049 0-1.804.51-1.804 1.412 0 .627.38 1.061 1.183 1.272l1.354.37c1.26.339 2.086.896 2.086 2.155 0 1.547-1.307 2.35-2.93 2.35-2.074 0-2.8-1.283-2.83-2.291zM70.527 89v-6.135h.862V89h-.862zm-.152-7.629a.586.586 0 0 1 1.172 0 .59.59 0 0 1-.592.592.588.588 0 0 1-.58-.592zM73.311 89v-6.135h.86v.838h.024c.229-.41.803-.937 1.81-.937 1.266 0 2.21.802 2.21 2.29V89h-.861v-3.814c0-1.05-.616-1.63-1.577-1.63-1.125 0-1.605.81-1.605 1.688V89h-.861zm8.87-6.24c.862 0 1.495.45 1.794.984h.023V80.58h.861V89h-.814v-.955h-.024c-.328.603-.96 1.049-1.84 1.049-1.593 0-2.454-1.16-2.454-2.854v-.627c0-1.664.931-2.853 2.455-2.853zm.077.767c-.95 0-1.67.698-1.67 2.127v.557c0 1.406.709 2.115 1.682 2.115 1.095 0 1.746-.79 1.746-2.11v-.568c0-1.265-.668-2.12-1.758-2.12zM86.74 89v-6.135h.862v.791h.023c.188-.398.645-.885 1.553-.885.123 0 .252.012.369.024v.803a3.431 3.431 0 0 0-.475-.024c-1.101 0-1.47.715-1.47 1.612V89h-.862zm6.252.1c-1.576 0-2.525-1.125-2.525-2.86v-.703c0-1.623.89-2.771 2.484-2.771 1.57 0 2.485 1.136 2.485 2.841v.54h-4.102v.123c0 1.248.621 2.085 1.687 2.085.774 0 1.26-.398 1.454-.984h.873c-.229.984-1.026 1.729-2.356 1.729zm-1.658-3.698h3.234v-.017c0-1.067-.644-1.875-1.617-1.875-.984 0-1.617.814-1.617 1.875v.017zm4.928-4.394h.843L97 83.387h-.633l-.105-2.38zm2.244 3.58c0-1.26 1.055-1.822 2.22-1.822 1.448 0 2.14.85 2.14 1.81h-.815c-.03-.48-.34-1.072-1.36-1.072-.767 0-1.336.334-1.336.99 0 .71.78.879 1.524 1.026 1.142.21 2.139.498 2.139 1.705 0 1.213-.99 1.875-2.385 1.875-1.342 0-2.244-.674-2.244-1.729h.843c.082.563.575.99 1.471.99.979 0 1.46-.457 1.46-1.037 0-.726-.669-.867-1.571-1.054-1.154-.252-2.086-.586-2.086-1.682zm10.77-1.822c1.663 0 2.59 1.213 2.59 2.859v.604c0 1.652-.915 2.87-2.59 2.87-1.676 0-2.596-1.218-2.596-2.87v-.604c0-1.646.925-2.86 2.595-2.86zm0 .755c-1.096 0-1.735.815-1.735 2.145v.516c0 1.33.639 2.15 1.734 2.15 1.09 0 1.729-.814 1.729-2.15v-.516c0-1.33-.639-2.145-1.729-2.145zm6.86 5.579c-.831 0-1.429-.422-1.763-.955h-.023v2.982h-.856v-8.262h.815v.914h.023c.34-.55.961-1.013 1.846-1.013 1.377 0 2.408 1.06 2.408 2.847v.639c0 1.781-1.025 2.848-2.45 2.848zm-.034-.768c.955 0 1.623-.75 1.623-2.162v-.522c0-1.335-.621-2.127-1.647-2.127-1.09 0-1.74.885-1.74 2.122v.527c0 1.289.662 2.162 1.764 2.162zm6.369.768c-1.576 0-2.526-1.125-2.526-2.86v-.703c0-1.623.89-2.771 2.485-2.771 1.57 0 2.484 1.136 2.484 2.841v.54h-4.102v.123c0 1.248.622 2.085 1.688 2.085.773 0 1.26-.398 1.453-.984h.873c-.228.984-1.025 1.729-2.355 1.729zm-1.659-3.698h3.235v-.017c0-1.067-.645-1.875-1.617-1.875-.985 0-1.618.814-1.618 1.875v.017zM126.496 89v-6.135h.861v.838h.024c.228-.41.803-.937 1.81-.937 1.266 0 2.21.802 2.21 2.29V89h-.862v-3.814c0-1.05-.615-1.63-1.576-1.63-1.125 0-1.606.81-1.606 1.688V89h-.86zm8.824-4.412c0-1.26 1.055-1.822 2.221-1.822 1.447 0 2.139.85 2.139 1.81h-.815c-.03-.48-.34-1.072-1.36-1.072-.767 0-1.335.334-1.335.99 0 .71.78.879 1.523 1.026 1.143.21 2.139.498 2.139 1.705 0 1.213-.99 1.875-2.385 1.875-1.342 0-2.244-.674-2.244-1.729h.844c.082.563.574.99 1.47.99.98 0 1.46-.457 1.46-1.037 0-.726-.668-.867-1.57-1.054-1.155-.252-2.087-.586-2.087-1.682zm8.356-1.822c1.664 0 2.59 1.213 2.59 2.859v.604c0 1.652-.914 2.87-2.59 2.87-1.676 0-2.596-1.218-2.596-2.87v-.604c0-1.646.926-2.86 2.596-2.86zm0 .755c-1.096 0-1.735.815-1.735 2.145v.516c0 1.33.64 2.15 1.735 2.15 1.09 0 1.728-.814 1.728-2.15v-.516c0-1.33-.638-2.145-1.728-2.145zm8.976-.656V89h-.861v-.838h-.035c-.217.498-.803.938-1.799.938-1.266 0-2.174-.721-2.174-2.121v-4.114h.862v3.867c0 1.16.673 1.577 1.54 1.577.961 0 1.6-.633 1.6-1.641v-3.803h.867zM154.516 89v-6.135h.861v.791h.023c.188-.398.645-.885 1.553-.885.123 0 .252.012.37.024v.803a3.431 3.431 0 0 0-.475-.024c-1.102 0-1.471.715-1.471 1.612V89h-.861zm3.726-2.766v-.656c0-1.658.938-2.812 2.502-2.812 1.406 0 2.244.943 2.303 1.84h-.861a1.416 1.416 0 0 0-1.383-1.061c-1.067 0-1.7.78-1.7 2.08v.615c0 1.26.668 2.074 1.711 2.074.827 0 1.295-.445 1.413-.955h.86c-.204.979-.925 1.74-2.343 1.74-1.6 0-2.502-1.236-2.502-2.865zm8.596 2.866c-1.576 0-2.525-1.125-2.525-2.86v-.703c0-1.623.89-2.771 2.484-2.771 1.57 0 2.484 1.136 2.484 2.841v.54h-4.101v.123c0 1.248.62 2.085 1.687 2.085.774 0 1.26-.398 1.453-.984h.873c-.228.984-1.025 1.729-2.355 1.729zm-1.658-3.698h3.234v-.017c0-1.067-.644-1.875-1.617-1.875-.984 0-1.617.814-1.617 1.875v.017zm15.398-2.537L178.961 89h-.89l-1.471-4.875h-.024L175.1 89h-.885l-1.617-6.135h.873l1.195 4.975h.041l1.465-4.975h.826l1.465 4.975h.04l1.196-4.975h.88zm3.522-.1c1.664 0 2.59 1.214 2.59 2.86v.604c0 1.652-.915 2.87-2.59 2.87-1.676 0-2.596-1.218-2.596-2.87v-.604c0-1.646.926-2.86 2.596-2.86zm0 .756c-1.096 0-1.735.815-1.735 2.145v.516c0 1.33.639 2.15 1.735 2.15 1.09 0 1.728-.814 1.728-2.15v-.516c0-1.33-.639-2.145-1.728-2.145zM188.3 89v-6.135h.862v.791h.024c.187-.398.644-.885 1.552-.885.123 0 .252.012.37.024v.803a3.431 3.431 0 0 0-.475-.024c-1.102 0-1.47.715-1.47 1.612V89h-.862zm5.063-2.268V89h-.855v-8.42h.855v5.063h.035l2.614-2.778h1.09l-2.485 2.649L197.254 89h-1.072l-2.198-2.924-.62.656z"/></svg>