<svg height="39" viewBox="0 0 221 39" width="221" xmlns="http://www.w3.org/2000/svg"><g><path d="m46.5979678 2.16589712c.9675183 1.0414828 1.891664 2.03589801 2.8340882 3.0497998.9256947-.51174759.4362042-1.44440533.7252515-2.10934743.0876745-.0185872.1750393-.0371744.2630237-.0557616.1530432.47277443.4042944.9392532.4399218 1.42012206.0969687 1.29001165.0994472 2.58631897.1462276 3.87992814.004647.12351495.0582432.24523113.1536628.62866708.525118-.43739879 1.0496164-.71410824 1.3337068-1.14071446.9572948-1.43721029 1.8272247-2.92838342 2.734641-4.39677223.1570707-.25392514.3314905-.4976573.6759927-.68023157-.0709452.38463513-.1428198.76897046-.2150041 1.15840228 1.1156047-.76567273.7803966-1.89049813.8578476-2.91998919.737024 1.58141098.6859064 3.13194323-.2472237 4.61801987-1.2376675 1.97144239-2.4991899 3.92909429-3.772175 5.87955113-.715028 1.0960452-1.1595969 2.2751333-1.2804205 3.562147-.0359373.3837357-.0343883.7803626.0213765 1.1611004.1926981 1.3172929.8711692 1.6857392 2.1432249 1.1353182 1.9533151-.845118 3.5844338-1.9825348 3.9822223-4.2273889.0415138-.2326398.5170631-.6190737.5691102-.5875953.3584434.2146521.8690006.4793698.9402555.8067444.3550355 1.6344744-.2884276 2.9802477-1.6524952 3.9326918-1.1472047.8010484-2.3616369 1.5271484-3.6079789 2.1762014-1.5576951.8124405-2.8997666 1.8125518-3.9961634 3.1793106-1.5434442 1.924075-3.1971786 3.765407-4.7957679 5.6490099-.7144084.8412207-.6360279 1.080456.425361 1.478282 1.5065775.5645113 2.8378058.3333704 3.9679713-.8109415.1824746-.1846729.3410943-.3915304.5356513-.6169752.5530004 1.1557042.0384157 2.3908536-1.1769458 2.8561332-1.4622755.5603141-2.9635863.5123472-4.3747441-.1241145-1.0443498-.4709757-1.99297-.4311032-3.0044805.0134907-1.2612126.5540185-2.5438017 1.0630679-3.9574379 1.6500637 1.3135695.6916237 2.5657978.9614379 3.9819124.7932537-.2726276.717406-.7481769 1.0166-1.3953578.9158693-.9207378-.1436011-1.8374482-.3381671-2.7364998-.5792011-1.007483-.2695144-1.9647778-.3315717-2.8000097.3816372-.1567609.1337079-.3110434.4763719-.2413374.6202728.6004004 1.2393466 1.353844 2.3845579 2.7358802 2.9238865.480816.187371 1.0397027.187371 1.602307.2794076-.1691531.5950902-.6543064.9800252-1.4508128.92936-1.3811068-.0878395-2.5190173-.7012171-3.4189983-1.6806426-.4569611-.4967579-.749726-1.1311211-1.1682714-1.6650534-.4238121-.5408276-.8550594-1.0996427-1.3866833-1.5307459-.6394357-.518343-1.1199419-1.0450803-.9566751-1.9033892.1614079-.8508141.7605691-1.2378476 1.5759736-.9149699.6617416.2617197 1.2246557.1873709 1.8451934-.0767472.9557457-.4059205 1.9170679-.816038 2.9102999-1.1188295 4.6876463-1.4297155 8.014323-4.4345462 10.5900346-8.3711354.9607026-1.468089 1.5044088-3.011726 1.5273343-4.7502288.0250942-1.9438614.1096707-3.887423.1595491-5.8309846.0192079-.7503832.0359373-1.50166588.0179687-2.25144955-.0449216-1.84223138-.7360946-3.48120272-1.7463659-5.00985004-.3361375-.50485235-.6982985-.98991831-.3141414-1.72561169"/><path d="m20.5480377 37.7409494c1.2098286.4661446 2.0583779.0726421 2.7513284-.7314206.7316928-.8487655 1.4457467-1.7113536 2.2133469-2.6224677-1.0186372-.9564052-2.1216884-1.5478354-3.5371973-1.6234185-.3445854-.018234-.6740518-.2726284-1.0113927-.416148-.3896272-.1655769-.7751596-.3420354-1.1723463-.4908488-1.6895392-.6326038-3.3176579-.7196567-5.0333403.093523-1.5849668.750831-3.359235.8446482-5.11365966.5593735-1.26211482-.2046918-2.14940643-.9019971-2.66439463-1.9857466.44852795-.4917311.83311547-.4699678 1.37487677-.1482251 1.97522382 1.1716846 4.02635732 1.317557 6.09292462.1814582.7855539-.4320293.8479195-.7546543.224894-1.3754942-.7074395-.7043637-1.470315-1.359613-2.2035826-2.0419193-1.0406856-.967875-2.0303449-1.989864-3.12772651-2.8983313-1.11502033-.9237603-2.27539743-1.8216401-3.52050346-2.5812941-2.01522602-1.2293277-3.74287758-2.7092266-5.10641515-4.552924-.90272551-1.2205048-.9433576-2.6339376-.16221341-3.7229808.06961002-.0970522.16756802-.1767527.34206555-.3570345.04819156.9040559-.2056803 1.866343 1.09108205 2.0080981.45262266 2.5210041 2.52958426 3.7315096 4.61977492 4.8805487 1.00162843.5508447 1.74466035.1655769 1.66024638-.9161139-.0910285-1.1649203-.34521534-2.3889543-.86839296-3.4400589-1.22715232-2.463361-2.63163697-4.8508449-4.01470315-7.24421068-.86618811-1.49930928-1.33959929-3.04185089-.85201413-4.77643819.19308121.99669657.38647739 1.99280495.57924362 2.98891332.0544911-.04676151.10898221-.09352302.1637883-.14057862.237808.13763765.53514676.22969018.70302976.42085358.70775444.80612137 1.38527103 1.63577053 2.05711803 2.46865477.4645918.57584299 1.05958429.65319064 1.74749514.46614461.69767515-.18998701.74492178-.69818757.77830939-1.26579583.05165631-.88023394.17575744-1.75752691.39277694-2.6445251.22079922 1.41166821-.27056567 2.95420982 1.04005569 4.13177638-.03874224-.23174887-.07086994-.46496822-.11685666-.69524659-.15087422-.75200742-.04724662-1.43843108.38458756-2.12103148.9663509-1.52666034 1.2120334-3.24507228 1.3909406-4.97554222.0752796-.72877371.2107199-1.45225367.433094-2.17249855 0 .44967514-.0154339.90052668.0028348 1.34990772.0488215 1.21021139.1294558 2.41924638.1603236 3.62945777.0110242.42144178.0015749.87494019-.1502443 1.26167846-.4954596 1.26373714-1.0794279 2.49688814-1.5862266 3.75680201-.1133919.28145134-.1555989.65848444-.0529163.93405384.8737476 2.3492511 1.064624 4.7852611.9461924 7.2292116-.1559138 3.2100747 1.0028884 5.7293143 3.526803 7.9979827 2.2038976 1.9804529 4.6402485 3.1859587 7.5427661 3.8067986 1.1887251.2541003 2.322959.7261268 3.5053846 1.0155188.4973494.1223446 1.090767.1426373 1.5755174.0067643.5496357-.1546953 1.1928198-.2835101 1.3521984.199104.1738676.5267287.1017377 1.2805007-.195916 1.7534095-.5823934.9252309-1.4885837 1.6713564-2.0920805 2.5883525-.9184744 1.395787-1.9090786 2.6657001-3.6332655 3.2524247-1.3827512.470262-2.071292.2073388-2.4376108-1.0405171"/><path d="m81.346 28.198c-1.5840079 0-2.7629961-.4649953-3.537-1.395-.7740039-.9300046-1.161-2.198992-1.161-3.807 0-1.0800054.200998-2.015996.603-2.808s.9689963-1.3979979 1.701-1.818 1.5779952-.63 2.538-.63c1.200006 0 2.1239968.3149969 2.772.945.6480032.6300032.9839999 1.5269942 1.008 2.691 0 .792004-.0479995 1.3799981-.144 1.764h-5.85c.0480002 1.0920055.3059977 1.940997.774 2.547s1.1339957.909 1.998.909c.4680023 0 .9509975-.0779992 1.449-.234s.8909986-.3419989 1.179-.558l.45.99c-.3240016.3480017-.8489964.6689985-1.575.963s-1.4609963.441-2.205.441zm1.404-6.138c.0240001-.3360017.036-.5939991.036-.774 0-1.596008-.5339947-2.394-1.602-2.394-.5880029 0-1.0439984.2339977-1.368.702s-.5039998 1.2899941-.54 2.466zm4.968-2.358-1.152-.324v-1.242l2.988-.378h.054l.45.36v.702l-.018.432c.4200021-.396002.9659966-.7379986 1.638-1.026s1.3499966-.432 2.034-.432c.7320037 0 1.3049979.1349987 1.719.405.4140021.2700014.7109991.6929971.891 1.269s.27 1.3559951.27 2.34v4.968l1.098.144v1.08h-4.644v-1.08l.972-.144v-4.968c0-.6240031-.0419996-1.1129982-.126-1.467s-.2369989-.6119992-.459-.774-.536998-.243-.945-.243c-.6840034 0-1.4159961.2939971-2.196.882v6.552l1.08.162v1.08h-4.698v-1.08l1.044-.162zm14.274 8.46c-.756004 0-1.313998-.1739983-1.674-.522-.3600018-.3480017-.54-.8999962-.54-1.656v-6.606h-1.17v-.936c.0960005-.0360002.2699987-.0989995.522-.189.2520013-.0900004.4439993-.1649997.576-.225.204001-.1560008.377999-.4259981.522-.81.108001-.2520013.305999-.875995.594-1.872h1.44l.072 2.646h2.754v1.386h-2.736v5.058c0 .6720034.018 1.1459986.054 1.422s.113999.4529996.234.531.329999.117.63.117c.300002 0 .611998-.0329997.936-.099s.593999-.1469995.81-.243l.342 1.008c-.336002.2520013-.827997.479999-1.476.684s-1.277997.306-1.89.306zm3.258-10.152h4.644v1.026l-1.26.216 1.332 4.788.432 1.962.396-1.98 1.62-6.012h2.178l1.782 6.012.432 1.98.432-1.962 1.26-4.77-1.314-.234v-1.026h3.852v1.026l-.918.198-2.736 8.91h-2.07l-1.818-5.832-.414-2.142-.324 2.142-1.674 5.832h-2.088l-2.88-8.91-.864-.198zm18.324-1.656c-.432002 0-.773999-.1259987-1.026-.378s-.378-.575998-.378-.972c0-.4560023.143999-.8339985.432-1.134s.671998-.45 1.152-.45.845999.1289987 1.098.387.378.5789981.378.963c0 .4800024-.143999.8639986-.432 1.152s-.689997.432-1.206.432zm-.954 3.348-1.278-.342v-1.206l3.294-.396h.036l.504.36v8.658l1.206.144v1.08h-5.022v-1.08l1.26-.162zm4.824 3.348c0-1.0320052.206998-1.949996.621-2.754s1.007996-1.4309977 1.782-1.881c.774004-.4500022 1.676995-.675 2.709-.675.480002 0 .893998.0359996 1.242.108s.737998.1679994 1.17.288l.522.144-.108 3.078h-1.566l-.45-1.98c-.072-.3120016-.425997-.468-1.062-.468-.672003 0-1.196998.2939971-1.575.882s-.573 1.5059938-.585 2.754c0 1.3200066.227998 2.3309965.684 3.033s1.061996 1.053 1.818 1.053c.912005 0 1.751996-.2459975 2.52-.738l.414.936c-.312002.3360017-.788997.6479986-1.431.936s-1.334996.432-2.079.432c-1.536008 0-2.690996-.4739953-3.465-1.422s-1.161-2.1899923-1.161-3.726zm10.404-8.208-1.296-.234v-.972l3.312-.396h.036l.486.342v8.55l-.054.954 3.672-3.852-1.332-.198v-1.026h4.698v1.026l-1.458.234-2.214 2.124 3.15 5.382.99.144v1.08h-4.752v-1.08l.918-.162-2.052-3.798-1.62 1.638.036.918v1.242l1.134.162v1.08h-4.698v-1.08l1.044-.162zm11.538 0-1.332-.234v-.972l3.33-.396h.036l.486.342v13.194l1.314.144v1.08h-5.094v-1.08l1.26-.162zm9.612 13.356c-1.584008 0-2.762996-.4649953-3.537-1.395-.774004-.9300046-1.161-2.198992-1.161-3.807 0-1.0800054.200998-2.015996.603-2.808s.968996-1.3979979 1.701-1.818 1.577995-.63 2.538-.63c1.200006 0 2.123997.3149969 2.772.945.648003.6300032.984 1.5269942 1.008 2.691 0 .792004-.048 1.3799981-.144 1.764h-5.85c.048 1.0920055.305998 1.940997.774 2.547s1.133996.909 1.998.909c.468002 0 .950998-.0779992 1.449-.234s.890999-.3419989 1.179-.558l.45.99c-.324002.3480017-.848996.6689985-1.575.963s-1.460996.441-2.205.441zm1.404-6.138c.024-.3360017.036-.5939991.036-.774 0-1.596008-.533995-2.394-1.602-2.394-.588003 0-1.043998.2339977-1.368.702s-.504 1.2899941-.54 2.466zm3.96 4.878 1.188-.144v-7.092l-1.152-.324v-1.242l2.79-.378h.054l.45.36v.396l-.054 1.458h.054c.084-.2400012.281998-.5369982.594-.891s.704998-.6659986 1.179-.936c.474002-.2700013.986997-.405 1.539-.405.264001 0 .491999.0359996.684.108v2.7c-.360002-.2520013-.797997-.378-1.314-.378-.876004 0-1.637997.2339977-2.286.702v5.904l2.088.162v1.062h-5.814zm10.476-.414c.096.1440007.314998.2789994.657.405s.686998.189 1.035.189c.564003 0 .986999-.1169988 1.269-.351s.423-.5429981.423-.927c0-.396002-.173998-.7169988-.522-.963s-.935996-.5489982-1.764-.909l-.504-.216c-.828004-.3480017-1.445998-.7679975-1.854-1.26s-.612-1.1279961-.612-1.908c0-.5400027.161998-1.0229979.486-1.449s.779997-.7589988 1.368-.999 1.265996-.36 2.034-.36c.564003 0 1.046998.0359996 1.449.108s.824998.1679994 1.269.288c.240001.0840004.419999.1319999.54.144v2.358h-1.422l-.414-1.368c-.072-.1200006-.233999-.2279995-.486-.324s-.539998-.144-.864-.144c-.492002 0-.884999.104999-1.179.315-.294001.2100011-.441.5009981-.441.873 0 .3360017.101999.6149989.306.837s.425999.3929994.666.513.683997.3179986 1.332.594 1.184998.5399987 1.611.792.779999.578998 1.062.981.423.8909971.423 1.467c0 .8880044-.347997 1.6079972-1.044 2.16s-1.697993.828-3.006.828c-.612003 0-1.160998-.0539995-1.647-.162s-1.046997-.2519991-1.683-.432l-.396-.126v-2.376h1.494zm10.368 1.638c-.756004 0-1.313998-.1739983-1.674-.522s-.54-.8999962-.54-1.656v-6.606h-1.17v-.936c.096-.0360002.269999-.0989995.522-.189.252001-.0900004.443999-.1649997.576-.225.204001-.1560008.377999-.4259981.522-.81.108001-.2520013.305999-.875995.594-1.872h1.44l.072 2.646h2.754v1.386h-2.736v5.058c0 .6720034.018 1.1459986.054 1.422s.113999.4529996.234.531.329999.117.63.117c.300002 0 .611998-.0329997.936-.099s.593999-.1469995.81-.243l.342 1.008c-.336002.2520013-.827997.479999-1.476.684s-1.277997.306-1.89.306zm12.438.018c-.396002 0-.683999-.0839992-.864-.252s-.27-.4199983-.27-.756v-.486c-.324002.396002-.779997.7469985-1.368 1.053s-1.175997.459-1.764.459c-1.152006 0-1.973998-.296997-2.466-.891s-.738-1.5749932-.738-2.943v-5.076l-.9-.252v-1.026l3.06-.234h.018l.36.252v6.336c0 .8760044.107999 1.4879983.324 1.836s.617997.522 1.206.522c.708004 0 1.367997-.2759972 1.98-.828v-6.606l-1.206-.27v-1.008l3.258-.234h.036l.432.252v8.856h1.008l-.018 1.026c-.048.0120001-.269998.0599996-.666.144s-.869997.126-1.422.126zm2.574-14.544 3.294-.396h.036l.504.342v5.31c.324002-.3240016.722998-.5969989 1.197-.819s.986997-.333 1.539-.333c1.152006 0 2.090996.404996 2.817 1.215.726004.8100041 1.089 2.0489917 1.089 3.717 0 1.0320052-.215998 1.9679958-.648 2.808s-1.052996 1.5029976-1.863 1.989-1.748995.729-2.817.729c-.948005 0-1.769997-.0809992-2.466-.243s-1.139999-.3089993-1.332-.441v-12.726l-1.35-.216zm5.616 5.688c-.360002 0-.698998.0809992-1.017.243s-.572999.344999-.765.549v6.57c.072.1320007.239999.2399996.504.324s.563998.126.9.126c.768004 0 1.382998-.3569964 1.845-1.071s.693-1.772993.693-3.177c0-1.2120061-.197998-2.1089971-.594-2.691s-.917997-.873-1.566-.873zm10.854 8.874c-1.584008 0-2.762996-.4649953-3.537-1.395-.774004-.9300046-1.161-2.198992-1.161-3.807 0-1.0800054.200998-2.015996.603-2.808s.968996-1.3979979 1.701-1.818 1.577995-.63 2.538-.63c1.200006 0 2.123997.3149969 2.772.945.648003.6300032.984 1.5269942 1.008 2.691 0 .792004-.048 1.3799981-.144 1.764h-5.85c.048 1.0920055.305998 1.940997.774 2.547s1.133996.909 1.998.909c.468002 0 .950998-.0779992 1.449-.234s.890999-.3419989 1.179-.558l.45.99c-.324002.3480017-.848996.6689985-1.575.963s-1.460996.441-2.205.441zm1.404-6.138c.024-.3360017.036-.5939991.036-.774 0-1.596008-.533995-2.394-1.602-2.394-.588003 0-1.043998.2339977-1.368.702s-.504 1.2899941-.54 2.466z"/></g></svg>