<?xml version="1.0" encoding="UTF-8"?>
<svg width="283px" height="85px" viewBox="0 0 283 85" version="1.1" xmlns="http://www.w3.org/2000/svg" xmlns:xlink="http://www.w3.org/1999/xlink">
    <title>Artboard</title>
    <defs>
        <linearGradient x1="71.518676%" y1="15.5059276%" x2="27.0068465%" y2="90.37497%" id="linearGradient-1">
            <stop stop-color="#FFB45B" offset="0%"></stop>
            <stop stop-color="#FF8A00" offset="100%"></stop>
        </linearGradient>
    </defs>
    <g id="Artboard" stroke="none" stroke-width="1" fill="none" fill-rule="evenodd">
        <rect fill="#FFFFFF" x="0" y="0" width="283" height="85"></rect>
        <g id="gitpod-logo" transform="translate(20.000000, 6.999991)">
            <path d="M103.685,56.3220092 C92.849,56.3220092 85.102,48.5620092 85.102,38.3360092 C85.102,28.1100092 92.902,20.3500092 103.528,20.3500092 C108.762,20.3500092 112.845,22.3540092 116.248,25.2830092 L114.102,29.6510092 C111.484,27.0820092 108.134,24.9750092 103.318,24.9750092 C95.466,24.9750092 89.813,30.3710092 89.813,38.3360092 C89.813,46.3010092 95.413,51.6970092 103.371,51.6970092 C110.228,51.6970092 115.096,47.6370092 115.881,41.4710092 L101.905,41.4710092 L101.905,36.8460092 L121.221,36.8460092 L121.221,37.0510092 C121.221,48.3570092 114.73,56.3220092 103.685,56.3220092 L103.685,56.3220092 Z M126.135,30.6280092 L130.637,30.6280092 L130.637,56.3220092 L126.135,56.3220092 L126.135,30.6280092 Z M151.959,55.9620092 L151.959,52.0570092 C150.546,52.3140092 149.394,52.4680092 147.719,52.4680092 C145.521,52.4680092 144.735,51.3380092 144.735,49.3850092 L144.735,34.4820092 L151.907,34.4820092 L151.907,30.6280092 L144.735,30.6280092 L144.735,23.7420092 L140.234,23.7420092 L140.234,30.6280092 L135.051,30.6280092 L135.051,34.4820092 L140.234,34.4820092 L140.234,49.1280092 C140.234,54.5750092 142.694,56.5790092 147.457,56.5790092 C149.132,56.5790092 150.598,56.3220092 151.959,55.9620092 Z" id="Shape" fill="#12100C" fill-rule="nonzero"></path>
            <path d="M161.135,66.6000092 L156.633,66.6000092 L156.633,30.6280092 L161.135,30.6280092 L161.135,34.3280092 C163.281,31.5010092 166.474,30.0110092 170.348,30.0110092 C177.781,30.0110092 182.963,35.5610092 182.963,43.4750092 C182.963,51.3890092 177.781,56.9390092 170.348,56.9390092 C166.631,56.9390092 163.595,55.5000092 161.135,52.5710092 L161.135,66.6000092 Z M160.821,43.4750092 C160.821,49.1790092 164.275,52.8280092 169.562,52.8280092 C174.849,52.8280092 178.304,49.1280092 178.304,43.4750092 C178.304,37.8220092 174.849,34.1220092 169.562,34.1220092 C164.275,34.1220092 160.821,37.7710092 160.821,43.4750092 L160.821,43.4750092 Z M185.766,43.4750092 C185.766,51.1830092 191.629,56.9390092 199.481,56.9390092 C207.332,56.9390092 213.195,51.1830092 213.195,43.4750092 C213.195,35.7670092 207.332,30.0110092 199.481,30.0110092 C191.629,30.0110092 185.766,35.7670092 185.766,43.4750092 Z M208.536,43.4750092 C208.536,48.8190092 204.925,52.6740092 199.481,52.6740092 C194.036,52.6740092 190.425,48.8190092 190.425,43.4750092 C190.425,38.1310092 194.036,34.2760092 199.481,34.2760092 C204.925,34.2760092 208.536,38.1310092 208.536,43.4750092 Z M237.85,20.3500092 L242.352,20.3500092 L242.352,56.3220092 L237.85,56.3220092 L237.85,52.6220092 C235.704,55.4490092 232.51,56.9390092 228.637,56.9390092 C221.204,56.9390092 216.021,51.3890092 216.021,43.4750092 C216.021,35.5610092 221.204,30.0110092 228.637,30.0110092 C232.353,30.0110092 235.389,31.4500092 237.85,34.3790092 L237.85,20.3500092 Z M238.164,43.4750092 C238.164,37.7710092 234.709,34.1220092 229.422,34.1220092 C224.135,34.1220092 220.68,37.8220092 220.68,43.4750092 C220.68,49.1280092 224.135,52.8280092 229.422,52.8280092 C234.709,52.8280092 238.164,49.1790092 238.164,43.4750092 Z" id="Shape" fill="#12100C"></path>
            <path d="M128.396,27.2510092 C130.175,27.2510092 131.618,25.8410092 131.618,24.1010092 C131.618,22.3610092 130.175,20.9510092 128.396,20.9510092 C126.617,20.9510092 125.175,22.3610092 125.175,24.1010092 C125.175,25.8410092 126.617,27.2510092 128.396,27.2510092 Z" id="Path" fill="#12100C" fill-rule="nonzero"></path>
            <path d="M39.568,3.68500916 C41.546,7.19100916 40.343,11.6570092 36.882,13.6610092 L15.358,26.1180092 C14.788,26.4470092 14.438,27.0600092 14.438,27.7240092 L14.438,47.2800092 C14.438,47.9440092 14.788,48.5570092 15.358,48.8870092 L32.395,58.7470092 C32.956,59.0720092 33.644,59.0720092 34.205,58.7470092 L51.242,48.8870092 C51.812,48.5570092 52.162,47.9440092 52.162,47.2800092 L52.162,35.1180092 L36.847,43.8690092 C33.375,45.8540092 28.972,44.6110092 27.013,41.0940092 C25.053,37.5780092 26.28,33.1180092 29.753,31.1340092 L51.666,18.6110092 C58.341,14.7970092 66.6,19.6810092 66.6,27.4440092 L66.6,48.7640092 C66.6,53.7570092 63.958,58.3680092 59.677,60.8460092 L40.117,72.1660092 L6.922,60.8470092 C2.642,58.3680092 0,53.7570092 0,48.7640092 L0,26.2390092 C0,21.2460092 2.642,16.6350092 6.923,14.1580092 L29.718,0.965009155 C33.18,-1.03899084 37.59,0.179009155 39.568,3.68500916 Z" id="Path" fill="url(#linearGradient-1)"></path>
        </g>
    </g>
</svg>