<svg width="1500" height="400" viewBox="0 0 1500 400" version="1.1" xmlns="http://www.w3.org/2000/svg" xmlns:xlink="http://www.w3.org/1999/xlink"><title>logo-shapes</title><desc>Created with Sketch.</desc><defs><filter x="-2.2%" y="-1.6%" width="104.4%" height="104.4%" filterUnits="objectBoundingBox" id="filter-1"><feOffset dx="0" dy="2" in="SourceAlpha" result="shadowOffsetOuter1"/><feGaussianBlur stdDeviation="2" in="shadowOffsetOuter1" result="shadowBlurOuter1"/><feColorMatrix values="0 0 0 0 0 0 0 0 0 0 0 0 0 0 0 0 0 0 0.5 0" type="matrix" in="shadowBlurOuter1" result="shadowMatrixOuter1"/><feMerge><feMergeNode in="shadowMatrixOuter1"/><feMergeNode in="SourceGraphic"/></feMerge></filter></defs><g id="logo-shapes" stroke="none" stroke-width="1" fill="none" fill-rule="evenodd"><g id="Group" transform="translate(90.000000, 41.000000)"><g id="logo" filter="url(#filter-1)" fill-rule="nonzero"><path d="M122.884956,213.308642 L68.0493827,289.514142 C92.4061075,306.041011 120.251541,316.585048 151.802469,318 L151.802469,223.525216 C140.824461,222.324706 131.760219,218.859334 122.884956,213.308642 Z" id="Shape" fill="#104A70"/><path d="M153.111111,93.5289753 L152.476744,0 C121.310611,1.48333054 93.6150719,11.3984088 69.3580247,27.8642004 L124.082412,103.382716 C132.765375,98.025212 142.316567,94.5978523 153.111111,93.5289753 Z" id="Shape" fill="#ED7324"/><path d="M247.333333,26.0721511 C222.58382,9.57718422 193.533992,0.923837349 161.569676,0 L160.962963,93.1209805 C171.944989,93.8958118 182.358264,96.7173075 191.232167,102.074074 L247.333333,26.0721511 Z" id="Shape" fill="#FBBC05"/><path d="M98.0729447,181.901235 L9.16049383,211.112296 C19.5493223,239.955254 37.2763093,264.239845 61.0575136,282.666667 L116.469136,207.031595 C108.492133,200.287333 102.117622,191.695401 98.0729447,181.901235 Z" id="Shape" fill="#0F1E2A"/><path d="M116.469136,109.265849 L61.2299006,34.0246914 C45.1123531,46.4647334 31.9651907,61.6053169 21.5600001,79.159891 C16.4905565,87.7125381 12.5803406,96.4626719 9.16049383,105.937638 L98.3655477,134.790123 C102.409694,124.954027 108.448876,116.053506 116.469136,109.265849 Z" id="Shape" fill="#DF5216"/><path d="M94.6134517,160.379933 C94.4845453,154.857589 95.0871608,148.993379 96.2944813,143.989709 L6.48193133,115.160494 C2.3208519,129.459938 0,144.022583 0,159.654321 C0,175.376897 1.8052146,189.780575 6.00426008,204.148148 L96.8395062,175.739648 C95.5942196,170.66028 94.7423581,165.902278 94.6134517,160.379933 Z" id="Shape" fill="#D53C0D"/><path d="M198.91358,209.75291 L254.471854,285.283951 C278.271839,266.813496 297.17652,242.241758 307.530864,213.374177 L218.217277,184.518519 C214.028311,194.25931 207.135704,203.104384 198.91358,209.75291 Z" id="Shape" fill="#378A9B"/><path d="M162.271605,223.064108 L162.271605,316.691358 C194.129097,315.731154 223.99793,306.546203 248.641975,290.148873 L192.293758,214.617284 C183.350629,219.88432 173.219894,222.407347 162.271605,223.064108 Z" id="Shape" fill="#1D77B2"/><path d="M311.258461,113.851852 L204.148148,146.678099 C205.345734,151.866456 205.824784,154.422773 205.809175,158.997249 C205.793567,163.571724 205.23125,165.99564 204.148148,171.200883 L311.637761,204.148148 C315.844222,189.881517 317.999978,174.586899 317.999978,159 C318.008255,143.330071 315.648554,128.431811 311.258461,113.851852 Z" id="Shape" fill="#539E82"/></g><path d="M454.167,239.664 C405.771,239.664 372.471,205.698 372.471,159.744 L372.471,159.3 C372.471,115.122 406.881,78.936 453.945,78.936 C477.477,78.936 493.017,84.264 507.003,94.032 C510.333,96.474 514.107,101.136 514.107,107.796 C514.107,117.12 506.559,124.668 497.235,124.668 C492.351,124.668 489.243,122.892 486.801,121.116 C477.477,114.456 467.487,110.46 452.835,110.46 C427.971,110.46 408.213,132.438 408.213,158.856 L408.213,159.3 C408.213,187.716 427.749,208.584 455.277,208.584 C467.709,208.584 478.809,205.476 487.467,199.26 L487.467,177.06 L464.379,177.06 C456.165,177.06 449.505,170.622 449.505,162.408 C449.505,154.194 456.165,147.534 464.379,147.534 L503.451,147.534 C512.997,147.534 520.545,155.082 520.545,164.628 L520.545,202.368 C520.545,212.358 516.771,219.24 508.557,224.124 C495.903,231.894 477.477,239.664 454.167,239.664 Z M618.225,239.442 C576.489,239.442 550.959,216.132 550.959,170.4 L550.959,97.362 C550.959,87.816 558.507,80.268 568.053,80.268 C577.599,80.268 585.147,87.816 585.147,97.362 L585.147,169.512 C585.147,194.82 597.801,207.918 618.669,207.918 C639.537,207.918 652.191,195.264 652.191,170.622 L652.191,97.362 C652.191,87.816 659.739,80.268 669.285,80.268 C678.831,80.268 686.379,87.816 686.379,97.362 L686.379,169.29 C686.379,216.354 659.961,239.442 618.225,239.442 Z M721.233,221.682 L721.233,97.806 C721.233,88.26 728.781,80.712 738.327,80.712 L742.101,80.712 C749.427,80.712 754.533,84.486 757.641,89.592 L798.933,156.858 L840.447,89.37 C843.999,83.598 848.883,80.712 855.765,80.712 L859.539,80.712 C869.085,80.712 876.633,88.26 876.633,97.806 L876.633,221.238 C876.633,230.784 869.085,238.332 859.539,238.332 C850.215,238.332 842.667,230.562 842.667,221.238 L842.667,143.76 L812.697,189.936 C809.145,195.264 804.705,198.594 798.489,198.594 C792.273,198.594 787.833,195.264 784.281,189.936 L754.755,144.426 L754.755,221.682 C754.755,231.006 747.207,238.332 737.883,238.332 C728.559,238.332 721.233,231.006 721.233,221.682 Z M913.929,219.906 L913.929,97.362 C913.929,87.816 921.477,80.268 931.023,80.268 C940.569,80.268 948.117,87.816 948.117,97.362 L948.117,205.92 L1011.387,205.92 C1020.045,205.92 1026.927,212.802 1026.927,221.46 C1026.927,230.118 1020.045,237 1011.387,237 L931.023,237 C921.477,237 913.929,229.452 913.929,219.906 Z M1068.441,237 C1058.895,237 1051.347,229.452 1051.347,219.906 L1051.347,98.694 C1051.347,89.148 1058.895,81.6 1068.441,81.6 L1154.577,81.6 C1163.013,81.6 1169.895,88.482 1169.895,96.918 C1169.895,105.354 1163.013,112.014 1154.577,112.014 L1085.313,112.014 L1085.313,143.538 L1144.587,143.538 C1153.023,143.538 1159.905,150.42 1159.905,158.856 C1159.905,167.292 1153.023,173.952 1144.587,173.952 L1085.313,173.952 L1085.313,206.586 L1155.687,206.586 C1164.123,206.586 1171.005,213.468 1171.005,221.904 C1171.005,230.34 1164.123,237 1155.687,237 L1068.441,237 Z M1236.273,221.238 L1236.273,113.124 L1203.417,113.124 C1194.759,113.124 1187.655,106.02 1187.655,97.362 C1187.655,88.704 1194.759,81.6 1203.417,81.6 L1303.317,81.6 C1311.975,81.6 1319.079,88.704 1319.079,97.362 C1319.079,106.02 1311.975,113.124 1303.317,113.124 L1270.461,113.124 L1270.461,221.238 C1270.461,230.784 1262.913,238.332 1253.367,238.332 C1243.821,238.332 1236.273,230.784 1236.273,221.238 Z" id="GUMLET" fill="#000"/></g></g></svg>