<svg fill="none" height="231" viewBox="0 0 790 231" width="790" xmlns="http://www.w3.org/2000/svg"><g fill="#101010"><path d="m55 56.457h17.4227l28.2083 104.854 27.793-104.854h19.497l27.379 104.854 28.208-104.854h17.008l-35.26 125.003h-20.327l-26.964-102.3874-27.378 102.3874h-20.3267z"/><path d="m229.228 132.528c0-39.4743 24.06-50.9877 45.216-50.9877s45.216 11.1022 45.216 50.9877c0 39.886-24.06 50.988-45.216 50.988s-45.216-11.102-45.216-50.988zm73.424 0c0-24.26-9.541-36.1848-28.208-36.1848s-28.208 11.9248-28.208 36.1848 9.541 36.596 28.208 36.596 28.208-12.336 28.208-36.596z"/><path d="m343.719 84.0074h14.104v12.3358c2.075-4.1119 5.393-7.8126 9.127-10.2798 5.392-3.2895 11.2-4.5231 17.422-4.5231 3.734 0 7.882.4112 11.616 2.0559v15.2142c-4.564-2.056-9.541-2.8784-14.519-2.4672-4.978-.4112-9.956.8224-14.104 3.2895-2.904 1.6453-4.978 3.7003-6.638 6.5793v75.248h-17.008z"/><path d="m510.48 118.959c0-38.6525 18.667-64.5576 56.832-64.5576 38.164 0 56.831 25.9051 56.831 64.5576 0 38.652-18.667 64.557-56.831 64.557-38.165 0-56.832-25.905-56.832-64.557zm95.411 0c0-24.2608-7.882-49.3435-38.579-49.3435-30.698 0-38.994 25.0827-38.994 49.3435 0 24.26 7.882 49.343 38.994 49.343s38.579-25.083 38.579-49.343z"/><path d="m658.159 144.453c1.244 18.914 17.423 24.26 32.356 24.26 18.667 0 27.379-8.224 27.379-19.737 0-9.869-5.808-16.448-18.253-19.738l-27.378-7.812c-19.082-5.346-29.453-16.037-29.453-32.8956 0-23.8491 19.912-34.1289 43.557-34.1289 11.615-.4112 22.815 2.8783 31.942 9.8686 8.296 6.9902 13.274 17.6812 13.274 28.3722h-17.008c-1.659-18.9148-16.178-23.8491-29.038-23.8491-16.593 0-24.889 7.4014-24.889 18.5036 0 9.8686 5.807 16.4482 18.252 19.7372l27.379 7.813c7.881 2.056 15.348 6.168 21.156 11.513 5.807 5.757 8.711 13.569 7.882 21.793 0 25.905-22.401 35.363-46.046 35.363-27.379 0-47.705-12.747-49.365-39.063z"/><path d="m459.871 121.015 36.92-37.0077h-20.327l-45.631 46.0537v-83.061h-16.593v134.46h16.593v-33.307l17.008-16.859 29.453 50.166h19.912z"/></g></svg>