<svg enable-background="new 0 0 790 231" viewBox="0 0 790 231" xmlns="http://www.w3.org/2000/svg"><path d="m790 181c0 27.5-22.5 50-50 50h-690c-27.5 0-50-22.5-50-50v-131c0-27.5 22.5-50 50-50h690c27.5 0 50 22.5 50 50z" fill="#fff"/><g fill="#101010"><path d="m55 56.5h17.4l28.2 104.9 27.8-104.9h19.5l27.4 104.9 28.2-104.9h17l-35.3 125h-20.3l-26.9-102.4-27.4 102.4h-20.3z"/><path d="m229.2 132.5c0-39.5 24.1-51 45.2-51s45.2 11.1 45.2 51-24.1 51-45.2 51-45.2-11.1-45.2-51zm73.5 0c0-24.3-9.5-36.2-28.2-36.2s-28.2 11.9-28.2 36.2 9.5 36.6 28.2 36.6 28.2-12.3 28.2-36.6z"/><path d="m343.7 84h14.1v12.3c2.1-4.1 5.4-7.8 9.1-10.3 5.4-3.3 11.2-4.5 17.4-4.5 3.7 0 7.9.4 11.6 2.1v15.2c-4.6-2.1-9.5-2.9-14.5-2.5-5-.4-10 .8-14.1 3.3-2.9 1.6-5 3.7-6.6 6.6v75.2h-17z"/><path d="m510.5 119c0-38.7 18.7-64.6 56.8-64.6 38.2 0 56.8 25.9 56.8 64.6s-18.7 64.6-56.8 64.6c-38.2-.1-56.8-26-56.8-64.6zm95.4 0c0-24.3-7.9-49.3-38.6-49.3s-39 25.1-39 49.3c0 24.3 7.9 49.3 39 49.3s38.6-25.1 38.6-49.3z"/><path d="m658.2 144.5c1.2 18.9 17.4 24.3 32.4 24.3 18.7 0 27.4-8.2 27.4-19.7 0-9.9-5.8-16.4-18.3-19.7l-27.4-7.8c-19.1-5.3-29.5-16-29.5-32.9 0-23.8 19.9-34.1 43.6-34.1 11.6-.4 22.8 2.9 31.9 9.9 8.3 7 13.3 17.7 13.3 28.4h-17c-1.7-18.9-16.2-23.8-29-23.8-16.6 0-24.9 7.4-24.9 18.5 0 9.9 5.8 16.4 18.3 19.7l27.4 7.8c7.9 2.1 15.3 6.2 21.2 11.5 5.8 5.8 8.7 13.6 7.9 21.8 0 25.9-22.4 35.4-46 35.4-27.4 0-47.7-12.7-49.4-39.1h18.1z"/><path d="m459.9 121 36.9-37h-20.3l-45.6 46.1v-83.1h-16.6v134.5h16.6v-33.3l17-16.9 29.5 50.2h19.9z"/></g></svg>