<svg id="Layer_1" xmlns="http://www.w3.org/2000/svg" viewBox="0 0 508 100"><style>.st2{enable-background:new}.st3{fill:#fff}</style><path d="M8 0h492c4.4 0 8 3.6 8 8v84c0 4.4-3.6 8-8 8H8c-4.4 0-8-3.6-8-8V8c0-4.4 3.6-8 8-8z" fill="#232b3a"/><path d="M8.5.5h491c4.4 0 8 3.6 8 8v83c0 4.4-3.6 8-8 8H8.5c-4.4 0-8-3.6-8-8v-83c0-4.4 3.6-8 8-8z" fill="none" stroke="#000" stroke-opacity=".35"/><g class="st2"><path class="st3" d="M28.6 50.8L41.3 56l-.9 2.8L25 52.2v-2.8l15.4-6.6.9 2.8-12.7 5.2z"/></g><path d="M57.7 61c-.4-.9-.7-1.7-1-2.5-.3-.7-.6-1.5-.9-2.2-.3-.7-.6-1.5-.8-2.3s-.6-1.7-1-2.8c-.4 1-.7 2-1 2.8-.3.8-.6 1.6-.9 2.3-.3.7-.6 1.5-.9 2.2-.3.7-.7 1.6-1.1 2.5h-2.5c-.7-3.3-1.4-6.5-1.9-9.7-.5-3.2-.9-6.2-1.1-8.8h3.1c.1 1 .2 2.1.3 3.1.1 1 .2 2 .3 3.1.1 1.1.3 2.3.5 3.6.2 1.3.4 2.7.6 4.3.4-1.1.8-2 1.1-2.8.3-.8.6-1.6.8-2.3.2-.7.5-1.5.7-2.2.2-.7.5-1.6.7-2.5h2.5c.3.9.5 1.8.7 2.5.2.7.4 1.5.7 2.2.2.7.5 1.5.8 2.3.3.8.6 1.7 1 2.8.2-1.5.5-2.8.6-4.1.2-1.3.3-2.4.5-3.5.1-1.1.3-2.2.4-3.2.1-1 .2-2.1.3-3.2h3c-.1 1.3-.3 2.8-.5 4.3s-.4 3.1-.7 4.7c-.3 1.6-.6 3.2-.9 4.9-.3 1.6-.7 3.2-1 4.7h-2.4zm17-18.6h7.8v2.8h-7.8v8.6c0 .9.1 1.7.2 2.3.1.6.4 1.1.7 1.4.3.4.7.6 1.2.7.5.1 1.1.2 1.8.2 1 0 1.7-.1 2.3-.2.6-.2 1.1-.4 1.7-.6l.5 2.8c-.4.2-1 .4-1.8.6-.8.3-1.8.4-3 .4-1.4 0-2.5-.2-3.4-.5-.9-.3-1.6-.8-2.1-1.4-.5-.6-.8-1.4-1-2.4-.2-.9-.3-2-.3-3.3v-8.6h-3.9v-2.8h3.9v-5.2l3.3-.6v5.8zm25.1 16.9c-.4.2-.9.4-1.7.7-.8.2-1.7.4-2.7.4-1.1 0-2.1-.2-3.1-.5-.9-.4-1.8-.9-2.5-1.6-.7-.7-1.3-1.7-1.7-2.8-.4-1.1-.6-2.5-.6-4 0-1.4.2-2.6.6-3.7.4-1.1.9-2.1 1.7-2.9.7-.8 1.6-1.5 2.7-1.9 1.1-.5 2.3-.7 3.6-.7 1.6 0 3 .1 4.1.3 1.1.2 2.1.4 2.9.7v16.6c0 2.9-.7 5-2.2 6.2-1.5 1.3-3.6 1.9-6.6 1.9-1.2 0-2.3-.1-3.3-.3-1-.2-1.8-.4-2.6-.7l.6-2.9c.7.3 1.5.5 2.4.7.9.2 1.9.3 2.9.3 1.9 0 3.3-.4 4.1-1.2.8-.8 1.2-2 1.2-3.8v-.8zm0-13.9c-.3-.1-.8-.2-1.3-.3-.6-.1-1.3-.1-2.3-.1-1.7 0-3 .6-3.9 1.8-.9 1.2-1.3 2.7-1.3 4.7 0 1.1.1 2 .4 2.7.3.8.6 1.4 1 1.9s.9.9 1.5 1.1c.6.2 1.2.3 1.8.3.8 0 1.6-.1 2.3-.4.7-.2 1.3-.5 1.8-.8V45.4zm16.9-3h7.8v2.8h-7.8v8.6c0 .9.1 1.7.2 2.3.1.6.4 1.1.7 1.4.3.4.7.6 1.2.7.5.1 1.1.2 1.8.2 1 0 1.7-.1 2.3-.2.6-.2 1.1-.4 1.7-.6l.5 2.8c-.4.2-1 .4-1.8.6-.8.3-1.8.4-3 .4-1.4 0-2.5-.2-3.4-.5-.9-.3-1.6-.8-2.1-1.4-.5-.6-.8-1.4-1-2.4-.2-.9-.3-2-.3-3.3v-8.6h-3.9v-2.8h3.9v-5.2l3.3-.6v5.8zM130 64.5c.2.1.6.2 1 .3s.8.1 1.2.1c1.3 0 2.3-.3 3.1-.9s1.4-1.5 2-2.8c-1.5-2.8-2.9-5.9-4.2-9.1-1.3-3.2-2.4-6.5-3.2-9.7h3.6c.3 1.1.6 2.2.9 3.5.4 1.2.8 2.5 1.2 3.8.5 1.3.9 2.6 1.5 3.9s1.1 2.6 1.7 3.8l1.2-3.6c.4-1.2.7-2.4 1-3.6.3-1.2.6-2.5 1-3.7s.7-2.6 1-4h3.4c-.9 3.5-1.8 6.8-2.9 10.1-1.1 3.3-2.2 6.3-3.4 9-.5 1.1-.9 2-1.5 2.8-.5.8-1.1 1.4-1.7 1.9-.6.5-1.3.9-2.1 1.1-.8.2-1.7.4-2.6.4-.5 0-1.1-.1-1.7-.2-.6-.1-1-.3-1.2-.4l.7-2.7zm25.2-21.4c.4-.2 1-.5 1.7-.7.8-.3 1.6-.4 2.5-.4 1.3 0 2.4.2 3.4.7 1 .5 1.8 1.1 2.5 2 .7.9 1.2 1.9 1.6 3.1.4 1.2.5 2.5.5 3.9 0 1.5-.2 2.8-.6 4-.4 1.2-1 2.2-1.8 3.1-.8.8-1.7 1.5-2.8 1.9-1.1.5-2.3.7-3.6.7-1.5 0-2.8-.1-3.9-.3-1.1-.2-2.1-.4-2.8-.6V33.8l3.3-.6v9.9zm0 15l1.5.3c.5.1 1 .1 1.4.1 1.8 0 3.3-.6 4.3-1.7s1.6-2.8 1.6-5.1c0-1-.1-1.9-.3-2.7-.2-.8-.5-1.6-.9-2.2-.4-.6-.9-1.1-1.5-1.4s-1.4-.5-2.3-.5c-.8 0-1.5.2-2.2.5-.7.3-1.3.6-1.6 1v11.7zm17.6 2.9V33.8l3.3-.6v9.4c.5-.2 1.1-.4 1.8-.5.7-.1 1.3-.2 2-.2 1.4 0 2.6.2 3.5.6.9.4 1.7 1 2.3 1.7.6.7 1 1.6 1.2 2.7.2 1 .4 2.2.4 3.4V61H184v-9.8c0-2.3-.3-3.9-1-4.9-.6-.9-1.8-1.4-3.4-1.4-.7 0-1.4.1-2 .2-.7.1-1.1.3-1.4.4V61h-3.4zm28.6-19c2.5 0 4.4.8 5.8 2.3 1.4 1.6 2 3.9 2 7.1v1.2h-13.3c.1 1.9.8 3.4 1.9 4.4 1.1 1 2.7 1.5 4.8 1.5 1.2 0 2.2-.1 3-.3.8-.2 1.5-.4 1.9-.6l.4 2.8c-.4.2-1.1.4-2.2.7-1 .2-2.2.4-3.5.4-1.6 0-3-.2-4.2-.7-1.2-.5-2.2-1.2-3-2-.8-.9-1.4-1.9-1.8-3.1-.4-1.2-.6-2.5-.6-3.9 0-1.7.3-3.1.8-4.3.5-1.2 1.2-2.2 2-3 .8-.8 1.8-1.4 2.8-1.8 1-.5 2.1-.7 3.2-.7zm4.4 7.9c0-1.6-.4-2.8-1.2-3.7-.8-.9-1.9-1.4-3.3-1.4-.8 0-1.5.1-2.1.4-.6.3-1.2.7-1.6 1.2-.5.5-.8 1-1.1 1.6-.3.6-.4 1.2-.5 1.9h9.8zM216.3 61V43.4c2.7-.9 5.5-1.4 8.2-1.4.9 0 1.7 0 2.4.1.8.1 1.6.2 2.6.4l-.6 2.9c-.9-.2-1.6-.4-2.3-.5-.7-.1-1.4-.1-2.1-.1-1.6 0-3.3.2-5 .7V61h-3.2zm26.4-18.6h7.8v2.8h-7.8v8.6c0 .9.1 1.7.2 2.3.1.6.4 1.1.7 1.4.3.4.7.6 1.2.7.5.1 1.1.2 1.8.2 1 0 1.7-.1 2.3-.2.6-.2 1.1-.4 1.7-.6l.5 2.8c-.4.2-1 .4-1.8.6-.8.3-1.8.4-3 .4-1.4 0-2.5-.2-3.4-.5-.9-.3-1.6-.8-2.1-1.4-.5-.6-.8-1.4-1-2.4-.2-.9-.3-2-.3-3.3v-8.6h-3.9v-2.8h3.9v-5.2l3.3-.6v5.8zm25.1 16.9c-.4.2-.9.4-1.7.7-.8.2-1.7.4-2.7.4-1.1 0-2.1-.2-3.1-.5-.9-.4-1.8-.9-2.5-1.6-.7-.7-1.3-1.7-1.7-2.8-.4-1.1-.6-2.5-.6-4 0-1.4.2-2.6.6-3.7.4-1.1.9-2.1 1.7-2.9.7-.8 1.6-1.5 2.7-1.9 1.1-.5 2.3-.7 3.6-.7 1.6 0 3 .1 4.1.3s2.1.4 2.9.7v16.6c0 2.9-.7 5-2.2 6.2-1.5 1.3-3.6 1.9-6.6 1.9-1.2 0-2.3-.1-3.3-.3-1-.2-1.8-.4-2.6-.7l.6-2.9c.7.3 1.5.5 2.4.7s1.9.3 2.9.3c1.9 0 3.3-.4 4.1-1.2s1.2-2 1.2-3.8v-.8zm0-13.9c-.3-.1-.8-.2-1.3-.3-.6-.1-1.3-.1-2.3-.1-1.7 0-3 .6-3.9 1.8-.9 1.2-1.3 2.7-1.3 4.7 0 1.1.1 2 .4 2.7.3.8.6 1.4 1 1.9s.9.9 1.5 1.1c.6.2 1.2.3 1.8.3.8 0 1.6-.1 2.3-.4.7-.2 1.3-.5 1.8-.8V45.4zm17.6-3.4c2.5 0 4.4.8 5.8 2.3 1.4 1.6 2 3.9 2 7.1v1.2h-13.3c.1 1.9.8 3.4 1.9 4.4 1.1 1 2.7 1.5 4.8 1.5 1.2 0 2.2-.1 3-.3s1.5-.4 1.9-.6l.4 2.8c-.4.2-1.1.4-2.2.7-1 .2-2.2.4-3.5.4-1.6 0-3-.2-4.2-.7s-2.2-1.2-3-2c-.8-.9-1.4-1.9-1.8-3.1-.4-1.2-.6-2.5-.6-3.9 0-1.7.3-3.1.8-4.3.5-1.2 1.2-2.2 2-3 .8-.8 1.8-1.4 2.8-1.8 1-.5 2.1-.7 3.2-.7zm4.4 7.9c0-1.6-.4-2.8-1.2-3.7s-1.9-1.4-3.3-1.4c-.8 0-1.5.1-2.1.4-.6.3-1.2.7-1.6 1.2-.5.5-.8 1-1.1 1.6s-.4 1.2-.5 1.9h9.8zm20 9.4c-.4.2-.9.4-1.7.7-.8.2-1.7.4-2.7.4-1.1 0-2.1-.2-3.1-.5-.9-.4-1.8-.9-2.5-1.6-.7-.7-1.3-1.7-1.7-2.8-.4-1.1-.6-2.5-.6-4 0-1.4.2-2.6.6-3.7.4-1.1.9-2.1 1.7-2.9.7-.8 1.6-1.5 2.7-1.9 1.1-.5 2.3-.7 3.6-.7 1.6 0 3 .1 4.1.3s2.1.4 2.9.7v16.6c0 2.9-.7 5-2.2 6.2-1.5 1.3-3.6 1.9-6.6 1.9-1.2 0-2.3-.1-3.3-.3-1-.2-1.8-.4-2.6-.7l.6-2.9c.7.3 1.5.5 2.4.7s1.9.3 2.9.3c1.9 0 3.3-.4 4.1-1.2s1.2-2 1.2-3.8v-.8zm0-13.9c-.3-.1-.8-.2-1.3-.3-.6-.1-1.3-.1-2.3-.1-1.7 0-3 .6-3.9 1.8-.9 1.2-1.3 2.7-1.3 4.7 0 1.1.1 2 .4 2.7.3.8.6 1.4 1 1.9s.9.9 1.5 1.1c.6.2 1.2.3 1.8.3.8 0 1.6-.1 2.3-.4.7-.2 1.3-.5 1.8-.8V45.4zm10 15.6V33.8l3.3-.6v9.4c.5-.2 1.1-.4 1.8-.5s1.3-.2 2-.2c1.4 0 2.6.2 3.5.6.9.4 1.7 1 2.3 1.7.6.7 1 1.6 1.2 2.7s.4 2.2.4 3.4V61H331v-9.8c0-2.3-.3-3.9-1-4.9-.6-.9-1.8-1.4-3.4-1.4-.7 0-1.4.1-2 .2-.7.1-1.1.3-1.4.4V61h-3.4zm32-1.7c-.4.2-.9.4-1.7.7-.8.2-1.7.4-2.7.4-1.1 0-2.1-.2-3.1-.5-.9-.4-1.8-.9-2.5-1.6-.7-.7-1.3-1.7-1.7-2.8-.4-1.1-.6-2.5-.6-4 0-1.4.2-2.6.6-3.7.4-1.1.9-2.1 1.7-2.9.7-.8 1.6-1.5 2.7-1.9 1.1-.5 2.3-.7 3.6-.7 1.6 0 3 .1 4.1.3s2.1.4 2.9.7v16.6c0 2.9-.7 5-2.2 6.2-1.5 1.3-3.6 1.9-6.6 1.9-1.2 0-2.3-.1-3.3-.3-1-.2-1.8-.4-2.6-.7l.6-2.9c.7.3 1.5.5 2.4.7s1.9.3 2.9.3c1.9 0 3.3-.4 4.1-1.2s1.2-2 1.2-3.8v-.8zm0-13.9c-.3-.1-.8-.2-1.3-.3-.6-.1-1.3-.1-2.3-.1-1.7 0-3 .6-3.9 1.8-.9 1.2-1.3 2.7-1.3 4.7 0 1.1.1 2 .4 2.7.3.8.6 1.4 1 1.9s.9.9 1.5 1.1c.6.2 1.2.3 1.8.3.8 0 1.6-.1 2.3-.4.7-.2 1.3-.5 1.8-.8V45.4zm16.9-3h7.8v2.8h-7.8v8.6c0 .9.1 1.7.2 2.3.1.6.4 1.1.7 1.4s.7.6 1.2.7 1.1.2 1.8.2c1 0 1.7-.1 2.3-.2.6-.2 1.1-.4 1.7-.6l.5 2.8c-.4.2-1 .4-1.8.6-.8.3-1.8.4-3 .4-1.4 0-2.5-.2-3.4-.5s-1.6-.8-2.1-1.4c-.5-.6-.8-1.4-1-2.4-.2-.9-.3-2-.3-3.3v-8.6h-3.9v-2.8h3.9v-5.2l3.3-.6v5.8zm25 18.6c-.4-.9-.7-1.7-1-2.5-.3-.7-.6-1.5-.9-2.2-.3-.7-.6-1.5-.8-2.3-.3-.8-.6-1.7-1-2.8-.4 1-.7 2-1 2.8-.3.8-.6 1.6-.9 2.3-.3.7-.6 1.5-.9 2.2-.3.7-.7 1.6-1.1 2.5h-2.5c-.7-3.3-1.4-6.5-1.9-9.7-.5-3.2-.9-6.2-1.1-8.8h3.1c.1 1 .2 2.1.3 3.1.1 1 .2 2 .3 3.1.1 1.1.3 2.3.5 3.6s.4 2.7.6 4.3c.4-1.1.8-2 1.1-2.8s.6-1.6.8-2.3c.2-.7.5-1.5.7-2.2.2-.7.5-1.6.7-2.5h2.5c.3.9.5 1.8.7 2.5.2.7.4 1.5.7 2.2.2.7.5 1.5.8 2.3.3.8.6 1.7 1 2.8.2-1.5.5-2.8.6-4.1.2-1.3.3-2.4.5-3.5s.3-2.2.4-3.2.2-2.1.3-3.2h3c-.1 1.3-.3 2.8-.5 4.3s-.4 3.1-.7 4.7c-.3 1.6-.6 3.2-.9 4.9-.3 1.6-.7 3.2-1 4.7h-2.4zm17-18.6h7.8v2.8h-7.8v8.6c0 .9.1 1.7.2 2.3.1.6.4 1.1.7 1.4s.7.6 1.2.7 1.1.2 1.8.2c1 0 1.7-.1 2.3-.2.6-.2 1.1-.4 1.7-.6l.5 2.8c-.4.2-1 .4-1.8.6-.8.3-1.8.4-3 .4-1.4 0-2.5-.2-3.4-.5s-1.6-.8-2.1-1.4c-.5-.6-.8-1.4-1-2.4-.2-.9-.3-2-.3-3.3v-8.6h-3.9v-2.8h3.9v-5.2l3.3-.6v5.8zm25.1 16.9c-.4.2-.9.4-1.7.7-.8.2-1.7.4-2.7.4-1.1 0-2.1-.2-3.1-.5-.9-.4-1.8-.9-2.5-1.6-.7-.7-1.3-1.7-1.7-2.8-.4-1.1-.6-2.5-.6-4 0-1.4.2-2.6.6-3.7.4-1.1.9-2.1 1.7-2.9.7-.8 1.6-1.5 2.7-1.9 1.1-.5 2.3-.7 3.6-.7 1.6 0 3 .1 4.1.3s2.1.4 2.9.7v16.6c0 2.9-.7 5-2.2 6.2-1.5 1.3-3.6 1.9-6.6 1.9-1.2 0-2.3-.1-3.3-.3-1-.2-1.8-.4-2.6-.7l.6-2.9c.7.3 1.5.5 2.4.7s1.9.3 2.9.3c1.9 0 3.3-.4 4.1-1.2s1.2-2 1.2-3.8v-.8zm0-13.9c-.3-.1-.8-.2-1.3-.3-.6-.1-1.3-.1-2.3-.1-1.7 0-3 .6-3.9 1.8-.9 1.2-1.3 2.7-1.3 4.7 0 1.1.1 2 .4 2.7.3.8.6 1.4 1 1.9s.9.9 1.5 1.1c.6.2 1.2.3 1.8.3.8 0 1.6-.1 2.3-.4.7-.2 1.3-.5 1.8-.8V45.4z" fill="#00ff95"/><g class="st2"><path class="st3" d="M449.2 67.6h-3.4L456.9 33h3.3l-11 34.6zm16.8-22l.9-2.8 15.4 6.6v2.8l-15.4 6.6-.9-2.8 12.7-5.2-12.7-5.2z"/></g></svg>